%TF.GenerationSoftware,KiCad,Pcbnew,(5.1.9)-1*%
%TF.CreationDate,2022-08-25T12:46:07+02:00*%
%TF.ProjectId,electric_angle_actuator,656c6563-7472-4696-935f-616e676c655f,rev?*%
%TF.SameCoordinates,Original*%
%TF.FileFunction,Copper,L4,Bot*%
%TF.FilePolarity,Positive*%
%FSLAX46Y46*%
G04 Gerber Fmt 4.6, Leading zero omitted, Abs format (unit mm)*
G04 Created by KiCad (PCBNEW (5.1.9)-1) date 2022-08-25 12:46:07*
%MOMM*%
%LPD*%
G01*
G04 APERTURE LIST*
%TA.AperFunction,ComponentPad*%
%ADD10C,1.524000*%
%TD*%
%TA.AperFunction,ComponentPad*%
%ADD11O,1.200000X1.900000*%
%TD*%
%TA.AperFunction,ComponentPad*%
%ADD12C,1.450000*%
%TD*%
%TA.AperFunction,SMDPad,CuDef*%
%ADD13R,0.450000X1.750000*%
%TD*%
%TA.AperFunction,ComponentPad*%
%ADD14O,1.700000X1.700000*%
%TD*%
%TA.AperFunction,ComponentPad*%
%ADD15R,1.700000X1.700000*%
%TD*%
%TA.AperFunction,ComponentPad*%
%ADD16R,2.600000X2.600000*%
%TD*%
%TA.AperFunction,ComponentPad*%
%ADD17C,2.600000*%
%TD*%
%TA.AperFunction,ViaPad*%
%ADD18C,0.800000*%
%TD*%
%TA.AperFunction,ViaPad*%
%ADD19C,0.700000*%
%TD*%
%TA.AperFunction,Conductor*%
%ADD20C,0.250000*%
%TD*%
%TA.AperFunction,Conductor*%
%ADD21C,0.500000*%
%TD*%
%TA.AperFunction,Conductor*%
%ADD22C,2.000000*%
%TD*%
%TA.AperFunction,Conductor*%
%ADD23C,0.300000*%
%TD*%
G04 APERTURE END LIST*
D10*
%TO.P,REF\u002A\u002A,1*%
%TO.N,N/C*%
X196400000Y-98400000D03*
%TD*%
%TO.P,REF\u002A\u002A,1*%
%TO.N,N/C*%
X133600000Y-98600000D03*
%TD*%
%TO.P,REF\u002A\u002A,1*%
%TO.N,N/C*%
X128400000Y-65200000D03*
%TD*%
D11*
%TO.P,J1,6*%
%TO.N,Net-(J1-Pad6)*%
X142143600Y-59976500D03*
X149143600Y-59976500D03*
D12*
X143143600Y-62676500D03*
X148143600Y-62676500D03*
%TD*%
D13*
%TO.P,U3,28*%
%TO.N,SPI2_SCK*%
X144077400Y-74276400D03*
%TO.P,U3,27*%
%TO.N,N/C*%
X143427400Y-74276400D03*
%TO.P,U3,26*%
X142777400Y-74276400D03*
%TO.P,U3,25*%
X142127400Y-74276400D03*
%TO.P,U3,24*%
%TO.N,I2C1_SCL*%
X141477400Y-74276400D03*
%TO.P,U3,23*%
%TO.N,I2C1_SDA*%
X140827400Y-74276400D03*
%TO.P,U3,22*%
%TO.N,ZEROING_PIN*%
X140177400Y-74276400D03*
%TO.P,U3,21*%
%TO.N,PSM*%
X139527400Y-74276400D03*
%TO.P,U3,20*%
%TO.N,V_OUT*%
X138877400Y-74276400D03*
%TO.P,U3,19*%
%TO.N,Net-(U3-Pad19)*%
X138227400Y-74276400D03*
%TO.P,U3,18*%
%TO.N,Net-(U3-Pad18)*%
X137577400Y-74276400D03*
%TO.P,U3,17*%
%TO.N,MAGNET_PRESENCE*%
X136927400Y-74276400D03*
%TO.P,U3,16*%
%TO.N,Net-(C12-Pad1)*%
X136277400Y-74276400D03*
%TO.P,U3,15*%
%TO.N,GND*%
X135627400Y-74276400D03*
%TO.P,U3,14*%
%TO.N,Net-(C11-Pad1)*%
X135627400Y-81476400D03*
%TO.P,U3,13*%
%TO.N,+3V3*%
X136277400Y-81476400D03*
%TO.P,U3,12*%
%TO.N,Net-(C14-Pad2)*%
X136927400Y-81476400D03*
%TO.P,U3,11*%
%TO.N,Net-(C9-Pad1)*%
X137577400Y-81476400D03*
%TO.P,U3,10*%
%TO.N,Net-(C6-Pad1)*%
X138227400Y-81476400D03*
%TO.P,U3,9*%
%TO.N,Net-(U3-Pad9)*%
X138877400Y-81476400D03*
%TO.P,U3,8*%
%TO.N,TURN_DIR_PIN*%
X139527400Y-81476400D03*
%TO.P,U3,7*%
%TO.N,U_PIN*%
X140177400Y-81476400D03*
%TO.P,U3,6*%
%TO.N,V_PIN*%
X140827400Y-81476400D03*
%TO.P,U3,5*%
%TO.N,W_PIN*%
X141477400Y-81476400D03*
%TO.P,U3,4*%
%TO.N,ENC_INC_A*%
X142127400Y-81476400D03*
%TO.P,U3,3*%
%TO.N,ENC_INC_B*%
X142777400Y-81476400D03*
%TO.P,U3,2*%
%TO.N,ENC_INC_Ri*%
X143427400Y-81476400D03*
%TO.P,U3,1*%
%TO.N,SPI2_MISO*%
X144077400Y-81476400D03*
%TD*%
D14*
%TO.P,J2,26*%
%TO.N,+3V3*%
X179768500Y-93345000D03*
%TO.P,J2,25*%
%TO.N,ADC1_IN0*%
X179768500Y-95885000D03*
%TO.P,J2,24*%
%TO.N,SD2*%
X177228500Y-93345000D03*
%TO.P,J2,23*%
%TO.N,SD1*%
X177228500Y-95885000D03*
%TO.P,J2,22*%
%TO.N,DIRECTION*%
X174688500Y-93345000D03*
%TO.P,J2,21*%
%TO.N,HIN_2*%
X174688500Y-95885000D03*
%TO.P,J2,20*%
X172148500Y-93345000D03*
%TO.P,J2,19*%
%TO.N,HIN_1*%
X172148500Y-95885000D03*
%TO.P,J2,18*%
X169608500Y-93345000D03*
%TO.P,J2,17*%
%TO.N,GND*%
X169608500Y-95885000D03*
%TO.P,J2,16*%
%TO.N,ADC1_IN1*%
X167068500Y-93345000D03*
%TO.P,J2,15*%
%TO.N,GND*%
X167068500Y-95885000D03*
%TO.P,J2,14*%
%TO.N,INPUT_IT_1*%
X164528500Y-93345000D03*
%TO.P,J2,13*%
%TO.N,+5V*%
X164528500Y-95885000D03*
%TO.P,J2,12*%
%TO.N,INPUT_IT_2*%
X161988500Y-93345000D03*
%TO.P,J2,11*%
%TO.N,GND*%
X161988500Y-95885000D03*
%TO.P,J2,10*%
%TO.N,INPUT_IT_3*%
X159448500Y-93345000D03*
%TO.P,J2,9*%
%TO.N,+3V3*%
X159448500Y-95885000D03*
%TO.P,J2,8*%
%TO.N,POSITION_INDICATOR_4*%
X156908500Y-93345000D03*
%TO.P,J2,7*%
%TO.N,GND*%
X156908500Y-95885000D03*
%TO.P,J2,6*%
%TO.N,POSITION_INDICATOR_3*%
X154368500Y-93345000D03*
%TO.P,J2,5*%
%TO.N,GND*%
X154368500Y-95885000D03*
%TO.P,J2,4*%
%TO.N,POSITION_INDICATOR_2*%
X151828500Y-93345000D03*
%TO.P,J2,3*%
%TO.N,GND*%
X151828500Y-95885000D03*
%TO.P,J2,2*%
%TO.N,POSITION_INDICATOR_1*%
X149288500Y-93345000D03*
D15*
%TO.P,J2,1*%
%TO.N,GND*%
X149288500Y-95885000D03*
%TD*%
D16*
%TO.P,J4,1*%
%TO.N,V_in*%
X192786000Y-72136000D03*
D17*
%TO.P,J4,2*%
%TO.N,GND*%
X192786000Y-67056000D03*
%TO.P,J4,3*%
%TO.N,+5V*%
X192786000Y-61976000D03*
%TD*%
D16*
%TO.P,J5,1*%
%TO.N,CAN_L*%
X192786000Y-96774000D03*
D17*
%TO.P,J5,2*%
%TO.N,CAN_H*%
X192786000Y-91694000D03*
%TD*%
D18*
%TO.N,GND*%
X149230000Y-80780000D03*
X155318887Y-80876400D03*
X148237877Y-81946850D03*
X146558000Y-85090000D03*
D19*
X147050627Y-87162484D03*
D18*
X143256000Y-86487000D03*
X140462000Y-87757000D03*
X140716000Y-86614000D03*
X146939000Y-90170000D03*
X151765000Y-90373780D03*
X139319000Y-91440000D03*
X138430000Y-89789000D03*
X136144000Y-92710000D03*
X137414000Y-94107000D03*
X138049000Y-83693000D03*
X143145050Y-67425622D03*
X148045000Y-67654000D03*
X150495000Y-66294000D03*
X162814000Y-60706000D03*
X161798000Y-60706000D03*
X160782000Y-60706000D03*
X167005000Y-60706000D03*
X168148000Y-60706000D03*
X169291000Y-60706000D03*
X151511000Y-71755000D03*
X154051000Y-72898000D03*
X155321000Y-72898000D03*
X159385000Y-77089000D03*
X160655000Y-77089000D03*
X134112000Y-60198000D03*
X142171847Y-69029153D03*
X143256000Y-65151000D03*
X144346964Y-79166855D03*
D19*
X133880000Y-72570000D03*
X134890000Y-72850000D03*
X137380000Y-70340000D03*
X135060000Y-79355000D03*
X129040000Y-78410000D03*
X129890000Y-78450000D03*
X129100000Y-81790000D03*
X129120000Y-82890000D03*
X129570000Y-86400000D03*
X134430000Y-87230000D03*
X135270000Y-87200000D03*
X195090000Y-65860000D03*
X195990000Y-65880000D03*
X197020000Y-65870000D03*
X195100000Y-66890000D03*
X196040000Y-66820000D03*
X197050000Y-66910000D03*
X195100000Y-67920000D03*
X196040000Y-67950000D03*
X197020000Y-68010000D03*
X187050000Y-84120000D03*
X187040000Y-83120000D03*
X187050000Y-81860000D03*
X187050000Y-80920000D03*
D18*
X176530000Y-86360000D03*
X177292000Y-86995000D03*
X178562000Y-86995000D03*
%TO.N,+3V3*%
X148590000Y-90373780D03*
X140843000Y-91313000D03*
X141097000Y-84455000D03*
X155321000Y-63627000D03*
X151892000Y-62611000D03*
X153035000Y-62611000D03*
X154178000Y-62611000D03*
X155321000Y-62611000D03*
X156464000Y-62611000D03*
X157480000Y-62611000D03*
X151892000Y-63627000D03*
X153035000Y-63627000D03*
X154178000Y-63627000D03*
X156464000Y-63627000D03*
X157480000Y-63627000D03*
X141097000Y-69215000D03*
X140716000Y-68326000D03*
X140844210Y-65403790D03*
X154559000Y-71882000D03*
X152527000Y-72136000D03*
X137795000Y-60198000D03*
X139700000Y-85852000D03*
D19*
X133340000Y-80030000D03*
X133570000Y-79180000D03*
X135930000Y-78880000D03*
X149470000Y-79480000D03*
X139573000Y-84836000D03*
X139038952Y-83551579D03*
D18*
%TO.N,+5V*%
X167132000Y-67564000D03*
X168529000Y-67564000D03*
D19*
X168529000Y-66641000D03*
X167642500Y-66672500D03*
X144000000Y-99250000D03*
X157620000Y-84950000D03*
X156220000Y-87980000D03*
X146450000Y-94450000D03*
D18*
%TO.N,CAN_H*%
X179038500Y-98271000D03*
%TO.N,SWCLK*%
X136042400Y-68630800D03*
X136042400Y-65582800D03*
%TO.N,NRST*%
X135737600Y-60756800D03*
D19*
X147421600Y-86309200D03*
D18*
%TO.N,SPI2_SCK*%
X149346800Y-74138716D03*
X141071600Y-71870000D03*
%TO.N,I2C1_SCL*%
X144081500Y-75946000D03*
D19*
%TO.N,I2C1_SDA*%
X142940000Y-78350000D03*
%TO.N,ZEROING_PIN*%
X141859000Y-77343000D03*
D18*
%TO.N,PSM*%
X139509500Y-72644000D03*
%TO.N,V_OUT*%
X148945600Y-77622400D03*
%TO.N,MAGNET_PRESENCE*%
X149758400Y-81838800D03*
%TO.N,TURN_DIR_PIN*%
X140004800Y-83261200D03*
%TO.N,U_PIN*%
X136017810Y-77896076D03*
%TO.N,V_PIN*%
X135892714Y-76903929D03*
%TO.N,W_PIN*%
X135445500Y-76009500D03*
D19*
%TO.N,ENC_INC_A*%
X142120000Y-79930000D03*
D18*
%TO.N,ENC_INC_B*%
X145300000Y-75946000D03*
%TO.N,ENC_INC_Ri*%
X146050000Y-74041000D03*
%TO.N,SPI2_MISO*%
X144589500Y-80137000D03*
%TO.N,CAN_SILENT_MODE*%
X143346800Y-85140800D03*
X141732000Y-94488000D03*
%TO.N,HIN_2*%
X148183600Y-68834000D03*
%TO.N,DIRECTION*%
X149453600Y-67474400D03*
%TO.N,HIN_1*%
X149922302Y-68974400D03*
%TO.N,INPUT_IT_3*%
X153670000Y-74980800D03*
%TO.N,INPUT_IT_2*%
X154787600Y-75031600D03*
%TO.N,INPUT_IT_1*%
X156057600Y-75031600D03*
%TO.N,SD2*%
X155240677Y-78121877D03*
X162306000Y-88595200D03*
%TO.N,SD1*%
X154584400Y-78876400D03*
X165506400Y-89560400D03*
%TO.N,ADC1_IN1*%
X161899600Y-86969600D03*
%TO.N,POSITION_INDICATOR_4*%
X147566194Y-81206009D03*
%TO.N,POSITION_INDICATOR_3*%
X146841194Y-80207060D03*
%TO.N,POSITION_INDICATOR_2*%
X145993872Y-80738143D03*
%TO.N,POSITION_INDICATOR_1*%
X145352401Y-82042000D03*
D19*
%TO.N,Net-(C6-Pad1)*%
X135825000Y-84430000D03*
%TO.N,Net-(C11-Pad1)*%
X132860000Y-81080000D03*
%TO.N,Net-(C9-Pad1)*%
X134710000Y-84380000D03*
%TO.N,Net-(C12-Pad1)*%
X136120000Y-72470000D03*
%TO.N,Net-(C14-Pad2)*%
X133460000Y-84080000D03*
%TD*%
D20*
%TO.N,GND*%
X135627400Y-73587400D02*
X134890000Y-72850000D01*
X135627400Y-74276400D02*
X135627400Y-73587400D01*
%TO.N,+3V3*%
X136277400Y-80351400D02*
X135956000Y-80030000D01*
X136277400Y-81476400D02*
X136277400Y-80351400D01*
X134420000Y-80030000D02*
X134480000Y-80030000D01*
X133570000Y-79180000D02*
X134420000Y-80030000D01*
X134480000Y-80030000D02*
X133340000Y-80030000D01*
X135956000Y-80030000D02*
X134480000Y-80030000D01*
D21*
%TO.N,+5V*%
X167132000Y-67183000D02*
X167132000Y-67564000D01*
X168529000Y-65786000D02*
X167642500Y-66672500D01*
X168529000Y-65786000D02*
X168529000Y-66641000D01*
D22*
X192786000Y-61976000D02*
X190652000Y-64110000D01*
X190652000Y-64110000D02*
X188870000Y-64110000D01*
X188870000Y-64110000D02*
X187194000Y-65786000D01*
X168529000Y-65786000D02*
X168529000Y-66291000D01*
X168529000Y-66291000D02*
X167710000Y-67110000D01*
X187194000Y-65786000D02*
X182896000Y-65786000D01*
X182896000Y-65786000D02*
X168529000Y-65786000D01*
D21*
X168529000Y-66641000D02*
X168529000Y-67564000D01*
X167642500Y-66672500D02*
X167132000Y-67183000D01*
X160547502Y-99250000D02*
X161777502Y-98020000D01*
X162393500Y-98020000D02*
X164528500Y-95885000D01*
X161777502Y-98020000D02*
X162393500Y-98020000D01*
X157620000Y-86580000D02*
X156220000Y-87980000D01*
X157620000Y-84950000D02*
X157620000Y-86580000D01*
X146450000Y-97580000D02*
X144780000Y-99250000D01*
X146450000Y-94450000D02*
X146450000Y-97580000D01*
X144780000Y-99250000D02*
X160547502Y-99250000D01*
X144000000Y-99250000D02*
X144780000Y-99250000D01*
D23*
%TO.N,CAN_H*%
X190380000Y-94100000D02*
X192786000Y-91694000D01*
X182000000Y-94100000D02*
X190380000Y-94100000D01*
X181100000Y-95000000D02*
X182000000Y-94100000D01*
X181100000Y-96775185D02*
X181100000Y-95000000D01*
X179604185Y-98271000D02*
X181100000Y-96775185D01*
X179038500Y-98271000D02*
X179604185Y-98271000D01*
D20*
%TO.N,SWCLK*%
X136042400Y-68630800D02*
X136042400Y-65582800D01*
%TO.N,NRST*%
X151003000Y-83058000D02*
X147421600Y-86309200D01*
X151071821Y-73374850D02*
X151071821Y-82989179D01*
X147841951Y-70144980D02*
X151071821Y-73374850D01*
X144560095Y-70144980D02*
X147841951Y-70144980D01*
X135737600Y-61322485D02*
X144560095Y-70144980D01*
X151071821Y-82989179D02*
X151003000Y-83058000D01*
X135737600Y-60756800D02*
X135737600Y-61322485D01*
D23*
%TO.N,SPI2_SCK*%
X148499083Y-73290999D02*
X149346800Y-74138716D01*
X145062801Y-73290999D02*
X148499083Y-73290999D01*
X144077400Y-74276400D02*
X145062801Y-73290999D01*
X142846000Y-71870000D02*
X141071600Y-71870000D01*
X144077400Y-73101400D02*
X142846000Y-71870000D01*
X144077400Y-74276400D02*
X144077400Y-73101400D01*
%TO.N,I2C1_SCL*%
X143763400Y-75627900D02*
X144081500Y-75946000D01*
X141477400Y-74929400D02*
X141552399Y-75004399D01*
X141477400Y-74276400D02*
X141477400Y-74929400D01*
X141748898Y-75627900D02*
X143763400Y-75627900D01*
X141552399Y-75431401D02*
X141748898Y-75627900D01*
X141552399Y-75004399D02*
X141552399Y-75431401D01*
%TO.N,I2C1_SDA*%
X142080002Y-76454000D02*
X141922500Y-76454000D01*
X140827400Y-75676400D02*
X140827400Y-74276400D01*
X141605000Y-76454000D02*
X140827400Y-75676400D01*
X142080002Y-76454000D02*
X141605000Y-76454000D01*
X142875000Y-77248998D02*
X142080002Y-76454000D01*
X142875000Y-77663880D02*
X142875000Y-77248998D01*
D20*
X142875000Y-78285000D02*
X142940000Y-78350000D01*
X142875000Y-77663880D02*
X142875000Y-78285000D01*
D23*
%TO.N,ZEROING_PIN*%
X140177400Y-74276400D02*
X140177400Y-75661400D01*
X141859000Y-77343000D02*
X141224000Y-77343000D01*
X140177400Y-76296400D02*
X140177400Y-75661400D01*
X141224000Y-77343000D02*
X140177400Y-76296400D01*
%TO.N,PSM*%
X139509500Y-74258500D02*
X139527400Y-74276400D01*
X139509500Y-72644000D02*
X139509500Y-74258500D01*
%TO.N,V_OUT*%
X138759499Y-72283999D02*
X138759499Y-73004001D01*
X147438086Y-71120000D02*
X139923498Y-71120000D01*
X138759499Y-73004001D02*
X138877400Y-73121902D01*
X150096801Y-73778715D02*
X147438086Y-71120000D01*
X139923498Y-71120000D02*
X138759499Y-72283999D01*
X150096801Y-74498717D02*
X150096801Y-73778715D01*
X138877400Y-73121902D02*
X138877400Y-74276400D01*
X148945600Y-75649918D02*
X150096801Y-74498717D01*
X148945600Y-77622400D02*
X148945600Y-75649918D01*
%TO.N,MAGNET_PRESENCE*%
X150596811Y-73571605D02*
X150596811Y-80644789D01*
X147645196Y-70619990D02*
X150596811Y-73571605D01*
X139408810Y-70619990D02*
X147645196Y-70619990D01*
X136927400Y-73101400D02*
X139408810Y-70619990D01*
X136927400Y-74276400D02*
X136927400Y-73101400D01*
X149758400Y-81483200D02*
X149758400Y-81838800D01*
X150596811Y-80644789D02*
X149758400Y-81483200D01*
%TO.N,TURN_DIR_PIN*%
X139527400Y-81476400D02*
X139527400Y-82651400D01*
D20*
X139527400Y-82783800D02*
X139527400Y-82651400D01*
X140004800Y-83261200D02*
X139527400Y-82783800D01*
D23*
%TO.N,U_PIN*%
X136017810Y-77896076D02*
X136761386Y-77152500D01*
X137731500Y-77152500D02*
X140208000Y-79629000D01*
X136761386Y-77152500D02*
X137731500Y-77152500D01*
X140177400Y-79723100D02*
X140177400Y-81476400D01*
X140208000Y-79692500D02*
X140177400Y-79723100D01*
X140208000Y-79629000D02*
X140208000Y-79692500D01*
%TO.N,V_PIN*%
X140827400Y-80301400D02*
X140716000Y-80190000D01*
X140827400Y-81476400D02*
X140827400Y-80301400D01*
X140716000Y-80190000D02*
X140716000Y-79311500D01*
X140716000Y-79311500D02*
X137922000Y-76517500D01*
X136279143Y-76517500D02*
X135892714Y-76903929D01*
X137922000Y-76517500D02*
X136279143Y-76517500D01*
%TO.N,W_PIN*%
X141277399Y-79110899D02*
X141277399Y-79608001D01*
X138176000Y-76009500D02*
X141277399Y-79110899D01*
X135445500Y-76009500D02*
X138176000Y-76009500D01*
D20*
X141477400Y-80441398D02*
X141312401Y-80276399D01*
X141477400Y-81476400D02*
X141477400Y-80441398D01*
X141312401Y-79971401D02*
X141191010Y-79850010D01*
X141312401Y-80276399D02*
X141312401Y-79971401D01*
X141191010Y-79694390D02*
X141277399Y-79608001D01*
X141191010Y-79850010D02*
X141191010Y-79694390D01*
D23*
%TO.N,ENC_INC_A*%
X142127400Y-81476400D02*
X142176500Y-81427300D01*
D20*
X142127400Y-79937400D02*
X142120000Y-79930000D01*
X142127400Y-81476400D02*
X142127400Y-79937400D01*
%TO.N,ENC_INC_B*%
X142777400Y-81476400D02*
X142777400Y-80488600D01*
D23*
X142777400Y-80396398D02*
X143036798Y-80137000D01*
X142777400Y-80488600D02*
X142777400Y-80396398D01*
X143129000Y-80137000D02*
X143579500Y-79686500D01*
X143036798Y-80137000D02*
X143129000Y-80137000D01*
D20*
X143579500Y-79686500D02*
X143579500Y-79259500D01*
X143621963Y-79217037D02*
X143621963Y-78768037D01*
X143579500Y-79259500D02*
X143621963Y-79217037D01*
X144453000Y-77937000D02*
X144453000Y-76793000D01*
X143621963Y-78768037D02*
X144453000Y-77937000D01*
D23*
X145300000Y-75946000D02*
X144453000Y-76793000D01*
%TO.N,ENC_INC_Ri*%
X143477401Y-82701401D02*
X144565099Y-82701401D01*
X143427400Y-82651400D02*
X143477401Y-82701401D01*
X143427400Y-81476400D02*
X143427400Y-82651400D01*
X144565099Y-82701401D02*
X144582401Y-82701401D01*
D20*
X144565099Y-82673703D02*
X144627401Y-82611401D01*
X144565099Y-82701401D02*
X144565099Y-82673703D01*
X144639199Y-80862001D02*
X144937501Y-80862001D01*
X144627401Y-80873799D02*
X144639199Y-80862001D01*
X144627401Y-82611401D02*
X144627401Y-80873799D01*
X145314501Y-80485001D02*
X144937501Y-80862001D01*
X146050000Y-76269002D02*
X145314501Y-77004501D01*
X145314501Y-77004501D02*
X145314501Y-80485001D01*
X146050000Y-74041000D02*
X146050000Y-76269002D01*
D23*
%TO.N,SPI2_MISO*%
X144077400Y-80649100D02*
X144589500Y-80137000D01*
X144077400Y-81476400D02*
X144077400Y-80649100D01*
D20*
%TO.N,CAN_SILENT_MODE*%
X141732000Y-86755600D02*
X141732000Y-94488000D01*
X143346800Y-85140800D02*
X141732000Y-86755600D01*
D23*
%TO.N,HIN_2*%
X148183600Y-68834000D02*
X148793200Y-68224400D01*
X148793200Y-68224400D02*
X162610800Y-68224400D01*
D20*
X172148500Y-77762100D02*
X172148500Y-93345000D01*
X162610800Y-68224400D02*
X172148500Y-77762100D01*
X172148500Y-93345000D02*
X174688500Y-95885000D01*
%TO.N,DIRECTION*%
X175209200Y-92824300D02*
X174688500Y-93345000D01*
X175209200Y-80151035D02*
X175209200Y-92824300D01*
X162532565Y-67474400D02*
X175209200Y-80151035D01*
X149453600Y-67474400D02*
X162532565Y-67474400D01*
%TO.N,HIN_1*%
X149922302Y-68974400D02*
X161735200Y-68974400D01*
X161735200Y-68974400D02*
X164084000Y-71323200D01*
X164084000Y-71323200D02*
X164084000Y-82499200D01*
X169608500Y-88023700D02*
X169608500Y-93345000D01*
X164084000Y-82499200D02*
X169608500Y-88023700D01*
X169608500Y-93345000D02*
X172148500Y-95885000D01*
%TO.N,INPUT_IT_3*%
X156273500Y-90170000D02*
X159448500Y-93345000D01*
X153670000Y-90170000D02*
X156273500Y-90170000D01*
X152654000Y-89154000D02*
X153670000Y-90170000D01*
X152654000Y-75996800D02*
X152654000Y-89154000D01*
X153670000Y-74980800D02*
X152654000Y-75996800D01*
%TO.N,INPUT_IT_2*%
X161988500Y-93345000D02*
X158203900Y-89560400D01*
X154482800Y-89560400D02*
X153212800Y-88290400D01*
X158203900Y-89560400D02*
X154482800Y-89560400D01*
X153212800Y-88290400D02*
X153212800Y-78943200D01*
X153212800Y-76606400D02*
X154787600Y-75031600D01*
X153212800Y-78943200D02*
X153212800Y-76606400D01*
%TO.N,INPUT_IT_1*%
X153859399Y-77229801D02*
X153859399Y-88022599D01*
X156057600Y-75031600D02*
X153859399Y-77229801D01*
X153859399Y-88022599D02*
X154533600Y-88696800D01*
X159880300Y-88696800D02*
X164528500Y-93345000D01*
X154533600Y-88696800D02*
X159880300Y-88696800D01*
%TO.N,SD2*%
X155240677Y-78121877D02*
X160731200Y-83612400D01*
X160731200Y-87020400D02*
X160731200Y-85293200D01*
X162306000Y-88595200D02*
X160731200Y-87020400D01*
X160731200Y-85293200D02*
X160731200Y-85750400D01*
X160731200Y-83612400D02*
X160731200Y-85293200D01*
%TO.N,SD1*%
X154584400Y-78876400D02*
X159969200Y-84261200D01*
X159969200Y-87331402D02*
X162198198Y-89560400D01*
X159969200Y-85750400D02*
X159969200Y-87331402D01*
X159969200Y-84261200D02*
X159969200Y-85750400D01*
X159969200Y-85750400D02*
X159969200Y-86004400D01*
X162198198Y-89560400D02*
X165506400Y-89560400D01*
%TO.N,ADC1_IN1*%
X161899600Y-86969600D02*
X165557200Y-86969600D01*
X167068500Y-88480900D02*
X167068500Y-93345000D01*
X165557200Y-86969600D02*
X167068500Y-88480900D01*
%TO.N,POSITION_INDICATOR_4*%
X147546391Y-81206009D02*
X147291204Y-81461196D01*
X147566194Y-81206009D02*
X147546391Y-81206009D01*
X147291204Y-81461196D02*
X147291203Y-82605607D01*
X147291203Y-82605607D02*
X145433210Y-84463600D01*
X145433210Y-84463600D02*
X145433210Y-89753590D01*
X154662280Y-91098780D02*
X156908500Y-93345000D01*
X146778400Y-91098780D02*
X154662280Y-91098780D01*
X145433210Y-89753590D02*
X146778400Y-91098780D01*
%TO.N,POSITION_INDICATOR_3*%
X152572290Y-91548790D02*
X154368500Y-93345000D01*
X146592000Y-91548790D02*
X152572290Y-91548790D01*
X144983200Y-89939990D02*
X146592000Y-91548790D01*
X144983200Y-84277200D02*
X144983200Y-89939990D01*
X146841194Y-82419206D02*
X144983200Y-84277200D01*
X146841194Y-80207060D02*
X146841194Y-82419206D01*
%TO.N,POSITION_INDICATOR_2*%
X144526000Y-84070496D02*
X146077402Y-82519094D01*
X146077402Y-80821673D02*
X145993872Y-80738143D01*
X146077402Y-82519094D02*
X146077402Y-80821673D01*
X144526000Y-90119200D02*
X144526000Y-84070496D01*
X146405600Y-91998800D02*
X144526000Y-90119200D01*
X150482300Y-91998800D02*
X146405600Y-91998800D01*
X151828500Y-93345000D02*
X150482300Y-91998800D01*
%TO.N,POSITION_INDICATOR_1*%
X145352401Y-82607685D02*
X144071801Y-83888285D01*
X145352401Y-82042000D02*
X145352401Y-82607685D01*
X144071801Y-83888285D02*
X144071801Y-91290601D01*
X146126200Y-93345000D02*
X149288500Y-93345000D01*
X144071801Y-91290601D02*
X146126200Y-93345000D01*
%TO.N,Net-(C6-Pad1)*%
X138227400Y-82441598D02*
X136560000Y-84108998D01*
X138227400Y-81476400D02*
X138227400Y-82441598D01*
X136146002Y-84108998D02*
X135825000Y-84430000D01*
X136560000Y-84108998D02*
X136146002Y-84108998D01*
%TO.N,Net-(C11-Pad1)*%
X133256400Y-81476400D02*
X135627400Y-81476400D01*
X132860000Y-81080000D02*
X133256400Y-81476400D01*
%TO.N,Net-(C9-Pad1)*%
X137600000Y-82130000D02*
X137600000Y-82432588D01*
X137577400Y-82107400D02*
X137600000Y-82130000D01*
X137577400Y-81476400D02*
X137577400Y-82107400D01*
X135431012Y-83658988D02*
X134710000Y-84380000D01*
X136373600Y-83658988D02*
X135431012Y-83658988D01*
X137600000Y-82432588D02*
X136373600Y-83658988D01*
%TO.N,Net-(C12-Pad1)*%
X136277400Y-72627400D02*
X136277400Y-74276400D01*
X136120000Y-72470000D02*
X136277400Y-72627400D01*
%TO.N,Net-(C14-Pad2)*%
X136927400Y-81476400D02*
X136927400Y-82468778D01*
X136927400Y-82468778D02*
X136226178Y-83170000D01*
X136226178Y-83170000D02*
X134280000Y-83170000D01*
X134280000Y-83170000D02*
X133250000Y-84200000D01*
X133340000Y-84200000D02*
X133460000Y-84080000D01*
X133250000Y-84200000D02*
X133340000Y-84200000D01*
%TD*%
M02*
