%TF.GenerationSoftware,KiCad,Pcbnew,(5.1.9)-1*%
%TF.CreationDate,2022-08-25T12:46:07+02:00*%
%TF.ProjectId,electric_angle_actuator,656c6563-7472-4696-935f-616e676c655f,rev?*%
%TF.SameCoordinates,Original*%
%TF.FileFunction,Soldermask,Bot*%
%TF.FilePolarity,Negative*%
%FSLAX46Y46*%
G04 Gerber Fmt 4.6, Leading zero omitted, Abs format (unit mm)*
G04 Created by KiCad (PCBNEW (5.1.9)-1) date 2022-08-25 12:46:07*
%MOMM*%
%LPD*%
G01*
G04 APERTURE LIST*
%ADD10C,2.520000*%
%ADD11O,1.200000X1.900000*%
%ADD12C,1.450000*%
%ADD13R,0.450000X1.750000*%
%ADD14O,1.700000X1.700000*%
%ADD15R,1.700000X1.700000*%
%ADD16C,2.200000*%
%ADD17C,0.990600*%
%ADD18R,2.600000X2.600000*%
%ADD19C,2.600000*%
G04 APERTURE END LIST*
D10*
%TO.C,REF\u002A\u002A*%
X196400000Y-98400000D03*
%TD*%
%TO.C,REF\u002A\u002A*%
X133600000Y-98600000D03*
%TD*%
%TO.C,REF\u002A\u002A*%
X128400000Y-65200000D03*
%TD*%
D11*
%TO.C,J1*%
X142143600Y-59976500D03*
X149143600Y-59976500D03*
D12*
X143143600Y-62676500D03*
X148143600Y-62676500D03*
%TD*%
D13*
%TO.C,U3*%
X144077400Y-74276400D03*
X143427400Y-74276400D03*
X142777400Y-74276400D03*
X142127400Y-74276400D03*
X141477400Y-74276400D03*
X140827400Y-74276400D03*
X140177400Y-74276400D03*
X139527400Y-74276400D03*
X138877400Y-74276400D03*
X138227400Y-74276400D03*
X137577400Y-74276400D03*
X136927400Y-74276400D03*
X136277400Y-74276400D03*
X135627400Y-74276400D03*
X135627400Y-81476400D03*
X136277400Y-81476400D03*
X136927400Y-81476400D03*
X137577400Y-81476400D03*
X138227400Y-81476400D03*
X138877400Y-81476400D03*
X139527400Y-81476400D03*
X140177400Y-81476400D03*
X140827400Y-81476400D03*
X141477400Y-81476400D03*
X142127400Y-81476400D03*
X142777400Y-81476400D03*
X143427400Y-81476400D03*
X144077400Y-81476400D03*
%TD*%
D14*
%TO.C,J2*%
X179768500Y-93345000D03*
X179768500Y-95885000D03*
X177228500Y-93345000D03*
X177228500Y-95885000D03*
X174688500Y-93345000D03*
X174688500Y-95885000D03*
X172148500Y-93345000D03*
X172148500Y-95885000D03*
X169608500Y-93345000D03*
X169608500Y-95885000D03*
X167068500Y-93345000D03*
X167068500Y-95885000D03*
X164528500Y-93345000D03*
X164528500Y-95885000D03*
X161988500Y-93345000D03*
X161988500Y-95885000D03*
X159448500Y-93345000D03*
X159448500Y-95885000D03*
X156908500Y-93345000D03*
X156908500Y-95885000D03*
X154368500Y-93345000D03*
X154368500Y-95885000D03*
X151828500Y-93345000D03*
X151828500Y-95885000D03*
X149288500Y-93345000D03*
D15*
X149288500Y-95885000D03*
%TD*%
D16*
%TO.C,H4*%
X184400000Y-60900000D03*
%TD*%
%TO.C,H3*%
X184400000Y-97900000D03*
%TD*%
%TO.C,H2*%
X128900000Y-97900000D03*
%TD*%
%TO.C,H1*%
X128900000Y-60900000D03*
%TD*%
D17*
%TO.C,J3*%
X138684000Y-62611000D03*
X133604000Y-61595000D03*
X133604000Y-63627000D03*
%TD*%
D18*
%TO.C,J4*%
X192786000Y-72136000D03*
D19*
X192786000Y-67056000D03*
X192786000Y-61976000D03*
%TD*%
D18*
%TO.C,J5*%
X192786000Y-96774000D03*
D19*
X192786000Y-91694000D03*
%TD*%
M02*
