%TF.GenerationSoftware,KiCad,Pcbnew,(5.1.9)-1*%
%TF.CreationDate,2022-08-25T12:46:07+02:00*%
%TF.ProjectId,electric_angle_actuator,656c6563-7472-4696-935f-616e676c655f,rev?*%
%TF.SameCoordinates,Original*%
%TF.FileFunction,Copper,L1,Top*%
%TF.FilePolarity,Positive*%
%FSLAX46Y46*%
G04 Gerber Fmt 4.6, Leading zero omitted, Abs format (unit mm)*
G04 Created by KiCad (PCBNEW (5.1.9)-1) date 2022-08-25 12:46:07*
%MOMM*%
%LPD*%
G01*
G04 APERTURE LIST*
%TA.AperFunction,ComponentPad*%
%ADD10C,1.524000*%
%TD*%
%TA.AperFunction,SMDPad,CuDef*%
%ADD11R,1.200000X1.900000*%
%TD*%
%TA.AperFunction,ComponentPad*%
%ADD12O,1.200000X1.900000*%
%TD*%
%TA.AperFunction,SMDPad,CuDef*%
%ADD13R,1.500000X1.900000*%
%TD*%
%TA.AperFunction,ComponentPad*%
%ADD14C,1.450000*%
%TD*%
%TA.AperFunction,SMDPad,CuDef*%
%ADD15R,0.400000X1.350000*%
%TD*%
%TA.AperFunction,ComponentPad*%
%ADD16O,1.700000X1.700000*%
%TD*%
%TA.AperFunction,ComponentPad*%
%ADD17R,1.700000X1.700000*%
%TD*%
%TA.AperFunction,SMDPad,CuDef*%
%ADD18R,1.500000X2.000000*%
%TD*%
%TA.AperFunction,SMDPad,CuDef*%
%ADD19R,3.800000X2.000000*%
%TD*%
%TA.AperFunction,SMDPad,CuDef*%
%ADD20R,9.400000X10.800000*%
%TD*%
%TA.AperFunction,SMDPad,CuDef*%
%ADD21R,4.600000X1.100000*%
%TD*%
%TA.AperFunction,SMDPad,CuDef*%
%ADD22R,2.900000X5.400000*%
%TD*%
%TA.AperFunction,SMDPad,CuDef*%
%ADD23R,1.800000X2.500000*%
%TD*%
%TA.AperFunction,SMDPad,CuDef*%
%ADD24C,0.100000*%
%TD*%
%TA.AperFunction,SMDPad,CuDef*%
%ADD25R,1.400000X1.200000*%
%TD*%
%TA.AperFunction,SMDPad,CuDef*%
%ADD26R,0.650000X1.060000*%
%TD*%
%TA.AperFunction,ConnectorPad*%
%ADD27C,0.787400*%
%TD*%
%TA.AperFunction,ComponentPad*%
%ADD28R,2.600000X2.600000*%
%TD*%
%TA.AperFunction,ComponentPad*%
%ADD29C,2.600000*%
%TD*%
%TA.AperFunction,ViaPad*%
%ADD30C,0.800000*%
%TD*%
%TA.AperFunction,ViaPad*%
%ADD31C,0.700000*%
%TD*%
%TA.AperFunction,Conductor*%
%ADD32C,0.300000*%
%TD*%
%TA.AperFunction,Conductor*%
%ADD33C,0.500000*%
%TD*%
%TA.AperFunction,Conductor*%
%ADD34C,0.250000*%
%TD*%
%TA.AperFunction,Conductor*%
%ADD35C,0.254000*%
%TD*%
%TA.AperFunction,Conductor*%
%ADD36C,0.100000*%
%TD*%
G04 APERTURE END LIST*
D10*
%TO.P,REF\u002A\u002A,1*%
%TO.N,N/C*%
X196400000Y-98400000D03*
%TD*%
%TO.P,REF\u002A\u002A,1*%
%TO.N,N/C*%
X133600000Y-98600000D03*
%TD*%
%TO.P,REF\u002A\u002A,1*%
%TO.N,N/C*%
X128400000Y-65200000D03*
%TD*%
D11*
%TO.P,J1,6*%
%TO.N,Net-(J1-Pad6)*%
X148543600Y-59976500D03*
X142743600Y-59976500D03*
D12*
X142143600Y-59976500D03*
X149143600Y-59976500D03*
D13*
X146643600Y-59976500D03*
D14*
X143143600Y-62676500D03*
D15*
%TO.P,J1,3*%
%TO.N,USB_CONN_D+*%
X145643600Y-62676500D03*
%TO.P,J1,4*%
%TO.N,Net-(J1-Pad4)*%
X144993600Y-62676500D03*
%TO.P,J1,5*%
%TO.N,GND*%
X144343600Y-62676500D03*
%TO.P,J1,1*%
%TO.N,Net-(C18-Pad2)*%
X146943600Y-62676500D03*
%TO.P,J1,2*%
%TO.N,USB_CONN_D-*%
X146293600Y-62676500D03*
D14*
%TO.P,J1,6*%
%TO.N,Net-(J1-Pad6)*%
X148143600Y-62676500D03*
D13*
X144643600Y-59976500D03*
%TD*%
%TO.P,FB1,2*%
%TO.N,+3.3VA*%
%TA.AperFunction,SMDPad,CuDef*%
G36*
G01*
X149143500Y-88075000D02*
X148798500Y-88075000D01*
G75*
G02*
X148651000Y-87927500I0J147500D01*
G01*
X148651000Y-87632500D01*
G75*
G02*
X148798500Y-87485000I147500J0D01*
G01*
X149143500Y-87485000D01*
G75*
G02*
X149291000Y-87632500I0J-147500D01*
G01*
X149291000Y-87927500D01*
G75*
G02*
X149143500Y-88075000I-147500J0D01*
G01*
G37*
%TD.AperFunction*%
%TO.P,FB1,1*%
%TO.N,+3V3*%
%TA.AperFunction,SMDPad,CuDef*%
G36*
G01*
X149143500Y-89045000D02*
X148798500Y-89045000D01*
G75*
G02*
X148651000Y-88897500I0J147500D01*
G01*
X148651000Y-88602500D01*
G75*
G02*
X148798500Y-88455000I147500J0D01*
G01*
X149143500Y-88455000D01*
G75*
G02*
X149291000Y-88602500I0J-147500D01*
G01*
X149291000Y-88897500D01*
G75*
G02*
X149143500Y-89045000I-147500J0D01*
G01*
G37*
%TD.AperFunction*%
%TD*%
%TO.P,C2,2*%
%TO.N,GND*%
%TA.AperFunction,SMDPad,CuDef*%
G36*
G01*
X185260000Y-68384000D02*
X184310000Y-68384000D01*
G75*
G02*
X184060000Y-68134000I0J250000D01*
G01*
X184060000Y-67634000D01*
G75*
G02*
X184310000Y-67384000I250000J0D01*
G01*
X185260000Y-67384000D01*
G75*
G02*
X185510000Y-67634000I0J-250000D01*
G01*
X185510000Y-68134000D01*
G75*
G02*
X185260000Y-68384000I-250000J0D01*
G01*
G37*
%TD.AperFunction*%
%TO.P,C2,1*%
%TO.N,V_in*%
%TA.AperFunction,SMDPad,CuDef*%
G36*
G01*
X185260000Y-70284000D02*
X184310000Y-70284000D01*
G75*
G02*
X184060000Y-70034000I0J250000D01*
G01*
X184060000Y-69534000D01*
G75*
G02*
X184310000Y-69284000I250000J0D01*
G01*
X185260000Y-69284000D01*
G75*
G02*
X185510000Y-69534000I0J-250000D01*
G01*
X185510000Y-70034000D01*
G75*
G02*
X185260000Y-70284000I-250000J0D01*
G01*
G37*
%TD.AperFunction*%
%TD*%
D16*
%TO.P,J2,26*%
%TO.N,+3V3*%
X179768500Y-93345000D03*
%TO.P,J2,25*%
%TO.N,ADC1_IN0*%
X179768500Y-95885000D03*
%TO.P,J2,24*%
%TO.N,SD2*%
X177228500Y-93345000D03*
%TO.P,J2,23*%
%TO.N,SD1*%
X177228500Y-95885000D03*
%TO.P,J2,22*%
%TO.N,DIRECTION*%
X174688500Y-93345000D03*
%TO.P,J2,21*%
%TO.N,HIN_2*%
X174688500Y-95885000D03*
%TO.P,J2,20*%
X172148500Y-93345000D03*
%TO.P,J2,19*%
%TO.N,HIN_1*%
X172148500Y-95885000D03*
%TO.P,J2,18*%
X169608500Y-93345000D03*
%TO.P,J2,17*%
%TO.N,GND*%
X169608500Y-95885000D03*
%TO.P,J2,16*%
%TO.N,ADC1_IN1*%
X167068500Y-93345000D03*
%TO.P,J2,15*%
%TO.N,GND*%
X167068500Y-95885000D03*
%TO.P,J2,14*%
%TO.N,INPUT_IT_1*%
X164528500Y-93345000D03*
%TO.P,J2,13*%
%TO.N,+5V*%
X164528500Y-95885000D03*
%TO.P,J2,12*%
%TO.N,INPUT_IT_2*%
X161988500Y-93345000D03*
%TO.P,J2,11*%
%TO.N,GND*%
X161988500Y-95885000D03*
%TO.P,J2,10*%
%TO.N,INPUT_IT_3*%
X159448500Y-93345000D03*
%TO.P,J2,9*%
%TO.N,+3V3*%
X159448500Y-95885000D03*
%TO.P,J2,8*%
%TO.N,POSITION_INDICATOR_4*%
X156908500Y-93345000D03*
%TO.P,J2,7*%
%TO.N,GND*%
X156908500Y-95885000D03*
%TO.P,J2,6*%
%TO.N,POSITION_INDICATOR_3*%
X154368500Y-93345000D03*
%TO.P,J2,5*%
%TO.N,GND*%
X154368500Y-95885000D03*
%TO.P,J2,4*%
%TO.N,POSITION_INDICATOR_2*%
X151828500Y-93345000D03*
%TO.P,J2,3*%
%TO.N,GND*%
X151828500Y-95885000D03*
%TO.P,J2,2*%
%TO.N,POSITION_INDICATOR_1*%
X149288500Y-93345000D03*
D17*
%TO.P,J2,1*%
%TO.N,GND*%
X149288500Y-95885000D03*
%TD*%
%TO.P,R2,2*%
%TO.N,GND*%
%TA.AperFunction,SMDPad,CuDef*%
G36*
G01*
X137999500Y-71252500D02*
X137999500Y-71622500D01*
G75*
G02*
X137864500Y-71757500I-135000J0D01*
G01*
X137594500Y-71757500D01*
G75*
G02*
X137459500Y-71622500I0J135000D01*
G01*
X137459500Y-71252500D01*
G75*
G02*
X137594500Y-71117500I135000J0D01*
G01*
X137864500Y-71117500D01*
G75*
G02*
X137999500Y-71252500I0J-135000D01*
G01*
G37*
%TD.AperFunction*%
%TO.P,R2,1*%
%TO.N,PSM*%
%TA.AperFunction,SMDPad,CuDef*%
G36*
G01*
X139019500Y-71252500D02*
X139019500Y-71622500D01*
G75*
G02*
X138884500Y-71757500I-135000J0D01*
G01*
X138614500Y-71757500D01*
G75*
G02*
X138479500Y-71622500I0J135000D01*
G01*
X138479500Y-71252500D01*
G75*
G02*
X138614500Y-71117500I135000J0D01*
G01*
X138884500Y-71117500D01*
G75*
G02*
X139019500Y-71252500I0J-135000D01*
G01*
G37*
%TD.AperFunction*%
%TD*%
%TO.P,R7,2*%
%TO.N,GND*%
%TA.AperFunction,SMDPad,CuDef*%
G36*
G01*
X137131600Y-79774200D02*
X137131600Y-80144200D01*
G75*
G02*
X136996600Y-80279200I-135000J0D01*
G01*
X136726600Y-80279200D01*
G75*
G02*
X136591600Y-80144200I0J135000D01*
G01*
X136591600Y-79774200D01*
G75*
G02*
X136726600Y-79639200I135000J0D01*
G01*
X136996600Y-79639200D01*
G75*
G02*
X137131600Y-79774200I0J-135000D01*
G01*
G37*
%TD.AperFunction*%
%TO.P,R7,1*%
%TO.N,BOOT_0*%
%TA.AperFunction,SMDPad,CuDef*%
G36*
G01*
X138151600Y-79774200D02*
X138151600Y-80144200D01*
G75*
G02*
X138016600Y-80279200I-135000J0D01*
G01*
X137746600Y-80279200D01*
G75*
G02*
X137611600Y-80144200I0J135000D01*
G01*
X137611600Y-79774200D01*
G75*
G02*
X137746600Y-79639200I135000J0D01*
G01*
X138016600Y-79639200D01*
G75*
G02*
X138151600Y-79774200I0J-135000D01*
G01*
G37*
%TD.AperFunction*%
%TD*%
%TO.P,R5,2*%
%TO.N,I2C1_SDA*%
%TA.AperFunction,SMDPad,CuDef*%
G36*
G01*
X137908000Y-79026600D02*
X137908000Y-78656600D01*
G75*
G02*
X138043000Y-78521600I135000J0D01*
G01*
X138313000Y-78521600D01*
G75*
G02*
X138448000Y-78656600I0J-135000D01*
G01*
X138448000Y-79026600D01*
G75*
G02*
X138313000Y-79161600I-135000J0D01*
G01*
X138043000Y-79161600D01*
G75*
G02*
X137908000Y-79026600I0J135000D01*
G01*
G37*
%TD.AperFunction*%
%TO.P,R5,1*%
%TO.N,+3V3*%
%TA.AperFunction,SMDPad,CuDef*%
G36*
G01*
X136888000Y-79026600D02*
X136888000Y-78656600D01*
G75*
G02*
X137023000Y-78521600I135000J0D01*
G01*
X137293000Y-78521600D01*
G75*
G02*
X137428000Y-78656600I0J-135000D01*
G01*
X137428000Y-79026600D01*
G75*
G02*
X137293000Y-79161600I-135000J0D01*
G01*
X137023000Y-79161600D01*
G75*
G02*
X136888000Y-79026600I0J135000D01*
G01*
G37*
%TD.AperFunction*%
%TD*%
%TO.P,R4,2*%
%TO.N,I2C1_SCL*%
%TA.AperFunction,SMDPad,CuDef*%
G36*
G01*
X137908000Y-77959800D02*
X137908000Y-77589800D01*
G75*
G02*
X138043000Y-77454800I135000J0D01*
G01*
X138313000Y-77454800D01*
G75*
G02*
X138448000Y-77589800I0J-135000D01*
G01*
X138448000Y-77959800D01*
G75*
G02*
X138313000Y-78094800I-135000J0D01*
G01*
X138043000Y-78094800D01*
G75*
G02*
X137908000Y-77959800I0J135000D01*
G01*
G37*
%TD.AperFunction*%
%TO.P,R4,1*%
%TO.N,+3V3*%
%TA.AperFunction,SMDPad,CuDef*%
G36*
G01*
X136888000Y-77959800D02*
X136888000Y-77589800D01*
G75*
G02*
X137023000Y-77454800I135000J0D01*
G01*
X137293000Y-77454800D01*
G75*
G02*
X137428000Y-77589800I0J-135000D01*
G01*
X137428000Y-77959800D01*
G75*
G02*
X137293000Y-78094800I-135000J0D01*
G01*
X137023000Y-78094800D01*
G75*
G02*
X136888000Y-77959800I0J135000D01*
G01*
G37*
%TD.AperFunction*%
%TD*%
%TO.P,R3,2*%
%TO.N,SPI2_SCK*%
%TA.AperFunction,SMDPad,CuDef*%
G36*
G01*
X139616600Y-69531200D02*
X139986600Y-69531200D01*
G75*
G02*
X140121600Y-69666200I0J-135000D01*
G01*
X140121600Y-69936200D01*
G75*
G02*
X139986600Y-70071200I-135000J0D01*
G01*
X139616600Y-70071200D01*
G75*
G02*
X139481600Y-69936200I0J135000D01*
G01*
X139481600Y-69666200D01*
G75*
G02*
X139616600Y-69531200I135000J0D01*
G01*
G37*
%TD.AperFunction*%
%TO.P,R3,1*%
%TO.N,+3V3*%
%TA.AperFunction,SMDPad,CuDef*%
G36*
G01*
X139616600Y-68511200D02*
X139986600Y-68511200D01*
G75*
G02*
X140121600Y-68646200I0J-135000D01*
G01*
X140121600Y-68916200D01*
G75*
G02*
X139986600Y-69051200I-135000J0D01*
G01*
X139616600Y-69051200D01*
G75*
G02*
X139481600Y-68916200I0J135000D01*
G01*
X139481600Y-68646200D01*
G75*
G02*
X139616600Y-68511200I135000J0D01*
G01*
G37*
%TD.AperFunction*%
%TD*%
%TO.P,R6,2*%
%TO.N,USB_CONN_D+*%
%TA.AperFunction,SMDPad,CuDef*%
G36*
G01*
X142327600Y-66377400D02*
X142327600Y-66007400D01*
G75*
G02*
X142462600Y-65872400I135000J0D01*
G01*
X142732600Y-65872400D01*
G75*
G02*
X142867600Y-66007400I0J-135000D01*
G01*
X142867600Y-66377400D01*
G75*
G02*
X142732600Y-66512400I-135000J0D01*
G01*
X142462600Y-66512400D01*
G75*
G02*
X142327600Y-66377400I0J135000D01*
G01*
G37*
%TD.AperFunction*%
%TO.P,R6,1*%
%TO.N,+3V3*%
%TA.AperFunction,SMDPad,CuDef*%
G36*
G01*
X141307600Y-66377400D02*
X141307600Y-66007400D01*
G75*
G02*
X141442600Y-65872400I135000J0D01*
G01*
X141712600Y-65872400D01*
G75*
G02*
X141847600Y-66007400I0J-135000D01*
G01*
X141847600Y-66377400D01*
G75*
G02*
X141712600Y-66512400I-135000J0D01*
G01*
X141442600Y-66512400D01*
G75*
G02*
X141307600Y-66377400I0J135000D01*
G01*
G37*
%TD.AperFunction*%
%TD*%
%TO.P,C5,2*%
%TO.N,GND*%
%TA.AperFunction,SMDPad,CuDef*%
G36*
G01*
X136047500Y-94609500D02*
X135097500Y-94609500D01*
G75*
G02*
X134847500Y-94359500I0J250000D01*
G01*
X134847500Y-93859500D01*
G75*
G02*
X135097500Y-93609500I250000J0D01*
G01*
X136047500Y-93609500D01*
G75*
G02*
X136297500Y-93859500I0J-250000D01*
G01*
X136297500Y-94359500D01*
G75*
G02*
X136047500Y-94609500I-250000J0D01*
G01*
G37*
%TD.AperFunction*%
%TO.P,C5,1*%
%TO.N,+5V*%
%TA.AperFunction,SMDPad,CuDef*%
G36*
G01*
X136047500Y-96509500D02*
X135097500Y-96509500D01*
G75*
G02*
X134847500Y-96259500I0J250000D01*
G01*
X134847500Y-95759500D01*
G75*
G02*
X135097500Y-95509500I250000J0D01*
G01*
X136047500Y-95509500D01*
G75*
G02*
X136297500Y-95759500I0J-250000D01*
G01*
X136297500Y-96259500D01*
G75*
G02*
X136047500Y-96509500I-250000J0D01*
G01*
G37*
%TD.AperFunction*%
%TD*%
%TO.P,C3,2*%
%TO.N,+5V*%
%TA.AperFunction,SMDPad,CuDef*%
G36*
G01*
X137244000Y-95930000D02*
X137584000Y-95930000D01*
G75*
G02*
X137724000Y-96070000I0J-140000D01*
G01*
X137724000Y-96350000D01*
G75*
G02*
X137584000Y-96490000I-140000J0D01*
G01*
X137244000Y-96490000D01*
G75*
G02*
X137104000Y-96350000I0J140000D01*
G01*
X137104000Y-96070000D01*
G75*
G02*
X137244000Y-95930000I140000J0D01*
G01*
G37*
%TD.AperFunction*%
%TO.P,C3,1*%
%TO.N,GND*%
%TA.AperFunction,SMDPad,CuDef*%
G36*
G01*
X137244000Y-94970000D02*
X137584000Y-94970000D01*
G75*
G02*
X137724000Y-95110000I0J-140000D01*
G01*
X137724000Y-95390000D01*
G75*
G02*
X137584000Y-95530000I-140000J0D01*
G01*
X137244000Y-95530000D01*
G75*
G02*
X137104000Y-95390000I0J140000D01*
G01*
X137104000Y-95110000D01*
G75*
G02*
X137244000Y-94970000I140000J0D01*
G01*
G37*
%TD.AperFunction*%
%TD*%
%TO.P,C1,2*%
%TO.N,GND*%
%TA.AperFunction,SMDPad,CuDef*%
G36*
G01*
X140389000Y-92159000D02*
X140389000Y-92499000D01*
G75*
G02*
X140249000Y-92639000I-140000J0D01*
G01*
X139969000Y-92639000D01*
G75*
G02*
X139829000Y-92499000I0J140000D01*
G01*
X139829000Y-92159000D01*
G75*
G02*
X139969000Y-92019000I140000J0D01*
G01*
X140249000Y-92019000D01*
G75*
G02*
X140389000Y-92159000I0J-140000D01*
G01*
G37*
%TD.AperFunction*%
%TO.P,C1,1*%
%TO.N,+3V3*%
%TA.AperFunction,SMDPad,CuDef*%
G36*
G01*
X141349000Y-92159000D02*
X141349000Y-92499000D01*
G75*
G02*
X141209000Y-92639000I-140000J0D01*
G01*
X140929000Y-92639000D01*
G75*
G02*
X140789000Y-92499000I0J140000D01*
G01*
X140789000Y-92159000D01*
G75*
G02*
X140929000Y-92019000I140000J0D01*
G01*
X141209000Y-92019000D01*
G75*
G02*
X141349000Y-92159000I0J-140000D01*
G01*
G37*
%TD.AperFunction*%
%TD*%
D18*
%TO.P,U5,1*%
%TO.N,GND*%
X152233600Y-67031000D03*
%TO.P,U5,3*%
%TO.N,+5V*%
X156833600Y-67031000D03*
%TO.P,U5,2*%
%TO.N,+3V3*%
X154533600Y-67031000D03*
D19*
X154533600Y-60731000D03*
%TD*%
%TO.P,C17,2*%
%TO.N,+3V3*%
%TA.AperFunction,SMDPad,CuDef*%
G36*
G01*
X153909600Y-70627001D02*
X153909600Y-69326999D01*
G75*
G02*
X154159599Y-69077000I249999J0D01*
G01*
X154809601Y-69077000D01*
G75*
G02*
X155059600Y-69326999I0J-249999D01*
G01*
X155059600Y-70627001D01*
G75*
G02*
X154809601Y-70877000I-249999J0D01*
G01*
X154159599Y-70877000D01*
G75*
G02*
X153909600Y-70627001I0J249999D01*
G01*
G37*
%TD.AperFunction*%
%TO.P,C17,1*%
%TO.N,GND*%
%TA.AperFunction,SMDPad,CuDef*%
G36*
G01*
X150959600Y-70627001D02*
X150959600Y-69326999D01*
G75*
G02*
X151209599Y-69077000I249999J0D01*
G01*
X151859601Y-69077000D01*
G75*
G02*
X152109600Y-69326999I0J-249999D01*
G01*
X152109600Y-70627001D01*
G75*
G02*
X151859601Y-70877000I-249999J0D01*
G01*
X151209599Y-70877000D01*
G75*
G02*
X150959600Y-70627001I0J249999D01*
G01*
G37*
%TD.AperFunction*%
%TD*%
%TO.P,C16,1*%
%TO.N,GND*%
%TA.AperFunction,SMDPad,CuDef*%
G36*
G01*
X157622001Y-73297000D02*
X156321999Y-73297000D01*
G75*
G02*
X156072000Y-73047001I0J249999D01*
G01*
X156072000Y-72396999D01*
G75*
G02*
X156321999Y-72147000I249999J0D01*
G01*
X157622001Y-72147000D01*
G75*
G02*
X157872000Y-72396999I0J-249999D01*
G01*
X157872000Y-73047001D01*
G75*
G02*
X157622001Y-73297000I-249999J0D01*
G01*
G37*
%TD.AperFunction*%
%TO.P,C16,2*%
%TO.N,+5V*%
%TA.AperFunction,SMDPad,CuDef*%
G36*
G01*
X157622001Y-70347000D02*
X156321999Y-70347000D01*
G75*
G02*
X156072000Y-70097001I0J249999D01*
G01*
X156072000Y-69446999D01*
G75*
G02*
X156321999Y-69197000I249999J0D01*
G01*
X157622001Y-69197000D01*
G75*
G02*
X157872000Y-69446999I0J-249999D01*
G01*
X157872000Y-70097001D01*
G75*
G02*
X157622001Y-70347000I-249999J0D01*
G01*
G37*
%TD.AperFunction*%
%TD*%
%TO.P,C18,2*%
%TO.N,Net-(C18-Pad2)*%
%TA.AperFunction,SMDPad,CuDef*%
G36*
G01*
X147834000Y-66361800D02*
X147494000Y-66361800D01*
G75*
G02*
X147354000Y-66221800I0J140000D01*
G01*
X147354000Y-65941800D01*
G75*
G02*
X147494000Y-65801800I140000J0D01*
G01*
X147834000Y-65801800D01*
G75*
G02*
X147974000Y-65941800I0J-140000D01*
G01*
X147974000Y-66221800D01*
G75*
G02*
X147834000Y-66361800I-140000J0D01*
G01*
G37*
%TD.AperFunction*%
%TO.P,C18,1*%
%TO.N,GND*%
%TA.AperFunction,SMDPad,CuDef*%
G36*
G01*
X147834000Y-67321800D02*
X147494000Y-67321800D01*
G75*
G02*
X147354000Y-67181800I0J140000D01*
G01*
X147354000Y-66901800D01*
G75*
G02*
X147494000Y-66761800I140000J0D01*
G01*
X147834000Y-66761800D01*
G75*
G02*
X147974000Y-66901800I0J-140000D01*
G01*
X147974000Y-67181800D01*
G75*
G02*
X147834000Y-67321800I-140000J0D01*
G01*
G37*
%TD.AperFunction*%
%TD*%
D20*
%TO.P,U2,3*%
%TO.N,GND*%
X192786000Y-82550000D03*
D21*
%TO.P,U2,5*%
X183636000Y-85950000D03*
%TO.P,U2,4*%
%TO.N,+5V*%
X183636000Y-84250000D03*
%TO.P,U2,3*%
%TO.N,GND*%
X183636000Y-82550000D03*
%TO.P,U2,2*%
%TO.N,Net-(D1-Pad1)*%
X183636000Y-80850000D03*
%TO.P,U2,1*%
%TO.N,V_in*%
X183636000Y-79150000D03*
%TD*%
D22*
%TO.P,L1,2*%
%TO.N,+5V*%
X163960000Y-79502000D03*
%TO.P,L1,1*%
%TO.N,Net-(D1-Pad1)*%
X173860000Y-79502000D03*
%TD*%
D23*
%TO.P,D1,2*%
%TO.N,GND*%
X178562000Y-84931000D03*
%TO.P,D1,1*%
%TO.N,Net-(D1-Pad1)*%
X178562000Y-80931000D03*
%TD*%
%TO.P,C13,2*%
%TO.N,GND*%
%TA.AperFunction,SMDPad,CuDef*%
G36*
G01*
X165973000Y-63532000D02*
X163973000Y-63532000D01*
G75*
G02*
X163723000Y-63282000I0J250000D01*
G01*
X163723000Y-59382000D01*
G75*
G02*
X163973000Y-59132000I250000J0D01*
G01*
X165973000Y-59132000D01*
G75*
G02*
X166223000Y-59382000I0J-250000D01*
G01*
X166223000Y-63282000D01*
G75*
G02*
X165973000Y-63532000I-250000J0D01*
G01*
G37*
%TD.AperFunction*%
%TO.P,C13,1*%
%TO.N,+5V*%
%TA.AperFunction,SMDPad,CuDef*%
G36*
G01*
X165973000Y-71932000D02*
X163973000Y-71932000D01*
G75*
G02*
X163723000Y-71682000I0J250000D01*
G01*
X163723000Y-67782000D01*
G75*
G02*
X163973000Y-67532000I250000J0D01*
G01*
X165973000Y-67532000D01*
G75*
G02*
X166223000Y-67782000I0J-250000D01*
G01*
X166223000Y-71682000D01*
G75*
G02*
X165973000Y-71932000I-250000J0D01*
G01*
G37*
%TD.AperFunction*%
%TD*%
%TO.P,C4,2*%
%TO.N,GND*%
%TA.AperFunction,SMDPad,CuDef*%
G36*
G01*
X177390000Y-63532000D02*
X175390000Y-63532000D01*
G75*
G02*
X175140000Y-63282000I0J250000D01*
G01*
X175140000Y-59382000D01*
G75*
G02*
X175390000Y-59132000I250000J0D01*
G01*
X177390000Y-59132000D01*
G75*
G02*
X177640000Y-59382000I0J-250000D01*
G01*
X177640000Y-63282000D01*
G75*
G02*
X177390000Y-63532000I-250000J0D01*
G01*
G37*
%TD.AperFunction*%
%TO.P,C4,1*%
%TO.N,V_in*%
%TA.AperFunction,SMDPad,CuDef*%
G36*
G01*
X177390000Y-71932000D02*
X175390000Y-71932000D01*
G75*
G02*
X175140000Y-71682000I0J250000D01*
G01*
X175140000Y-67782000D01*
G75*
G02*
X175390000Y-67532000I250000J0D01*
G01*
X177390000Y-67532000D01*
G75*
G02*
X177640000Y-67782000I0J-250000D01*
G01*
X177640000Y-71682000D01*
G75*
G02*
X177390000Y-71932000I-250000J0D01*
G01*
G37*
%TD.AperFunction*%
%TD*%
%TA.AperFunction,SMDPad,CuDef*%
D24*
%TO.P,JP1,2*%
%TO.N,Net-(JP1-Pad2)*%
G36*
X184262000Y-90538398D02*
G01*
X184237466Y-90538398D01*
X184188635Y-90533588D01*
X184140510Y-90524016D01*
X184093555Y-90509772D01*
X184048222Y-90490995D01*
X184004949Y-90467864D01*
X183964150Y-90440604D01*
X183926221Y-90409476D01*
X183891524Y-90374779D01*
X183860396Y-90336850D01*
X183833136Y-90296051D01*
X183810005Y-90252778D01*
X183791228Y-90207445D01*
X183776984Y-90160490D01*
X183767412Y-90112365D01*
X183762602Y-90063534D01*
X183762602Y-90039000D01*
X183762000Y-90039000D01*
X183762000Y-89539000D01*
X183762602Y-89539000D01*
X183762602Y-89514466D01*
X183767412Y-89465635D01*
X183776984Y-89417510D01*
X183791228Y-89370555D01*
X183810005Y-89325222D01*
X183833136Y-89281949D01*
X183860396Y-89241150D01*
X183891524Y-89203221D01*
X183926221Y-89168524D01*
X183964150Y-89137396D01*
X184004949Y-89110136D01*
X184048222Y-89087005D01*
X184093555Y-89068228D01*
X184140510Y-89053984D01*
X184188635Y-89044412D01*
X184237466Y-89039602D01*
X184262000Y-89039602D01*
X184262000Y-89039000D01*
X184762000Y-89039000D01*
X184762000Y-90539000D01*
X184262000Y-90539000D01*
X184262000Y-90538398D01*
G37*
%TD.AperFunction*%
%TA.AperFunction,SMDPad,CuDef*%
%TO.P,JP1,1*%
%TO.N,CAN_H*%
G36*
X185062000Y-89039000D02*
G01*
X185562000Y-89039000D01*
X185562000Y-89039602D01*
X185586534Y-89039602D01*
X185635365Y-89044412D01*
X185683490Y-89053984D01*
X185730445Y-89068228D01*
X185775778Y-89087005D01*
X185819051Y-89110136D01*
X185859850Y-89137396D01*
X185897779Y-89168524D01*
X185932476Y-89203221D01*
X185963604Y-89241150D01*
X185990864Y-89281949D01*
X186013995Y-89325222D01*
X186032772Y-89370555D01*
X186047016Y-89417510D01*
X186056588Y-89465635D01*
X186061398Y-89514466D01*
X186061398Y-89539000D01*
X186062000Y-89539000D01*
X186062000Y-90039000D01*
X186061398Y-90039000D01*
X186061398Y-90063534D01*
X186056588Y-90112365D01*
X186047016Y-90160490D01*
X186032772Y-90207445D01*
X186013995Y-90252778D01*
X185990864Y-90296051D01*
X185963604Y-90336850D01*
X185932476Y-90374779D01*
X185897779Y-90409476D01*
X185859850Y-90440604D01*
X185819051Y-90467864D01*
X185775778Y-90490995D01*
X185730445Y-90509772D01*
X185683490Y-90524016D01*
X185635365Y-90533588D01*
X185586534Y-90538398D01*
X185562000Y-90538398D01*
X185562000Y-90539000D01*
X185062000Y-90539000D01*
X185062000Y-89039000D01*
G37*
%TD.AperFunction*%
%TD*%
%TO.P,R1,2*%
%TO.N,Net-(JP1-Pad2)*%
%TA.AperFunction,SMDPad,CuDef*%
G36*
G01*
X184735500Y-91699500D02*
X184735500Y-92069500D01*
G75*
G02*
X184600500Y-92204500I-135000J0D01*
G01*
X184330500Y-92204500D01*
G75*
G02*
X184195500Y-92069500I0J135000D01*
G01*
X184195500Y-91699500D01*
G75*
G02*
X184330500Y-91564500I135000J0D01*
G01*
X184600500Y-91564500D01*
G75*
G02*
X184735500Y-91699500I0J-135000D01*
G01*
G37*
%TD.AperFunction*%
%TO.P,R1,1*%
%TO.N,CAN_L*%
%TA.AperFunction,SMDPad,CuDef*%
G36*
G01*
X185755500Y-91699500D02*
X185755500Y-92069500D01*
G75*
G02*
X185620500Y-92204500I-135000J0D01*
G01*
X185350500Y-92204500D01*
G75*
G02*
X185215500Y-92069500I0J135000D01*
G01*
X185215500Y-91699500D01*
G75*
G02*
X185350500Y-91564500I135000J0D01*
G01*
X185620500Y-91564500D01*
G75*
G02*
X185755500Y-91699500I0J-135000D01*
G01*
G37*
%TD.AperFunction*%
%TD*%
%TO.P,C23,2*%
%TO.N,GND*%
%TA.AperFunction,SMDPad,CuDef*%
G36*
G01*
X146819800Y-88970400D02*
X147159800Y-88970400D01*
G75*
G02*
X147299800Y-89110400I0J-140000D01*
G01*
X147299800Y-89390400D01*
G75*
G02*
X147159800Y-89530400I-140000J0D01*
G01*
X146819800Y-89530400D01*
G75*
G02*
X146679800Y-89390400I0J140000D01*
G01*
X146679800Y-89110400D01*
G75*
G02*
X146819800Y-88970400I140000J0D01*
G01*
G37*
%TD.AperFunction*%
%TO.P,C23,1*%
%TO.N,OSC_OUT*%
%TA.AperFunction,SMDPad,CuDef*%
G36*
G01*
X146819800Y-88010400D02*
X147159800Y-88010400D01*
G75*
G02*
X147299800Y-88150400I0J-140000D01*
G01*
X147299800Y-88430400D01*
G75*
G02*
X147159800Y-88570400I-140000J0D01*
G01*
X146819800Y-88570400D01*
G75*
G02*
X146679800Y-88430400I0J140000D01*
G01*
X146679800Y-88150400D01*
G75*
G02*
X146819800Y-88010400I140000J0D01*
G01*
G37*
%TD.AperFunction*%
%TD*%
%TO.P,C21,2*%
%TO.N,GND*%
%TA.AperFunction,SMDPad,CuDef*%
G36*
G01*
X141571800Y-88598400D02*
X141231800Y-88598400D01*
G75*
G02*
X141091800Y-88458400I0J140000D01*
G01*
X141091800Y-88178400D01*
G75*
G02*
X141231800Y-88038400I140000J0D01*
G01*
X141571800Y-88038400D01*
G75*
G02*
X141711800Y-88178400I0J-140000D01*
G01*
X141711800Y-88458400D01*
G75*
G02*
X141571800Y-88598400I-140000J0D01*
G01*
G37*
%TD.AperFunction*%
%TO.P,C21,1*%
%TO.N,OSC_IN*%
%TA.AperFunction,SMDPad,CuDef*%
G36*
G01*
X141571800Y-89558400D02*
X141231800Y-89558400D01*
G75*
G02*
X141091800Y-89418400I0J140000D01*
G01*
X141091800Y-89138400D01*
G75*
G02*
X141231800Y-88998400I140000J0D01*
G01*
X141571800Y-88998400D01*
G75*
G02*
X141711800Y-89138400I0J-140000D01*
G01*
X141711800Y-89418400D01*
G75*
G02*
X141571800Y-89558400I-140000J0D01*
G01*
G37*
%TD.AperFunction*%
%TD*%
%TO.P,C30,2*%
%TO.N,+3V3*%
%TA.AperFunction,SMDPad,CuDef*%
G36*
G01*
X149914000Y-90635000D02*
X149914000Y-90975000D01*
G75*
G02*
X149774000Y-91115000I-140000J0D01*
G01*
X149494000Y-91115000D01*
G75*
G02*
X149354000Y-90975000I0J140000D01*
G01*
X149354000Y-90635000D01*
G75*
G02*
X149494000Y-90495000I140000J0D01*
G01*
X149774000Y-90495000D01*
G75*
G02*
X149914000Y-90635000I0J-140000D01*
G01*
G37*
%TD.AperFunction*%
%TO.P,C30,1*%
%TO.N,GND*%
%TA.AperFunction,SMDPad,CuDef*%
G36*
G01*
X150874000Y-90635000D02*
X150874000Y-90975000D01*
G75*
G02*
X150734000Y-91115000I-140000J0D01*
G01*
X150454000Y-91115000D01*
G75*
G02*
X150314000Y-90975000I0J140000D01*
G01*
X150314000Y-90635000D01*
G75*
G02*
X150454000Y-90495000I140000J0D01*
G01*
X150734000Y-90495000D01*
G75*
G02*
X150874000Y-90635000I0J-140000D01*
G01*
G37*
%TD.AperFunction*%
%TD*%
%TO.P,C29,2*%
%TO.N,+3.3VA*%
%TA.AperFunction,SMDPad,CuDef*%
G36*
G01*
X148056000Y-85514000D02*
X148056000Y-85174000D01*
G75*
G02*
X148196000Y-85034000I140000J0D01*
G01*
X148476000Y-85034000D01*
G75*
G02*
X148616000Y-85174000I0J-140000D01*
G01*
X148616000Y-85514000D01*
G75*
G02*
X148476000Y-85654000I-140000J0D01*
G01*
X148196000Y-85654000D01*
G75*
G02*
X148056000Y-85514000I0J140000D01*
G01*
G37*
%TD.AperFunction*%
%TO.P,C29,1*%
%TO.N,GND*%
%TA.AperFunction,SMDPad,CuDef*%
G36*
G01*
X147096000Y-85514000D02*
X147096000Y-85174000D01*
G75*
G02*
X147236000Y-85034000I140000J0D01*
G01*
X147516000Y-85034000D01*
G75*
G02*
X147656000Y-85174000I0J-140000D01*
G01*
X147656000Y-85514000D01*
G75*
G02*
X147516000Y-85654000I-140000J0D01*
G01*
X147236000Y-85654000D01*
G75*
G02*
X147096000Y-85514000I0J140000D01*
G01*
G37*
%TD.AperFunction*%
%TD*%
%TO.P,C27,2*%
%TO.N,+3V3*%
%TA.AperFunction,SMDPad,CuDef*%
G36*
G01*
X141601800Y-85793400D02*
X141601800Y-85453400D01*
G75*
G02*
X141741800Y-85313400I140000J0D01*
G01*
X142021800Y-85313400D01*
G75*
G02*
X142161800Y-85453400I0J-140000D01*
G01*
X142161800Y-85793400D01*
G75*
G02*
X142021800Y-85933400I-140000J0D01*
G01*
X141741800Y-85933400D01*
G75*
G02*
X141601800Y-85793400I0J140000D01*
G01*
G37*
%TD.AperFunction*%
%TO.P,C27,1*%
%TO.N,GND*%
%TA.AperFunction,SMDPad,CuDef*%
G36*
G01*
X140641800Y-85793400D02*
X140641800Y-85453400D01*
G75*
G02*
X140781800Y-85313400I140000J0D01*
G01*
X141061800Y-85313400D01*
G75*
G02*
X141201800Y-85453400I0J-140000D01*
G01*
X141201800Y-85793400D01*
G75*
G02*
X141061800Y-85933400I-140000J0D01*
G01*
X140781800Y-85933400D01*
G75*
G02*
X140641800Y-85793400I0J140000D01*
G01*
G37*
%TD.AperFunction*%
%TD*%
%TO.P,C26,2*%
%TO.N,+3V3*%
%TA.AperFunction,SMDPad,CuDef*%
G36*
G01*
X153660500Y-80729000D02*
X153660500Y-81069000D01*
G75*
G02*
X153520500Y-81209000I-140000J0D01*
G01*
X153240500Y-81209000D01*
G75*
G02*
X153100500Y-81069000I0J140000D01*
G01*
X153100500Y-80729000D01*
G75*
G02*
X153240500Y-80589000I140000J0D01*
G01*
X153520500Y-80589000D01*
G75*
G02*
X153660500Y-80729000I0J-140000D01*
G01*
G37*
%TD.AperFunction*%
%TO.P,C26,1*%
%TO.N,GND*%
%TA.AperFunction,SMDPad,CuDef*%
G36*
G01*
X154620500Y-80729000D02*
X154620500Y-81069000D01*
G75*
G02*
X154480500Y-81209000I-140000J0D01*
G01*
X154200500Y-81209000D01*
G75*
G02*
X154060500Y-81069000I0J140000D01*
G01*
X154060500Y-80729000D01*
G75*
G02*
X154200500Y-80589000I140000J0D01*
G01*
X154480500Y-80589000D01*
G75*
G02*
X154620500Y-80729000I0J-140000D01*
G01*
G37*
%TD.AperFunction*%
%TD*%
%TO.P,C25,2*%
%TO.N,NRST*%
%TA.AperFunction,SMDPad,CuDef*%
G36*
G01*
X145712000Y-85779000D02*
X145372000Y-85779000D01*
G75*
G02*
X145232000Y-85639000I0J140000D01*
G01*
X145232000Y-85359000D01*
G75*
G02*
X145372000Y-85219000I140000J0D01*
G01*
X145712000Y-85219000D01*
G75*
G02*
X145852000Y-85359000I0J-140000D01*
G01*
X145852000Y-85639000D01*
G75*
G02*
X145712000Y-85779000I-140000J0D01*
G01*
G37*
%TD.AperFunction*%
%TO.P,C25,1*%
%TO.N,GND*%
%TA.AperFunction,SMDPad,CuDef*%
G36*
G01*
X145712000Y-86739000D02*
X145372000Y-86739000D01*
G75*
G02*
X145232000Y-86599000I0J140000D01*
G01*
X145232000Y-86319000D01*
G75*
G02*
X145372000Y-86179000I140000J0D01*
G01*
X145712000Y-86179000D01*
G75*
G02*
X145852000Y-86319000I0J-140000D01*
G01*
X145852000Y-86599000D01*
G75*
G02*
X145712000Y-86739000I-140000J0D01*
G01*
G37*
%TD.AperFunction*%
%TD*%
%TO.P,C24,2*%
%TO.N,+3V3*%
%TA.AperFunction,SMDPad,CuDef*%
G36*
G01*
X152555600Y-72956600D02*
X152555600Y-73296600D01*
G75*
G02*
X152415600Y-73436600I-140000J0D01*
G01*
X152135600Y-73436600D01*
G75*
G02*
X151995600Y-73296600I0J140000D01*
G01*
X151995600Y-72956600D01*
G75*
G02*
X152135600Y-72816600I140000J0D01*
G01*
X152415600Y-72816600D01*
G75*
G02*
X152555600Y-72956600I0J-140000D01*
G01*
G37*
%TD.AperFunction*%
%TO.P,C24,1*%
%TO.N,GND*%
%TA.AperFunction,SMDPad,CuDef*%
G36*
G01*
X153515600Y-72956600D02*
X153515600Y-73296600D01*
G75*
G02*
X153375600Y-73436600I-140000J0D01*
G01*
X153095600Y-73436600D01*
G75*
G02*
X152955600Y-73296600I0J140000D01*
G01*
X152955600Y-72956600D01*
G75*
G02*
X153095600Y-72816600I140000J0D01*
G01*
X153375600Y-72816600D01*
G75*
G02*
X153515600Y-72956600I0J-140000D01*
G01*
G37*
%TD.AperFunction*%
%TD*%
%TO.P,C22,2*%
%TO.N,+3V3*%
%TA.AperFunction,SMDPad,CuDef*%
G36*
G01*
X141681800Y-69959400D02*
X141681800Y-70299400D01*
G75*
G02*
X141541800Y-70439400I-140000J0D01*
G01*
X141261800Y-70439400D01*
G75*
G02*
X141121800Y-70299400I0J140000D01*
G01*
X141121800Y-69959400D01*
G75*
G02*
X141261800Y-69819400I140000J0D01*
G01*
X141541800Y-69819400D01*
G75*
G02*
X141681800Y-69959400I0J-140000D01*
G01*
G37*
%TD.AperFunction*%
%TO.P,C22,1*%
%TO.N,GND*%
%TA.AperFunction,SMDPad,CuDef*%
G36*
G01*
X142641800Y-69959400D02*
X142641800Y-70299400D01*
G75*
G02*
X142501800Y-70439400I-140000J0D01*
G01*
X142221800Y-70439400D01*
G75*
G02*
X142081800Y-70299400I0J140000D01*
G01*
X142081800Y-69959400D01*
G75*
G02*
X142221800Y-69819400I140000J0D01*
G01*
X142501800Y-69819400D01*
G75*
G02*
X142641800Y-69959400I0J-140000D01*
G01*
G37*
%TD.AperFunction*%
%TD*%
%TO.P,C20,2*%
%TO.N,+3V3*%
%TA.AperFunction,SMDPad,CuDef*%
G36*
G01*
X138680800Y-82872400D02*
X138680800Y-82532400D01*
G75*
G02*
X138820800Y-82392400I140000J0D01*
G01*
X139100800Y-82392400D01*
G75*
G02*
X139240800Y-82532400I0J-140000D01*
G01*
X139240800Y-82872400D01*
G75*
G02*
X139100800Y-83012400I-140000J0D01*
G01*
X138820800Y-83012400D01*
G75*
G02*
X138680800Y-82872400I0J140000D01*
G01*
G37*
%TD.AperFunction*%
%TO.P,C20,1*%
%TO.N,GND*%
%TA.AperFunction,SMDPad,CuDef*%
G36*
G01*
X137720800Y-82872400D02*
X137720800Y-82532400D01*
G75*
G02*
X137860800Y-82392400I140000J0D01*
G01*
X138140800Y-82392400D01*
G75*
G02*
X138280800Y-82532400I0J-140000D01*
G01*
X138280800Y-82872400D01*
G75*
G02*
X138140800Y-83012400I-140000J0D01*
G01*
X137860800Y-83012400D01*
G75*
G02*
X137720800Y-82872400I0J140000D01*
G01*
G37*
%TD.AperFunction*%
%TD*%
%TO.P,C14,2*%
%TO.N,Net-(C14-Pad2)*%
%TA.AperFunction,SMDPad,CuDef*%
G36*
G01*
X130820000Y-83080000D02*
X130820000Y-82740000D01*
G75*
G02*
X130960000Y-82600000I140000J0D01*
G01*
X131240000Y-82600000D01*
G75*
G02*
X131380000Y-82740000I0J-140000D01*
G01*
X131380000Y-83080000D01*
G75*
G02*
X131240000Y-83220000I-140000J0D01*
G01*
X130960000Y-83220000D01*
G75*
G02*
X130820000Y-83080000I0J140000D01*
G01*
G37*
%TD.AperFunction*%
%TO.P,C14,1*%
%TO.N,GND*%
%TA.AperFunction,SMDPad,CuDef*%
G36*
G01*
X129860000Y-83080000D02*
X129860000Y-82740000D01*
G75*
G02*
X130000000Y-82600000I140000J0D01*
G01*
X130280000Y-82600000D01*
G75*
G02*
X130420000Y-82740000I0J-140000D01*
G01*
X130420000Y-83080000D01*
G75*
G02*
X130280000Y-83220000I-140000J0D01*
G01*
X130000000Y-83220000D01*
G75*
G02*
X129860000Y-83080000I0J140000D01*
G01*
G37*
%TD.AperFunction*%
%TD*%
%TO.P,C12,2*%
%TO.N,GND*%
%TA.AperFunction,SMDPad,CuDef*%
G36*
G01*
X134570000Y-71390000D02*
X134570000Y-71730000D01*
G75*
G02*
X134430000Y-71870000I-140000J0D01*
G01*
X134150000Y-71870000D01*
G75*
G02*
X134010000Y-71730000I0J140000D01*
G01*
X134010000Y-71390000D01*
G75*
G02*
X134150000Y-71250000I140000J0D01*
G01*
X134430000Y-71250000D01*
G75*
G02*
X134570000Y-71390000I0J-140000D01*
G01*
G37*
%TD.AperFunction*%
%TO.P,C12,1*%
%TO.N,Net-(C12-Pad1)*%
%TA.AperFunction,SMDPad,CuDef*%
G36*
G01*
X135530000Y-71390000D02*
X135530000Y-71730000D01*
G75*
G02*
X135390000Y-71870000I-140000J0D01*
G01*
X135110000Y-71870000D01*
G75*
G02*
X134970000Y-71730000I0J140000D01*
G01*
X134970000Y-71390000D01*
G75*
G02*
X135110000Y-71250000I140000J0D01*
G01*
X135390000Y-71250000D01*
G75*
G02*
X135530000Y-71390000I0J-140000D01*
G01*
G37*
%TD.AperFunction*%
%TD*%
%TO.P,C9,2*%
%TO.N,GND*%
%TA.AperFunction,SMDPad,CuDef*%
G36*
G01*
X133870000Y-85960000D02*
X134210000Y-85960000D01*
G75*
G02*
X134350000Y-86100000I0J-140000D01*
G01*
X134350000Y-86380000D01*
G75*
G02*
X134210000Y-86520000I-140000J0D01*
G01*
X133870000Y-86520000D01*
G75*
G02*
X133730000Y-86380000I0J140000D01*
G01*
X133730000Y-86100000D01*
G75*
G02*
X133870000Y-85960000I140000J0D01*
G01*
G37*
%TD.AperFunction*%
%TO.P,C9,1*%
%TO.N,Net-(C9-Pad1)*%
%TA.AperFunction,SMDPad,CuDef*%
G36*
G01*
X133870000Y-85000000D02*
X134210000Y-85000000D01*
G75*
G02*
X134350000Y-85140000I0J-140000D01*
G01*
X134350000Y-85420000D01*
G75*
G02*
X134210000Y-85560000I-140000J0D01*
G01*
X133870000Y-85560000D01*
G75*
G02*
X133730000Y-85420000I0J140000D01*
G01*
X133730000Y-85140000D01*
G75*
G02*
X133870000Y-85000000I140000J0D01*
G01*
G37*
%TD.AperFunction*%
%TD*%
%TO.P,C8,2*%
%TO.N,Net-(C11-Pad1)*%
%TA.AperFunction,SMDPad,CuDef*%
G36*
G01*
X130790000Y-81960000D02*
X130790000Y-81620000D01*
G75*
G02*
X130930000Y-81480000I140000J0D01*
G01*
X131210000Y-81480000D01*
G75*
G02*
X131350000Y-81620000I0J-140000D01*
G01*
X131350000Y-81960000D01*
G75*
G02*
X131210000Y-82100000I-140000J0D01*
G01*
X130930000Y-82100000D01*
G75*
G02*
X130790000Y-81960000I0J140000D01*
G01*
G37*
%TD.AperFunction*%
%TO.P,C8,1*%
%TO.N,GND*%
%TA.AperFunction,SMDPad,CuDef*%
G36*
G01*
X129830000Y-81960000D02*
X129830000Y-81620000D01*
G75*
G02*
X129970000Y-81480000I140000J0D01*
G01*
X130250000Y-81480000D01*
G75*
G02*
X130390000Y-81620000I0J-140000D01*
G01*
X130390000Y-81960000D01*
G75*
G02*
X130250000Y-82100000I-140000J0D01*
G01*
X129970000Y-82100000D01*
G75*
G02*
X129830000Y-81960000I0J140000D01*
G01*
G37*
%TD.AperFunction*%
%TD*%
%TO.P,C7,2*%
%TO.N,+3V3*%
%TA.AperFunction,SMDPad,CuDef*%
G36*
G01*
X131388400Y-78776600D02*
X131388400Y-78436600D01*
G75*
G02*
X131528400Y-78296600I140000J0D01*
G01*
X131808400Y-78296600D01*
G75*
G02*
X131948400Y-78436600I0J-140000D01*
G01*
X131948400Y-78776600D01*
G75*
G02*
X131808400Y-78916600I-140000J0D01*
G01*
X131528400Y-78916600D01*
G75*
G02*
X131388400Y-78776600I0J140000D01*
G01*
G37*
%TD.AperFunction*%
%TO.P,C7,1*%
%TO.N,GND*%
%TA.AperFunction,SMDPad,CuDef*%
G36*
G01*
X130428400Y-78776600D02*
X130428400Y-78436600D01*
G75*
G02*
X130568400Y-78296600I140000J0D01*
G01*
X130848400Y-78296600D01*
G75*
G02*
X130988400Y-78436600I0J-140000D01*
G01*
X130988400Y-78776600D01*
G75*
G02*
X130848400Y-78916600I-140000J0D01*
G01*
X130568400Y-78916600D01*
G75*
G02*
X130428400Y-78776600I0J140000D01*
G01*
G37*
%TD.AperFunction*%
%TD*%
%TO.P,C6,2*%
%TO.N,GND*%
%TA.AperFunction,SMDPad,CuDef*%
G36*
G01*
X135210000Y-85960000D02*
X135550000Y-85960000D01*
G75*
G02*
X135690000Y-86100000I0J-140000D01*
G01*
X135690000Y-86380000D01*
G75*
G02*
X135550000Y-86520000I-140000J0D01*
G01*
X135210000Y-86520000D01*
G75*
G02*
X135070000Y-86380000I0J140000D01*
G01*
X135070000Y-86100000D01*
G75*
G02*
X135210000Y-85960000I140000J0D01*
G01*
G37*
%TD.AperFunction*%
%TO.P,C6,1*%
%TO.N,Net-(C6-Pad1)*%
%TA.AperFunction,SMDPad,CuDef*%
G36*
G01*
X135210000Y-85000000D02*
X135550000Y-85000000D01*
G75*
G02*
X135690000Y-85140000I0J-140000D01*
G01*
X135690000Y-85420000D01*
G75*
G02*
X135550000Y-85560000I-140000J0D01*
G01*
X135210000Y-85560000D01*
G75*
G02*
X135070000Y-85420000I0J140000D01*
G01*
X135070000Y-85140000D01*
G75*
G02*
X135210000Y-85000000I140000J0D01*
G01*
G37*
%TD.AperFunction*%
%TD*%
D25*
%TO.P,Y1,4*%
%TO.N,GND*%
X143052800Y-87860400D03*
%TO.P,Y1,3*%
%TO.N,OSC_OUT*%
X145252800Y-87860400D03*
%TO.P,Y1,2*%
%TO.N,GND*%
X145252800Y-89560400D03*
%TO.P,Y1,1*%
%TO.N,OSC_IN*%
X143052800Y-89560400D03*
%TD*%
D26*
%TO.P,U4,5*%
%TO.N,Net-(C18-Pad2)*%
X144983200Y-66438600D03*
%TO.P,U4,6*%
%TO.N,USB_CONN_D+*%
X144033200Y-66438600D03*
%TO.P,U4,4*%
%TO.N,USB_CONN_D-*%
X145933200Y-66438600D03*
%TO.P,U4,3*%
%TO.N,USB-*%
X145933200Y-68638600D03*
%TO.P,U4,2*%
%TO.N,GND*%
X144983200Y-68638600D03*
%TO.P,U4,1*%
%TO.N,USB+*%
X144033200Y-68638600D03*
%TD*%
%TO.P,U1,8*%
%TO.N,CAN_SILENT_MODE*%
%TA.AperFunction,SMDPad,CuDef*%
G36*
G01*
X143308200Y-94180800D02*
X143308200Y-93880800D01*
G75*
G02*
X143458200Y-93730800I150000J0D01*
G01*
X145108200Y-93730800D01*
G75*
G02*
X145258200Y-93880800I0J-150000D01*
G01*
X145258200Y-94180800D01*
G75*
G02*
X145108200Y-94330800I-150000J0D01*
G01*
X143458200Y-94330800D01*
G75*
G02*
X143308200Y-94180800I0J150000D01*
G01*
G37*
%TD.AperFunction*%
%TO.P,U1,7*%
%TO.N,CAN_H*%
%TA.AperFunction,SMDPad,CuDef*%
G36*
G01*
X143308200Y-95450800D02*
X143308200Y-95150800D01*
G75*
G02*
X143458200Y-95000800I150000J0D01*
G01*
X145108200Y-95000800D01*
G75*
G02*
X145258200Y-95150800I0J-150000D01*
G01*
X145258200Y-95450800D01*
G75*
G02*
X145108200Y-95600800I-150000J0D01*
G01*
X143458200Y-95600800D01*
G75*
G02*
X143308200Y-95450800I0J150000D01*
G01*
G37*
%TD.AperFunction*%
%TO.P,U1,6*%
%TO.N,CAN_L*%
%TA.AperFunction,SMDPad,CuDef*%
G36*
G01*
X143308200Y-96720800D02*
X143308200Y-96420800D01*
G75*
G02*
X143458200Y-96270800I150000J0D01*
G01*
X145108200Y-96270800D01*
G75*
G02*
X145258200Y-96420800I0J-150000D01*
G01*
X145258200Y-96720800D01*
G75*
G02*
X145108200Y-96870800I-150000J0D01*
G01*
X143458200Y-96870800D01*
G75*
G02*
X143308200Y-96720800I0J150000D01*
G01*
G37*
%TD.AperFunction*%
%TO.P,U1,5*%
%TO.N,+3V3*%
%TA.AperFunction,SMDPad,CuDef*%
G36*
G01*
X143308200Y-97990800D02*
X143308200Y-97690800D01*
G75*
G02*
X143458200Y-97540800I150000J0D01*
G01*
X145108200Y-97540800D01*
G75*
G02*
X145258200Y-97690800I0J-150000D01*
G01*
X145258200Y-97990800D01*
G75*
G02*
X145108200Y-98140800I-150000J0D01*
G01*
X143458200Y-98140800D01*
G75*
G02*
X143308200Y-97990800I0J150000D01*
G01*
G37*
%TD.AperFunction*%
%TO.P,U1,4*%
%TO.N,CAN_RX*%
%TA.AperFunction,SMDPad,CuDef*%
G36*
G01*
X138358200Y-97990800D02*
X138358200Y-97690800D01*
G75*
G02*
X138508200Y-97540800I150000J0D01*
G01*
X140158200Y-97540800D01*
G75*
G02*
X140308200Y-97690800I0J-150000D01*
G01*
X140308200Y-97990800D01*
G75*
G02*
X140158200Y-98140800I-150000J0D01*
G01*
X138508200Y-98140800D01*
G75*
G02*
X138358200Y-97990800I0J150000D01*
G01*
G37*
%TD.AperFunction*%
%TO.P,U1,3*%
%TO.N,+5V*%
%TA.AperFunction,SMDPad,CuDef*%
G36*
G01*
X138358200Y-96720800D02*
X138358200Y-96420800D01*
G75*
G02*
X138508200Y-96270800I150000J0D01*
G01*
X140158200Y-96270800D01*
G75*
G02*
X140308200Y-96420800I0J-150000D01*
G01*
X140308200Y-96720800D01*
G75*
G02*
X140158200Y-96870800I-150000J0D01*
G01*
X138508200Y-96870800D01*
G75*
G02*
X138358200Y-96720800I0J150000D01*
G01*
G37*
%TD.AperFunction*%
%TO.P,U1,2*%
%TO.N,GND*%
%TA.AperFunction,SMDPad,CuDef*%
G36*
G01*
X138358200Y-95450800D02*
X138358200Y-95150800D01*
G75*
G02*
X138508200Y-95000800I150000J0D01*
G01*
X140158200Y-95000800D01*
G75*
G02*
X140308200Y-95150800I0J-150000D01*
G01*
X140308200Y-95450800D01*
G75*
G02*
X140158200Y-95600800I-150000J0D01*
G01*
X138508200Y-95600800D01*
G75*
G02*
X138358200Y-95450800I0J150000D01*
G01*
G37*
%TD.AperFunction*%
%TO.P,U1,1*%
%TO.N,CAN_TX*%
%TA.AperFunction,SMDPad,CuDef*%
G36*
G01*
X138358200Y-94180800D02*
X138358200Y-93880800D01*
G75*
G02*
X138508200Y-93730800I150000J0D01*
G01*
X140158200Y-93730800D01*
G75*
G02*
X140308200Y-93880800I0J-150000D01*
G01*
X140308200Y-94180800D01*
G75*
G02*
X140158200Y-94330800I-150000J0D01*
G01*
X138508200Y-94330800D01*
G75*
G02*
X138358200Y-94180800I0J150000D01*
G01*
G37*
%TD.AperFunction*%
%TD*%
D27*
%TO.P,J3,6*%
%TO.N,SWO*%
X134874000Y-63246000D03*
%TO.P,J3,5*%
%TO.N,GND*%
X134874000Y-61976000D03*
%TO.P,J3,4*%
%TO.N,SWCLK*%
X136144000Y-63246000D03*
%TO.P,J3,3*%
%TO.N,NRST*%
X136144000Y-61976000D03*
%TO.P,J3,2*%
%TO.N,SWDIO*%
X137414000Y-63246000D03*
%TO.P,J3,1*%
%TO.N,+3V3*%
X137414000Y-61976000D03*
%TD*%
%TO.P,U6,64*%
%TO.N,+3V3*%
%TA.AperFunction,SMDPad,CuDef*%
G36*
G01*
X140871800Y-81776400D02*
X139471800Y-81776400D01*
G75*
G02*
X139396800Y-81701400I0J75000D01*
G01*
X139396800Y-81551400D01*
G75*
G02*
X139471800Y-81476400I75000J0D01*
G01*
X140871800Y-81476400D01*
G75*
G02*
X140946800Y-81551400I0J-75000D01*
G01*
X140946800Y-81701400D01*
G75*
G02*
X140871800Y-81776400I-75000J0D01*
G01*
G37*
%TD.AperFunction*%
%TO.P,U6,63*%
%TO.N,GND*%
%TA.AperFunction,SMDPad,CuDef*%
G36*
G01*
X140871800Y-81276400D02*
X139471800Y-81276400D01*
G75*
G02*
X139396800Y-81201400I0J75000D01*
G01*
X139396800Y-81051400D01*
G75*
G02*
X139471800Y-80976400I75000J0D01*
G01*
X140871800Y-80976400D01*
G75*
G02*
X140946800Y-81051400I0J-75000D01*
G01*
X140946800Y-81201400D01*
G75*
G02*
X140871800Y-81276400I-75000J0D01*
G01*
G37*
%TD.AperFunction*%
%TO.P,U6,62*%
%TO.N,CAN_TX*%
%TA.AperFunction,SMDPad,CuDef*%
G36*
G01*
X140871800Y-80776400D02*
X139471800Y-80776400D01*
G75*
G02*
X139396800Y-80701400I0J75000D01*
G01*
X139396800Y-80551400D01*
G75*
G02*
X139471800Y-80476400I75000J0D01*
G01*
X140871800Y-80476400D01*
G75*
G02*
X140946800Y-80551400I0J-75000D01*
G01*
X140946800Y-80701400D01*
G75*
G02*
X140871800Y-80776400I-75000J0D01*
G01*
G37*
%TD.AperFunction*%
%TO.P,U6,61*%
%TO.N,CAN_RX*%
%TA.AperFunction,SMDPad,CuDef*%
G36*
G01*
X140871800Y-80276400D02*
X139471800Y-80276400D01*
G75*
G02*
X139396800Y-80201400I0J75000D01*
G01*
X139396800Y-80051400D01*
G75*
G02*
X139471800Y-79976400I75000J0D01*
G01*
X140871800Y-79976400D01*
G75*
G02*
X140946800Y-80051400I0J-75000D01*
G01*
X140946800Y-80201400D01*
G75*
G02*
X140871800Y-80276400I-75000J0D01*
G01*
G37*
%TD.AperFunction*%
%TO.P,U6,60*%
%TO.N,BOOT_0*%
%TA.AperFunction,SMDPad,CuDef*%
G36*
G01*
X140871800Y-79776400D02*
X139471800Y-79776400D01*
G75*
G02*
X139396800Y-79701400I0J75000D01*
G01*
X139396800Y-79551400D01*
G75*
G02*
X139471800Y-79476400I75000J0D01*
G01*
X140871800Y-79476400D01*
G75*
G02*
X140946800Y-79551400I0J-75000D01*
G01*
X140946800Y-79701400D01*
G75*
G02*
X140871800Y-79776400I-75000J0D01*
G01*
G37*
%TD.AperFunction*%
%TO.P,U6,59*%
%TO.N,I2C1_SDA*%
%TA.AperFunction,SMDPad,CuDef*%
G36*
G01*
X140871800Y-79276400D02*
X139471800Y-79276400D01*
G75*
G02*
X139396800Y-79201400I0J75000D01*
G01*
X139396800Y-79051400D01*
G75*
G02*
X139471800Y-78976400I75000J0D01*
G01*
X140871800Y-78976400D01*
G75*
G02*
X140946800Y-79051400I0J-75000D01*
G01*
X140946800Y-79201400D01*
G75*
G02*
X140871800Y-79276400I-75000J0D01*
G01*
G37*
%TD.AperFunction*%
%TO.P,U6,58*%
%TO.N,I2C1_SCL*%
%TA.AperFunction,SMDPad,CuDef*%
G36*
G01*
X140871800Y-78776400D02*
X139471800Y-78776400D01*
G75*
G02*
X139396800Y-78701400I0J75000D01*
G01*
X139396800Y-78551400D01*
G75*
G02*
X139471800Y-78476400I75000J0D01*
G01*
X140871800Y-78476400D01*
G75*
G02*
X140946800Y-78551400I0J-75000D01*
G01*
X140946800Y-78701400D01*
G75*
G02*
X140871800Y-78776400I-75000J0D01*
G01*
G37*
%TD.AperFunction*%
%TO.P,U6,57*%
%TO.N,Net-(U6-Pad57)*%
%TA.AperFunction,SMDPad,CuDef*%
G36*
G01*
X140871800Y-78276400D02*
X139471800Y-78276400D01*
G75*
G02*
X139396800Y-78201400I0J75000D01*
G01*
X139396800Y-78051400D01*
G75*
G02*
X139471800Y-77976400I75000J0D01*
G01*
X140871800Y-77976400D01*
G75*
G02*
X140946800Y-78051400I0J-75000D01*
G01*
X140946800Y-78201400D01*
G75*
G02*
X140871800Y-78276400I-75000J0D01*
G01*
G37*
%TD.AperFunction*%
%TO.P,U6,56*%
%TO.N,ZEROING_PIN*%
%TA.AperFunction,SMDPad,CuDef*%
G36*
G01*
X140871800Y-77776400D02*
X139471800Y-77776400D01*
G75*
G02*
X139396800Y-77701400I0J75000D01*
G01*
X139396800Y-77551400D01*
G75*
G02*
X139471800Y-77476400I75000J0D01*
G01*
X140871800Y-77476400D01*
G75*
G02*
X140946800Y-77551400I0J-75000D01*
G01*
X140946800Y-77701400D01*
G75*
G02*
X140871800Y-77776400I-75000J0D01*
G01*
G37*
%TD.AperFunction*%
%TO.P,U6,55*%
%TO.N,SWO*%
%TA.AperFunction,SMDPad,CuDef*%
G36*
G01*
X140871800Y-77276400D02*
X139471800Y-77276400D01*
G75*
G02*
X139396800Y-77201400I0J75000D01*
G01*
X139396800Y-77051400D01*
G75*
G02*
X139471800Y-76976400I75000J0D01*
G01*
X140871800Y-76976400D01*
G75*
G02*
X140946800Y-77051400I0J-75000D01*
G01*
X140946800Y-77201400D01*
G75*
G02*
X140871800Y-77276400I-75000J0D01*
G01*
G37*
%TD.AperFunction*%
%TO.P,U6,54*%
%TO.N,Net-(U6-Pad54)*%
%TA.AperFunction,SMDPad,CuDef*%
G36*
G01*
X140871800Y-76776400D02*
X139471800Y-76776400D01*
G75*
G02*
X139396800Y-76701400I0J75000D01*
G01*
X139396800Y-76551400D01*
G75*
G02*
X139471800Y-76476400I75000J0D01*
G01*
X140871800Y-76476400D01*
G75*
G02*
X140946800Y-76551400I0J-75000D01*
G01*
X140946800Y-76701400D01*
G75*
G02*
X140871800Y-76776400I-75000J0D01*
G01*
G37*
%TD.AperFunction*%
%TO.P,U6,53*%
%TO.N,U_PIN*%
%TA.AperFunction,SMDPad,CuDef*%
G36*
G01*
X140871800Y-76276400D02*
X139471800Y-76276400D01*
G75*
G02*
X139396800Y-76201400I0J75000D01*
G01*
X139396800Y-76051400D01*
G75*
G02*
X139471800Y-75976400I75000J0D01*
G01*
X140871800Y-75976400D01*
G75*
G02*
X140946800Y-76051400I0J-75000D01*
G01*
X140946800Y-76201400D01*
G75*
G02*
X140871800Y-76276400I-75000J0D01*
G01*
G37*
%TD.AperFunction*%
%TO.P,U6,52*%
%TO.N,V_PIN*%
%TA.AperFunction,SMDPad,CuDef*%
G36*
G01*
X140871800Y-75776400D02*
X139471800Y-75776400D01*
G75*
G02*
X139396800Y-75701400I0J75000D01*
G01*
X139396800Y-75551400D01*
G75*
G02*
X139471800Y-75476400I75000J0D01*
G01*
X140871800Y-75476400D01*
G75*
G02*
X140946800Y-75551400I0J-75000D01*
G01*
X140946800Y-75701400D01*
G75*
G02*
X140871800Y-75776400I-75000J0D01*
G01*
G37*
%TD.AperFunction*%
%TO.P,U6,51*%
%TO.N,W_PIN*%
%TA.AperFunction,SMDPad,CuDef*%
G36*
G01*
X140871800Y-75276400D02*
X139471800Y-75276400D01*
G75*
G02*
X139396800Y-75201400I0J75000D01*
G01*
X139396800Y-75051400D01*
G75*
G02*
X139471800Y-74976400I75000J0D01*
G01*
X140871800Y-74976400D01*
G75*
G02*
X140946800Y-75051400I0J-75000D01*
G01*
X140946800Y-75201400D01*
G75*
G02*
X140871800Y-75276400I-75000J0D01*
G01*
G37*
%TD.AperFunction*%
%TO.P,U6,50*%
%TO.N,PSM*%
%TA.AperFunction,SMDPad,CuDef*%
G36*
G01*
X140871800Y-74776400D02*
X139471800Y-74776400D01*
G75*
G02*
X139396800Y-74701400I0J75000D01*
G01*
X139396800Y-74551400D01*
G75*
G02*
X139471800Y-74476400I75000J0D01*
G01*
X140871800Y-74476400D01*
G75*
G02*
X140946800Y-74551400I0J-75000D01*
G01*
X140946800Y-74701400D01*
G75*
G02*
X140871800Y-74776400I-75000J0D01*
G01*
G37*
%TD.AperFunction*%
%TO.P,U6,49*%
%TO.N,SWCLK*%
%TA.AperFunction,SMDPad,CuDef*%
G36*
G01*
X140871800Y-74276400D02*
X139471800Y-74276400D01*
G75*
G02*
X139396800Y-74201400I0J75000D01*
G01*
X139396800Y-74051400D01*
G75*
G02*
X139471800Y-73976400I75000J0D01*
G01*
X140871800Y-73976400D01*
G75*
G02*
X140946800Y-74051400I0J-75000D01*
G01*
X140946800Y-74201400D01*
G75*
G02*
X140871800Y-74276400I-75000J0D01*
G01*
G37*
%TD.AperFunction*%
%TO.P,U6,48*%
%TO.N,+3V3*%
%TA.AperFunction,SMDPad,CuDef*%
G36*
G01*
X142171800Y-72976400D02*
X142021800Y-72976400D01*
G75*
G02*
X141946800Y-72901400I0J75000D01*
G01*
X141946800Y-71501400D01*
G75*
G02*
X142021800Y-71426400I75000J0D01*
G01*
X142171800Y-71426400D01*
G75*
G02*
X142246800Y-71501400I0J-75000D01*
G01*
X142246800Y-72901400D01*
G75*
G02*
X142171800Y-72976400I-75000J0D01*
G01*
G37*
%TD.AperFunction*%
%TO.P,U6,47*%
%TO.N,GND*%
%TA.AperFunction,SMDPad,CuDef*%
G36*
G01*
X142671800Y-72976400D02*
X142521800Y-72976400D01*
G75*
G02*
X142446800Y-72901400I0J75000D01*
G01*
X142446800Y-71501400D01*
G75*
G02*
X142521800Y-71426400I75000J0D01*
G01*
X142671800Y-71426400D01*
G75*
G02*
X142746800Y-71501400I0J-75000D01*
G01*
X142746800Y-72901400D01*
G75*
G02*
X142671800Y-72976400I-75000J0D01*
G01*
G37*
%TD.AperFunction*%
%TO.P,U6,46*%
%TO.N,SWDIO*%
%TA.AperFunction,SMDPad,CuDef*%
G36*
G01*
X143171800Y-72976400D02*
X143021800Y-72976400D01*
G75*
G02*
X142946800Y-72901400I0J75000D01*
G01*
X142946800Y-71501400D01*
G75*
G02*
X143021800Y-71426400I75000J0D01*
G01*
X143171800Y-71426400D01*
G75*
G02*
X143246800Y-71501400I0J-75000D01*
G01*
X143246800Y-72901400D01*
G75*
G02*
X143171800Y-72976400I-75000J0D01*
G01*
G37*
%TD.AperFunction*%
%TO.P,U6,45*%
%TO.N,USB+*%
%TA.AperFunction,SMDPad,CuDef*%
G36*
G01*
X143671800Y-72976400D02*
X143521800Y-72976400D01*
G75*
G02*
X143446800Y-72901400I0J75000D01*
G01*
X143446800Y-71501400D01*
G75*
G02*
X143521800Y-71426400I75000J0D01*
G01*
X143671800Y-71426400D01*
G75*
G02*
X143746800Y-71501400I0J-75000D01*
G01*
X143746800Y-72901400D01*
G75*
G02*
X143671800Y-72976400I-75000J0D01*
G01*
G37*
%TD.AperFunction*%
%TO.P,U6,44*%
%TO.N,USB-*%
%TA.AperFunction,SMDPad,CuDef*%
G36*
G01*
X144171800Y-72976400D02*
X144021800Y-72976400D01*
G75*
G02*
X143946800Y-72901400I0J75000D01*
G01*
X143946800Y-71501400D01*
G75*
G02*
X144021800Y-71426400I75000J0D01*
G01*
X144171800Y-71426400D01*
G75*
G02*
X144246800Y-71501400I0J-75000D01*
G01*
X144246800Y-72901400D01*
G75*
G02*
X144171800Y-72976400I-75000J0D01*
G01*
G37*
%TD.AperFunction*%
%TO.P,U6,43*%
%TO.N,HIN_2*%
%TA.AperFunction,SMDPad,CuDef*%
G36*
G01*
X144671800Y-72976400D02*
X144521800Y-72976400D01*
G75*
G02*
X144446800Y-72901400I0J75000D01*
G01*
X144446800Y-71501400D01*
G75*
G02*
X144521800Y-71426400I75000J0D01*
G01*
X144671800Y-71426400D01*
G75*
G02*
X144746800Y-71501400I0J-75000D01*
G01*
X144746800Y-72901400D01*
G75*
G02*
X144671800Y-72976400I-75000J0D01*
G01*
G37*
%TD.AperFunction*%
%TO.P,U6,42*%
%TO.N,DIRECTION*%
%TA.AperFunction,SMDPad,CuDef*%
G36*
G01*
X145171800Y-72976400D02*
X145021800Y-72976400D01*
G75*
G02*
X144946800Y-72901400I0J75000D01*
G01*
X144946800Y-71501400D01*
G75*
G02*
X145021800Y-71426400I75000J0D01*
G01*
X145171800Y-71426400D01*
G75*
G02*
X145246800Y-71501400I0J-75000D01*
G01*
X145246800Y-72901400D01*
G75*
G02*
X145171800Y-72976400I-75000J0D01*
G01*
G37*
%TD.AperFunction*%
%TO.P,U6,41*%
%TO.N,HIN_1*%
%TA.AperFunction,SMDPad,CuDef*%
G36*
G01*
X145671800Y-72976400D02*
X145521800Y-72976400D01*
G75*
G02*
X145446800Y-72901400I0J75000D01*
G01*
X145446800Y-71501400D01*
G75*
G02*
X145521800Y-71426400I75000J0D01*
G01*
X145671800Y-71426400D01*
G75*
G02*
X145746800Y-71501400I0J-75000D01*
G01*
X145746800Y-72901400D01*
G75*
G02*
X145671800Y-72976400I-75000J0D01*
G01*
G37*
%TD.AperFunction*%
%TO.P,U6,40*%
%TO.N,ENC_INC_Ri*%
%TA.AperFunction,SMDPad,CuDef*%
G36*
G01*
X146171800Y-72976400D02*
X146021800Y-72976400D01*
G75*
G02*
X145946800Y-72901400I0J75000D01*
G01*
X145946800Y-71501400D01*
G75*
G02*
X146021800Y-71426400I75000J0D01*
G01*
X146171800Y-71426400D01*
G75*
G02*
X146246800Y-71501400I0J-75000D01*
G01*
X146246800Y-72901400D01*
G75*
G02*
X146171800Y-72976400I-75000J0D01*
G01*
G37*
%TD.AperFunction*%
%TO.P,U6,39*%
%TO.N,Net-(U6-Pad39)*%
%TA.AperFunction,SMDPad,CuDef*%
G36*
G01*
X146671800Y-72976400D02*
X146521800Y-72976400D01*
G75*
G02*
X146446800Y-72901400I0J75000D01*
G01*
X146446800Y-71501400D01*
G75*
G02*
X146521800Y-71426400I75000J0D01*
G01*
X146671800Y-71426400D01*
G75*
G02*
X146746800Y-71501400I0J-75000D01*
G01*
X146746800Y-72901400D01*
G75*
G02*
X146671800Y-72976400I-75000J0D01*
G01*
G37*
%TD.AperFunction*%
%TO.P,U6,38*%
%TO.N,ENC_INC_B*%
%TA.AperFunction,SMDPad,CuDef*%
G36*
G01*
X147171800Y-72976400D02*
X147021800Y-72976400D01*
G75*
G02*
X146946800Y-72901400I0J75000D01*
G01*
X146946800Y-71501400D01*
G75*
G02*
X147021800Y-71426400I75000J0D01*
G01*
X147171800Y-71426400D01*
G75*
G02*
X147246800Y-71501400I0J-75000D01*
G01*
X147246800Y-72901400D01*
G75*
G02*
X147171800Y-72976400I-75000J0D01*
G01*
G37*
%TD.AperFunction*%
%TO.P,U6,37*%
%TO.N,ENC_INC_A*%
%TA.AperFunction,SMDPad,CuDef*%
G36*
G01*
X147671800Y-72976400D02*
X147521800Y-72976400D01*
G75*
G02*
X147446800Y-72901400I0J75000D01*
G01*
X147446800Y-71501400D01*
G75*
G02*
X147521800Y-71426400I75000J0D01*
G01*
X147671800Y-71426400D01*
G75*
G02*
X147746800Y-71501400I0J-75000D01*
G01*
X147746800Y-72901400D01*
G75*
G02*
X147671800Y-72976400I-75000J0D01*
G01*
G37*
%TD.AperFunction*%
%TO.P,U6,36*%
%TO.N,Net-(U6-Pad36)*%
%TA.AperFunction,SMDPad,CuDef*%
G36*
G01*
X148171800Y-72976400D02*
X148021800Y-72976400D01*
G75*
G02*
X147946800Y-72901400I0J75000D01*
G01*
X147946800Y-71501400D01*
G75*
G02*
X148021800Y-71426400I75000J0D01*
G01*
X148171800Y-71426400D01*
G75*
G02*
X148246800Y-71501400I0J-75000D01*
G01*
X148246800Y-72901400D01*
G75*
G02*
X148171800Y-72976400I-75000J0D01*
G01*
G37*
%TD.AperFunction*%
%TO.P,U6,35*%
%TO.N,SPI2_MISO*%
%TA.AperFunction,SMDPad,CuDef*%
G36*
G01*
X148671800Y-72976400D02*
X148521800Y-72976400D01*
G75*
G02*
X148446800Y-72901400I0J75000D01*
G01*
X148446800Y-71501400D01*
G75*
G02*
X148521800Y-71426400I75000J0D01*
G01*
X148671800Y-71426400D01*
G75*
G02*
X148746800Y-71501400I0J-75000D01*
G01*
X148746800Y-72901400D01*
G75*
G02*
X148671800Y-72976400I-75000J0D01*
G01*
G37*
%TD.AperFunction*%
%TO.P,U6,34*%
%TO.N,SPI2_SCK*%
%TA.AperFunction,SMDPad,CuDef*%
G36*
G01*
X149171800Y-72976400D02*
X149021800Y-72976400D01*
G75*
G02*
X148946800Y-72901400I0J75000D01*
G01*
X148946800Y-71501400D01*
G75*
G02*
X149021800Y-71426400I75000J0D01*
G01*
X149171800Y-71426400D01*
G75*
G02*
X149246800Y-71501400I0J-75000D01*
G01*
X149246800Y-72901400D01*
G75*
G02*
X149171800Y-72976400I-75000J0D01*
G01*
G37*
%TD.AperFunction*%
%TO.P,U6,33*%
%TO.N,Net-(U6-Pad33)*%
%TA.AperFunction,SMDPad,CuDef*%
G36*
G01*
X149671800Y-72976400D02*
X149521800Y-72976400D01*
G75*
G02*
X149446800Y-72901400I0J75000D01*
G01*
X149446800Y-71501400D01*
G75*
G02*
X149521800Y-71426400I75000J0D01*
G01*
X149671800Y-71426400D01*
G75*
G02*
X149746800Y-71501400I0J-75000D01*
G01*
X149746800Y-72901400D01*
G75*
G02*
X149671800Y-72976400I-75000J0D01*
G01*
G37*
%TD.AperFunction*%
%TO.P,U6,32*%
%TO.N,+3V3*%
%TA.AperFunction,SMDPad,CuDef*%
G36*
G01*
X152221800Y-74276400D02*
X150821800Y-74276400D01*
G75*
G02*
X150746800Y-74201400I0J75000D01*
G01*
X150746800Y-74051400D01*
G75*
G02*
X150821800Y-73976400I75000J0D01*
G01*
X152221800Y-73976400D01*
G75*
G02*
X152296800Y-74051400I0J-75000D01*
G01*
X152296800Y-74201400D01*
G75*
G02*
X152221800Y-74276400I-75000J0D01*
G01*
G37*
%TD.AperFunction*%
%TO.P,U6,31*%
%TO.N,GND*%
%TA.AperFunction,SMDPad,CuDef*%
G36*
G01*
X152221800Y-74776400D02*
X150821800Y-74776400D01*
G75*
G02*
X150746800Y-74701400I0J75000D01*
G01*
X150746800Y-74551400D01*
G75*
G02*
X150821800Y-74476400I75000J0D01*
G01*
X152221800Y-74476400D01*
G75*
G02*
X152296800Y-74551400I0J-75000D01*
G01*
X152296800Y-74701400D01*
G75*
G02*
X152221800Y-74776400I-75000J0D01*
G01*
G37*
%TD.AperFunction*%
%TO.P,U6,30*%
%TO.N,USART3_RX*%
%TA.AperFunction,SMDPad,CuDef*%
G36*
G01*
X152221800Y-75276400D02*
X150821800Y-75276400D01*
G75*
G02*
X150746800Y-75201400I0J75000D01*
G01*
X150746800Y-75051400D01*
G75*
G02*
X150821800Y-74976400I75000J0D01*
G01*
X152221800Y-74976400D01*
G75*
G02*
X152296800Y-75051400I0J-75000D01*
G01*
X152296800Y-75201400D01*
G75*
G02*
X152221800Y-75276400I-75000J0D01*
G01*
G37*
%TD.AperFunction*%
%TO.P,U6,29*%
%TO.N,USART3_TX*%
%TA.AperFunction,SMDPad,CuDef*%
G36*
G01*
X152221800Y-75776400D02*
X150821800Y-75776400D01*
G75*
G02*
X150746800Y-75701400I0J75000D01*
G01*
X150746800Y-75551400D01*
G75*
G02*
X150821800Y-75476400I75000J0D01*
G01*
X152221800Y-75476400D01*
G75*
G02*
X152296800Y-75551400I0J-75000D01*
G01*
X152296800Y-75701400D01*
G75*
G02*
X152221800Y-75776400I-75000J0D01*
G01*
G37*
%TD.AperFunction*%
%TO.P,U6,28*%
%TO.N,INPUT_IT_3*%
%TA.AperFunction,SMDPad,CuDef*%
G36*
G01*
X152221800Y-76276400D02*
X150821800Y-76276400D01*
G75*
G02*
X150746800Y-76201400I0J75000D01*
G01*
X150746800Y-76051400D01*
G75*
G02*
X150821800Y-75976400I75000J0D01*
G01*
X152221800Y-75976400D01*
G75*
G02*
X152296800Y-76051400I0J-75000D01*
G01*
X152296800Y-76201400D01*
G75*
G02*
X152221800Y-76276400I-75000J0D01*
G01*
G37*
%TD.AperFunction*%
%TO.P,U6,27*%
%TO.N,INPUT_IT_2*%
%TA.AperFunction,SMDPad,CuDef*%
G36*
G01*
X152221800Y-76776400D02*
X150821800Y-76776400D01*
G75*
G02*
X150746800Y-76701400I0J75000D01*
G01*
X150746800Y-76551400D01*
G75*
G02*
X150821800Y-76476400I75000J0D01*
G01*
X152221800Y-76476400D01*
G75*
G02*
X152296800Y-76551400I0J-75000D01*
G01*
X152296800Y-76701400D01*
G75*
G02*
X152221800Y-76776400I-75000J0D01*
G01*
G37*
%TD.AperFunction*%
%TO.P,U6,26*%
%TO.N,INPUT_IT_1*%
%TA.AperFunction,SMDPad,CuDef*%
G36*
G01*
X152221800Y-77276400D02*
X150821800Y-77276400D01*
G75*
G02*
X150746800Y-77201400I0J75000D01*
G01*
X150746800Y-77051400D01*
G75*
G02*
X150821800Y-76976400I75000J0D01*
G01*
X152221800Y-76976400D01*
G75*
G02*
X152296800Y-77051400I0J-75000D01*
G01*
X152296800Y-77201400D01*
G75*
G02*
X152221800Y-77276400I-75000J0D01*
G01*
G37*
%TD.AperFunction*%
%TO.P,U6,25*%
%TO.N,V_OUT*%
%TA.AperFunction,SMDPad,CuDef*%
G36*
G01*
X152221800Y-77776400D02*
X150821800Y-77776400D01*
G75*
G02*
X150746800Y-77701400I0J75000D01*
G01*
X150746800Y-77551400D01*
G75*
G02*
X150821800Y-77476400I75000J0D01*
G01*
X152221800Y-77476400D01*
G75*
G02*
X152296800Y-77551400I0J-75000D01*
G01*
X152296800Y-77701400D01*
G75*
G02*
X152221800Y-77776400I-75000J0D01*
G01*
G37*
%TD.AperFunction*%
%TO.P,U6,24*%
%TO.N,Net-(U6-Pad24)*%
%TA.AperFunction,SMDPad,CuDef*%
G36*
G01*
X152221800Y-78276400D02*
X150821800Y-78276400D01*
G75*
G02*
X150746800Y-78201400I0J75000D01*
G01*
X150746800Y-78051400D01*
G75*
G02*
X150821800Y-77976400I75000J0D01*
G01*
X152221800Y-77976400D01*
G75*
G02*
X152296800Y-78051400I0J-75000D01*
G01*
X152296800Y-78201400D01*
G75*
G02*
X152221800Y-78276400I-75000J0D01*
G01*
G37*
%TD.AperFunction*%
%TO.P,U6,23*%
%TO.N,SD2*%
%TA.AperFunction,SMDPad,CuDef*%
G36*
G01*
X152221800Y-78776400D02*
X150821800Y-78776400D01*
G75*
G02*
X150746800Y-78701400I0J75000D01*
G01*
X150746800Y-78551400D01*
G75*
G02*
X150821800Y-78476400I75000J0D01*
G01*
X152221800Y-78476400D01*
G75*
G02*
X152296800Y-78551400I0J-75000D01*
G01*
X152296800Y-78701400D01*
G75*
G02*
X152221800Y-78776400I-75000J0D01*
G01*
G37*
%TD.AperFunction*%
%TO.P,U6,22*%
%TO.N,SD1*%
%TA.AperFunction,SMDPad,CuDef*%
G36*
G01*
X152221800Y-79276400D02*
X150821800Y-79276400D01*
G75*
G02*
X150746800Y-79201400I0J75000D01*
G01*
X150746800Y-79051400D01*
G75*
G02*
X150821800Y-78976400I75000J0D01*
G01*
X152221800Y-78976400D01*
G75*
G02*
X152296800Y-79051400I0J-75000D01*
G01*
X152296800Y-79201400D01*
G75*
G02*
X152221800Y-79276400I-75000J0D01*
G01*
G37*
%TD.AperFunction*%
%TO.P,U6,21*%
%TO.N,ERROR_INDICATOR*%
%TA.AperFunction,SMDPad,CuDef*%
G36*
G01*
X152221800Y-79776400D02*
X150821800Y-79776400D01*
G75*
G02*
X150746800Y-79701400I0J75000D01*
G01*
X150746800Y-79551400D01*
G75*
G02*
X150821800Y-79476400I75000J0D01*
G01*
X152221800Y-79476400D01*
G75*
G02*
X152296800Y-79551400I0J-75000D01*
G01*
X152296800Y-79701400D01*
G75*
G02*
X152221800Y-79776400I-75000J0D01*
G01*
G37*
%TD.AperFunction*%
%TO.P,U6,20*%
%TO.N,MODE_INDICATOR*%
%TA.AperFunction,SMDPad,CuDef*%
G36*
G01*
X152221800Y-80276400D02*
X150821800Y-80276400D01*
G75*
G02*
X150746800Y-80201400I0J75000D01*
G01*
X150746800Y-80051400D01*
G75*
G02*
X150821800Y-79976400I75000J0D01*
G01*
X152221800Y-79976400D01*
G75*
G02*
X152296800Y-80051400I0J-75000D01*
G01*
X152296800Y-80201400D01*
G75*
G02*
X152221800Y-80276400I-75000J0D01*
G01*
G37*
%TD.AperFunction*%
%TO.P,U6,19*%
%TO.N,+3V3*%
%TA.AperFunction,SMDPad,CuDef*%
G36*
G01*
X152221800Y-80776400D02*
X150821800Y-80776400D01*
G75*
G02*
X150746800Y-80701400I0J75000D01*
G01*
X150746800Y-80551400D01*
G75*
G02*
X150821800Y-80476400I75000J0D01*
G01*
X152221800Y-80476400D01*
G75*
G02*
X152296800Y-80551400I0J-75000D01*
G01*
X152296800Y-80701400D01*
G75*
G02*
X152221800Y-80776400I-75000J0D01*
G01*
G37*
%TD.AperFunction*%
%TO.P,U6,18*%
%TO.N,GND*%
%TA.AperFunction,SMDPad,CuDef*%
G36*
G01*
X152221800Y-81276400D02*
X150821800Y-81276400D01*
G75*
G02*
X150746800Y-81201400I0J75000D01*
G01*
X150746800Y-81051400D01*
G75*
G02*
X150821800Y-80976400I75000J0D01*
G01*
X152221800Y-80976400D01*
G75*
G02*
X152296800Y-81051400I0J-75000D01*
G01*
X152296800Y-81201400D01*
G75*
G02*
X152221800Y-81276400I-75000J0D01*
G01*
G37*
%TD.AperFunction*%
%TO.P,U6,17*%
%TO.N,STATUS_INDICATOR*%
%TA.AperFunction,SMDPad,CuDef*%
G36*
G01*
X152221800Y-81776400D02*
X150821800Y-81776400D01*
G75*
G02*
X150746800Y-81701400I0J75000D01*
G01*
X150746800Y-81551400D01*
G75*
G02*
X150821800Y-81476400I75000J0D01*
G01*
X152221800Y-81476400D01*
G75*
G02*
X152296800Y-81551400I0J-75000D01*
G01*
X152296800Y-81701400D01*
G75*
G02*
X152221800Y-81776400I-75000J0D01*
G01*
G37*
%TD.AperFunction*%
%TO.P,U6,16*%
%TO.N,MAGNET_PRESENCE*%
%TA.AperFunction,SMDPad,CuDef*%
G36*
G01*
X149671800Y-84326400D02*
X149521800Y-84326400D01*
G75*
G02*
X149446800Y-84251400I0J75000D01*
G01*
X149446800Y-82851400D01*
G75*
G02*
X149521800Y-82776400I75000J0D01*
G01*
X149671800Y-82776400D01*
G75*
G02*
X149746800Y-82851400I0J-75000D01*
G01*
X149746800Y-84251400D01*
G75*
G02*
X149671800Y-84326400I-75000J0D01*
G01*
G37*
%TD.AperFunction*%
%TO.P,U6,15*%
%TO.N,ADC1_IN1*%
%TA.AperFunction,SMDPad,CuDef*%
G36*
G01*
X149171800Y-84326400D02*
X149021800Y-84326400D01*
G75*
G02*
X148946800Y-84251400I0J75000D01*
G01*
X148946800Y-82851400D01*
G75*
G02*
X149021800Y-82776400I75000J0D01*
G01*
X149171800Y-82776400D01*
G75*
G02*
X149246800Y-82851400I0J-75000D01*
G01*
X149246800Y-84251400D01*
G75*
G02*
X149171800Y-84326400I-75000J0D01*
G01*
G37*
%TD.AperFunction*%
%TO.P,U6,14*%
%TO.N,ADC1_IN0*%
%TA.AperFunction,SMDPad,CuDef*%
G36*
G01*
X148671800Y-84326400D02*
X148521800Y-84326400D01*
G75*
G02*
X148446800Y-84251400I0J75000D01*
G01*
X148446800Y-82851400D01*
G75*
G02*
X148521800Y-82776400I75000J0D01*
G01*
X148671800Y-82776400D01*
G75*
G02*
X148746800Y-82851400I0J-75000D01*
G01*
X148746800Y-84251400D01*
G75*
G02*
X148671800Y-84326400I-75000J0D01*
G01*
G37*
%TD.AperFunction*%
%TO.P,U6,13*%
%TO.N,+3.3VA*%
%TA.AperFunction,SMDPad,CuDef*%
G36*
G01*
X148171800Y-84326400D02*
X148021800Y-84326400D01*
G75*
G02*
X147946800Y-84251400I0J75000D01*
G01*
X147946800Y-82851400D01*
G75*
G02*
X148021800Y-82776400I75000J0D01*
G01*
X148171800Y-82776400D01*
G75*
G02*
X148246800Y-82851400I0J-75000D01*
G01*
X148246800Y-84251400D01*
G75*
G02*
X148171800Y-84326400I-75000J0D01*
G01*
G37*
%TD.AperFunction*%
%TO.P,U6,12*%
%TO.N,GND*%
%TA.AperFunction,SMDPad,CuDef*%
G36*
G01*
X147671800Y-84326400D02*
X147521800Y-84326400D01*
G75*
G02*
X147446800Y-84251400I0J75000D01*
G01*
X147446800Y-82851400D01*
G75*
G02*
X147521800Y-82776400I75000J0D01*
G01*
X147671800Y-82776400D01*
G75*
G02*
X147746800Y-82851400I0J-75000D01*
G01*
X147746800Y-84251400D01*
G75*
G02*
X147671800Y-84326400I-75000J0D01*
G01*
G37*
%TD.AperFunction*%
%TO.P,U6,11*%
%TO.N,POSITION_INDICATOR_4*%
%TA.AperFunction,SMDPad,CuDef*%
G36*
G01*
X147171800Y-84326400D02*
X147021800Y-84326400D01*
G75*
G02*
X146946800Y-84251400I0J75000D01*
G01*
X146946800Y-82851400D01*
G75*
G02*
X147021800Y-82776400I75000J0D01*
G01*
X147171800Y-82776400D01*
G75*
G02*
X147246800Y-82851400I0J-75000D01*
G01*
X147246800Y-84251400D01*
G75*
G02*
X147171800Y-84326400I-75000J0D01*
G01*
G37*
%TD.AperFunction*%
%TO.P,U6,10*%
%TO.N,POSITION_INDICATOR_3*%
%TA.AperFunction,SMDPad,CuDef*%
G36*
G01*
X146671800Y-84326400D02*
X146521800Y-84326400D01*
G75*
G02*
X146446800Y-84251400I0J75000D01*
G01*
X146446800Y-82851400D01*
G75*
G02*
X146521800Y-82776400I75000J0D01*
G01*
X146671800Y-82776400D01*
G75*
G02*
X146746800Y-82851400I0J-75000D01*
G01*
X146746800Y-84251400D01*
G75*
G02*
X146671800Y-84326400I-75000J0D01*
G01*
G37*
%TD.AperFunction*%
%TO.P,U6,9*%
%TO.N,POSITION_INDICATOR_2*%
%TA.AperFunction,SMDPad,CuDef*%
G36*
G01*
X146171800Y-84326400D02*
X146021800Y-84326400D01*
G75*
G02*
X145946800Y-84251400I0J75000D01*
G01*
X145946800Y-82851400D01*
G75*
G02*
X146021800Y-82776400I75000J0D01*
G01*
X146171800Y-82776400D01*
G75*
G02*
X146246800Y-82851400I0J-75000D01*
G01*
X146246800Y-84251400D01*
G75*
G02*
X146171800Y-84326400I-75000J0D01*
G01*
G37*
%TD.AperFunction*%
%TO.P,U6,8*%
%TO.N,POSITION_INDICATOR_1*%
%TA.AperFunction,SMDPad,CuDef*%
G36*
G01*
X145671800Y-84326400D02*
X145521800Y-84326400D01*
G75*
G02*
X145446800Y-84251400I0J75000D01*
G01*
X145446800Y-82851400D01*
G75*
G02*
X145521800Y-82776400I75000J0D01*
G01*
X145671800Y-82776400D01*
G75*
G02*
X145746800Y-82851400I0J-75000D01*
G01*
X145746800Y-84251400D01*
G75*
G02*
X145671800Y-84326400I-75000J0D01*
G01*
G37*
%TD.AperFunction*%
%TO.P,U6,7*%
%TO.N,NRST*%
%TA.AperFunction,SMDPad,CuDef*%
G36*
G01*
X145171800Y-84326400D02*
X145021800Y-84326400D01*
G75*
G02*
X144946800Y-84251400I0J75000D01*
G01*
X144946800Y-82851400D01*
G75*
G02*
X145021800Y-82776400I75000J0D01*
G01*
X145171800Y-82776400D01*
G75*
G02*
X145246800Y-82851400I0J-75000D01*
G01*
X145246800Y-84251400D01*
G75*
G02*
X145171800Y-84326400I-75000J0D01*
G01*
G37*
%TD.AperFunction*%
%TO.P,U6,6*%
%TO.N,OSC_OUT*%
%TA.AperFunction,SMDPad,CuDef*%
G36*
G01*
X144671800Y-84326400D02*
X144521800Y-84326400D01*
G75*
G02*
X144446800Y-84251400I0J75000D01*
G01*
X144446800Y-82851400D01*
G75*
G02*
X144521800Y-82776400I75000J0D01*
G01*
X144671800Y-82776400D01*
G75*
G02*
X144746800Y-82851400I0J-75000D01*
G01*
X144746800Y-84251400D01*
G75*
G02*
X144671800Y-84326400I-75000J0D01*
G01*
G37*
%TD.AperFunction*%
%TO.P,U6,5*%
%TO.N,OSC_IN*%
%TA.AperFunction,SMDPad,CuDef*%
G36*
G01*
X144171800Y-84326400D02*
X144021800Y-84326400D01*
G75*
G02*
X143946800Y-84251400I0J75000D01*
G01*
X143946800Y-82851400D01*
G75*
G02*
X144021800Y-82776400I75000J0D01*
G01*
X144171800Y-82776400D01*
G75*
G02*
X144246800Y-82851400I0J-75000D01*
G01*
X144246800Y-84251400D01*
G75*
G02*
X144171800Y-84326400I-75000J0D01*
G01*
G37*
%TD.AperFunction*%
%TO.P,U6,4*%
%TO.N,CAN_SILENT_MODE*%
%TA.AperFunction,SMDPad,CuDef*%
G36*
G01*
X143671800Y-84326400D02*
X143521800Y-84326400D01*
G75*
G02*
X143446800Y-84251400I0J75000D01*
G01*
X143446800Y-82851400D01*
G75*
G02*
X143521800Y-82776400I75000J0D01*
G01*
X143671800Y-82776400D01*
G75*
G02*
X143746800Y-82851400I0J-75000D01*
G01*
X143746800Y-84251400D01*
G75*
G02*
X143671800Y-84326400I-75000J0D01*
G01*
G37*
%TD.AperFunction*%
%TO.P,U6,3*%
%TO.N,TURN_DIR_PIN*%
%TA.AperFunction,SMDPad,CuDef*%
G36*
G01*
X143171800Y-84326400D02*
X143021800Y-84326400D01*
G75*
G02*
X142946800Y-84251400I0J75000D01*
G01*
X142946800Y-82851400D01*
G75*
G02*
X143021800Y-82776400I75000J0D01*
G01*
X143171800Y-82776400D01*
G75*
G02*
X143246800Y-82851400I0J-75000D01*
G01*
X143246800Y-84251400D01*
G75*
G02*
X143171800Y-84326400I-75000J0D01*
G01*
G37*
%TD.AperFunction*%
%TO.P,U6,2*%
%TO.N,PUSH_BUTTON*%
%TA.AperFunction,SMDPad,CuDef*%
G36*
G01*
X142671800Y-84326400D02*
X142521800Y-84326400D01*
G75*
G02*
X142446800Y-84251400I0J75000D01*
G01*
X142446800Y-82851400D01*
G75*
G02*
X142521800Y-82776400I75000J0D01*
G01*
X142671800Y-82776400D01*
G75*
G02*
X142746800Y-82851400I0J-75000D01*
G01*
X142746800Y-84251400D01*
G75*
G02*
X142671800Y-84326400I-75000J0D01*
G01*
G37*
%TD.AperFunction*%
%TO.P,U6,1*%
%TO.N,+3V3*%
%TA.AperFunction,SMDPad,CuDef*%
G36*
G01*
X142171800Y-84326400D02*
X142021800Y-84326400D01*
G75*
G02*
X141946800Y-84251400I0J75000D01*
G01*
X141946800Y-82851400D01*
G75*
G02*
X142021800Y-82776400I75000J0D01*
G01*
X142171800Y-82776400D01*
G75*
G02*
X142246800Y-82851400I0J-75000D01*
G01*
X142246800Y-84251400D01*
G75*
G02*
X142171800Y-84326400I-75000J0D01*
G01*
G37*
%TD.AperFunction*%
%TD*%
%TO.P,C28,2*%
%TO.N,+3.3VA*%
%TA.AperFunction,SMDPad,CuDef*%
G36*
G01*
X151478000Y-87815000D02*
X150528000Y-87815000D01*
G75*
G02*
X150278000Y-87565000I0J250000D01*
G01*
X150278000Y-87065000D01*
G75*
G02*
X150528000Y-86815000I250000J0D01*
G01*
X151478000Y-86815000D01*
G75*
G02*
X151728000Y-87065000I0J-250000D01*
G01*
X151728000Y-87565000D01*
G75*
G02*
X151478000Y-87815000I-250000J0D01*
G01*
G37*
%TD.AperFunction*%
%TO.P,C28,1*%
%TO.N,GND*%
%TA.AperFunction,SMDPad,CuDef*%
G36*
G01*
X151478000Y-89715000D02*
X150528000Y-89715000D01*
G75*
G02*
X150278000Y-89465000I0J250000D01*
G01*
X150278000Y-88965000D01*
G75*
G02*
X150528000Y-88715000I250000J0D01*
G01*
X151478000Y-88715000D01*
G75*
G02*
X151728000Y-88965000I0J-250000D01*
G01*
X151728000Y-89465000D01*
G75*
G02*
X151478000Y-89715000I-250000J0D01*
G01*
G37*
%TD.AperFunction*%
%TD*%
%TO.P,C19,2*%
%TO.N,+3V3*%
%TA.AperFunction,SMDPad,CuDef*%
G36*
G01*
X138651801Y-86116400D02*
X137801799Y-86116400D01*
G75*
G02*
X137551800Y-85866401I0J249999D01*
G01*
X137551800Y-84966399D01*
G75*
G02*
X137801799Y-84716400I249999J0D01*
G01*
X138651801Y-84716400D01*
G75*
G02*
X138901800Y-84966399I0J-249999D01*
G01*
X138901800Y-85866401D01*
G75*
G02*
X138651801Y-86116400I-249999J0D01*
G01*
G37*
%TD.AperFunction*%
%TO.P,C19,1*%
%TO.N,GND*%
%TA.AperFunction,SMDPad,CuDef*%
G36*
G01*
X138651801Y-88816400D02*
X137801799Y-88816400D01*
G75*
G02*
X137551800Y-88566401I0J249999D01*
G01*
X137551800Y-87666399D01*
G75*
G02*
X137801799Y-87416400I249999J0D01*
G01*
X138651801Y-87416400D01*
G75*
G02*
X138901800Y-87666399I0J-249999D01*
G01*
X138901800Y-88566401D01*
G75*
G02*
X138651801Y-88816400I-249999J0D01*
G01*
G37*
%TD.AperFunction*%
%TD*%
%TO.P,C15,2*%
%TO.N,GND*%
%TA.AperFunction,SMDPad,CuDef*%
G36*
G01*
X129960000Y-84084999D02*
X129960000Y-84935001D01*
G75*
G02*
X129710001Y-85185000I-249999J0D01*
G01*
X128809999Y-85185000D01*
G75*
G02*
X128560000Y-84935001I0J249999D01*
G01*
X128560000Y-84084999D01*
G75*
G02*
X128809999Y-83835000I249999J0D01*
G01*
X129710001Y-83835000D01*
G75*
G02*
X129960000Y-84084999I0J-249999D01*
G01*
G37*
%TD.AperFunction*%
%TO.P,C15,1*%
%TO.N,Net-(C14-Pad2)*%
%TA.AperFunction,SMDPad,CuDef*%
G36*
G01*
X132660000Y-84084999D02*
X132660000Y-84935001D01*
G75*
G02*
X132410001Y-85185000I-249999J0D01*
G01*
X131509999Y-85185000D01*
G75*
G02*
X131260000Y-84935001I0J249999D01*
G01*
X131260000Y-84084999D01*
G75*
G02*
X131509999Y-83835000I249999J0D01*
G01*
X132410001Y-83835000D01*
G75*
G02*
X132660000Y-84084999I0J-249999D01*
G01*
G37*
%TD.AperFunction*%
%TD*%
%TO.P,C11,2*%
%TO.N,GND*%
%TA.AperFunction,SMDPad,CuDef*%
G36*
G01*
X129760000Y-79685000D02*
X129760000Y-80635000D01*
G75*
G02*
X129510000Y-80885000I-250000J0D01*
G01*
X129010000Y-80885000D01*
G75*
G02*
X128760000Y-80635000I0J250000D01*
G01*
X128760000Y-79685000D01*
G75*
G02*
X129010000Y-79435000I250000J0D01*
G01*
X129510000Y-79435000D01*
G75*
G02*
X129760000Y-79685000I0J-250000D01*
G01*
G37*
%TD.AperFunction*%
%TO.P,C11,1*%
%TO.N,Net-(C11-Pad1)*%
%TA.AperFunction,SMDPad,CuDef*%
G36*
G01*
X131660000Y-79685000D02*
X131660000Y-80635000D01*
G75*
G02*
X131410000Y-80885000I-250000J0D01*
G01*
X130910000Y-80885000D01*
G75*
G02*
X130660000Y-80635000I0J250000D01*
G01*
X130660000Y-79685000D01*
G75*
G02*
X130910000Y-79435000I250000J0D01*
G01*
X131410000Y-79435000D01*
G75*
G02*
X131660000Y-79685000I0J-250000D01*
G01*
G37*
%TD.AperFunction*%
%TD*%
%TO.P,C10,2*%
%TO.N,GND*%
%TA.AperFunction,SMDPad,CuDef*%
G36*
G01*
X129268400Y-76403599D02*
X129268400Y-77253601D01*
G75*
G02*
X129018401Y-77503600I-249999J0D01*
G01*
X128118399Y-77503600D01*
G75*
G02*
X127868400Y-77253601I0J249999D01*
G01*
X127868400Y-76403599D01*
G75*
G02*
X128118399Y-76153600I249999J0D01*
G01*
X129018401Y-76153600D01*
G75*
G02*
X129268400Y-76403599I0J-249999D01*
G01*
G37*
%TD.AperFunction*%
%TO.P,C10,1*%
%TO.N,+3V3*%
%TA.AperFunction,SMDPad,CuDef*%
G36*
G01*
X131968400Y-76403599D02*
X131968400Y-77253601D01*
G75*
G02*
X131718401Y-77503600I-249999J0D01*
G01*
X130818399Y-77503600D01*
G75*
G02*
X130568400Y-77253601I0J249999D01*
G01*
X130568400Y-76403599D01*
G75*
G02*
X130818399Y-76153600I249999J0D01*
G01*
X131718401Y-76153600D01*
G75*
G02*
X131968400Y-76403599I0J-249999D01*
G01*
G37*
%TD.AperFunction*%
%TD*%
%TO.P,D2,1*%
%TO.N,GND*%
%TA.AperFunction,SMDPad,CuDef*%
G36*
G01*
X161168800Y-82573150D02*
X161168800Y-83085650D01*
G75*
G02*
X160950050Y-83304400I-218750J0D01*
G01*
X160512550Y-83304400D01*
G75*
G02*
X160293800Y-83085650I0J218750D01*
G01*
X160293800Y-82573150D01*
G75*
G02*
X160512550Y-82354400I218750J0D01*
G01*
X160950050Y-82354400D01*
G75*
G02*
X161168800Y-82573150I0J-218750D01*
G01*
G37*
%TD.AperFunction*%
%TO.P,D2,2*%
%TO.N,Net-(D2-Pad2)*%
%TA.AperFunction,SMDPad,CuDef*%
G36*
G01*
X159593800Y-82573150D02*
X159593800Y-83085650D01*
G75*
G02*
X159375050Y-83304400I-218750J0D01*
G01*
X158937550Y-83304400D01*
G75*
G02*
X158718800Y-83085650I0J218750D01*
G01*
X158718800Y-82573150D01*
G75*
G02*
X158937550Y-82354400I218750J0D01*
G01*
X159375050Y-82354400D01*
G75*
G02*
X159593800Y-82573150I0J-218750D01*
G01*
G37*
%TD.AperFunction*%
%TD*%
%TO.P,D3,2*%
%TO.N,Net-(D3-Pad2)*%
%TA.AperFunction,SMDPad,CuDef*%
G36*
G01*
X159593800Y-80350650D02*
X159593800Y-80863150D01*
G75*
G02*
X159375050Y-81081900I-218750J0D01*
G01*
X158937550Y-81081900D01*
G75*
G02*
X158718800Y-80863150I0J218750D01*
G01*
X158718800Y-80350650D01*
G75*
G02*
X158937550Y-80131900I218750J0D01*
G01*
X159375050Y-80131900D01*
G75*
G02*
X159593800Y-80350650I0J-218750D01*
G01*
G37*
%TD.AperFunction*%
%TO.P,D3,1*%
%TO.N,GND*%
%TA.AperFunction,SMDPad,CuDef*%
G36*
G01*
X161168800Y-80350650D02*
X161168800Y-80863150D01*
G75*
G02*
X160950050Y-81081900I-218750J0D01*
G01*
X160512550Y-81081900D01*
G75*
G02*
X160293800Y-80863150I0J218750D01*
G01*
X160293800Y-80350650D01*
G75*
G02*
X160512550Y-80131900I218750J0D01*
G01*
X160950050Y-80131900D01*
G75*
G02*
X161168800Y-80350650I0J-218750D01*
G01*
G37*
%TD.AperFunction*%
%TD*%
%TO.P,D4,1*%
%TO.N,GND*%
%TA.AperFunction,SMDPad,CuDef*%
G36*
G01*
X161168800Y-78255150D02*
X161168800Y-78767650D01*
G75*
G02*
X160950050Y-78986400I-218750J0D01*
G01*
X160512550Y-78986400D01*
G75*
G02*
X160293800Y-78767650I0J218750D01*
G01*
X160293800Y-78255150D01*
G75*
G02*
X160512550Y-78036400I218750J0D01*
G01*
X160950050Y-78036400D01*
G75*
G02*
X161168800Y-78255150I0J-218750D01*
G01*
G37*
%TD.AperFunction*%
%TO.P,D4,2*%
%TO.N,Net-(D4-Pad2)*%
%TA.AperFunction,SMDPad,CuDef*%
G36*
G01*
X159593800Y-78255150D02*
X159593800Y-78767650D01*
G75*
G02*
X159375050Y-78986400I-218750J0D01*
G01*
X158937550Y-78986400D01*
G75*
G02*
X158718800Y-78767650I0J218750D01*
G01*
X158718800Y-78255150D01*
G75*
G02*
X158937550Y-78036400I218750J0D01*
G01*
X159375050Y-78036400D01*
G75*
G02*
X159593800Y-78255150I0J-218750D01*
G01*
G37*
%TD.AperFunction*%
%TD*%
D28*
%TO.P,J4,1*%
%TO.N,V_in*%
X192786000Y-72136000D03*
D29*
%TO.P,J4,2*%
%TO.N,GND*%
X192786000Y-67056000D03*
%TO.P,J4,3*%
%TO.N,+5V*%
X192786000Y-61976000D03*
%TD*%
D28*
%TO.P,J5,1*%
%TO.N,CAN_L*%
X192786000Y-96774000D03*
D29*
%TO.P,J5,2*%
%TO.N,CAN_H*%
X192786000Y-91694000D03*
%TD*%
%TO.P,R8,1*%
%TO.N,STATUS_INDICATOR*%
%TA.AperFunction,SMDPad,CuDef*%
G36*
G01*
X156369800Y-83014400D02*
X156369800Y-82644400D01*
G75*
G02*
X156504800Y-82509400I135000J0D01*
G01*
X156774800Y-82509400D01*
G75*
G02*
X156909800Y-82644400I0J-135000D01*
G01*
X156909800Y-83014400D01*
G75*
G02*
X156774800Y-83149400I-135000J0D01*
G01*
X156504800Y-83149400D01*
G75*
G02*
X156369800Y-83014400I0J135000D01*
G01*
G37*
%TD.AperFunction*%
%TO.P,R8,2*%
%TO.N,Net-(D2-Pad2)*%
%TA.AperFunction,SMDPad,CuDef*%
G36*
G01*
X157389800Y-83014400D02*
X157389800Y-82644400D01*
G75*
G02*
X157524800Y-82509400I135000J0D01*
G01*
X157794800Y-82509400D01*
G75*
G02*
X157929800Y-82644400I0J-135000D01*
G01*
X157929800Y-83014400D01*
G75*
G02*
X157794800Y-83149400I-135000J0D01*
G01*
X157524800Y-83149400D01*
G75*
G02*
X157389800Y-83014400I0J135000D01*
G01*
G37*
%TD.AperFunction*%
%TD*%
%TO.P,R9,2*%
%TO.N,Net-(D3-Pad2)*%
%TA.AperFunction,SMDPad,CuDef*%
G36*
G01*
X157389800Y-80791900D02*
X157389800Y-80421900D01*
G75*
G02*
X157524800Y-80286900I135000J0D01*
G01*
X157794800Y-80286900D01*
G75*
G02*
X157929800Y-80421900I0J-135000D01*
G01*
X157929800Y-80791900D01*
G75*
G02*
X157794800Y-80926900I-135000J0D01*
G01*
X157524800Y-80926900D01*
G75*
G02*
X157389800Y-80791900I0J135000D01*
G01*
G37*
%TD.AperFunction*%
%TO.P,R9,1*%
%TO.N,MODE_INDICATOR*%
%TA.AperFunction,SMDPad,CuDef*%
G36*
G01*
X156369800Y-80791900D02*
X156369800Y-80421900D01*
G75*
G02*
X156504800Y-80286900I135000J0D01*
G01*
X156774800Y-80286900D01*
G75*
G02*
X156909800Y-80421900I0J-135000D01*
G01*
X156909800Y-80791900D01*
G75*
G02*
X156774800Y-80926900I-135000J0D01*
G01*
X156504800Y-80926900D01*
G75*
G02*
X156369800Y-80791900I0J135000D01*
G01*
G37*
%TD.AperFunction*%
%TD*%
%TO.P,R10,1*%
%TO.N,ERROR_INDICATOR*%
%TA.AperFunction,SMDPad,CuDef*%
G36*
G01*
X156369800Y-78696400D02*
X156369800Y-78326400D01*
G75*
G02*
X156504800Y-78191400I135000J0D01*
G01*
X156774800Y-78191400D01*
G75*
G02*
X156909800Y-78326400I0J-135000D01*
G01*
X156909800Y-78696400D01*
G75*
G02*
X156774800Y-78831400I-135000J0D01*
G01*
X156504800Y-78831400D01*
G75*
G02*
X156369800Y-78696400I0J135000D01*
G01*
G37*
%TD.AperFunction*%
%TO.P,R10,2*%
%TO.N,Net-(D4-Pad2)*%
%TA.AperFunction,SMDPad,CuDef*%
G36*
G01*
X157389800Y-78696400D02*
X157389800Y-78326400D01*
G75*
G02*
X157524800Y-78191400I135000J0D01*
G01*
X157794800Y-78191400D01*
G75*
G02*
X157929800Y-78326400I0J-135000D01*
G01*
X157929800Y-78696400D01*
G75*
G02*
X157794800Y-78831400I-135000J0D01*
G01*
X157524800Y-78831400D01*
G75*
G02*
X157389800Y-78696400I0J135000D01*
G01*
G37*
%TD.AperFunction*%
%TD*%
D30*
%TO.N,GND*%
X149230000Y-80780000D03*
X155318887Y-80876400D03*
X148237877Y-81946850D03*
X146558000Y-85090000D03*
D31*
X147050627Y-87162484D03*
D30*
X143256000Y-86487000D03*
X140462000Y-87757000D03*
X140716000Y-86614000D03*
X146939000Y-90170000D03*
X151765000Y-90373780D03*
X139319000Y-91440000D03*
X138430000Y-89789000D03*
X136144000Y-92710000D03*
X137414000Y-94107000D03*
X138049000Y-83693000D03*
X143145050Y-67425622D03*
X148045000Y-67654000D03*
X150495000Y-66294000D03*
X162814000Y-60706000D03*
X161798000Y-60706000D03*
X160782000Y-60706000D03*
X167005000Y-60706000D03*
X168148000Y-60706000D03*
X169291000Y-60706000D03*
X151511000Y-71755000D03*
X154051000Y-72898000D03*
X155321000Y-72898000D03*
X159385000Y-77089000D03*
X160655000Y-77089000D03*
X134112000Y-60198000D03*
X142171847Y-69029153D03*
X143256000Y-65151000D03*
X144346964Y-79166855D03*
D31*
X133880000Y-72570000D03*
X134890000Y-72850000D03*
X137380000Y-70340000D03*
X135060000Y-79355000D03*
X129040000Y-78410000D03*
X129890000Y-78450000D03*
X129100000Y-81790000D03*
X129120000Y-82890000D03*
X129570000Y-86400000D03*
X134430000Y-87230000D03*
X135270000Y-87200000D03*
X195090000Y-65860000D03*
X195990000Y-65880000D03*
X197020000Y-65870000D03*
X195100000Y-66890000D03*
X196040000Y-66820000D03*
X197050000Y-66910000D03*
X195100000Y-67920000D03*
X196040000Y-67950000D03*
X197020000Y-68010000D03*
X187050000Y-84120000D03*
X187040000Y-83120000D03*
X187050000Y-81860000D03*
X187050000Y-80920000D03*
D30*
X176530000Y-86360000D03*
X177292000Y-86995000D03*
X178562000Y-86995000D03*
%TO.N,+3V3*%
X148590000Y-90373780D03*
X140843000Y-91313000D03*
X141097000Y-84455000D03*
X155321000Y-63627000D03*
X151892000Y-62611000D03*
X153035000Y-62611000D03*
X154178000Y-62611000D03*
X155321000Y-62611000D03*
X156464000Y-62611000D03*
X157480000Y-62611000D03*
X151892000Y-63627000D03*
X153035000Y-63627000D03*
X154178000Y-63627000D03*
X156464000Y-63627000D03*
X157480000Y-63627000D03*
X141097000Y-69215000D03*
X140716000Y-68326000D03*
X140844210Y-65403790D03*
X154559000Y-71882000D03*
X152527000Y-72136000D03*
X137795000Y-60198000D03*
X139700000Y-85852000D03*
D31*
X133340000Y-80030000D03*
X133570000Y-79180000D03*
X135930000Y-78880000D03*
X149470000Y-79480000D03*
X139573000Y-84836000D03*
X139038952Y-83551579D03*
D30*
%TO.N,+5V*%
X167132000Y-67564000D03*
X168529000Y-67564000D03*
D31*
X168529000Y-66641000D03*
X167642500Y-66672500D03*
X144000000Y-99250000D03*
X157620000Y-84950000D03*
X156220000Y-87980000D03*
X146450000Y-94450000D03*
D30*
%TO.N,CAN_H*%
X179038500Y-98271000D03*
%TO.N,SWCLK*%
X136042400Y-68630800D03*
X136042400Y-65582800D03*
%TO.N,NRST*%
X135737600Y-60756800D03*
D31*
X147421600Y-86309200D03*
D30*
%TO.N,SPI2_SCK*%
X149346800Y-74138716D03*
X141071600Y-71870000D03*
%TO.N,I2C1_SCL*%
X144081500Y-75946000D03*
D31*
%TO.N,I2C1_SDA*%
X142940000Y-78350000D03*
%TO.N,ZEROING_PIN*%
X141859000Y-77343000D03*
D30*
%TO.N,PSM*%
X139509500Y-72644000D03*
%TO.N,V_OUT*%
X148945600Y-77622400D03*
%TO.N,MAGNET_PRESENCE*%
X149758400Y-81838800D03*
%TO.N,TURN_DIR_PIN*%
X140004800Y-83261200D03*
%TO.N,U_PIN*%
X136017810Y-77896076D03*
%TO.N,V_PIN*%
X135892714Y-76903929D03*
%TO.N,W_PIN*%
X135445500Y-76009500D03*
D31*
%TO.N,ENC_INC_A*%
X142120000Y-79930000D03*
D30*
%TO.N,ENC_INC_B*%
X145300000Y-75946000D03*
%TO.N,ENC_INC_Ri*%
X146050000Y-74041000D03*
%TO.N,SPI2_MISO*%
X144589500Y-80137000D03*
%TO.N,CAN_SILENT_MODE*%
X143346800Y-85140800D03*
X141732000Y-94488000D03*
%TO.N,HIN_2*%
X148183600Y-68834000D03*
%TO.N,DIRECTION*%
X149453600Y-67474400D03*
%TO.N,HIN_1*%
X149922302Y-68974400D03*
%TO.N,INPUT_IT_3*%
X153670000Y-74980800D03*
%TO.N,INPUT_IT_2*%
X154787600Y-75031600D03*
%TO.N,INPUT_IT_1*%
X156057600Y-75031600D03*
%TO.N,SD2*%
X155240677Y-78121877D03*
X162306000Y-88595200D03*
%TO.N,SD1*%
X154584400Y-78876400D03*
X165506400Y-89560400D03*
%TO.N,ADC1_IN1*%
X161899600Y-86969600D03*
%TO.N,POSITION_INDICATOR_4*%
X147566194Y-81206009D03*
%TO.N,POSITION_INDICATOR_3*%
X146841194Y-80207060D03*
%TO.N,POSITION_INDICATOR_2*%
X145993872Y-80738143D03*
%TO.N,POSITION_INDICATOR_1*%
X145352401Y-82042000D03*
D31*
%TO.N,Net-(C6-Pad1)*%
X135825000Y-84430000D03*
%TO.N,Net-(C11-Pad1)*%
X132860000Y-81080000D03*
%TO.N,Net-(C9-Pad1)*%
X134710000Y-84380000D03*
%TO.N,Net-(C12-Pad1)*%
X136120000Y-72470000D03*
%TO.N,Net-(C14-Pad2)*%
X133460000Y-84080000D03*
%TD*%
D32*
%TO.N,GND*%
X183636000Y-82550000D02*
X192786000Y-82550000D01*
X179581000Y-85950000D02*
X183636000Y-85950000D01*
X178562000Y-84931000D02*
X179581000Y-85950000D01*
X192786000Y-82550000D02*
X192786000Y-79502000D01*
X147596800Y-85123200D02*
X147596800Y-83551400D01*
X147376000Y-85344000D02*
X147596800Y-85123200D01*
D33*
X137464800Y-95300800D02*
X137414000Y-95250000D01*
X139333200Y-95300800D02*
X137464800Y-95300800D01*
X136273500Y-94109500D02*
X137414000Y-95250000D01*
X135572500Y-94109500D02*
X136273500Y-94109500D01*
D32*
X142596800Y-70364400D02*
X142361800Y-70129400D01*
X142596800Y-72201400D02*
X142596800Y-70364400D01*
X153235600Y-73281600D02*
X153235600Y-73126600D01*
X151521800Y-74626400D02*
X152449600Y-74626400D01*
X153235600Y-73840400D02*
X153235600Y-73126600D01*
X152449600Y-74626400D02*
X153235600Y-73840400D01*
D34*
X154340500Y-80899000D02*
X155321000Y-80899000D01*
X155321000Y-80878513D02*
X155318887Y-80876400D01*
X155321000Y-80899000D02*
X155321000Y-80878513D01*
X147596800Y-82587927D02*
X148237877Y-81946850D01*
X147596800Y-83551400D02*
X147596800Y-82587927D01*
X146812000Y-85344000D02*
X146558000Y-85090000D01*
X147376000Y-85344000D02*
X146812000Y-85344000D01*
X146855143Y-86967000D02*
X147050627Y-87162484D01*
X145542000Y-86459000D02*
X146347143Y-86459000D01*
X143052800Y-86690200D02*
X143256000Y-86487000D01*
X143052800Y-87860400D02*
X143052800Y-86690200D01*
X141023400Y-88318400D02*
X140462000Y-87757000D01*
X141401800Y-88318400D02*
X141023400Y-88318400D01*
X140921800Y-86408200D02*
X140716000Y-86614000D01*
X140921800Y-85623400D02*
X140921800Y-86408200D01*
X146679800Y-89560400D02*
X146989800Y-89250400D01*
X145252800Y-89560400D02*
X146679800Y-89560400D01*
X146679800Y-89910800D02*
X146939000Y-90170000D01*
X146679800Y-89560400D02*
X146679800Y-89910800D01*
X151003000Y-89611780D02*
X151765000Y-90373780D01*
X151003000Y-89215000D02*
X151003000Y-89611780D01*
X150594000Y-89624000D02*
X151003000Y-89215000D01*
X150594000Y-90805000D02*
X150594000Y-89624000D01*
D32*
X140109000Y-92329000D02*
X140109000Y-92103000D01*
X139446000Y-91440000D02*
X139319000Y-91440000D01*
X140109000Y-92103000D02*
X139446000Y-91440000D01*
X138226800Y-89585800D02*
X138430000Y-89789000D01*
X138226800Y-88116400D02*
X138226800Y-89585800D01*
X135572500Y-93281500D02*
X136144000Y-92710000D01*
X135572500Y-94109500D02*
X135572500Y-93281500D01*
X137414000Y-95250000D02*
X137414000Y-94107000D01*
X138000800Y-83644800D02*
X138049000Y-83693000D01*
X138000800Y-82702400D02*
X138000800Y-83644800D01*
D34*
X144439567Y-67425622D02*
X143145050Y-67425622D01*
X144983200Y-67969255D02*
X144439567Y-67425622D01*
X144983200Y-68638600D02*
X144983200Y-67969255D01*
X147664000Y-67273000D02*
X148045000Y-67654000D01*
X147564000Y-67041800D02*
X147564000Y-67273000D01*
X151232000Y-67031000D02*
X150495000Y-66294000D01*
X152233600Y-67031000D02*
X151232000Y-67031000D01*
D33*
X151534600Y-71731400D02*
X151511000Y-71755000D01*
X151534600Y-69977000D02*
X151534600Y-71731400D01*
X153822400Y-73126600D02*
X154051000Y-72898000D01*
X153235600Y-73126600D02*
X153822400Y-73126600D01*
X155497000Y-72722000D02*
X155321000Y-72898000D01*
X156972000Y-72722000D02*
X155497000Y-72722000D01*
X160731300Y-82829400D02*
X160731300Y-80606900D01*
X160731300Y-80606900D02*
X160731300Y-78511400D01*
X160731300Y-78435300D02*
X159385000Y-77089000D01*
X160731300Y-78511400D02*
X160731300Y-78435300D01*
X160731300Y-77165300D02*
X160655000Y-77089000D01*
X160731300Y-78511400D02*
X160731300Y-77165300D01*
D32*
X134874000Y-60960000D02*
X134112000Y-60198000D01*
X134874000Y-61976000D02*
X134874000Y-60960000D01*
X142361800Y-69219106D02*
X142171847Y-69029153D01*
X142361800Y-70129400D02*
X142361800Y-69219106D01*
D34*
X139726600Y-81126400D02*
X139701610Y-81151390D01*
X140171800Y-81126400D02*
X139726600Y-81126400D01*
D32*
X144320147Y-79166855D02*
X144346964Y-79166855D01*
X142360602Y-81126400D02*
X144320147Y-79166855D01*
X140171800Y-81126400D02*
X142360602Y-81126400D01*
D34*
X146347143Y-86459000D02*
X147050627Y-87162484D01*
X134290000Y-72160000D02*
X133880000Y-72570000D01*
X134290000Y-71560000D02*
X134290000Y-72160000D01*
X137729500Y-70689500D02*
X137380000Y-70340000D01*
X137729500Y-71437500D02*
X137729500Y-70689500D01*
X135664200Y-79959200D02*
X135060000Y-79355000D01*
X136861600Y-79959200D02*
X135664200Y-79959200D01*
X128568400Y-77938400D02*
X129040000Y-78410000D01*
X128568400Y-76828600D02*
X128568400Y-77938400D01*
X130046600Y-78606600D02*
X129890000Y-78450000D01*
X130708400Y-78606600D02*
X130046600Y-78606600D01*
X129260000Y-81630000D02*
X129100000Y-81790000D01*
X129260000Y-80160000D02*
X129260000Y-81630000D01*
X130110000Y-81790000D02*
X129100000Y-81790000D01*
X129140000Y-82910000D02*
X129120000Y-82890000D01*
X130140000Y-82910000D02*
X129140000Y-82910000D01*
X130110000Y-82880000D02*
X130140000Y-82910000D01*
X130110000Y-81790000D02*
X130110000Y-82880000D01*
X129260000Y-83790000D02*
X130140000Y-82910000D01*
X129260000Y-84510000D02*
X129260000Y-83790000D01*
X129260000Y-86090000D02*
X129570000Y-86400000D01*
X129260000Y-84510000D02*
X129260000Y-86090000D01*
X134040000Y-86240000D02*
X134040000Y-86840000D01*
X134040000Y-86840000D02*
X134430000Y-87230000D01*
X135380000Y-87090000D02*
X135270000Y-87200000D01*
X135380000Y-86240000D02*
X135380000Y-87090000D01*
X151509199Y-81113799D02*
X149973799Y-81113799D01*
X151521800Y-81126400D02*
X151509199Y-81113799D01*
X149640000Y-80780000D02*
X149230000Y-80780000D01*
X149973799Y-81113799D02*
X149640000Y-80780000D01*
D33*
X186360000Y-82550000D02*
X187050000Y-81860000D01*
X183636000Y-82550000D02*
X186360000Y-82550000D01*
X187050000Y-81936000D02*
X187050000Y-80920000D01*
X186436000Y-82550000D02*
X187050000Y-81936000D01*
X183636000Y-82550000D02*
X186436000Y-82550000D01*
X186470000Y-82550000D02*
X187040000Y-83120000D01*
X183636000Y-82550000D02*
X186470000Y-82550000D01*
X185480000Y-82550000D02*
X187050000Y-84120000D01*
X183636000Y-82550000D02*
X185480000Y-82550000D01*
X189386000Y-85950000D02*
X192786000Y-82550000D01*
X183636000Y-85950000D02*
X189386000Y-85950000D01*
D34*
X178562000Y-85725000D02*
X177292000Y-86995000D01*
X178562000Y-84931000D02*
X178562000Y-85725000D01*
X176657000Y-86360000D02*
X177292000Y-86995000D01*
X176530000Y-86360000D02*
X176657000Y-86360000D01*
X176530000Y-86360000D02*
X177546000Y-86360000D01*
X178562000Y-85344000D02*
X178562000Y-84931000D01*
X177546000Y-86360000D02*
X178562000Y-85344000D01*
X178562000Y-86995000D02*
X177292000Y-86995000D01*
X178562000Y-86995000D02*
X178562000Y-86614000D01*
X178562000Y-86614000D02*
X178562000Y-84931000D01*
D32*
X144343600Y-64063400D02*
X143256000Y-65151000D01*
X144343600Y-63692500D02*
X144343600Y-64063400D01*
X144343600Y-63692500D02*
X144343600Y-62549500D01*
%TO.N,+3V3*%
X142096800Y-85408400D02*
X141881800Y-85623400D01*
X142096800Y-83551400D02*
X142096800Y-85408400D01*
X140171800Y-81626400D02*
X139353600Y-81626400D01*
X138960800Y-82019200D02*
X138960800Y-82702400D01*
X139353600Y-81626400D02*
X138960800Y-82019200D01*
D33*
X154484600Y-67080000D02*
X154533600Y-67031000D01*
X154484600Y-69977000D02*
X154484600Y-67080000D01*
D32*
X151521800Y-80626400D02*
X152698900Y-80626400D01*
X152971500Y-80899000D02*
X153380500Y-80899000D01*
X152698900Y-80626400D02*
X152971500Y-80899000D01*
X142096800Y-72201400D02*
X142096800Y-71230800D01*
X141401800Y-70535800D02*
X141401800Y-70129400D01*
X142096800Y-71230800D02*
X141401800Y-70535800D01*
X152275600Y-73126600D02*
X152275600Y-73276400D01*
X151521800Y-74030200D02*
X151521800Y-74126400D01*
X152275600Y-73276400D02*
X151521800Y-74030200D01*
D34*
X148971000Y-90142000D02*
X149634000Y-90805000D01*
X148971000Y-89789000D02*
X148971000Y-90142000D01*
X148971000Y-89327500D02*
X148971000Y-89789000D01*
X148971000Y-89789000D02*
X148971000Y-89992780D01*
D32*
X143308200Y-97840800D02*
X144283200Y-97840800D01*
X140981999Y-95514599D02*
X143308200Y-97840800D01*
X140981999Y-92416001D02*
X140981999Y-95514599D01*
X141069000Y-92329000D02*
X140981999Y-92416001D01*
X141069000Y-91539000D02*
X140843000Y-91313000D01*
X141069000Y-92329000D02*
X141069000Y-91539000D01*
X141881800Y-85239800D02*
X141097000Y-84455000D01*
X141881800Y-85623400D02*
X141881800Y-85239800D01*
X138960800Y-83473427D02*
X139038952Y-83551579D01*
X138960800Y-82702400D02*
X138960800Y-83473427D01*
X138992600Y-85416400D02*
X139573000Y-84836000D01*
X138226800Y-85416400D02*
X138992600Y-85416400D01*
X141401800Y-69519800D02*
X141097000Y-69215000D01*
X141401800Y-70129400D02*
X141401800Y-69519800D01*
X140260800Y-68781200D02*
X140716000Y-68326000D01*
X139801600Y-68781200D02*
X140260800Y-68781200D01*
X141323600Y-65883180D02*
X140844210Y-65403790D01*
X141351000Y-66192400D02*
X141351000Y-65883180D01*
D33*
X154484600Y-71807600D02*
X154559000Y-71882000D01*
X154484600Y-69977000D02*
X154484600Y-71807600D01*
X152275600Y-72387400D02*
X152527000Y-72136000D01*
X152275600Y-73126600D02*
X152275600Y-72387400D01*
D32*
X137414000Y-60579000D02*
X137795000Y-60198000D01*
X137414000Y-61976000D02*
X137414000Y-60579000D01*
D33*
X139264400Y-85416400D02*
X139700000Y-85852000D01*
X138226800Y-85416400D02*
X139264400Y-85416400D01*
D34*
X133340000Y-80030000D02*
X132100000Y-78790000D01*
X131851800Y-78790000D02*
X131668400Y-78606600D01*
X132100000Y-78790000D02*
X131851800Y-78790000D01*
X131268400Y-76828600D02*
X131288600Y-76828600D01*
X133570000Y-79110000D02*
X133570000Y-79180000D01*
X131288600Y-76828600D02*
X133570000Y-79110000D01*
X137158000Y-77774800D02*
X137158000Y-78841600D01*
X135968400Y-78841600D02*
X135930000Y-78880000D01*
X137158000Y-78841600D02*
X135968400Y-78841600D01*
X150616400Y-80626400D02*
X149470000Y-79480000D01*
X151521800Y-80626400D02*
X150616400Y-80626400D01*
D32*
X139573000Y-84836000D02*
X139573000Y-84836000D01*
X139038952Y-83551579D02*
X139038952Y-83551579D01*
D33*
X139038952Y-84301952D02*
X139573000Y-84836000D01*
X139038952Y-83551579D02*
X139038952Y-84301952D01*
X148971000Y-89992780D02*
X148590000Y-90373780D01*
X148971000Y-88750000D02*
X148971000Y-89992780D01*
X149634000Y-90655780D02*
X148971000Y-89992780D01*
X149634000Y-90805000D02*
X149634000Y-90655780D01*
D32*
%TO.N,+3.3VA*%
X148096800Y-85104800D02*
X148336000Y-85344000D01*
X148096800Y-83551400D02*
X148096800Y-85104800D01*
X148336000Y-86567500D02*
X148971000Y-87202500D01*
X148336000Y-85344000D02*
X148336000Y-86567500D01*
X149083500Y-87315000D02*
X148971000Y-87202500D01*
D33*
X151003000Y-87315000D02*
X150815000Y-87315000D01*
D32*
X150815000Y-87315000D02*
X149083500Y-87315000D01*
D33*
X149436000Y-87315000D02*
X148971000Y-87780000D01*
X151003000Y-87315000D02*
X149436000Y-87315000D01*
X148336000Y-87145000D02*
X148336000Y-85344000D01*
X148971000Y-87780000D02*
X148336000Y-87145000D01*
D34*
%TO.N,Net-(J1-Pad6)*%
X143143600Y-60249500D02*
X142743600Y-59849500D01*
X143143600Y-62549500D02*
X143143600Y-60249500D01*
X142743600Y-59849500D02*
X144643600Y-59849500D01*
X146643600Y-59849500D02*
X144643600Y-59849500D01*
X146643600Y-59849500D02*
X148543600Y-59849500D01*
X148143600Y-60249500D02*
X148543600Y-59849500D01*
X148143600Y-62549500D02*
X148143600Y-60249500D01*
D33*
%TO.N,Net-(JP1-Pad2)*%
X184262000Y-91681000D02*
X184465500Y-91884500D01*
X184262000Y-89789000D02*
X184262000Y-91681000D01*
%TO.N,V_in*%
X177128000Y-69314000D02*
X184785000Y-69314000D01*
X176784000Y-68970000D02*
X177128000Y-69314000D01*
X187607000Y-72136000D02*
X184785000Y-69314000D01*
X192786000Y-72136000D02*
X187607000Y-72136000D01*
X190650000Y-72136000D02*
X192786000Y-72136000D01*
X183636000Y-79150000D02*
X190650000Y-72136000D01*
D32*
%TO.N,+5V*%
X167516000Y-83058000D02*
X163960000Y-79502000D01*
X180086000Y-83058000D02*
X167516000Y-83058000D01*
X181278000Y-84250000D02*
X180086000Y-83058000D01*
X183636000Y-84250000D02*
X181278000Y-84250000D01*
D33*
X135572500Y-96009500D02*
X136776500Y-96009500D01*
X136977000Y-96210000D02*
X137414000Y-96210000D01*
X136776500Y-96009500D02*
X136977000Y-96210000D01*
X137774800Y-96570800D02*
X137414000Y-96210000D01*
X139333200Y-96570800D02*
X137774800Y-96570800D01*
D32*
X163960000Y-70745000D02*
X164973000Y-69732000D01*
X163960000Y-79502000D02*
X163960000Y-70745000D01*
X157012000Y-69732000D02*
X156972000Y-69772000D01*
X164973000Y-69732000D02*
X157012000Y-69732000D01*
D33*
X167132000Y-67573000D02*
X164973000Y-69732000D01*
X167132000Y-67564000D02*
X167132000Y-67573000D01*
X167141000Y-67564000D02*
X164973000Y-69732000D01*
X168529000Y-67564000D02*
X167141000Y-67564000D01*
X139333200Y-96570800D02*
X140280800Y-96570800D01*
X140280800Y-96570800D02*
X142070000Y-98360000D01*
X142070000Y-98360000D02*
X142140000Y-98360000D01*
X143030000Y-99250000D02*
X144000000Y-99250000D01*
X142140000Y-98360000D02*
X143030000Y-99250000D01*
X163960000Y-82702000D02*
X161712000Y-84950000D01*
X163960000Y-79502000D02*
X163960000Y-82702000D01*
X161712000Y-84950000D02*
X157620000Y-84950000D01*
X146450000Y-94259498D02*
X146450000Y-94450000D01*
X148664499Y-92044999D02*
X146450000Y-94259498D01*
X152155001Y-92044999D02*
X148664499Y-92044999D01*
X156220000Y-87980000D02*
X152155001Y-92044999D01*
%TO.N,Net-(D1-Pad1)*%
X178643000Y-80850000D02*
X178562000Y-80931000D01*
X183636000Y-80850000D02*
X178643000Y-80850000D01*
X175289000Y-80931000D02*
X173860000Y-79502000D01*
X178562000Y-80931000D02*
X175289000Y-80931000D01*
D32*
%TO.N,CAN_H*%
X144283200Y-95300800D02*
X146227800Y-95300800D01*
X146227800Y-95300800D02*
X146812000Y-95885000D01*
X146812000Y-95885000D02*
X146812000Y-97599500D01*
X146812000Y-97599500D02*
X147383500Y-98171000D01*
X191897000Y-91694000D02*
X192786000Y-91694000D01*
X190881000Y-89789000D02*
X192786000Y-91694000D01*
X185562000Y-89789000D02*
X190881000Y-89789000D01*
X179038500Y-98271000D02*
X179038500Y-98271000D01*
X147400000Y-98200000D02*
X179038500Y-98271000D01*
%TO.N,CAN_L*%
X144695324Y-96570800D02*
X144283200Y-96570800D01*
X147129500Y-99060000D02*
X147129500Y-99004976D01*
X145258200Y-96570800D02*
X144283200Y-96570800D01*
X145986500Y-97299100D02*
X145258200Y-96570800D01*
X145986500Y-97917000D02*
X145986500Y-97299100D01*
X147129500Y-99060000D02*
X145986500Y-97917000D01*
X185485500Y-91884500D02*
X187896500Y-91884500D01*
X190512000Y-94500000D02*
X191256000Y-95244000D01*
X184100000Y-94500000D02*
X190512000Y-94500000D01*
X181900000Y-96700000D02*
X184100000Y-94500000D01*
X181900000Y-97200000D02*
X181900000Y-96700000D01*
X147129500Y-99060000D02*
X180000000Y-99100000D01*
X180000000Y-99100000D02*
X181900000Y-97200000D01*
X191256000Y-95244000D02*
X192786000Y-96774000D01*
X187896500Y-91884500D02*
X191256000Y-95244000D01*
D34*
%TO.N,USB+*%
X143596800Y-69075000D02*
X144033200Y-68638600D01*
X143596800Y-72201400D02*
X143596800Y-69075000D01*
%TO.N,USB-*%
X144096800Y-72201400D02*
X144096800Y-70380800D01*
X144096800Y-70380800D02*
X144830800Y-69646800D01*
X145415002Y-69646800D02*
X145933200Y-69128602D01*
X145933200Y-69128602D02*
X145933200Y-68638600D01*
X144830800Y-69646800D02*
X145415002Y-69646800D01*
D32*
%TO.N,CAN_RX*%
X139333200Y-97840800D02*
X138358200Y-97840800D01*
X138866700Y-80126400D02*
X136525000Y-82468100D01*
X140171800Y-80126400D02*
X138866700Y-80126400D01*
X136525000Y-82468100D02*
X136525000Y-90805000D01*
X136525000Y-90805000D02*
X133350000Y-93980000D01*
X135347654Y-97840800D02*
X139333200Y-97840800D01*
X133350000Y-95843146D02*
X135347654Y-97840800D01*
X133350000Y-93980000D02*
X133350000Y-95843146D01*
%TO.N,CAN_TX*%
X139333200Y-94030800D02*
X139333200Y-92851200D01*
X139073820Y-80626400D02*
X140171800Y-80626400D01*
X137201790Y-82498430D02*
X139073820Y-80626400D01*
X137201790Y-90719790D02*
X137201790Y-82498430D01*
X139333200Y-92851200D02*
X137201790Y-90719790D01*
D34*
%TO.N,SWO*%
X141012502Y-77126400D02*
X142697200Y-75441702D01*
X140171800Y-77126400D02*
X141012502Y-77126400D01*
X134874000Y-65844154D02*
X134874000Y-63246000D01*
X140046010Y-71016164D02*
X134874000Y-65844154D01*
X140046010Y-71917412D02*
X140046010Y-71016164D01*
X142697200Y-74568602D02*
X140046010Y-71917412D01*
X142697200Y-75441702D02*
X142697200Y-74568602D01*
%TO.N,SWCLK*%
X136042400Y-70772000D02*
X136042400Y-68630800D01*
X139396800Y-74126400D02*
X136042400Y-70772000D01*
X140171800Y-74126400D02*
X139396800Y-74126400D01*
X136042400Y-63347600D02*
X136144000Y-63246000D01*
X136042400Y-65582800D02*
X136042400Y-63347600D01*
%TO.N,SWDIO*%
X143096800Y-68928800D02*
X143096800Y-72201400D01*
X137414000Y-63246000D02*
X143096800Y-68928800D01*
D32*
%TO.N,NRST*%
X145096800Y-85053800D02*
X145542000Y-85499000D01*
X145096800Y-83551400D02*
X145096800Y-85053800D01*
D34*
X136144000Y-61163200D02*
X135737600Y-60756800D01*
X136144000Y-61976000D02*
X136144000Y-61163200D01*
X145747800Y-85499000D02*
X145542000Y-85499000D01*
X145542000Y-85499000D02*
X145893998Y-85499000D01*
X145893998Y-85499000D02*
X146246998Y-85852000D01*
X147373574Y-86309200D02*
X147421600Y-86309200D01*
X146916374Y-85852000D02*
X147373574Y-86309200D01*
X146246998Y-85852000D02*
X146916374Y-85852000D01*
D32*
%TO.N,OSC_IN*%
X144102801Y-86980399D02*
X144102801Y-88815199D01*
X144096800Y-86974398D02*
X144102801Y-86980399D01*
X144096800Y-83551400D02*
X144096800Y-86974398D01*
X143357600Y-89560400D02*
X143052800Y-89560400D01*
X144102801Y-88815199D02*
X143357600Y-89560400D01*
X142770800Y-89278400D02*
X143052800Y-89560400D01*
X141401800Y-89278400D02*
X142770800Y-89278400D01*
%TO.N,OSC_OUT*%
X144596800Y-86767278D02*
X145252800Y-87423278D01*
X145252800Y-87423278D02*
X145252800Y-87860400D01*
X144596800Y-83551400D02*
X144596800Y-86767278D01*
X146559800Y-87860400D02*
X146989800Y-88290400D01*
X145252800Y-87860400D02*
X146559800Y-87860400D01*
%TO.N,USB_CONN_D+*%
X143787000Y-66192400D02*
X144033200Y-66438600D01*
X142597600Y-66192400D02*
X144041000Y-66192400D01*
X144033200Y-65608600D02*
X144033200Y-66438600D01*
X144083201Y-65558599D02*
X144033200Y-65608600D01*
X145150001Y-65558599D02*
X144083201Y-65558599D01*
X145643600Y-65065000D02*
X145150001Y-65558599D01*
X145643600Y-62549500D02*
X145643600Y-65065000D01*
%TO.N,USB_CONN_D-*%
X146293600Y-66078200D02*
X146293600Y-64907400D01*
X145933200Y-66438600D02*
X146293600Y-66078200D01*
X146293600Y-65013600D02*
X146293600Y-64907400D01*
X146293600Y-63489600D02*
X146293600Y-62549500D01*
X146293600Y-64907400D02*
X146293600Y-63489600D01*
%TO.N,SPI2_SCK*%
X149096800Y-73888716D02*
X149096800Y-72201400D01*
X149346800Y-74138716D02*
X149096800Y-73888716D01*
X141071600Y-71071200D02*
X139801600Y-69801200D01*
X141071600Y-71870000D02*
X141071600Y-71071200D01*
%TO.N,I2C1_SCL*%
X141047858Y-78626400D02*
X140171800Y-78626400D01*
X144081500Y-76771500D02*
X144081500Y-77025500D01*
X144081500Y-75946000D02*
X144081500Y-76771500D01*
D34*
X139029600Y-78626400D02*
X140171800Y-78626400D01*
X138178000Y-77774800D02*
X139029600Y-78626400D01*
D32*
X144081500Y-77567382D02*
X144081500Y-76771500D01*
X142938500Y-77597000D02*
X144081500Y-77567382D01*
X140171800Y-78626400D02*
X141502674Y-78626400D01*
D34*
X142583000Y-77597000D02*
X142938500Y-77597000D01*
X142161999Y-78018001D02*
X142583000Y-77597000D01*
X141855764Y-78018001D02*
X142161999Y-78018001D01*
X141502674Y-78371091D02*
X141855764Y-78018001D01*
X141502674Y-78626400D02*
X141502674Y-78371091D01*
%TO.N,I2C1_SDA*%
X138462800Y-79126400D02*
X138178000Y-78841600D01*
X140171800Y-79126400D02*
X138462800Y-79126400D01*
X142163600Y-79126400D02*
X141566400Y-79126400D01*
X142940000Y-78350000D02*
X142163600Y-79126400D01*
D32*
X141566400Y-79126400D02*
X141942122Y-79126400D01*
X140171800Y-79126400D02*
X141566400Y-79126400D01*
D34*
%TO.N,BOOT_0*%
X137881600Y-79959200D02*
X138214400Y-79626400D01*
X138214400Y-79626400D02*
X140171800Y-79626400D01*
D32*
%TO.N,ZEROING_PIN*%
X141575600Y-77626400D02*
X140171800Y-77626400D01*
X141859000Y-77343000D02*
X141575600Y-77626400D01*
%TO.N,PSM*%
X139571000Y-72582500D02*
X139509500Y-72644000D01*
X139505500Y-71437500D02*
X139571000Y-71503000D01*
X138749500Y-71437500D02*
X139505500Y-71437500D01*
X139571000Y-71503000D02*
X139571000Y-72582500D01*
X139571000Y-71437500D02*
X139571000Y-71503000D01*
D34*
X140075185Y-72644000D02*
X141630400Y-74199215D01*
X139509500Y-72644000D02*
X140075185Y-72644000D01*
X141203215Y-74626400D02*
X140171800Y-74626400D01*
X141630400Y-74199215D02*
X141203215Y-74626400D01*
D32*
%TO.N,V_OUT*%
X150641742Y-77622400D02*
X150645732Y-77626390D01*
X148945600Y-77622400D02*
X150641742Y-77622400D01*
X150645742Y-77626400D02*
X150641742Y-77622400D01*
X151521800Y-77626400D02*
X150645742Y-77626400D01*
%TO.N,MAGNET_PRESENCE*%
X149758400Y-83389800D02*
X149596800Y-83551400D01*
X149758400Y-81838800D02*
X149758400Y-83389800D01*
D34*
%TO.N,TURN_DIR_PIN*%
X143071810Y-82975410D02*
X143071810Y-82518210D01*
X143096800Y-83000400D02*
X143071810Y-82975410D01*
X143096800Y-83551400D02*
X143096800Y-83000400D01*
X143071810Y-82518210D02*
X142900400Y-82346800D01*
X142900400Y-82346800D02*
X141020800Y-82346800D01*
X140106400Y-83261200D02*
X140004800Y-83261200D01*
X141020800Y-82346800D02*
X140106400Y-83261200D01*
D32*
%TO.N,U_PIN*%
X137780245Y-76126400D02*
X136017000Y-77889645D01*
X140171800Y-76126400D02*
X137780245Y-76126400D01*
X136017000Y-77895266D02*
X136017810Y-77896076D01*
X136017000Y-77889645D02*
X136017000Y-77895266D01*
%TO.N,V_PIN*%
X140171800Y-75626400D02*
X137035100Y-75626400D01*
X135892714Y-76768786D02*
X135892714Y-76903929D01*
X137035100Y-75626400D02*
X135892714Y-76768786D01*
%TO.N,W_PIN*%
X140171800Y-75126400D02*
X136201600Y-75126400D01*
X135445500Y-75882500D02*
X135445500Y-76009500D01*
X136201600Y-75126400D02*
X135445500Y-75882500D01*
%TO.N,ENC_INC_A*%
X147596800Y-74759202D02*
X147596800Y-72201400D01*
X143108002Y-79248000D02*
X147596800Y-74759202D01*
X142720078Y-79629000D02*
X142494000Y-79629000D01*
X143101078Y-79248000D02*
X142720078Y-79629000D01*
X143108002Y-79248000D02*
X143101078Y-79248000D01*
D34*
X142421000Y-79629000D02*
X142120000Y-79930000D01*
X142494000Y-79629000D02*
X142421000Y-79629000D01*
D32*
%TO.N,ENC_INC_B*%
X147096800Y-74149200D02*
X145300000Y-75946000D01*
X147096800Y-72201400D02*
X147096800Y-74149200D01*
%TO.N,ENC_INC_Ri*%
X146050000Y-74041000D02*
X146050000Y-73124258D01*
X146096800Y-73077458D02*
X146050000Y-73124258D01*
X146096800Y-72201400D02*
X146096800Y-73077458D01*
%TO.N,SPI2_MISO*%
X148596800Y-76129700D02*
X148596800Y-72201400D01*
X144589500Y-80137000D02*
X148596800Y-76129700D01*
D34*
%TO.N,CAN_SILENT_MODE*%
X143596800Y-84890800D02*
X143346800Y-85140800D01*
X143596800Y-83551400D02*
X143596800Y-84890800D01*
X141732000Y-94488000D02*
X142189200Y-94030800D01*
X142189200Y-94030800D02*
X144283200Y-94030800D01*
%TO.N,HIN_2*%
X147716198Y-69301402D02*
X148183600Y-68834000D01*
X146710400Y-69301402D02*
X147716198Y-69301402D01*
X145914993Y-70096809D02*
X146710400Y-69301402D01*
X145017200Y-70096810D02*
X145914993Y-70096809D01*
X144596800Y-70517210D02*
X145017200Y-70096810D01*
X144596800Y-72201400D02*
X144596800Y-70517210D01*
%TO.N,DIRECTION*%
X145046810Y-71285210D02*
X145046810Y-70703610D01*
X145096800Y-71335200D02*
X145046810Y-71285210D01*
X145096800Y-72201400D02*
X145096800Y-71335200D01*
X145203602Y-70546818D02*
X146101394Y-70546818D01*
X145046810Y-70703610D02*
X145203602Y-70546818D01*
X146101394Y-70546818D02*
X146449506Y-70198706D01*
X146449506Y-70198706D02*
X146896800Y-69751412D01*
X148339190Y-69751412D02*
X149199600Y-68891002D01*
X146896800Y-69751412D02*
X148339190Y-69751412D01*
X149199600Y-68891002D02*
X149199600Y-67818000D01*
X149453600Y-67564000D02*
X149453600Y-67474400D01*
X149199600Y-67818000D02*
X149453600Y-67564000D01*
%TO.N,HIN_1*%
X145766772Y-70996828D02*
X146287795Y-70996827D01*
X145596800Y-71166800D02*
X145766772Y-70996828D01*
X145596800Y-72201400D02*
X145596800Y-71166800D01*
X147083200Y-70201422D02*
X148594178Y-70201422D01*
X146287795Y-70996827D02*
X147083200Y-70201422D01*
X148594178Y-70201422D02*
X148793200Y-70002400D01*
X148894302Y-70002400D02*
X149922302Y-68974400D01*
X148793200Y-70002400D02*
X148894302Y-70002400D01*
%TO.N,INPUT_IT_3*%
X152362502Y-76126400D02*
X153508102Y-74980800D01*
X151521800Y-76126400D02*
X152362502Y-76126400D01*
X153508102Y-74980800D02*
X153670000Y-74980800D01*
%TO.N,INPUT_IT_2*%
X153192800Y-76626400D02*
X151521800Y-76626400D01*
X154787600Y-75031600D02*
X153192800Y-76626400D01*
%TO.N,INPUT_IT_1*%
X151521800Y-77126400D02*
X153962800Y-77126400D01*
X153962800Y-77126400D02*
X156057600Y-75031600D01*
%TO.N,SD2*%
X153761398Y-78626400D02*
X154236399Y-78151399D01*
X151521800Y-78626400D02*
X153761398Y-78626400D01*
X154236399Y-78151399D02*
X155214999Y-78151399D01*
X155240677Y-78125721D02*
X155240677Y-78121877D01*
X155214999Y-78151399D02*
X155240677Y-78125721D01*
X177228500Y-93345000D02*
X177228500Y-89598500D01*
X176225200Y-88595200D02*
X162306000Y-88595200D01*
X177228500Y-89598500D02*
X176225200Y-88595200D01*
%TO.N,SD1*%
X154334400Y-79126400D02*
X154584400Y-78876400D01*
X151521800Y-79126400D02*
X154334400Y-79126400D01*
X176053499Y-94709999D02*
X177228500Y-95885000D01*
X176053499Y-92970997D02*
X176053499Y-94709999D01*
X172642902Y-89560400D02*
X176053499Y-92970997D01*
X165506400Y-89560400D02*
X172642902Y-89560400D01*
D32*
%TO.N,ERROR_INDICATOR*%
X155524800Y-79626400D02*
X156639800Y-78511400D01*
X151521800Y-79626400D02*
X155524800Y-79626400D01*
%TO.N,MODE_INDICATOR*%
X151521800Y-80126400D02*
X152410600Y-80126400D01*
X156159300Y-80126400D02*
X156639800Y-80606900D01*
X151521800Y-80126400D02*
X156159300Y-80126400D01*
D34*
%TO.N,ADC1_IN1*%
X149446410Y-84850374D02*
X149446410Y-85360800D01*
X149096800Y-84500764D02*
X149446410Y-84850374D01*
X149096800Y-83551400D02*
X149096800Y-84500764D01*
X149446410Y-85360800D02*
X149894000Y-85808390D01*
X149894000Y-85808390D02*
X152400000Y-85808390D01*
X152400000Y-85808390D02*
X158706390Y-85808390D01*
X158706390Y-85808390D02*
X159867600Y-86969600D01*
X159867600Y-86969600D02*
X161899600Y-86969600D01*
%TO.N,ADC1_IN0*%
X180365400Y-95885000D02*
X179768500Y-95885000D01*
X182727600Y-91186000D02*
X182727600Y-93522800D01*
X179324000Y-87782400D02*
X182727600Y-91186000D01*
X159562800Y-87782400D02*
X179324000Y-87782400D01*
X149707600Y-86258400D02*
X158038800Y-86258400D01*
X148996400Y-85547200D02*
X149707600Y-86258400D01*
X182727600Y-93522800D02*
X180365400Y-95885000D01*
X158038800Y-86258400D02*
X159562800Y-87782400D01*
X148996400Y-85036774D02*
X148996400Y-85547200D01*
X148596800Y-84637174D02*
X148996400Y-85036774D01*
X148596800Y-83551400D02*
X148596800Y-84637174D01*
%TO.N,POSITION_INDICATOR_4*%
X147096800Y-83551400D02*
X147096800Y-81757200D01*
X147566194Y-81287806D02*
X147566194Y-81206009D01*
X147096800Y-81757200D02*
X147566194Y-81287806D01*
%TO.N,POSITION_INDICATOR_3*%
X146718873Y-80329381D02*
X146841194Y-80207060D01*
X146718873Y-81086144D02*
X146718873Y-80329381D01*
X146596800Y-81208217D02*
X146718873Y-81086144D01*
X146596800Y-83551400D02*
X146596800Y-81208217D01*
%TO.N,POSITION_INDICATOR_2*%
X146096800Y-83551400D02*
X146096800Y-80869600D01*
X145993872Y-80766672D02*
X145993872Y-80738143D01*
X146096800Y-80869600D02*
X145993872Y-80766672D01*
%TO.N,POSITION_INDICATOR_1*%
X145596800Y-82286399D02*
X145352401Y-82042000D01*
X145596800Y-83551400D02*
X145596800Y-82286399D01*
D32*
%TO.N,Net-(D2-Pad2)*%
X157659800Y-82829400D02*
X159156300Y-82829400D01*
%TO.N,Net-(D3-Pad2)*%
X157659800Y-80606900D02*
X159156300Y-80606900D01*
%TO.N,Net-(D4-Pad2)*%
X157659800Y-78511400D02*
X159156300Y-78511400D01*
%TO.N,STATUS_INDICATOR*%
X155436800Y-81626400D02*
X156639800Y-82829400D01*
X151521800Y-81626400D02*
X155436800Y-81626400D01*
D34*
%TO.N,Net-(C6-Pad1)*%
X135825000Y-84835000D02*
X135380000Y-85280000D01*
X135825000Y-84430000D02*
X135825000Y-84835000D01*
%TO.N,Net-(C11-Pad1)*%
X131940000Y-80160000D02*
X132860000Y-81080000D01*
X131160000Y-80160000D02*
X131940000Y-80160000D01*
X132150000Y-81790000D02*
X132860000Y-81080000D01*
X131070000Y-81790000D02*
X132150000Y-81790000D01*
%TO.N,Net-(C9-Pad1)*%
X134710000Y-84610000D02*
X134040000Y-85280000D01*
X134710000Y-84380000D02*
X134710000Y-84610000D01*
%TO.N,Net-(C12-Pad1)*%
X135250000Y-71600000D02*
X136120000Y-72470000D01*
X135250000Y-71560000D02*
X135250000Y-71600000D01*
%TO.N,Net-(C14-Pad2)*%
X132390000Y-84080000D02*
X131960000Y-84510000D01*
X133460000Y-84080000D02*
X132390000Y-84080000D01*
X131100000Y-83650000D02*
X131960000Y-84510000D01*
X131100000Y-82910000D02*
X131100000Y-83650000D01*
D32*
%TO.N,Net-(C18-Pad2)*%
X144983200Y-66438600D02*
X144983200Y-67132200D01*
X144983200Y-67132200D02*
X145262600Y-67411600D01*
X147264000Y-65991800D02*
X147574000Y-65991800D01*
X146913990Y-66942812D02*
X146913990Y-66341810D01*
X146913990Y-66341810D02*
X147264000Y-65991800D01*
X146445202Y-67411600D02*
X146913990Y-66942812D01*
X145262600Y-67411600D02*
X146445202Y-67411600D01*
X147664000Y-65495000D02*
X147664000Y-66081800D01*
X146943600Y-64774600D02*
X147664000Y-65495000D01*
X146943600Y-66312200D02*
X146913990Y-66341810D01*
X146943600Y-64520600D02*
X146943600Y-66312200D01*
X146943600Y-63692500D02*
X146943600Y-64520600D01*
X146943600Y-64520600D02*
X146943600Y-64774600D01*
X146943600Y-62549500D02*
X146943600Y-63692500D01*
%TD*%
D35*
%TO.N,V_in*%
X183552197Y-69431803D02*
X183571443Y-69447597D01*
X183593399Y-69459333D01*
X183617224Y-69466560D01*
X183641702Y-69469000D01*
X194373000Y-69494202D01*
X194373000Y-76225098D01*
X186436402Y-76200001D01*
X186411618Y-76202363D01*
X186387770Y-76209514D01*
X186365777Y-76221181D01*
X186346482Y-76236914D01*
X186330627Y-76256109D01*
X186318822Y-76278028D01*
X186311519Y-76301830D01*
X186309000Y-76327000D01*
X186309000Y-79629000D01*
X181102000Y-79629000D01*
X181102000Y-75692000D01*
X181099560Y-75667224D01*
X181092333Y-75643399D01*
X181080597Y-75621443D01*
X181064803Y-75602197D01*
X178143803Y-72681197D01*
X178124557Y-72665403D01*
X178102601Y-72653667D01*
X178078776Y-72646440D01*
X178054000Y-72644000D01*
X173863000Y-72644000D01*
X173863000Y-66421000D01*
X180541394Y-66421000D01*
X183552197Y-69431803D01*
%TA.AperFunction,Conductor*%
D36*
G36*
X183552197Y-69431803D02*
G01*
X183571443Y-69447597D01*
X183593399Y-69459333D01*
X183617224Y-69466560D01*
X183641702Y-69469000D01*
X194373000Y-69494202D01*
X194373000Y-76225098D01*
X186436402Y-76200001D01*
X186411618Y-76202363D01*
X186387770Y-76209514D01*
X186365777Y-76221181D01*
X186346482Y-76236914D01*
X186330627Y-76256109D01*
X186318822Y-76278028D01*
X186311519Y-76301830D01*
X186309000Y-76327000D01*
X186309000Y-79629000D01*
X181102000Y-79629000D01*
X181102000Y-75692000D01*
X181099560Y-75667224D01*
X181092333Y-75643399D01*
X181080597Y-75621443D01*
X181064803Y-75602197D01*
X178143803Y-72681197D01*
X178124557Y-72665403D01*
X178102601Y-72653667D01*
X178078776Y-72646440D01*
X178054000Y-72644000D01*
X173863000Y-72644000D01*
X173863000Y-66421000D01*
X180541394Y-66421000D01*
X183552197Y-69431803D01*
G37*
%TD.AperFunction*%
%TD*%
D35*
%TO.N,Net-(D1-Pad1)*%
X180086000Y-81534000D02*
X171323000Y-81534000D01*
X171323000Y-76454000D01*
X180086000Y-76454000D01*
X180086000Y-81534000D01*
%TA.AperFunction,Conductor*%
D36*
G36*
X180086000Y-81534000D02*
G01*
X171323000Y-81534000D01*
X171323000Y-76454000D01*
X180086000Y-76454000D01*
X180086000Y-81534000D01*
G37*
%TD.AperFunction*%
%TD*%
D35*
%TO.N,GND*%
X197612000Y-78359000D02*
X195199000Y-78359000D01*
X195199000Y-68834000D01*
X195196560Y-68809224D01*
X195189333Y-68785399D01*
X195177597Y-68763443D01*
X195161803Y-68744197D01*
X195142557Y-68728403D01*
X195120601Y-68716667D01*
X195096776Y-68709440D01*
X195072000Y-68707000D01*
X191135000Y-68707000D01*
X191135000Y-65151000D01*
X197612000Y-65151000D01*
X197612000Y-78359000D01*
%TA.AperFunction,Conductor*%
D36*
G36*
X197612000Y-78359000D02*
G01*
X195199000Y-78359000D01*
X195199000Y-68834000D01*
X195196560Y-68809224D01*
X195189333Y-68785399D01*
X195177597Y-68763443D01*
X195161803Y-68744197D01*
X195142557Y-68728403D01*
X195120601Y-68716667D01*
X195096776Y-68709440D01*
X195072000Y-68707000D01*
X191135000Y-68707000D01*
X191135000Y-65151000D01*
X197612000Y-65151000D01*
X197612000Y-78359000D01*
G37*
%TD.AperFunction*%
%TD*%
D35*
%TO.N,GND*%
X190881000Y-61634599D02*
X190851000Y-61785419D01*
X190851000Y-62166581D01*
X190881000Y-62317401D01*
X190881000Y-68707000D01*
X185578330Y-68707000D01*
X185433254Y-68662992D01*
X185380439Y-68657790D01*
X185279059Y-68574589D01*
X185125313Y-68492411D01*
X184958490Y-68441805D01*
X184828477Y-68429000D01*
X184828469Y-68429000D01*
X184785000Y-68424719D01*
X184741531Y-68429000D01*
X183670606Y-68429000D01*
X180302803Y-65061197D01*
X180283557Y-65045403D01*
X180261601Y-65033667D01*
X180237776Y-65026440D01*
X180213000Y-65024000D01*
X159004000Y-65024000D01*
X159004000Y-60729117D01*
X182665000Y-60729117D01*
X182665000Y-61070883D01*
X182731675Y-61406081D01*
X182862463Y-61721831D01*
X183052337Y-62005998D01*
X183294002Y-62247663D01*
X183578169Y-62437537D01*
X183893919Y-62568325D01*
X184229117Y-62635000D01*
X184570883Y-62635000D01*
X184906081Y-62568325D01*
X185221831Y-62437537D01*
X185505998Y-62247663D01*
X185747663Y-62005998D01*
X185937537Y-61721831D01*
X186068325Y-61406081D01*
X186135000Y-61070883D01*
X186135000Y-60729117D01*
X186068325Y-60393919D01*
X185937537Y-60078169D01*
X185747663Y-59794002D01*
X185505998Y-59552337D01*
X185221831Y-59362463D01*
X184906081Y-59231675D01*
X184570883Y-59165000D01*
X184229117Y-59165000D01*
X183893919Y-59231675D01*
X183578169Y-59362463D01*
X183294002Y-59552337D01*
X183052337Y-59794002D01*
X182862463Y-60078169D01*
X182731675Y-60393919D01*
X182665000Y-60729117D01*
X159004000Y-60729117D01*
X159004000Y-59105000D01*
X190881000Y-59105000D01*
X190881000Y-61634599D01*
%TA.AperFunction,Conductor*%
D36*
G36*
X190881000Y-61634599D02*
G01*
X190851000Y-61785419D01*
X190851000Y-62166581D01*
X190881000Y-62317401D01*
X190881000Y-68707000D01*
X185578330Y-68707000D01*
X185433254Y-68662992D01*
X185380439Y-68657790D01*
X185279059Y-68574589D01*
X185125313Y-68492411D01*
X184958490Y-68441805D01*
X184828477Y-68429000D01*
X184828469Y-68429000D01*
X184785000Y-68424719D01*
X184741531Y-68429000D01*
X183670606Y-68429000D01*
X180302803Y-65061197D01*
X180283557Y-65045403D01*
X180261601Y-65033667D01*
X180237776Y-65026440D01*
X180213000Y-65024000D01*
X159004000Y-65024000D01*
X159004000Y-60729117D01*
X182665000Y-60729117D01*
X182665000Y-61070883D01*
X182731675Y-61406081D01*
X182862463Y-61721831D01*
X183052337Y-62005998D01*
X183294002Y-62247663D01*
X183578169Y-62437537D01*
X183893919Y-62568325D01*
X184229117Y-62635000D01*
X184570883Y-62635000D01*
X184906081Y-62568325D01*
X185221831Y-62437537D01*
X185505998Y-62247663D01*
X185747663Y-62005998D01*
X185937537Y-61721831D01*
X186068325Y-61406081D01*
X186135000Y-61070883D01*
X186135000Y-60729117D01*
X186068325Y-60393919D01*
X185937537Y-60078169D01*
X185747663Y-59794002D01*
X185505998Y-59552337D01*
X185221831Y-59362463D01*
X184906081Y-59231675D01*
X184570883Y-59165000D01*
X184229117Y-59165000D01*
X183893919Y-59231675D01*
X183578169Y-59362463D01*
X183294002Y-59552337D01*
X183052337Y-59794002D01*
X182862463Y-60078169D01*
X182731675Y-60393919D01*
X182665000Y-60729117D01*
X159004000Y-60729117D01*
X159004000Y-59105000D01*
X190881000Y-59105000D01*
X190881000Y-61634599D01*
G37*
%TD.AperFunction*%
%TD*%
D35*
%TO.N,+5V*%
X169926000Y-85344000D02*
X162052000Y-85344000D01*
X162052000Y-66421000D01*
X169926000Y-66421000D01*
X169926000Y-85344000D01*
%TA.AperFunction,Conductor*%
D36*
G36*
X169926000Y-85344000D02*
G01*
X162052000Y-85344000D01*
X162052000Y-66421000D01*
X169926000Y-66421000D01*
X169926000Y-85344000D01*
G37*
%TD.AperFunction*%
%TD*%
D35*
%TO.N,+5V*%
X161798000Y-74623394D02*
X158331803Y-71157197D01*
X158312557Y-71141403D01*
X158290601Y-71129667D01*
X158266776Y-71122440D01*
X158242000Y-71120000D01*
X156083000Y-71120000D01*
X156083000Y-66073558D01*
X161798000Y-65916537D01*
X161798000Y-74623394D01*
%TA.AperFunction,Conductor*%
D36*
G36*
X161798000Y-74623394D02*
G01*
X158331803Y-71157197D01*
X158312557Y-71141403D01*
X158290601Y-71129667D01*
X158266776Y-71122440D01*
X158242000Y-71120000D01*
X156083000Y-71120000D01*
X156083000Y-66073558D01*
X161798000Y-65916537D01*
X161798000Y-74623394D01*
G37*
%TD.AperFunction*%
%TD*%
D35*
%TO.N,+3V3*%
X157893354Y-64574107D02*
X155413104Y-65282888D01*
X155389952Y-65292042D01*
X155369030Y-65305538D01*
X155351144Y-65322855D01*
X155336979Y-65343329D01*
X155327081Y-65366173D01*
X155321829Y-65390509D01*
X155321000Y-65405000D01*
X155321000Y-71120000D01*
X153670000Y-71120000D01*
X153670000Y-65405000D01*
X153667560Y-65380224D01*
X153660333Y-65356399D01*
X153648597Y-65334443D01*
X153632803Y-65315197D01*
X153613557Y-65299403D01*
X153591601Y-65287667D01*
X153567776Y-65280440D01*
X153543000Y-65278000D01*
X151003000Y-65278000D01*
X151003000Y-59435134D01*
X157912527Y-59387875D01*
X157893354Y-64574107D01*
%TA.AperFunction,Conductor*%
D36*
G36*
X157893354Y-64574107D02*
G01*
X155413104Y-65282888D01*
X155389952Y-65292042D01*
X155369030Y-65305538D01*
X155351144Y-65322855D01*
X155336979Y-65343329D01*
X155327081Y-65366173D01*
X155321829Y-65390509D01*
X155321000Y-65405000D01*
X155321000Y-71120000D01*
X153670000Y-71120000D01*
X153670000Y-65405000D01*
X153667560Y-65380224D01*
X153660333Y-65356399D01*
X153648597Y-65334443D01*
X153632803Y-65315197D01*
X153613557Y-65299403D01*
X153591601Y-65287667D01*
X153567776Y-65280440D01*
X153543000Y-65278000D01*
X151003000Y-65278000D01*
X151003000Y-59435134D01*
X157912527Y-59387875D01*
X157893354Y-64574107D01*
G37*
%TD.AperFunction*%
%TD*%
D35*
%TO.N,GND*%
X177023928Y-86181000D02*
X177036188Y-86305482D01*
X177072498Y-86425180D01*
X177131463Y-86535494D01*
X177210815Y-86632185D01*
X177307506Y-86711537D01*
X177417820Y-86770502D01*
X177537518Y-86806812D01*
X177662000Y-86819072D01*
X178276250Y-86816000D01*
X178435000Y-86657250D01*
X178435000Y-85344000D01*
X178689000Y-85344000D01*
X178689000Y-86657250D01*
X178847750Y-86816000D01*
X179462000Y-86819072D01*
X179586482Y-86806812D01*
X179706180Y-86770502D01*
X179816494Y-86711537D01*
X179913185Y-86632185D01*
X179992537Y-86535494D01*
X180011509Y-86500000D01*
X180697928Y-86500000D01*
X180710188Y-86624482D01*
X180746498Y-86744180D01*
X180805463Y-86854494D01*
X180884815Y-86951185D01*
X180981506Y-87030537D01*
X181091820Y-87089502D01*
X181211518Y-87125812D01*
X181336000Y-87138072D01*
X183350250Y-87135000D01*
X183509000Y-86976250D01*
X183509000Y-86077000D01*
X180859750Y-86077000D01*
X180701000Y-86235750D01*
X180697928Y-86500000D01*
X180011509Y-86500000D01*
X180051502Y-86425180D01*
X180087812Y-86305482D01*
X180100072Y-86181000D01*
X180097405Y-85344000D01*
X180703443Y-85344000D01*
X180697928Y-85400000D01*
X180701000Y-85664250D01*
X180859750Y-85823000D01*
X183509000Y-85823000D01*
X183509000Y-85803000D01*
X183763000Y-85803000D01*
X183763000Y-85823000D01*
X183783000Y-85823000D01*
X183783000Y-86077000D01*
X183763000Y-86077000D01*
X183763000Y-86976250D01*
X183921750Y-87135000D01*
X185936000Y-87138072D01*
X186060482Y-87125812D01*
X186180180Y-87089502D01*
X186290494Y-87030537D01*
X186387185Y-86951185D01*
X186436000Y-86891704D01*
X186436000Y-87249000D01*
X179869418Y-87249000D01*
X179864001Y-87242399D01*
X179748276Y-87147426D01*
X179616247Y-87076854D01*
X179472986Y-87033397D01*
X179361333Y-87022400D01*
X179361322Y-87022400D01*
X179324000Y-87018724D01*
X179286678Y-87022400D01*
X176022000Y-87022400D01*
X176022000Y-85344000D01*
X177026595Y-85344000D01*
X177023928Y-86181000D01*
%TA.AperFunction,Conductor*%
D36*
G36*
X177023928Y-86181000D02*
G01*
X177036188Y-86305482D01*
X177072498Y-86425180D01*
X177131463Y-86535494D01*
X177210815Y-86632185D01*
X177307506Y-86711537D01*
X177417820Y-86770502D01*
X177537518Y-86806812D01*
X177662000Y-86819072D01*
X178276250Y-86816000D01*
X178435000Y-86657250D01*
X178435000Y-85344000D01*
X178689000Y-85344000D01*
X178689000Y-86657250D01*
X178847750Y-86816000D01*
X179462000Y-86819072D01*
X179586482Y-86806812D01*
X179706180Y-86770502D01*
X179816494Y-86711537D01*
X179913185Y-86632185D01*
X179992537Y-86535494D01*
X180011509Y-86500000D01*
X180697928Y-86500000D01*
X180710188Y-86624482D01*
X180746498Y-86744180D01*
X180805463Y-86854494D01*
X180884815Y-86951185D01*
X180981506Y-87030537D01*
X181091820Y-87089502D01*
X181211518Y-87125812D01*
X181336000Y-87138072D01*
X183350250Y-87135000D01*
X183509000Y-86976250D01*
X183509000Y-86077000D01*
X180859750Y-86077000D01*
X180701000Y-86235750D01*
X180697928Y-86500000D01*
X180011509Y-86500000D01*
X180051502Y-86425180D01*
X180087812Y-86305482D01*
X180100072Y-86181000D01*
X180097405Y-85344000D01*
X180703443Y-85344000D01*
X180697928Y-85400000D01*
X180701000Y-85664250D01*
X180859750Y-85823000D01*
X183509000Y-85823000D01*
X183509000Y-85803000D01*
X183763000Y-85803000D01*
X183763000Y-85823000D01*
X183783000Y-85823000D01*
X183783000Y-86077000D01*
X183763000Y-86077000D01*
X183763000Y-86976250D01*
X183921750Y-87135000D01*
X185936000Y-87138072D01*
X186060482Y-87125812D01*
X186180180Y-87089502D01*
X186290494Y-87030537D01*
X186387185Y-86951185D01*
X186436000Y-86891704D01*
X186436000Y-87249000D01*
X179869418Y-87249000D01*
X179864001Y-87242399D01*
X179748276Y-87147426D01*
X179616247Y-87076854D01*
X179472986Y-87033397D01*
X179361333Y-87022400D01*
X179361322Y-87022400D01*
X179324000Y-87018724D01*
X179286678Y-87022400D01*
X176022000Y-87022400D01*
X176022000Y-85344000D01*
X177026595Y-85344000D01*
X177023928Y-86181000D01*
G37*
%TD.AperFunction*%
%TD*%
D35*
%TO.N,GND*%
X177027000Y-84645250D02*
X177185750Y-84804000D01*
X178435000Y-84804000D01*
X178435000Y-84784000D01*
X178689000Y-84784000D01*
X178689000Y-84804000D01*
X178709000Y-84804000D01*
X178709000Y-85058000D01*
X178689000Y-85058000D01*
X178689000Y-85078000D01*
X178435000Y-85078000D01*
X178435000Y-85058000D01*
X177185750Y-85058000D01*
X177153750Y-85090000D01*
X176022000Y-85090000D01*
X176022000Y-83843000D01*
X177024444Y-83843000D01*
X177027000Y-84645250D01*
%TA.AperFunction,Conductor*%
D36*
G36*
X177027000Y-84645250D02*
G01*
X177185750Y-84804000D01*
X178435000Y-84804000D01*
X178435000Y-84784000D01*
X178689000Y-84784000D01*
X178689000Y-84804000D01*
X178709000Y-84804000D01*
X178709000Y-85058000D01*
X178689000Y-85058000D01*
X178689000Y-85078000D01*
X178435000Y-85078000D01*
X178435000Y-85058000D01*
X177185750Y-85058000D01*
X177153750Y-85090000D01*
X176022000Y-85090000D01*
X176022000Y-83843000D01*
X177024444Y-83843000D01*
X177027000Y-84645250D01*
G37*
%TD.AperFunction*%
%TD*%
M02*
