%TF.GenerationSoftware,KiCad,Pcbnew,(5.1.9)-1*%
%TF.CreationDate,2022-08-25T12:46:07+02:00*%
%TF.ProjectId,electric_angle_actuator,656c6563-7472-4696-935f-616e676c655f,rev?*%
%TF.SameCoordinates,Original*%
%TF.FileFunction,Legend,Bot*%
%TF.FilePolarity,Positive*%
%FSLAX46Y46*%
G04 Gerber Fmt 4.6, Leading zero omitted, Abs format (unit mm)*
G04 Created by KiCad (PCBNEW (5.1.9)-1) date 2022-08-25 12:46:07*
%MOMM*%
%LPD*%
G01*
G04 APERTURE LIST*
%ADD10C,0.150000*%
%ADD11C,0.120000*%
G04 APERTURE END LIST*
D10*
X186056190Y-64242380D02*
X186056190Y-63242380D01*
X185722857Y-63956666D01*
X185389523Y-63242380D01*
X185389523Y-64242380D01*
X184960952Y-63956666D02*
X184484761Y-63956666D01*
X185056190Y-64242380D02*
X184722857Y-63242380D01*
X184389523Y-64242380D01*
X183532380Y-63290000D02*
X183627619Y-63242380D01*
X183770476Y-63242380D01*
X183913333Y-63290000D01*
X184008571Y-63385238D01*
X184056190Y-63480476D01*
X184103809Y-63670952D01*
X184103809Y-63813809D01*
X184056190Y-64004285D01*
X184008571Y-64099523D01*
X183913333Y-64194761D01*
X183770476Y-64242380D01*
X183675238Y-64242380D01*
X183532380Y-64194761D01*
X183484761Y-64147142D01*
X183484761Y-63813809D01*
X183675238Y-63813809D01*
X183056190Y-64242380D02*
X183056190Y-63242380D01*
X182484761Y-64242380D01*
X182484761Y-63242380D01*
X182008571Y-63718571D02*
X181675238Y-63718571D01*
X181532380Y-64242380D02*
X182008571Y-64242380D01*
X182008571Y-63242380D01*
X181532380Y-63242380D01*
X181246666Y-63242380D02*
X180675238Y-63242380D01*
X180960952Y-64242380D02*
X180960952Y-63242380D01*
X180341904Y-64242380D02*
X180341904Y-63242380D01*
X179294285Y-64147142D02*
X179341904Y-64194761D01*
X179484761Y-64242380D01*
X179580000Y-64242380D01*
X179722857Y-64194761D01*
X179818095Y-64099523D01*
X179865714Y-64004285D01*
X179913333Y-63813809D01*
X179913333Y-63670952D01*
X179865714Y-63480476D01*
X179818095Y-63385238D01*
X179722857Y-63290000D01*
X179580000Y-63242380D01*
X179484761Y-63242380D01*
X179341904Y-63290000D01*
X179294285Y-63337619D01*
X178103809Y-63718571D02*
X177770476Y-63718571D01*
X177627619Y-64242380D02*
X178103809Y-64242380D01*
X178103809Y-63242380D01*
X177627619Y-63242380D01*
X177199047Y-64242380D02*
X177199047Y-63242380D01*
X176627619Y-64242380D01*
X176627619Y-63242380D01*
X175580000Y-64147142D02*
X175627619Y-64194761D01*
X175770476Y-64242380D01*
X175865714Y-64242380D01*
X176008571Y-64194761D01*
X176103809Y-64099523D01*
X176151428Y-64004285D01*
X176199047Y-63813809D01*
X176199047Y-63670952D01*
X176151428Y-63480476D01*
X176103809Y-63385238D01*
X176008571Y-63290000D01*
X175865714Y-63242380D01*
X175770476Y-63242380D01*
X175627619Y-63290000D01*
X175580000Y-63337619D01*
X174960952Y-63242380D02*
X174770476Y-63242380D01*
X174675238Y-63290000D01*
X174580000Y-63385238D01*
X174532380Y-63575714D01*
X174532380Y-63909047D01*
X174580000Y-64099523D01*
X174675238Y-64194761D01*
X174770476Y-64242380D01*
X174960952Y-64242380D01*
X175056190Y-64194761D01*
X175151428Y-64099523D01*
X175199047Y-63909047D01*
X175199047Y-63575714D01*
X175151428Y-63385238D01*
X175056190Y-63290000D01*
X174960952Y-63242380D01*
X174103809Y-64242380D02*
X174103809Y-63242380D01*
X173865714Y-63242380D01*
X173722857Y-63290000D01*
X173627619Y-63385238D01*
X173580000Y-63480476D01*
X173532380Y-63670952D01*
X173532380Y-63813809D01*
X173580000Y-64004285D01*
X173627619Y-64099523D01*
X173722857Y-64194761D01*
X173865714Y-64242380D01*
X174103809Y-64242380D01*
X173103809Y-63718571D02*
X172770476Y-63718571D01*
X172627619Y-64242380D02*
X173103809Y-64242380D01*
X173103809Y-63242380D01*
X172627619Y-63242380D01*
X171627619Y-64242380D02*
X171960952Y-63766190D01*
X172199047Y-64242380D02*
X172199047Y-63242380D01*
X171818095Y-63242380D01*
X171722857Y-63290000D01*
X171675238Y-63337619D01*
X171627619Y-63432857D01*
X171627619Y-63575714D01*
X171675238Y-63670952D01*
X171722857Y-63718571D01*
X171818095Y-63766190D01*
X172199047Y-63766190D01*
X170532380Y-63575714D02*
X170294285Y-64242380D01*
X170056190Y-63575714D01*
X169484761Y-63242380D02*
X169389523Y-63242380D01*
X169294285Y-63290000D01*
X169246666Y-63337619D01*
X169199047Y-63432857D01*
X169151428Y-63623333D01*
X169151428Y-63861428D01*
X169199047Y-64051904D01*
X169246666Y-64147142D01*
X169294285Y-64194761D01*
X169389523Y-64242380D01*
X169484761Y-64242380D01*
X169580000Y-64194761D01*
X169627619Y-64147142D01*
X169675238Y-64051904D01*
X169722857Y-63861428D01*
X169722857Y-63623333D01*
X169675238Y-63432857D01*
X169627619Y-63337619D01*
X169580000Y-63290000D01*
X169484761Y-63242380D01*
X168722857Y-64147142D02*
X168675238Y-64194761D01*
X168722857Y-64242380D01*
X168770476Y-64194761D01*
X168722857Y-64147142D01*
X168722857Y-64242380D01*
X167722857Y-64242380D02*
X168294285Y-64242380D01*
X168008571Y-64242380D02*
X168008571Y-63242380D01*
X168103809Y-63385238D01*
X168199047Y-63480476D01*
X168294285Y-63528095D01*
X166389523Y-63670952D02*
X166484761Y-63623333D01*
X166532380Y-63575714D01*
X166580000Y-63480476D01*
X166580000Y-63432857D01*
X166532380Y-63337619D01*
X166484761Y-63290000D01*
X166389523Y-63242380D01*
X166199047Y-63242380D01*
X166103809Y-63290000D01*
X166056190Y-63337619D01*
X166008571Y-63432857D01*
X166008571Y-63480476D01*
X166056190Y-63575714D01*
X166103809Y-63623333D01*
X166199047Y-63670952D01*
X166389523Y-63670952D01*
X166484761Y-63718571D01*
X166532380Y-63766190D01*
X166580000Y-63861428D01*
X166580000Y-64051904D01*
X166532380Y-64147142D01*
X166484761Y-64194761D01*
X166389523Y-64242380D01*
X166199047Y-64242380D01*
X166103809Y-64194761D01*
X166056190Y-64147142D01*
X166008571Y-64051904D01*
X166008571Y-63861428D01*
X166056190Y-63766190D01*
X166103809Y-63718571D01*
X166199047Y-63670952D01*
X164865714Y-63194761D02*
X165722857Y-64480476D01*
X164580000Y-63337619D02*
X164532380Y-63290000D01*
X164437142Y-63242380D01*
X164199047Y-63242380D01*
X164103809Y-63290000D01*
X164056190Y-63337619D01*
X164008571Y-63432857D01*
X164008571Y-63528095D01*
X164056190Y-63670952D01*
X164627619Y-64242380D01*
X164008571Y-64242380D01*
X163627619Y-63337619D02*
X163580000Y-63290000D01*
X163484761Y-63242380D01*
X163246666Y-63242380D01*
X163151428Y-63290000D01*
X163103809Y-63337619D01*
X163056190Y-63432857D01*
X163056190Y-63528095D01*
X163103809Y-63670952D01*
X163675238Y-64242380D01*
X163056190Y-64242380D01*
X152499047Y-75727380D02*
X152499047Y-74727380D01*
X152165714Y-75441666D01*
X151832380Y-74727380D01*
X151832380Y-75727380D01*
X151403809Y-75441666D02*
X150927619Y-75441666D01*
X151499047Y-75727380D02*
X151165714Y-74727380D01*
X150832380Y-75727380D01*
X149975238Y-74775000D02*
X150070476Y-74727380D01*
X150213333Y-74727380D01*
X150356190Y-74775000D01*
X150451428Y-74870238D01*
X150499047Y-74965476D01*
X150546666Y-75155952D01*
X150546666Y-75298809D01*
X150499047Y-75489285D01*
X150451428Y-75584523D01*
X150356190Y-75679761D01*
X150213333Y-75727380D01*
X150118095Y-75727380D01*
X149975238Y-75679761D01*
X149927619Y-75632142D01*
X149927619Y-75298809D01*
X150118095Y-75298809D01*
X149499047Y-75727380D02*
X149499047Y-74727380D01*
X148927619Y-75727380D01*
X148927619Y-74727380D01*
X148451428Y-75203571D02*
X148118095Y-75203571D01*
X147975238Y-75727380D02*
X148451428Y-75727380D01*
X148451428Y-74727380D01*
X147975238Y-74727380D01*
X147689523Y-74727380D02*
X147118095Y-74727380D01*
X147403809Y-75727380D02*
X147403809Y-74727380D01*
X153856190Y-77377380D02*
X153856190Y-76377380D01*
X153475238Y-76377380D01*
X153380000Y-76425000D01*
X153332380Y-76472619D01*
X153284761Y-76567857D01*
X153284761Y-76710714D01*
X153332380Y-76805952D01*
X153380000Y-76853571D01*
X153475238Y-76901190D01*
X153856190Y-76901190D01*
X152380000Y-77377380D02*
X152856190Y-77377380D01*
X152856190Y-76377380D01*
X152094285Y-77091666D02*
X151618095Y-77091666D01*
X152189523Y-77377380D02*
X151856190Y-76377380D01*
X151522857Y-77377380D01*
X150618095Y-77282142D02*
X150665714Y-77329761D01*
X150808571Y-77377380D01*
X150903809Y-77377380D01*
X151046666Y-77329761D01*
X151141904Y-77234523D01*
X151189523Y-77139285D01*
X151237142Y-76948809D01*
X151237142Y-76805952D01*
X151189523Y-76615476D01*
X151141904Y-76520238D01*
X151046666Y-76425000D01*
X150903809Y-76377380D01*
X150808571Y-76377380D01*
X150665714Y-76425000D01*
X150618095Y-76472619D01*
X150189523Y-76853571D02*
X149856190Y-76853571D01*
X149713333Y-77377380D02*
X150189523Y-77377380D01*
X150189523Y-76377380D01*
X149713333Y-76377380D01*
X149284761Y-77377380D02*
X149284761Y-76377380D01*
X148951428Y-77091666D01*
X148618095Y-76377380D01*
X148618095Y-77377380D01*
X148141904Y-76853571D02*
X147808571Y-76853571D01*
X147665714Y-77377380D02*
X148141904Y-77377380D01*
X148141904Y-76377380D01*
X147665714Y-76377380D01*
X147237142Y-77377380D02*
X147237142Y-76377380D01*
X146665714Y-77377380D01*
X146665714Y-76377380D01*
X146332380Y-76377380D02*
X145760952Y-76377380D01*
X146046666Y-77377380D02*
X146046666Y-76377380D01*
D11*
X135620000Y-77930000D02*
X131790000Y-77910000D01*
X136480000Y-77930000D02*
X149880000Y-77910000D01*
X139250000Y-83810000D02*
X139250000Y-86190000D01*
X139250000Y-69190000D02*
X139250000Y-72360000D01*
X175350000Y-90360000D02*
X175450000Y-80360000D01*
X173350000Y-90360000D02*
X173350000Y-80360000D01*
X171150000Y-90360000D02*
X171250000Y-80360000D01*
X169150000Y-90360000D02*
X169150000Y-80360000D01*
X167250000Y-85060000D02*
X177150000Y-85060000D01*
D10*
X167983333Y-89655238D02*
X167983333Y-89179047D01*
X167697619Y-89750476D02*
X168697619Y-89417142D01*
X167697619Y-89083809D01*
X167697619Y-88750476D02*
X168697619Y-88750476D01*
X168697619Y-88512380D01*
X168650000Y-88369523D01*
X168554761Y-88274285D01*
X168459523Y-88226666D01*
X168269047Y-88179047D01*
X168126190Y-88179047D01*
X167935714Y-88226666D01*
X167840476Y-88274285D01*
X167745238Y-88369523D01*
X167697619Y-88512380D01*
X167697619Y-88750476D01*
X167792857Y-87179047D02*
X167745238Y-87226666D01*
X167697619Y-87369523D01*
X167697619Y-87464761D01*
X167745238Y-87607619D01*
X167840476Y-87702857D01*
X167935714Y-87750476D01*
X168126190Y-87798095D01*
X168269047Y-87798095D01*
X168459523Y-87750476D01*
X168554761Y-87702857D01*
X168650000Y-87607619D01*
X168697619Y-87464761D01*
X168697619Y-87369523D01*
X168650000Y-87226666D01*
X168602380Y-87179047D01*
X168697619Y-85798095D02*
X168697619Y-85702857D01*
X168650000Y-85607619D01*
X168602380Y-85560000D01*
X168507142Y-85512380D01*
X168316666Y-85464761D01*
X168078571Y-85464761D01*
X167888095Y-85512380D01*
X167792857Y-85560000D01*
X167745238Y-85607619D01*
X167697619Y-85702857D01*
X167697619Y-85798095D01*
X167745238Y-85893333D01*
X167792857Y-85940952D01*
X167888095Y-85988571D01*
X168078571Y-86036190D01*
X168316666Y-86036190D01*
X168507142Y-85988571D01*
X168602380Y-85940952D01*
X168650000Y-85893333D01*
X168697619Y-85798095D01*
X169645238Y-89602857D02*
X169597619Y-89460000D01*
X169597619Y-89221904D01*
X169645238Y-89126666D01*
X169692857Y-89079047D01*
X169788095Y-89031428D01*
X169883333Y-89031428D01*
X169978571Y-89079047D01*
X170026190Y-89126666D01*
X170073809Y-89221904D01*
X170121428Y-89412380D01*
X170169047Y-89507619D01*
X170216666Y-89555238D01*
X170311904Y-89602857D01*
X170407142Y-89602857D01*
X170502380Y-89555238D01*
X170550000Y-89507619D01*
X170597619Y-89412380D01*
X170597619Y-89174285D01*
X170550000Y-89031428D01*
X169597619Y-88602857D02*
X170597619Y-88602857D01*
X170597619Y-88364761D01*
X170550000Y-88221904D01*
X170454761Y-88126666D01*
X170359523Y-88079047D01*
X170169047Y-88031428D01*
X170026190Y-88031428D01*
X169835714Y-88079047D01*
X169740476Y-88126666D01*
X169645238Y-88221904D01*
X169597619Y-88364761D01*
X169597619Y-88602857D01*
X169597619Y-86317142D02*
X169597619Y-86888571D01*
X169597619Y-86602857D02*
X170597619Y-86602857D01*
X170454761Y-86698095D01*
X170359523Y-86793333D01*
X170311904Y-86888571D01*
X171797619Y-90121904D02*
X172797619Y-90121904D01*
X172797619Y-89740952D01*
X172750000Y-89645714D01*
X172702380Y-89598095D01*
X172607142Y-89550476D01*
X172464285Y-89550476D01*
X172369047Y-89598095D01*
X172321428Y-89645714D01*
X172273809Y-89740952D01*
X172273809Y-90121904D01*
X172797619Y-89217142D02*
X171797619Y-88979047D01*
X172511904Y-88788571D01*
X171797619Y-88598095D01*
X172797619Y-88360000D01*
X171797619Y-87979047D02*
X172797619Y-87979047D01*
X172083333Y-87645714D01*
X172797619Y-87312380D01*
X171797619Y-87312380D01*
X172702380Y-86121904D02*
X172750000Y-86074285D01*
X172797619Y-85979047D01*
X172797619Y-85740952D01*
X172750000Y-85645714D01*
X172702380Y-85598095D01*
X172607142Y-85550476D01*
X172511904Y-85550476D01*
X172369047Y-85598095D01*
X171797619Y-86169523D01*
X171797619Y-85550476D01*
X173897619Y-90121904D02*
X174897619Y-90121904D01*
X174897619Y-89740952D01*
X174850000Y-89645714D01*
X174802380Y-89598095D01*
X174707142Y-89550476D01*
X174564285Y-89550476D01*
X174469047Y-89598095D01*
X174421428Y-89645714D01*
X174373809Y-89740952D01*
X174373809Y-90121904D01*
X174897619Y-89217142D02*
X173897619Y-88979047D01*
X174611904Y-88788571D01*
X173897619Y-88598095D01*
X174897619Y-88360000D01*
X173897619Y-87979047D02*
X174897619Y-87979047D01*
X174183333Y-87645714D01*
X174897619Y-87312380D01*
X173897619Y-87312380D01*
X173897619Y-85550476D02*
X173897619Y-86121904D01*
X173897619Y-85836190D02*
X174897619Y-85836190D01*
X174754761Y-85931428D01*
X174659523Y-86026666D01*
X174611904Y-86121904D01*
X176850000Y-89321904D02*
X176897619Y-89417142D01*
X176897619Y-89560000D01*
X176850000Y-89702857D01*
X176754761Y-89798095D01*
X176659523Y-89845714D01*
X176469047Y-89893333D01*
X176326190Y-89893333D01*
X176135714Y-89845714D01*
X176040476Y-89798095D01*
X175945238Y-89702857D01*
X175897619Y-89560000D01*
X175897619Y-89464761D01*
X175945238Y-89321904D01*
X175992857Y-89274285D01*
X176326190Y-89274285D01*
X176326190Y-89464761D01*
X175897619Y-88845714D02*
X176897619Y-88845714D01*
X175897619Y-88274285D01*
X176897619Y-88274285D01*
X175897619Y-87798095D02*
X176897619Y-87798095D01*
X176897619Y-87560000D01*
X176850000Y-87417142D01*
X176754761Y-87321904D01*
X176659523Y-87274285D01*
X176469047Y-87226666D01*
X176326190Y-87226666D01*
X176135714Y-87274285D01*
X176040476Y-87321904D01*
X175945238Y-87417142D01*
X175897619Y-87560000D01*
X175897619Y-87798095D01*
X168797619Y-84598095D02*
X168797619Y-83979047D01*
X168416666Y-84312380D01*
X168416666Y-84169523D01*
X168369047Y-84074285D01*
X168321428Y-84026666D01*
X168226190Y-83979047D01*
X167988095Y-83979047D01*
X167892857Y-84026666D01*
X167845238Y-84074285D01*
X167797619Y-84169523D01*
X167797619Y-84455238D01*
X167845238Y-84550476D01*
X167892857Y-84598095D01*
X168797619Y-83693333D02*
X167797619Y-83360000D01*
X168797619Y-83026666D01*
X168797619Y-82788571D02*
X168797619Y-82169523D01*
X168416666Y-82502857D01*
X168416666Y-82360000D01*
X168369047Y-82264761D01*
X168321428Y-82217142D01*
X168226190Y-82169523D01*
X167988095Y-82169523D01*
X167892857Y-82217142D01*
X167845238Y-82264761D01*
X167797619Y-82360000D01*
X167797619Y-82645714D01*
X167845238Y-82740952D01*
X167892857Y-82788571D01*
X169745238Y-84602857D02*
X169697619Y-84460000D01*
X169697619Y-84221904D01*
X169745238Y-84126666D01*
X169792857Y-84079047D01*
X169888095Y-84031428D01*
X169983333Y-84031428D01*
X170078571Y-84079047D01*
X170126190Y-84126666D01*
X170173809Y-84221904D01*
X170221428Y-84412380D01*
X170269047Y-84507619D01*
X170316666Y-84555238D01*
X170411904Y-84602857D01*
X170507142Y-84602857D01*
X170602380Y-84555238D01*
X170650000Y-84507619D01*
X170697619Y-84412380D01*
X170697619Y-84174285D01*
X170650000Y-84031428D01*
X169697619Y-83602857D02*
X170697619Y-83602857D01*
X170697619Y-83364761D01*
X170650000Y-83221904D01*
X170554761Y-83126666D01*
X170459523Y-83079047D01*
X170269047Y-83031428D01*
X170126190Y-83031428D01*
X169935714Y-83079047D01*
X169840476Y-83126666D01*
X169745238Y-83221904D01*
X169697619Y-83364761D01*
X169697619Y-83602857D01*
X170602380Y-81888571D02*
X170650000Y-81840952D01*
X170697619Y-81745714D01*
X170697619Y-81507619D01*
X170650000Y-81412380D01*
X170602380Y-81364761D01*
X170507142Y-81317142D01*
X170411904Y-81317142D01*
X170269047Y-81364761D01*
X169697619Y-81936190D01*
X169697619Y-81317142D01*
X171797619Y-84560000D02*
X172797619Y-84560000D01*
X172797619Y-84321904D01*
X172750000Y-84179047D01*
X172654761Y-84083809D01*
X172559523Y-84036190D01*
X172369047Y-83988571D01*
X172226190Y-83988571D01*
X172035714Y-84036190D01*
X171940476Y-84083809D01*
X171845238Y-84179047D01*
X171797619Y-84321904D01*
X171797619Y-84560000D01*
X171797619Y-83560000D02*
X172797619Y-83560000D01*
X171797619Y-82512380D02*
X172273809Y-82845714D01*
X171797619Y-83083809D02*
X172797619Y-83083809D01*
X172797619Y-82702857D01*
X172750000Y-82607619D01*
X172702380Y-82560000D01*
X172607142Y-82512380D01*
X172464285Y-82512380D01*
X172369047Y-82560000D01*
X172321428Y-82607619D01*
X172273809Y-82702857D01*
X172273809Y-83083809D01*
X173897619Y-84621904D02*
X174897619Y-84621904D01*
X174897619Y-84240952D01*
X174850000Y-84145714D01*
X174802380Y-84098095D01*
X174707142Y-84050476D01*
X174564285Y-84050476D01*
X174469047Y-84098095D01*
X174421428Y-84145714D01*
X174373809Y-84240952D01*
X174373809Y-84621904D01*
X174897619Y-83717142D02*
X173897619Y-83479047D01*
X174611904Y-83288571D01*
X173897619Y-83098095D01*
X174897619Y-82860000D01*
X173897619Y-82479047D02*
X174897619Y-82479047D01*
X174183333Y-82145714D01*
X174897619Y-81812380D01*
X173897619Y-81812380D01*
X174802380Y-80621904D02*
X174850000Y-80574285D01*
X174897619Y-80479047D01*
X174897619Y-80240952D01*
X174850000Y-80145714D01*
X174802380Y-80098095D01*
X174707142Y-80050476D01*
X174611904Y-80050476D01*
X174469047Y-80098095D01*
X173897619Y-80669523D01*
X173897619Y-80050476D01*
X175897619Y-84621904D02*
X176897619Y-84621904D01*
X176897619Y-84240952D01*
X176850000Y-84145714D01*
X176802380Y-84098095D01*
X176707142Y-84050476D01*
X176564285Y-84050476D01*
X176469047Y-84098095D01*
X176421428Y-84145714D01*
X176373809Y-84240952D01*
X176373809Y-84621904D01*
X176897619Y-83717142D02*
X175897619Y-83479047D01*
X176611904Y-83288571D01*
X175897619Y-83098095D01*
X176897619Y-82860000D01*
X175897619Y-82479047D02*
X176897619Y-82479047D01*
X176183333Y-82145714D01*
X176897619Y-81812380D01*
X175897619Y-81812380D01*
X175897619Y-80050476D02*
X175897619Y-80621904D01*
X175897619Y-80336190D02*
X176897619Y-80336190D01*
X176754761Y-80431428D01*
X176659523Y-80526666D01*
X176611904Y-80621904D01*
X179050000Y-92012380D02*
X179050000Y-91012380D01*
X178716666Y-91726666D01*
X178383333Y-91012380D01*
X178383333Y-92012380D01*
X177716666Y-91012380D02*
X177526190Y-91012380D01*
X177430952Y-91060000D01*
X177335714Y-91155238D01*
X177288095Y-91345714D01*
X177288095Y-91679047D01*
X177335714Y-91869523D01*
X177430952Y-91964761D01*
X177526190Y-92012380D01*
X177716666Y-92012380D01*
X177811904Y-91964761D01*
X177907142Y-91869523D01*
X177954761Y-91679047D01*
X177954761Y-91345714D01*
X177907142Y-91155238D01*
X177811904Y-91060000D01*
X177716666Y-91012380D01*
X177002380Y-91012380D02*
X176430952Y-91012380D01*
X176716666Y-92012380D02*
X176716666Y-91012380D01*
X175907142Y-91012380D02*
X175716666Y-91012380D01*
X175621428Y-91060000D01*
X175526190Y-91155238D01*
X175478571Y-91345714D01*
X175478571Y-91679047D01*
X175526190Y-91869523D01*
X175621428Y-91964761D01*
X175716666Y-92012380D01*
X175907142Y-92012380D01*
X176002380Y-91964761D01*
X176097619Y-91869523D01*
X176145238Y-91679047D01*
X176145238Y-91345714D01*
X176097619Y-91155238D01*
X176002380Y-91060000D01*
X175907142Y-91012380D01*
X174478571Y-92012380D02*
X174811904Y-91536190D01*
X175050000Y-92012380D02*
X175050000Y-91012380D01*
X174669047Y-91012380D01*
X174573809Y-91060000D01*
X174526190Y-91107619D01*
X174478571Y-91202857D01*
X174478571Y-91345714D01*
X174526190Y-91440952D01*
X174573809Y-91488571D01*
X174669047Y-91536190D01*
X175050000Y-91536190D01*
X172716666Y-91917142D02*
X172764285Y-91964761D01*
X172907142Y-92012380D01*
X173002380Y-92012380D01*
X173145238Y-91964761D01*
X173240476Y-91869523D01*
X173288095Y-91774285D01*
X173335714Y-91583809D01*
X173335714Y-91440952D01*
X173288095Y-91250476D01*
X173240476Y-91155238D01*
X173145238Y-91060000D01*
X173002380Y-91012380D01*
X172907142Y-91012380D01*
X172764285Y-91060000D01*
X172716666Y-91107619D01*
X172097619Y-91012380D02*
X171907142Y-91012380D01*
X171811904Y-91060000D01*
X171716666Y-91155238D01*
X171669047Y-91345714D01*
X171669047Y-91679047D01*
X171716666Y-91869523D01*
X171811904Y-91964761D01*
X171907142Y-92012380D01*
X172097619Y-92012380D01*
X172192857Y-91964761D01*
X172288095Y-91869523D01*
X172335714Y-91679047D01*
X172335714Y-91345714D01*
X172288095Y-91155238D01*
X172192857Y-91060000D01*
X172097619Y-91012380D01*
X171240476Y-92012380D02*
X171240476Y-91012380D01*
X170669047Y-92012380D01*
X170669047Y-91012380D01*
X170335714Y-91012380D02*
X169764285Y-91012380D01*
X170050000Y-92012380D02*
X170050000Y-91012380D01*
X168859523Y-92012380D02*
X169192857Y-91536190D01*
X169430952Y-92012380D02*
X169430952Y-91012380D01*
X169050000Y-91012380D01*
X168954761Y-91060000D01*
X168907142Y-91107619D01*
X168859523Y-91202857D01*
X168859523Y-91345714D01*
X168907142Y-91440952D01*
X168954761Y-91488571D01*
X169050000Y-91536190D01*
X169430952Y-91536190D01*
X168240476Y-91012380D02*
X168050000Y-91012380D01*
X167954761Y-91060000D01*
X167859523Y-91155238D01*
X167811904Y-91345714D01*
X167811904Y-91679047D01*
X167859523Y-91869523D01*
X167954761Y-91964761D01*
X168050000Y-92012380D01*
X168240476Y-92012380D01*
X168335714Y-91964761D01*
X168430952Y-91869523D01*
X168478571Y-91679047D01*
X168478571Y-91345714D01*
X168430952Y-91155238D01*
X168335714Y-91060000D01*
X168240476Y-91012380D01*
X166907142Y-92012380D02*
X167383333Y-92012380D01*
X167383333Y-91012380D01*
X144145000Y-82883285D02*
X144049761Y-82978523D01*
X144145000Y-83073761D01*
X144240238Y-82978523D01*
X144145000Y-82883285D01*
X144145000Y-83073761D01*
%TO.C,U3*%
X144602400Y-80751400D02*
X144602400Y-82351400D01*
X134527400Y-80751400D02*
X134527400Y-75001400D01*
X145177400Y-80751400D02*
X145177400Y-75001400D01*
X134527400Y-80751400D02*
X135177400Y-80751400D01*
X134527400Y-75001400D02*
X135177400Y-75001400D01*
X145177400Y-75001400D02*
X144527400Y-75001400D01*
X145177400Y-80751400D02*
X144602400Y-80751400D01*
X145752380Y-78178095D02*
X146561904Y-78178095D01*
X146657142Y-78225714D01*
X146704761Y-78273333D01*
X146752380Y-78368571D01*
X146752380Y-78559047D01*
X146704761Y-78654285D01*
X146657142Y-78701904D01*
X146561904Y-78749523D01*
X145752380Y-78749523D01*
X145752380Y-79130476D02*
X145752380Y-79749523D01*
X146133333Y-79416190D01*
X146133333Y-79559047D01*
X146180952Y-79654285D01*
X146228571Y-79701904D01*
X146323809Y-79749523D01*
X146561904Y-79749523D01*
X146657142Y-79701904D01*
X146704761Y-79654285D01*
X146752380Y-79559047D01*
X146752380Y-79273333D01*
X146704761Y-79178095D01*
X146657142Y-79130476D01*
%TD*%
M02*
