%TF.GenerationSoftware,KiCad,Pcbnew,(5.1.9)-1*%
%TF.CreationDate,2022-08-25T12:46:07+02:00*%
%TF.ProjectId,electric_angle_actuator,656c6563-7472-4696-935f-616e676c655f,rev?*%
%TF.SameCoordinates,Original*%
%TF.FileFunction,Copper,L3,Inr*%
%TF.FilePolarity,Positive*%
%FSLAX46Y46*%
G04 Gerber Fmt 4.6, Leading zero omitted, Abs format (unit mm)*
G04 Created by KiCad (PCBNEW (5.1.9)-1) date 2022-08-25 12:46:07*
%MOMM*%
%LPD*%
G01*
G04 APERTURE LIST*
%TA.AperFunction,ComponentPad*%
%ADD10C,1.524000*%
%TD*%
%TA.AperFunction,ComponentPad*%
%ADD11O,1.200000X1.900000*%
%TD*%
%TA.AperFunction,ComponentPad*%
%ADD12C,1.450000*%
%TD*%
%TA.AperFunction,ComponentPad*%
%ADD13O,1.700000X1.700000*%
%TD*%
%TA.AperFunction,ComponentPad*%
%ADD14R,1.700000X1.700000*%
%TD*%
%TA.AperFunction,ComponentPad*%
%ADD15R,2.600000X2.600000*%
%TD*%
%TA.AperFunction,ComponentPad*%
%ADD16C,2.600000*%
%TD*%
%TA.AperFunction,ViaPad*%
%ADD17C,0.800000*%
%TD*%
%TA.AperFunction,ViaPad*%
%ADD18C,0.700000*%
%TD*%
%TA.AperFunction,Conductor*%
%ADD19C,0.254000*%
%TD*%
%TA.AperFunction,Conductor*%
%ADD20C,0.100000*%
%TD*%
G04 APERTURE END LIST*
D10*
%TO.N,N/C*%
%TO.C,REF\u002A\u002A*%
X196400000Y-98400000D03*
%TD*%
%TO.N,N/C*%
%TO.C,REF\u002A\u002A*%
X133600000Y-98600000D03*
%TD*%
%TO.N,N/C*%
%TO.C,REF\u002A\u002A*%
X128400000Y-65200000D03*
%TD*%
D11*
%TO.N,Net-(J1-Pad6)*%
%TO.C,J1*%
X142143600Y-59976500D03*
X149143600Y-59976500D03*
D12*
X143143600Y-62676500D03*
X148143600Y-62676500D03*
%TD*%
D13*
%TO.N,+3V3*%
%TO.C,J2*%
X179768500Y-93345000D03*
%TO.N,ADC1_IN0*%
X179768500Y-95885000D03*
%TO.N,SD2*%
X177228500Y-93345000D03*
%TO.N,SD1*%
X177228500Y-95885000D03*
%TO.N,DIRECTION*%
X174688500Y-93345000D03*
%TO.N,HIN_2*%
X174688500Y-95885000D03*
X172148500Y-93345000D03*
%TO.N,HIN_1*%
X172148500Y-95885000D03*
X169608500Y-93345000D03*
%TO.N,GND*%
X169608500Y-95885000D03*
%TO.N,ADC1_IN1*%
X167068500Y-93345000D03*
%TO.N,GND*%
X167068500Y-95885000D03*
%TO.N,INPUT_IT_1*%
X164528500Y-93345000D03*
%TO.N,+5V*%
X164528500Y-95885000D03*
%TO.N,INPUT_IT_2*%
X161988500Y-93345000D03*
%TO.N,GND*%
X161988500Y-95885000D03*
%TO.N,INPUT_IT_3*%
X159448500Y-93345000D03*
%TO.N,+3V3*%
X159448500Y-95885000D03*
%TO.N,POSITION_INDICATOR_4*%
X156908500Y-93345000D03*
%TO.N,GND*%
X156908500Y-95885000D03*
%TO.N,POSITION_INDICATOR_3*%
X154368500Y-93345000D03*
%TO.N,GND*%
X154368500Y-95885000D03*
%TO.N,POSITION_INDICATOR_2*%
X151828500Y-93345000D03*
%TO.N,GND*%
X151828500Y-95885000D03*
%TO.N,POSITION_INDICATOR_1*%
X149288500Y-93345000D03*
D14*
%TO.N,GND*%
X149288500Y-95885000D03*
%TD*%
D15*
%TO.N,V_in*%
%TO.C,J4*%
X192786000Y-72136000D03*
D16*
%TO.N,GND*%
X192786000Y-67056000D03*
%TO.N,+5V*%
X192786000Y-61976000D03*
%TD*%
D15*
%TO.N,CAN_L*%
%TO.C,J5*%
X192786000Y-96774000D03*
D16*
%TO.N,CAN_H*%
X192786000Y-91694000D03*
%TD*%
D17*
%TO.N,GND*%
X149230000Y-80780000D03*
X155318887Y-80876400D03*
X148237877Y-81946850D03*
X146558000Y-85090000D03*
D18*
X147050627Y-87162484D03*
D17*
X143256000Y-86487000D03*
X140462000Y-87757000D03*
X140716000Y-86614000D03*
X146939000Y-90170000D03*
X151765000Y-90373780D03*
X139319000Y-91440000D03*
X138430000Y-89789000D03*
X136144000Y-92710000D03*
X137414000Y-94107000D03*
X138049000Y-83693000D03*
X143145050Y-67425622D03*
X148045000Y-67654000D03*
X150495000Y-66294000D03*
X162814000Y-60706000D03*
X161798000Y-60706000D03*
X160782000Y-60706000D03*
X167005000Y-60706000D03*
X168148000Y-60706000D03*
X169291000Y-60706000D03*
X151511000Y-71755000D03*
X154051000Y-72898000D03*
X155321000Y-72898000D03*
X159385000Y-77089000D03*
X160655000Y-77089000D03*
X134112000Y-60198000D03*
X142171847Y-69029153D03*
X143256000Y-65151000D03*
X144346964Y-79166855D03*
D18*
X133880000Y-72570000D03*
X134890000Y-72850000D03*
X137380000Y-70340000D03*
X135060000Y-79355000D03*
X129040000Y-78410000D03*
X129890000Y-78450000D03*
X129100000Y-81790000D03*
X129120000Y-82890000D03*
X129570000Y-86400000D03*
X134430000Y-87230000D03*
X135270000Y-87200000D03*
X195090000Y-65860000D03*
X195990000Y-65880000D03*
X197020000Y-65870000D03*
X195100000Y-66890000D03*
X196040000Y-66820000D03*
X197050000Y-66910000D03*
X195100000Y-67920000D03*
X196040000Y-67950000D03*
X197020000Y-68010000D03*
X187050000Y-84120000D03*
X187040000Y-83120000D03*
X187050000Y-81860000D03*
X187050000Y-80920000D03*
D17*
X176530000Y-86360000D03*
X177292000Y-86995000D03*
X178562000Y-86995000D03*
%TO.N,+3V3*%
X148590000Y-90373780D03*
X140843000Y-91313000D03*
X141097000Y-84455000D03*
X155321000Y-63627000D03*
X151892000Y-62611000D03*
X153035000Y-62611000D03*
X154178000Y-62611000D03*
X155321000Y-62611000D03*
X156464000Y-62611000D03*
X157480000Y-62611000D03*
X151892000Y-63627000D03*
X153035000Y-63627000D03*
X154178000Y-63627000D03*
X156464000Y-63627000D03*
X157480000Y-63627000D03*
X141097000Y-69215000D03*
X140716000Y-68326000D03*
X140844210Y-65403790D03*
X154559000Y-71882000D03*
X152527000Y-72136000D03*
X137795000Y-60198000D03*
X139700000Y-85852000D03*
D18*
X133340000Y-80030000D03*
X133570000Y-79180000D03*
X135930000Y-78880000D03*
X149470000Y-79480000D03*
X139573000Y-84836000D03*
X139038952Y-83551579D03*
D17*
%TO.N,+5V*%
X167132000Y-67564000D03*
X168529000Y-67564000D03*
D18*
X168529000Y-66641000D03*
X167642500Y-66672500D03*
X144000000Y-99250000D03*
X157620000Y-84950000D03*
X156220000Y-87980000D03*
X146450000Y-94450000D03*
D17*
%TO.N,CAN_H*%
X179038500Y-98271000D03*
%TO.N,SWCLK*%
X136042400Y-68630800D03*
X136042400Y-65582800D03*
%TO.N,NRST*%
X135737600Y-60756800D03*
D18*
X147421600Y-86309200D03*
D17*
%TO.N,SPI2_SCK*%
X149346800Y-74138716D03*
X141071600Y-71870000D03*
%TO.N,I2C1_SCL*%
X144081500Y-75946000D03*
D18*
%TO.N,I2C1_SDA*%
X142940000Y-78350000D03*
%TO.N,ZEROING_PIN*%
X141859000Y-77343000D03*
D17*
%TO.N,PSM*%
X139509500Y-72644000D03*
%TO.N,V_OUT*%
X148945600Y-77622400D03*
%TO.N,MAGNET_PRESENCE*%
X149758400Y-81838800D03*
%TO.N,TURN_DIR_PIN*%
X140004800Y-83261200D03*
%TO.N,U_PIN*%
X136017810Y-77896076D03*
%TO.N,V_PIN*%
X135892714Y-76903929D03*
%TO.N,W_PIN*%
X135445500Y-76009500D03*
D18*
%TO.N,ENC_INC_A*%
X142120000Y-79930000D03*
D17*
%TO.N,ENC_INC_B*%
X145300000Y-75946000D03*
%TO.N,ENC_INC_Ri*%
X146050000Y-74041000D03*
%TO.N,SPI2_MISO*%
X144589500Y-80137000D03*
%TO.N,CAN_SILENT_MODE*%
X143346800Y-85140800D03*
X141732000Y-94488000D03*
%TO.N,HIN_2*%
X148183600Y-68834000D03*
%TO.N,DIRECTION*%
X149453600Y-67474400D03*
%TO.N,HIN_1*%
X149922302Y-68974400D03*
%TO.N,INPUT_IT_3*%
X153670000Y-74980800D03*
%TO.N,INPUT_IT_2*%
X154787600Y-75031600D03*
%TO.N,INPUT_IT_1*%
X156057600Y-75031600D03*
%TO.N,SD2*%
X155240677Y-78121877D03*
X162306000Y-88595200D03*
%TO.N,SD1*%
X154584400Y-78876400D03*
X165506400Y-89560400D03*
%TO.N,ADC1_IN1*%
X161899600Y-86969600D03*
%TO.N,POSITION_INDICATOR_4*%
X147566194Y-81206009D03*
%TO.N,POSITION_INDICATOR_3*%
X146841194Y-80207060D03*
%TO.N,POSITION_INDICATOR_2*%
X145993872Y-80738143D03*
%TO.N,POSITION_INDICATOR_1*%
X145352401Y-82042000D03*
D18*
%TO.N,Net-(C6-Pad1)*%
X135825000Y-84430000D03*
%TO.N,Net-(C11-Pad1)*%
X132860000Y-81080000D03*
%TO.N,Net-(C9-Pad1)*%
X134710000Y-84380000D03*
%TO.N,Net-(C12-Pad1)*%
X136120000Y-72470000D03*
%TO.N,Net-(C14-Pad2)*%
X133460000Y-84080000D03*
%TD*%
D19*
%TO.N,+3V3*%
X140997089Y-59151599D02*
X140926470Y-59384398D01*
X140908600Y-59565835D01*
X140908600Y-60387164D01*
X140926470Y-60568601D01*
X140997089Y-60801400D01*
X141111767Y-61015948D01*
X141266098Y-61204002D01*
X141454151Y-61358333D01*
X141668699Y-61473011D01*
X141901498Y-61543630D01*
X142143600Y-61567475D01*
X142385701Y-61543630D01*
X142395635Y-61540616D01*
X142276651Y-61620119D01*
X142087219Y-61809551D01*
X141938384Y-62032299D01*
X141835864Y-62279803D01*
X141783600Y-62542552D01*
X141783600Y-62810448D01*
X141835864Y-63073197D01*
X141938384Y-63320701D01*
X142087219Y-63543449D01*
X142276651Y-63732881D01*
X142499399Y-63881716D01*
X142746903Y-63984236D01*
X143009652Y-64036500D01*
X143277548Y-64036500D01*
X143540297Y-63984236D01*
X143787801Y-63881716D01*
X144010549Y-63732881D01*
X144199981Y-63543449D01*
X144348816Y-63320701D01*
X144451336Y-63073197D01*
X144503600Y-62810448D01*
X144503600Y-62542552D01*
X144451336Y-62279803D01*
X144348816Y-62032299D01*
X144199981Y-61809551D01*
X144010549Y-61620119D01*
X143787801Y-61471284D01*
X143540297Y-61368764D01*
X143277548Y-61316500D01*
X143009652Y-61316500D01*
X142843831Y-61349484D01*
X143021102Y-61204002D01*
X143175433Y-61015949D01*
X143290111Y-60801401D01*
X143360730Y-60568602D01*
X143378600Y-60387165D01*
X143378600Y-59565836D01*
X143360730Y-59384399D01*
X143290111Y-59151599D01*
X143265203Y-59105000D01*
X148021997Y-59105000D01*
X147997089Y-59151600D01*
X147926470Y-59384399D01*
X147908600Y-59565836D01*
X147908600Y-60387165D01*
X147926470Y-60568602D01*
X147997089Y-60801401D01*
X148111768Y-61015949D01*
X148266099Y-61204002D01*
X148443369Y-61349484D01*
X148277548Y-61316500D01*
X148009652Y-61316500D01*
X147746903Y-61368764D01*
X147499399Y-61471284D01*
X147276651Y-61620119D01*
X147087219Y-61809551D01*
X146938384Y-62032299D01*
X146835864Y-62279803D01*
X146783600Y-62542552D01*
X146783600Y-62810448D01*
X146835864Y-63073197D01*
X146938384Y-63320701D01*
X147087219Y-63543449D01*
X147276651Y-63732881D01*
X147499399Y-63881716D01*
X147746903Y-63984236D01*
X148009652Y-64036500D01*
X148277548Y-64036500D01*
X148540297Y-63984236D01*
X148787801Y-63881716D01*
X149010549Y-63732881D01*
X149199981Y-63543449D01*
X149348816Y-63320701D01*
X149451336Y-63073197D01*
X149503600Y-62810448D01*
X149503600Y-62542552D01*
X149451336Y-62279803D01*
X149348816Y-62032299D01*
X149199981Y-61809551D01*
X149010549Y-61620119D01*
X148891565Y-61540616D01*
X148901499Y-61543630D01*
X149143600Y-61567475D01*
X149385702Y-61543630D01*
X149618501Y-61473011D01*
X149833049Y-61358333D01*
X150021102Y-61204002D01*
X150175433Y-61015949D01*
X150290111Y-60801401D01*
X150349973Y-60604061D01*
X159747000Y-60604061D01*
X159747000Y-60807939D01*
X159786774Y-61007898D01*
X159864795Y-61196256D01*
X159978063Y-61365774D01*
X160122226Y-61509937D01*
X160291744Y-61623205D01*
X160480102Y-61701226D01*
X160680061Y-61741000D01*
X160883939Y-61741000D01*
X161083898Y-61701226D01*
X161272256Y-61623205D01*
X161290000Y-61611349D01*
X161307744Y-61623205D01*
X161496102Y-61701226D01*
X161696061Y-61741000D01*
X161899939Y-61741000D01*
X162099898Y-61701226D01*
X162288256Y-61623205D01*
X162306000Y-61611349D01*
X162323744Y-61623205D01*
X162512102Y-61701226D01*
X162712061Y-61741000D01*
X162915939Y-61741000D01*
X163115898Y-61701226D01*
X163304256Y-61623205D01*
X163473774Y-61509937D01*
X163617937Y-61365774D01*
X163731205Y-61196256D01*
X163809226Y-61007898D01*
X163849000Y-60807939D01*
X163849000Y-60604061D01*
X165970000Y-60604061D01*
X165970000Y-60807939D01*
X166009774Y-61007898D01*
X166087795Y-61196256D01*
X166201063Y-61365774D01*
X166345226Y-61509937D01*
X166514744Y-61623205D01*
X166703102Y-61701226D01*
X166903061Y-61741000D01*
X167106939Y-61741000D01*
X167306898Y-61701226D01*
X167495256Y-61623205D01*
X167576500Y-61568920D01*
X167657744Y-61623205D01*
X167846102Y-61701226D01*
X168046061Y-61741000D01*
X168249939Y-61741000D01*
X168449898Y-61701226D01*
X168638256Y-61623205D01*
X168719500Y-61568920D01*
X168800744Y-61623205D01*
X168989102Y-61701226D01*
X169189061Y-61741000D01*
X169392939Y-61741000D01*
X169592898Y-61701226D01*
X169781256Y-61623205D01*
X169950774Y-61509937D01*
X170094937Y-61365774D01*
X170208205Y-61196256D01*
X170286226Y-61007898D01*
X170326000Y-60807939D01*
X170326000Y-60729117D01*
X182665000Y-60729117D01*
X182665000Y-61070883D01*
X182731675Y-61406081D01*
X182862463Y-61721831D01*
X183052337Y-62005998D01*
X183294002Y-62247663D01*
X183578169Y-62437537D01*
X183893919Y-62568325D01*
X184229117Y-62635000D01*
X184570883Y-62635000D01*
X184906081Y-62568325D01*
X185221831Y-62437537D01*
X185505998Y-62247663D01*
X185747663Y-62005998D01*
X185895048Y-61785419D01*
X190851000Y-61785419D01*
X190851000Y-62166581D01*
X190925361Y-62540419D01*
X191071225Y-62892566D01*
X191282987Y-63209491D01*
X191552509Y-63479013D01*
X191869434Y-63690775D01*
X192221581Y-63836639D01*
X192595419Y-63911000D01*
X192976581Y-63911000D01*
X193350419Y-63836639D01*
X193702566Y-63690775D01*
X194019491Y-63479013D01*
X194289013Y-63209491D01*
X194500775Y-62892566D01*
X194646639Y-62540419D01*
X194721000Y-62166581D01*
X194721000Y-61785419D01*
X194646639Y-61411581D01*
X194500775Y-61059434D01*
X194289013Y-60742509D01*
X194019491Y-60472987D01*
X193702566Y-60261225D01*
X193350419Y-60115361D01*
X192976581Y-60041000D01*
X192595419Y-60041000D01*
X192221581Y-60115361D01*
X191869434Y-60261225D01*
X191552509Y-60472987D01*
X191282987Y-60742509D01*
X191071225Y-61059434D01*
X190925361Y-61411581D01*
X190851000Y-61785419D01*
X185895048Y-61785419D01*
X185937537Y-61721831D01*
X186068325Y-61406081D01*
X186135000Y-61070883D01*
X186135000Y-60729117D01*
X186068325Y-60393919D01*
X185937537Y-60078169D01*
X185747663Y-59794002D01*
X185505998Y-59552337D01*
X185221831Y-59362463D01*
X184906081Y-59231675D01*
X184570883Y-59165000D01*
X184229117Y-59165000D01*
X183893919Y-59231675D01*
X183578169Y-59362463D01*
X183294002Y-59552337D01*
X183052337Y-59794002D01*
X182862463Y-60078169D01*
X182731675Y-60393919D01*
X182665000Y-60729117D01*
X170326000Y-60729117D01*
X170326000Y-60604061D01*
X170286226Y-60404102D01*
X170208205Y-60215744D01*
X170094937Y-60046226D01*
X169950774Y-59902063D01*
X169781256Y-59788795D01*
X169592898Y-59710774D01*
X169392939Y-59671000D01*
X169189061Y-59671000D01*
X168989102Y-59710774D01*
X168800744Y-59788795D01*
X168719500Y-59843080D01*
X168638256Y-59788795D01*
X168449898Y-59710774D01*
X168249939Y-59671000D01*
X168046061Y-59671000D01*
X167846102Y-59710774D01*
X167657744Y-59788795D01*
X167576500Y-59843080D01*
X167495256Y-59788795D01*
X167306898Y-59710774D01*
X167106939Y-59671000D01*
X166903061Y-59671000D01*
X166703102Y-59710774D01*
X166514744Y-59788795D01*
X166345226Y-59902063D01*
X166201063Y-60046226D01*
X166087795Y-60215744D01*
X166009774Y-60404102D01*
X165970000Y-60604061D01*
X163849000Y-60604061D01*
X163809226Y-60404102D01*
X163731205Y-60215744D01*
X163617937Y-60046226D01*
X163473774Y-59902063D01*
X163304256Y-59788795D01*
X163115898Y-59710774D01*
X162915939Y-59671000D01*
X162712061Y-59671000D01*
X162512102Y-59710774D01*
X162323744Y-59788795D01*
X162306000Y-59800651D01*
X162288256Y-59788795D01*
X162099898Y-59710774D01*
X161899939Y-59671000D01*
X161696061Y-59671000D01*
X161496102Y-59710774D01*
X161307744Y-59788795D01*
X161290000Y-59800651D01*
X161272256Y-59788795D01*
X161083898Y-59710774D01*
X160883939Y-59671000D01*
X160680061Y-59671000D01*
X160480102Y-59710774D01*
X160291744Y-59788795D01*
X160122226Y-59902063D01*
X159978063Y-60046226D01*
X159864795Y-60215744D01*
X159786774Y-60404102D01*
X159747000Y-60604061D01*
X150349973Y-60604061D01*
X150360730Y-60568601D01*
X150378600Y-60387164D01*
X150378600Y-59565835D01*
X150360730Y-59384398D01*
X150290111Y-59151599D01*
X150265203Y-59105000D01*
X198915000Y-59105000D01*
X198915001Y-99645000D01*
X197044840Y-99645000D01*
X197061727Y-99638005D01*
X197290535Y-99485120D01*
X197485120Y-99290535D01*
X197638005Y-99061727D01*
X197743314Y-98807490D01*
X197797000Y-98537592D01*
X197797000Y-98262408D01*
X197743314Y-97992510D01*
X197638005Y-97738273D01*
X197485120Y-97509465D01*
X197290535Y-97314880D01*
X197061727Y-97161995D01*
X196807490Y-97056686D01*
X196537592Y-97003000D01*
X196262408Y-97003000D01*
X195992510Y-97056686D01*
X195738273Y-97161995D01*
X195509465Y-97314880D01*
X195314880Y-97509465D01*
X195161995Y-97738273D01*
X195056686Y-97992510D01*
X195003000Y-98262408D01*
X195003000Y-98537592D01*
X195056686Y-98807490D01*
X195161995Y-99061727D01*
X195314880Y-99290535D01*
X195509465Y-99485120D01*
X195738273Y-99638005D01*
X195755160Y-99645000D01*
X144902542Y-99645000D01*
X144947147Y-99537314D01*
X144985000Y-99347014D01*
X144985000Y-99152986D01*
X144947147Y-98962686D01*
X144872896Y-98783428D01*
X144765099Y-98622099D01*
X144627901Y-98484901D01*
X144466572Y-98377104D01*
X144287314Y-98302853D01*
X144097014Y-98265000D01*
X143902986Y-98265000D01*
X143712686Y-98302853D01*
X143533428Y-98377104D01*
X143372099Y-98484901D01*
X143234901Y-98622099D01*
X143127104Y-98783428D01*
X143052853Y-98962686D01*
X143015000Y-99152986D01*
X143015000Y-99347014D01*
X143052853Y-99537314D01*
X143097458Y-99645000D01*
X134530655Y-99645000D01*
X134685120Y-99490535D01*
X134838005Y-99261727D01*
X134943314Y-99007490D01*
X134997000Y-98737592D01*
X134997000Y-98462408D01*
X134943314Y-98192510D01*
X134838005Y-97938273D01*
X134685120Y-97709465D01*
X134490535Y-97514880D01*
X134261727Y-97361995D01*
X134007490Y-97256686D01*
X133737592Y-97203000D01*
X133462408Y-97203000D01*
X133192510Y-97256686D01*
X132938273Y-97361995D01*
X132709465Y-97514880D01*
X132514880Y-97709465D01*
X132361995Y-97938273D01*
X132256686Y-98192510D01*
X132203000Y-98462408D01*
X132203000Y-98737592D01*
X132256686Y-99007490D01*
X132361995Y-99261727D01*
X132514880Y-99490535D01*
X132669345Y-99645000D01*
X127100800Y-99645000D01*
X127100800Y-97729117D01*
X127165000Y-97729117D01*
X127165000Y-98070883D01*
X127231675Y-98406081D01*
X127362463Y-98721831D01*
X127552337Y-99005998D01*
X127794002Y-99247663D01*
X128078169Y-99437537D01*
X128393919Y-99568325D01*
X128729117Y-99635000D01*
X129070883Y-99635000D01*
X129406081Y-99568325D01*
X129721831Y-99437537D01*
X130005998Y-99247663D01*
X130247663Y-99005998D01*
X130437537Y-98721831D01*
X130568325Y-98406081D01*
X130635000Y-98070883D01*
X130635000Y-97729117D01*
X130568325Y-97393919D01*
X130437537Y-97078169D01*
X130247663Y-96794002D01*
X130005998Y-96552337D01*
X129721831Y-96362463D01*
X129406081Y-96231675D01*
X129070883Y-96165000D01*
X128729117Y-96165000D01*
X128393919Y-96231675D01*
X128078169Y-96362463D01*
X127794002Y-96552337D01*
X127552337Y-96794002D01*
X127362463Y-97078169D01*
X127231675Y-97393919D01*
X127165000Y-97729117D01*
X127100800Y-97729117D01*
X127100800Y-92608061D01*
X135109000Y-92608061D01*
X135109000Y-92811939D01*
X135148774Y-93011898D01*
X135226795Y-93200256D01*
X135340063Y-93369774D01*
X135484226Y-93513937D01*
X135653744Y-93627205D01*
X135842102Y-93705226D01*
X136042061Y-93745000D01*
X136245939Y-93745000D01*
X136445898Y-93705226D01*
X136463095Y-93698103D01*
X136418774Y-93805102D01*
X136379000Y-94005061D01*
X136379000Y-94208939D01*
X136418774Y-94408898D01*
X136496795Y-94597256D01*
X136610063Y-94766774D01*
X136754226Y-94910937D01*
X136923744Y-95024205D01*
X137112102Y-95102226D01*
X137312061Y-95142000D01*
X137515939Y-95142000D01*
X137715898Y-95102226D01*
X137904256Y-95024205D01*
X138073774Y-94910937D01*
X138217937Y-94766774D01*
X138331205Y-94597256D01*
X138409226Y-94408898D01*
X138413768Y-94386061D01*
X140697000Y-94386061D01*
X140697000Y-94589939D01*
X140736774Y-94789898D01*
X140814795Y-94978256D01*
X140928063Y-95147774D01*
X141072226Y-95291937D01*
X141241744Y-95405205D01*
X141430102Y-95483226D01*
X141630061Y-95523000D01*
X141833939Y-95523000D01*
X142033898Y-95483226D01*
X142222256Y-95405205D01*
X142391774Y-95291937D01*
X142535937Y-95147774D01*
X142649205Y-94978256D01*
X142727226Y-94789898D01*
X142767000Y-94589939D01*
X142767000Y-94386061D01*
X142760422Y-94352986D01*
X145465000Y-94352986D01*
X145465000Y-94547014D01*
X145502853Y-94737314D01*
X145577104Y-94916572D01*
X145684901Y-95077901D01*
X145822099Y-95215099D01*
X145983428Y-95322896D01*
X146162686Y-95397147D01*
X146352986Y-95435000D01*
X146547014Y-95435000D01*
X146737314Y-95397147D01*
X146916572Y-95322896D01*
X147077901Y-95215099D01*
X147215099Y-95077901D01*
X147243764Y-95035000D01*
X147800428Y-95035000D01*
X147800428Y-96735000D01*
X147812688Y-96859482D01*
X147848998Y-96979180D01*
X147907963Y-97089494D01*
X147987315Y-97186185D01*
X148084006Y-97265537D01*
X148194320Y-97324502D01*
X148314018Y-97360812D01*
X148438500Y-97373072D01*
X150138500Y-97373072D01*
X150262982Y-97360812D01*
X150382680Y-97324502D01*
X150492994Y-97265537D01*
X150589685Y-97186185D01*
X150669037Y-97089494D01*
X150728002Y-96979180D01*
X150750013Y-96906620D01*
X150881868Y-97038475D01*
X151125089Y-97200990D01*
X151395342Y-97312932D01*
X151682240Y-97370000D01*
X151974760Y-97370000D01*
X152261658Y-97312932D01*
X152531911Y-97200990D01*
X152775132Y-97038475D01*
X152981975Y-96831632D01*
X153098500Y-96657240D01*
X153215025Y-96831632D01*
X153421868Y-97038475D01*
X153665089Y-97200990D01*
X153935342Y-97312932D01*
X154222240Y-97370000D01*
X154514760Y-97370000D01*
X154801658Y-97312932D01*
X155071911Y-97200990D01*
X155315132Y-97038475D01*
X155521975Y-96831632D01*
X155638500Y-96657240D01*
X155755025Y-96831632D01*
X155961868Y-97038475D01*
X156205089Y-97200990D01*
X156475342Y-97312932D01*
X156762240Y-97370000D01*
X157054760Y-97370000D01*
X157341658Y-97312932D01*
X157611911Y-97200990D01*
X157855132Y-97038475D01*
X158061975Y-96831632D01*
X158183695Y-96649466D01*
X158253322Y-96766355D01*
X158448231Y-96982588D01*
X158681580Y-97156641D01*
X158944401Y-97281825D01*
X159091610Y-97326476D01*
X159321500Y-97205155D01*
X159321500Y-96012000D01*
X159301500Y-96012000D01*
X159301500Y-95758000D01*
X159321500Y-95758000D01*
X159321500Y-95738000D01*
X159575500Y-95738000D01*
X159575500Y-95758000D01*
X159595500Y-95758000D01*
X159595500Y-96012000D01*
X159575500Y-96012000D01*
X159575500Y-97205155D01*
X159805390Y-97326476D01*
X159952599Y-97281825D01*
X160215420Y-97156641D01*
X160448769Y-96982588D01*
X160643678Y-96766355D01*
X160713305Y-96649466D01*
X160835025Y-96831632D01*
X161041868Y-97038475D01*
X161285089Y-97200990D01*
X161555342Y-97312932D01*
X161842240Y-97370000D01*
X162134760Y-97370000D01*
X162421658Y-97312932D01*
X162691911Y-97200990D01*
X162935132Y-97038475D01*
X163141975Y-96831632D01*
X163258500Y-96657240D01*
X163375025Y-96831632D01*
X163581868Y-97038475D01*
X163825089Y-97200990D01*
X164095342Y-97312932D01*
X164382240Y-97370000D01*
X164674760Y-97370000D01*
X164961658Y-97312932D01*
X165231911Y-97200990D01*
X165475132Y-97038475D01*
X165681975Y-96831632D01*
X165798500Y-96657240D01*
X165915025Y-96831632D01*
X166121868Y-97038475D01*
X166365089Y-97200990D01*
X166635342Y-97312932D01*
X166922240Y-97370000D01*
X167214760Y-97370000D01*
X167501658Y-97312932D01*
X167771911Y-97200990D01*
X168015132Y-97038475D01*
X168221975Y-96831632D01*
X168338500Y-96657240D01*
X168455025Y-96831632D01*
X168661868Y-97038475D01*
X168905089Y-97200990D01*
X169175342Y-97312932D01*
X169462240Y-97370000D01*
X169754760Y-97370000D01*
X170041658Y-97312932D01*
X170311911Y-97200990D01*
X170555132Y-97038475D01*
X170761975Y-96831632D01*
X170878500Y-96657240D01*
X170995025Y-96831632D01*
X171201868Y-97038475D01*
X171445089Y-97200990D01*
X171715342Y-97312932D01*
X172002240Y-97370000D01*
X172294760Y-97370000D01*
X172581658Y-97312932D01*
X172851911Y-97200990D01*
X173095132Y-97038475D01*
X173301975Y-96831632D01*
X173418500Y-96657240D01*
X173535025Y-96831632D01*
X173741868Y-97038475D01*
X173985089Y-97200990D01*
X174255342Y-97312932D01*
X174542240Y-97370000D01*
X174834760Y-97370000D01*
X175121658Y-97312932D01*
X175391911Y-97200990D01*
X175635132Y-97038475D01*
X175841975Y-96831632D01*
X175958500Y-96657240D01*
X176075025Y-96831632D01*
X176281868Y-97038475D01*
X176525089Y-97200990D01*
X176795342Y-97312932D01*
X177082240Y-97370000D01*
X177374760Y-97370000D01*
X177661658Y-97312932D01*
X177931911Y-97200990D01*
X178175132Y-97038475D01*
X178381975Y-96831632D01*
X178498500Y-96657240D01*
X178615025Y-96831632D01*
X178821868Y-97038475D01*
X179065089Y-97200990D01*
X179158085Y-97239510D01*
X179140439Y-97236000D01*
X178936561Y-97236000D01*
X178736602Y-97275774D01*
X178548244Y-97353795D01*
X178378726Y-97467063D01*
X178234563Y-97611226D01*
X178121295Y-97780744D01*
X178043274Y-97969102D01*
X178003500Y-98169061D01*
X178003500Y-98372939D01*
X178043274Y-98572898D01*
X178121295Y-98761256D01*
X178234563Y-98930774D01*
X178378726Y-99074937D01*
X178548244Y-99188205D01*
X178736602Y-99266226D01*
X178936561Y-99306000D01*
X179140439Y-99306000D01*
X179340398Y-99266226D01*
X179528756Y-99188205D01*
X179698274Y-99074937D01*
X179842437Y-98930774D01*
X179955705Y-98761256D01*
X180033726Y-98572898D01*
X180073500Y-98372939D01*
X180073500Y-98169061D01*
X180033726Y-97969102D01*
X179955705Y-97780744D01*
X179921210Y-97729117D01*
X182665000Y-97729117D01*
X182665000Y-98070883D01*
X182731675Y-98406081D01*
X182862463Y-98721831D01*
X183052337Y-99005998D01*
X183294002Y-99247663D01*
X183578169Y-99437537D01*
X183893919Y-99568325D01*
X184229117Y-99635000D01*
X184570883Y-99635000D01*
X184906081Y-99568325D01*
X185221831Y-99437537D01*
X185505998Y-99247663D01*
X185747663Y-99005998D01*
X185937537Y-98721831D01*
X186068325Y-98406081D01*
X186135000Y-98070883D01*
X186135000Y-97729117D01*
X186068325Y-97393919D01*
X185937537Y-97078169D01*
X185747663Y-96794002D01*
X185505998Y-96552337D01*
X185221831Y-96362463D01*
X184906081Y-96231675D01*
X184570883Y-96165000D01*
X184229117Y-96165000D01*
X183893919Y-96231675D01*
X183578169Y-96362463D01*
X183294002Y-96552337D01*
X183052337Y-96794002D01*
X182862463Y-97078169D01*
X182731675Y-97393919D01*
X182665000Y-97729117D01*
X179921210Y-97729117D01*
X179842437Y-97611226D01*
X179698274Y-97467063D01*
X179528756Y-97353795D01*
X179517654Y-97349196D01*
X179622240Y-97370000D01*
X179914760Y-97370000D01*
X180201658Y-97312932D01*
X180471911Y-97200990D01*
X180715132Y-97038475D01*
X180921975Y-96831632D01*
X181084490Y-96588411D01*
X181196432Y-96318158D01*
X181253500Y-96031260D01*
X181253500Y-95738740D01*
X181200840Y-95474000D01*
X190847928Y-95474000D01*
X190847928Y-98074000D01*
X190860188Y-98198482D01*
X190896498Y-98318180D01*
X190955463Y-98428494D01*
X191034815Y-98525185D01*
X191131506Y-98604537D01*
X191241820Y-98663502D01*
X191361518Y-98699812D01*
X191486000Y-98712072D01*
X194086000Y-98712072D01*
X194210482Y-98699812D01*
X194330180Y-98663502D01*
X194440494Y-98604537D01*
X194537185Y-98525185D01*
X194616537Y-98428494D01*
X194675502Y-98318180D01*
X194711812Y-98198482D01*
X194724072Y-98074000D01*
X194724072Y-95474000D01*
X194711812Y-95349518D01*
X194675502Y-95229820D01*
X194616537Y-95119506D01*
X194537185Y-95022815D01*
X194440494Y-94943463D01*
X194330180Y-94884498D01*
X194210482Y-94848188D01*
X194086000Y-94835928D01*
X191486000Y-94835928D01*
X191361518Y-94848188D01*
X191241820Y-94884498D01*
X191131506Y-94943463D01*
X191034815Y-95022815D01*
X190955463Y-95119506D01*
X190896498Y-95229820D01*
X190860188Y-95349518D01*
X190847928Y-95474000D01*
X181200840Y-95474000D01*
X181196432Y-95451842D01*
X181084490Y-95181589D01*
X180921975Y-94938368D01*
X180715132Y-94731525D01*
X180539094Y-94613900D01*
X180768769Y-94442588D01*
X180963678Y-94226355D01*
X181112657Y-93976252D01*
X181209981Y-93701891D01*
X181089314Y-93472000D01*
X179895500Y-93472000D01*
X179895500Y-93492000D01*
X179641500Y-93492000D01*
X179641500Y-93472000D01*
X179621500Y-93472000D01*
X179621500Y-93218000D01*
X179641500Y-93218000D01*
X179641500Y-92024845D01*
X179895500Y-92024845D01*
X179895500Y-93218000D01*
X181089314Y-93218000D01*
X181209981Y-92988109D01*
X181112657Y-92713748D01*
X180963678Y-92463645D01*
X180768769Y-92247412D01*
X180535420Y-92073359D01*
X180272599Y-91948175D01*
X180125390Y-91903524D01*
X179895500Y-92024845D01*
X179641500Y-92024845D01*
X179411610Y-91903524D01*
X179264401Y-91948175D01*
X179001580Y-92073359D01*
X178768231Y-92247412D01*
X178573322Y-92463645D01*
X178503695Y-92580534D01*
X178381975Y-92398368D01*
X178175132Y-92191525D01*
X177931911Y-92029010D01*
X177661658Y-91917068D01*
X177374760Y-91860000D01*
X177082240Y-91860000D01*
X176795342Y-91917068D01*
X176525089Y-92029010D01*
X176281868Y-92191525D01*
X176075025Y-92398368D01*
X175958500Y-92572760D01*
X175841975Y-92398368D01*
X175635132Y-92191525D01*
X175391911Y-92029010D01*
X175121658Y-91917068D01*
X174834760Y-91860000D01*
X174542240Y-91860000D01*
X174255342Y-91917068D01*
X173985089Y-92029010D01*
X173741868Y-92191525D01*
X173535025Y-92398368D01*
X173418500Y-92572760D01*
X173301975Y-92398368D01*
X173095132Y-92191525D01*
X172851911Y-92029010D01*
X172581658Y-91917068D01*
X172294760Y-91860000D01*
X172002240Y-91860000D01*
X171715342Y-91917068D01*
X171445089Y-92029010D01*
X171201868Y-92191525D01*
X170995025Y-92398368D01*
X170878500Y-92572760D01*
X170761975Y-92398368D01*
X170555132Y-92191525D01*
X170311911Y-92029010D01*
X170041658Y-91917068D01*
X169754760Y-91860000D01*
X169462240Y-91860000D01*
X169175342Y-91917068D01*
X168905089Y-92029010D01*
X168661868Y-92191525D01*
X168455025Y-92398368D01*
X168338500Y-92572760D01*
X168221975Y-92398368D01*
X168015132Y-92191525D01*
X167771911Y-92029010D01*
X167501658Y-91917068D01*
X167214760Y-91860000D01*
X166922240Y-91860000D01*
X166635342Y-91917068D01*
X166365089Y-92029010D01*
X166121868Y-92191525D01*
X165915025Y-92398368D01*
X165798500Y-92572760D01*
X165681975Y-92398368D01*
X165475132Y-92191525D01*
X165231911Y-92029010D01*
X164961658Y-91917068D01*
X164674760Y-91860000D01*
X164382240Y-91860000D01*
X164095342Y-91917068D01*
X163825089Y-92029010D01*
X163581868Y-92191525D01*
X163375025Y-92398368D01*
X163258500Y-92572760D01*
X163141975Y-92398368D01*
X162935132Y-92191525D01*
X162691911Y-92029010D01*
X162421658Y-91917068D01*
X162134760Y-91860000D01*
X161842240Y-91860000D01*
X161555342Y-91917068D01*
X161285089Y-92029010D01*
X161041868Y-92191525D01*
X160835025Y-92398368D01*
X160718500Y-92572760D01*
X160601975Y-92398368D01*
X160395132Y-92191525D01*
X160151911Y-92029010D01*
X159881658Y-91917068D01*
X159594760Y-91860000D01*
X159302240Y-91860000D01*
X159015342Y-91917068D01*
X158745089Y-92029010D01*
X158501868Y-92191525D01*
X158295025Y-92398368D01*
X158178500Y-92572760D01*
X158061975Y-92398368D01*
X157855132Y-92191525D01*
X157611911Y-92029010D01*
X157341658Y-91917068D01*
X157054760Y-91860000D01*
X156762240Y-91860000D01*
X156475342Y-91917068D01*
X156205089Y-92029010D01*
X155961868Y-92191525D01*
X155755025Y-92398368D01*
X155638500Y-92572760D01*
X155521975Y-92398368D01*
X155315132Y-92191525D01*
X155071911Y-92029010D01*
X154801658Y-91917068D01*
X154514760Y-91860000D01*
X154222240Y-91860000D01*
X153935342Y-91917068D01*
X153665089Y-92029010D01*
X153421868Y-92191525D01*
X153215025Y-92398368D01*
X153098500Y-92572760D01*
X152981975Y-92398368D01*
X152775132Y-92191525D01*
X152531911Y-92029010D01*
X152261658Y-91917068D01*
X151974760Y-91860000D01*
X151682240Y-91860000D01*
X151395342Y-91917068D01*
X151125089Y-92029010D01*
X150881868Y-92191525D01*
X150675025Y-92398368D01*
X150558500Y-92572760D01*
X150441975Y-92398368D01*
X150235132Y-92191525D01*
X149991911Y-92029010D01*
X149721658Y-91917068D01*
X149434760Y-91860000D01*
X149142240Y-91860000D01*
X148855342Y-91917068D01*
X148585089Y-92029010D01*
X148341868Y-92191525D01*
X148135025Y-92398368D01*
X147972510Y-92641589D01*
X147860568Y-92911842D01*
X147803500Y-93198740D01*
X147803500Y-93491260D01*
X147860568Y-93778158D01*
X147972510Y-94048411D01*
X148135025Y-94291632D01*
X148266880Y-94423487D01*
X148194320Y-94445498D01*
X148084006Y-94504463D01*
X147987315Y-94583815D01*
X147907963Y-94680506D01*
X147848998Y-94790820D01*
X147812688Y-94910518D01*
X147800428Y-95035000D01*
X147243764Y-95035000D01*
X147322896Y-94916572D01*
X147397147Y-94737314D01*
X147435000Y-94547014D01*
X147435000Y-94352986D01*
X147397147Y-94162686D01*
X147322896Y-93983428D01*
X147215099Y-93822099D01*
X147077901Y-93684901D01*
X146916572Y-93577104D01*
X146737314Y-93502853D01*
X146547014Y-93465000D01*
X146352986Y-93465000D01*
X146162686Y-93502853D01*
X145983428Y-93577104D01*
X145822099Y-93684901D01*
X145684901Y-93822099D01*
X145577104Y-93983428D01*
X145502853Y-94162686D01*
X145465000Y-94352986D01*
X142760422Y-94352986D01*
X142727226Y-94186102D01*
X142649205Y-93997744D01*
X142535937Y-93828226D01*
X142391774Y-93684063D01*
X142222256Y-93570795D01*
X142033898Y-93492774D01*
X141833939Y-93453000D01*
X141630061Y-93453000D01*
X141430102Y-93492774D01*
X141241744Y-93570795D01*
X141072226Y-93684063D01*
X140928063Y-93828226D01*
X140814795Y-93997744D01*
X140736774Y-94186102D01*
X140697000Y-94386061D01*
X138413768Y-94386061D01*
X138449000Y-94208939D01*
X138449000Y-94005061D01*
X138409226Y-93805102D01*
X138331205Y-93616744D01*
X138217937Y-93447226D01*
X138073774Y-93303063D01*
X137904256Y-93189795D01*
X137715898Y-93111774D01*
X137515939Y-93072000D01*
X137312061Y-93072000D01*
X137112102Y-93111774D01*
X137094905Y-93118897D01*
X137139226Y-93011898D01*
X137179000Y-92811939D01*
X137179000Y-92608061D01*
X137139226Y-92408102D01*
X137061205Y-92219744D01*
X136947937Y-92050226D01*
X136803774Y-91906063D01*
X136634256Y-91792795D01*
X136445898Y-91714774D01*
X136245939Y-91675000D01*
X136042061Y-91675000D01*
X135842102Y-91714774D01*
X135653744Y-91792795D01*
X135484226Y-91906063D01*
X135340063Y-92050226D01*
X135226795Y-92219744D01*
X135148774Y-92408102D01*
X135109000Y-92608061D01*
X127100800Y-92608061D01*
X127100800Y-89687061D01*
X137395000Y-89687061D01*
X137395000Y-89890939D01*
X137434774Y-90090898D01*
X137512795Y-90279256D01*
X137626063Y-90448774D01*
X137770226Y-90592937D01*
X137939744Y-90706205D01*
X138128102Y-90784226D01*
X138328061Y-90824000D01*
X138485814Y-90824000D01*
X138401795Y-90949744D01*
X138323774Y-91138102D01*
X138284000Y-91338061D01*
X138284000Y-91541939D01*
X138323774Y-91741898D01*
X138401795Y-91930256D01*
X138515063Y-92099774D01*
X138659226Y-92243937D01*
X138828744Y-92357205D01*
X139017102Y-92435226D01*
X139217061Y-92475000D01*
X139420939Y-92475000D01*
X139620898Y-92435226D01*
X139809256Y-92357205D01*
X139978774Y-92243937D01*
X140122937Y-92099774D01*
X140236205Y-91930256D01*
X140314226Y-91741898D01*
X140354000Y-91541939D01*
X140354000Y-91503419D01*
X190851000Y-91503419D01*
X190851000Y-91884581D01*
X190925361Y-92258419D01*
X191071225Y-92610566D01*
X191282987Y-92927491D01*
X191552509Y-93197013D01*
X191869434Y-93408775D01*
X192221581Y-93554639D01*
X192595419Y-93629000D01*
X192976581Y-93629000D01*
X193350419Y-93554639D01*
X193702566Y-93408775D01*
X194019491Y-93197013D01*
X194289013Y-92927491D01*
X194500775Y-92610566D01*
X194646639Y-92258419D01*
X194721000Y-91884581D01*
X194721000Y-91503419D01*
X194646639Y-91129581D01*
X194500775Y-90777434D01*
X194289013Y-90460509D01*
X194019491Y-90190987D01*
X193702566Y-89979225D01*
X193350419Y-89833361D01*
X192976581Y-89759000D01*
X192595419Y-89759000D01*
X192221581Y-89833361D01*
X191869434Y-89979225D01*
X191552509Y-90190987D01*
X191282987Y-90460509D01*
X191071225Y-90777434D01*
X190925361Y-91129581D01*
X190851000Y-91503419D01*
X140354000Y-91503419D01*
X140354000Y-91338061D01*
X140314226Y-91138102D01*
X140236205Y-90949744D01*
X140122937Y-90780226D01*
X139978774Y-90636063D01*
X139809256Y-90522795D01*
X139620898Y-90444774D01*
X139420939Y-90405000D01*
X139263186Y-90405000D01*
X139347205Y-90279256D01*
X139425226Y-90090898D01*
X139429768Y-90068061D01*
X145904000Y-90068061D01*
X145904000Y-90271939D01*
X145943774Y-90471898D01*
X146021795Y-90660256D01*
X146135063Y-90829774D01*
X146279226Y-90973937D01*
X146448744Y-91087205D01*
X146637102Y-91165226D01*
X146837061Y-91205000D01*
X147040939Y-91205000D01*
X147240898Y-91165226D01*
X147429256Y-91087205D01*
X147598774Y-90973937D01*
X147742937Y-90829774D01*
X147856205Y-90660256D01*
X147934226Y-90471898D01*
X147974000Y-90271939D01*
X147974000Y-90271841D01*
X150730000Y-90271841D01*
X150730000Y-90475719D01*
X150769774Y-90675678D01*
X150847795Y-90864036D01*
X150961063Y-91033554D01*
X151105226Y-91177717D01*
X151274744Y-91290985D01*
X151463102Y-91369006D01*
X151663061Y-91408780D01*
X151866939Y-91408780D01*
X152066898Y-91369006D01*
X152255256Y-91290985D01*
X152424774Y-91177717D01*
X152568937Y-91033554D01*
X152682205Y-90864036D01*
X152760226Y-90675678D01*
X152800000Y-90475719D01*
X152800000Y-90271841D01*
X152760226Y-90071882D01*
X152682205Y-89883524D01*
X152568937Y-89714006D01*
X152424774Y-89569843D01*
X152255256Y-89456575D01*
X152066898Y-89378554D01*
X151866939Y-89338780D01*
X151663061Y-89338780D01*
X151463102Y-89378554D01*
X151274744Y-89456575D01*
X151105226Y-89569843D01*
X150961063Y-89714006D01*
X150847795Y-89883524D01*
X150769774Y-90071882D01*
X150730000Y-90271841D01*
X147974000Y-90271841D01*
X147974000Y-90068061D01*
X147934226Y-89868102D01*
X147856205Y-89679744D01*
X147742937Y-89510226D01*
X147598774Y-89366063D01*
X147429256Y-89252795D01*
X147240898Y-89174774D01*
X147040939Y-89135000D01*
X146837061Y-89135000D01*
X146637102Y-89174774D01*
X146448744Y-89252795D01*
X146279226Y-89366063D01*
X146135063Y-89510226D01*
X146021795Y-89679744D01*
X145943774Y-89868102D01*
X145904000Y-90068061D01*
X139429768Y-90068061D01*
X139465000Y-89890939D01*
X139465000Y-89687061D01*
X139425226Y-89487102D01*
X139347205Y-89298744D01*
X139233937Y-89129226D01*
X139089774Y-88985063D01*
X138920256Y-88871795D01*
X138731898Y-88793774D01*
X138531939Y-88754000D01*
X138328061Y-88754000D01*
X138128102Y-88793774D01*
X137939744Y-88871795D01*
X137770226Y-88985063D01*
X137626063Y-89129226D01*
X137512795Y-89298744D01*
X137434774Y-89487102D01*
X137395000Y-89687061D01*
X127100800Y-89687061D01*
X127100800Y-86302986D01*
X128585000Y-86302986D01*
X128585000Y-86497014D01*
X128622853Y-86687314D01*
X128697104Y-86866572D01*
X128804901Y-87027901D01*
X128942099Y-87165099D01*
X129103428Y-87272896D01*
X129282686Y-87347147D01*
X129472986Y-87385000D01*
X129667014Y-87385000D01*
X129857314Y-87347147D01*
X130036572Y-87272896D01*
X130197901Y-87165099D01*
X130230014Y-87132986D01*
X133445000Y-87132986D01*
X133445000Y-87327014D01*
X133482853Y-87517314D01*
X133557104Y-87696572D01*
X133664901Y-87857901D01*
X133802099Y-87995099D01*
X133963428Y-88102896D01*
X134142686Y-88177147D01*
X134332986Y-88215000D01*
X134527014Y-88215000D01*
X134717314Y-88177147D01*
X134886213Y-88107187D01*
X134982686Y-88147147D01*
X135172986Y-88185000D01*
X135367014Y-88185000D01*
X135557314Y-88147147D01*
X135736572Y-88072896D01*
X135897901Y-87965099D01*
X136035099Y-87827901D01*
X136142896Y-87666572D01*
X136147664Y-87655061D01*
X139427000Y-87655061D01*
X139427000Y-87858939D01*
X139466774Y-88058898D01*
X139544795Y-88247256D01*
X139658063Y-88416774D01*
X139802226Y-88560937D01*
X139971744Y-88674205D01*
X140160102Y-88752226D01*
X140360061Y-88792000D01*
X140563939Y-88792000D01*
X140763898Y-88752226D01*
X140952256Y-88674205D01*
X141121774Y-88560937D01*
X141265937Y-88416774D01*
X141379205Y-88247256D01*
X141457226Y-88058898D01*
X141497000Y-87858939D01*
X141497000Y-87655061D01*
X141457226Y-87455102D01*
X141422484Y-87371227D01*
X141519937Y-87273774D01*
X141633205Y-87104256D01*
X141711226Y-86915898D01*
X141751000Y-86715939D01*
X141751000Y-86512061D01*
X141725739Y-86385061D01*
X142221000Y-86385061D01*
X142221000Y-86588939D01*
X142260774Y-86788898D01*
X142338795Y-86977256D01*
X142452063Y-87146774D01*
X142596226Y-87290937D01*
X142765744Y-87404205D01*
X142954102Y-87482226D01*
X143154061Y-87522000D01*
X143357939Y-87522000D01*
X143557898Y-87482226D01*
X143746256Y-87404205D01*
X143915774Y-87290937D01*
X144059937Y-87146774D01*
X144173205Y-86977256D01*
X144251226Y-86788898D01*
X144291000Y-86588939D01*
X144291000Y-86385061D01*
X144251226Y-86185102D01*
X144173205Y-85996744D01*
X144085631Y-85865680D01*
X144150737Y-85800574D01*
X144264005Y-85631056D01*
X144342026Y-85442698D01*
X144381800Y-85242739D01*
X144381800Y-85038861D01*
X144371696Y-84988061D01*
X145523000Y-84988061D01*
X145523000Y-85191939D01*
X145562774Y-85391898D01*
X145640795Y-85580256D01*
X145754063Y-85749774D01*
X145898226Y-85893937D01*
X146067744Y-86007205D01*
X146256102Y-86085226D01*
X146454023Y-86124595D01*
X146436600Y-86212186D01*
X146436600Y-86388115D01*
X146422726Y-86397385D01*
X146285528Y-86534583D01*
X146177731Y-86695912D01*
X146103480Y-86875170D01*
X146065627Y-87065470D01*
X146065627Y-87259498D01*
X146103480Y-87449798D01*
X146177731Y-87629056D01*
X146285528Y-87790385D01*
X146422726Y-87927583D01*
X146584055Y-88035380D01*
X146763313Y-88109631D01*
X146953613Y-88147484D01*
X147147641Y-88147484D01*
X147337941Y-88109631D01*
X147517199Y-88035380D01*
X147678528Y-87927583D01*
X147723125Y-87882986D01*
X155235000Y-87882986D01*
X155235000Y-88077014D01*
X155272853Y-88267314D01*
X155347104Y-88446572D01*
X155454901Y-88607901D01*
X155592099Y-88745099D01*
X155753428Y-88852896D01*
X155932686Y-88927147D01*
X156122986Y-88965000D01*
X156317014Y-88965000D01*
X156507314Y-88927147D01*
X156686572Y-88852896D01*
X156847901Y-88745099D01*
X156985099Y-88607901D01*
X157092896Y-88446572D01*
X157167147Y-88267314D01*
X157205000Y-88077014D01*
X157205000Y-87882986D01*
X157167147Y-87692686D01*
X157092896Y-87513428D01*
X156985099Y-87352099D01*
X156847901Y-87214901D01*
X156686572Y-87107104D01*
X156507314Y-87032853D01*
X156317014Y-86995000D01*
X156122986Y-86995000D01*
X155932686Y-87032853D01*
X155753428Y-87107104D01*
X155592099Y-87214901D01*
X155454901Y-87352099D01*
X155347104Y-87513428D01*
X155272853Y-87692686D01*
X155235000Y-87882986D01*
X147723125Y-87882986D01*
X147815726Y-87790385D01*
X147923523Y-87629056D01*
X147997774Y-87449798D01*
X148035627Y-87259498D01*
X148035627Y-87083569D01*
X148049501Y-87074299D01*
X148186699Y-86937101D01*
X148233097Y-86867661D01*
X160864600Y-86867661D01*
X160864600Y-87071539D01*
X160904374Y-87271498D01*
X160982395Y-87459856D01*
X161095663Y-87629374D01*
X161239826Y-87773537D01*
X161409344Y-87886805D01*
X161509286Y-87928203D01*
X161502063Y-87935426D01*
X161388795Y-88104944D01*
X161310774Y-88293302D01*
X161271000Y-88493261D01*
X161271000Y-88697139D01*
X161310774Y-88897098D01*
X161388795Y-89085456D01*
X161502063Y-89254974D01*
X161646226Y-89399137D01*
X161815744Y-89512405D01*
X162004102Y-89590426D01*
X162204061Y-89630200D01*
X162407939Y-89630200D01*
X162607898Y-89590426D01*
X162796256Y-89512405D01*
X162876989Y-89458461D01*
X164471400Y-89458461D01*
X164471400Y-89662339D01*
X164511174Y-89862298D01*
X164589195Y-90050656D01*
X164702463Y-90220174D01*
X164846626Y-90364337D01*
X165016144Y-90477605D01*
X165204502Y-90555626D01*
X165404461Y-90595400D01*
X165608339Y-90595400D01*
X165808298Y-90555626D01*
X165996656Y-90477605D01*
X166166174Y-90364337D01*
X166310337Y-90220174D01*
X166423605Y-90050656D01*
X166501626Y-89862298D01*
X166541400Y-89662339D01*
X166541400Y-89458461D01*
X166501626Y-89258502D01*
X166423605Y-89070144D01*
X166310337Y-88900626D01*
X166166174Y-88756463D01*
X165996656Y-88643195D01*
X165808298Y-88565174D01*
X165608339Y-88525400D01*
X165404461Y-88525400D01*
X165204502Y-88565174D01*
X165016144Y-88643195D01*
X164846626Y-88756463D01*
X164702463Y-88900626D01*
X164589195Y-89070144D01*
X164511174Y-89258502D01*
X164471400Y-89458461D01*
X162876989Y-89458461D01*
X162965774Y-89399137D01*
X163109937Y-89254974D01*
X163223205Y-89085456D01*
X163301226Y-88897098D01*
X163341000Y-88697139D01*
X163341000Y-88493261D01*
X163301226Y-88293302D01*
X163223205Y-88104944D01*
X163109937Y-87935426D01*
X162965774Y-87791263D01*
X162796256Y-87677995D01*
X162696314Y-87636597D01*
X162703537Y-87629374D01*
X162816805Y-87459856D01*
X162894826Y-87271498D01*
X162934600Y-87071539D01*
X162934600Y-86867661D01*
X162894826Y-86667702D01*
X162816805Y-86479344D01*
X162703537Y-86309826D01*
X162651772Y-86258061D01*
X175495000Y-86258061D01*
X175495000Y-86461939D01*
X175534774Y-86661898D01*
X175612795Y-86850256D01*
X175726063Y-87019774D01*
X175870226Y-87163937D01*
X176039744Y-87277205D01*
X176228102Y-87355226D01*
X176329270Y-87375349D01*
X176374795Y-87485256D01*
X176488063Y-87654774D01*
X176632226Y-87798937D01*
X176801744Y-87912205D01*
X176990102Y-87990226D01*
X177190061Y-88030000D01*
X177393939Y-88030000D01*
X177593898Y-87990226D01*
X177782256Y-87912205D01*
X177927000Y-87815490D01*
X178071744Y-87912205D01*
X178260102Y-87990226D01*
X178460061Y-88030000D01*
X178663939Y-88030000D01*
X178863898Y-87990226D01*
X179052256Y-87912205D01*
X179221774Y-87798937D01*
X179365937Y-87654774D01*
X179479205Y-87485256D01*
X179557226Y-87296898D01*
X179597000Y-87096939D01*
X179597000Y-86893061D01*
X179557226Y-86693102D01*
X179479205Y-86504744D01*
X179365937Y-86335226D01*
X179221774Y-86191063D01*
X179052256Y-86077795D01*
X178863898Y-85999774D01*
X178663939Y-85960000D01*
X178460061Y-85960000D01*
X178260102Y-85999774D01*
X178071744Y-86077795D01*
X177927000Y-86174510D01*
X177782256Y-86077795D01*
X177593898Y-85999774D01*
X177492730Y-85979651D01*
X177447205Y-85869744D01*
X177333937Y-85700226D01*
X177189774Y-85556063D01*
X177020256Y-85442795D01*
X176831898Y-85364774D01*
X176631939Y-85325000D01*
X176428061Y-85325000D01*
X176228102Y-85364774D01*
X176039744Y-85442795D01*
X175870226Y-85556063D01*
X175726063Y-85700226D01*
X175612795Y-85869744D01*
X175534774Y-86058102D01*
X175495000Y-86258061D01*
X162651772Y-86258061D01*
X162559374Y-86165663D01*
X162389856Y-86052395D01*
X162201498Y-85974374D01*
X162001539Y-85934600D01*
X161797661Y-85934600D01*
X161597702Y-85974374D01*
X161409344Y-86052395D01*
X161239826Y-86165663D01*
X161095663Y-86309826D01*
X160982395Y-86479344D01*
X160904374Y-86667702D01*
X160864600Y-86867661D01*
X148233097Y-86867661D01*
X148294496Y-86775772D01*
X148368747Y-86596514D01*
X148406600Y-86406214D01*
X148406600Y-86212186D01*
X148368747Y-86021886D01*
X148294496Y-85842628D01*
X148186699Y-85681299D01*
X148049501Y-85544101D01*
X147888172Y-85436304D01*
X147708914Y-85362053D01*
X147564862Y-85333399D01*
X147593000Y-85191939D01*
X147593000Y-84988061D01*
X147566133Y-84852986D01*
X156635000Y-84852986D01*
X156635000Y-85047014D01*
X156672853Y-85237314D01*
X156747104Y-85416572D01*
X156854901Y-85577901D01*
X156992099Y-85715099D01*
X157153428Y-85822896D01*
X157332686Y-85897147D01*
X157522986Y-85935000D01*
X157717014Y-85935000D01*
X157907314Y-85897147D01*
X158086572Y-85822896D01*
X158247901Y-85715099D01*
X158385099Y-85577901D01*
X158492896Y-85416572D01*
X158567147Y-85237314D01*
X158605000Y-85047014D01*
X158605000Y-84852986D01*
X158567147Y-84662686D01*
X158492896Y-84483428D01*
X158385099Y-84322099D01*
X158247901Y-84184901D01*
X158086572Y-84077104D01*
X157907314Y-84002853D01*
X157717014Y-83965000D01*
X157522986Y-83965000D01*
X157332686Y-84002853D01*
X157153428Y-84077104D01*
X156992099Y-84184901D01*
X156854901Y-84322099D01*
X156747104Y-84483428D01*
X156672853Y-84662686D01*
X156635000Y-84852986D01*
X147566133Y-84852986D01*
X147553226Y-84788102D01*
X147475205Y-84599744D01*
X147361937Y-84430226D01*
X147217774Y-84286063D01*
X147048256Y-84172795D01*
X146859898Y-84094774D01*
X146659939Y-84055000D01*
X146456061Y-84055000D01*
X146256102Y-84094774D01*
X146067744Y-84172795D01*
X145898226Y-84286063D01*
X145754063Y-84430226D01*
X145640795Y-84599744D01*
X145562774Y-84788102D01*
X145523000Y-84988061D01*
X144371696Y-84988061D01*
X144342026Y-84838902D01*
X144264005Y-84650544D01*
X144150737Y-84481026D01*
X144006574Y-84336863D01*
X143837056Y-84223595D01*
X143648698Y-84145574D01*
X143448739Y-84105800D01*
X143244861Y-84105800D01*
X143044902Y-84145574D01*
X142856544Y-84223595D01*
X142687026Y-84336863D01*
X142542863Y-84481026D01*
X142429595Y-84650544D01*
X142351574Y-84838902D01*
X142311800Y-85038861D01*
X142311800Y-85242739D01*
X142351574Y-85442698D01*
X142429595Y-85631056D01*
X142517169Y-85762120D01*
X142452063Y-85827226D01*
X142338795Y-85996744D01*
X142260774Y-86185102D01*
X142221000Y-86385061D01*
X141725739Y-86385061D01*
X141711226Y-86312102D01*
X141633205Y-86123744D01*
X141519937Y-85954226D01*
X141375774Y-85810063D01*
X141206256Y-85696795D01*
X141017898Y-85618774D01*
X140817939Y-85579000D01*
X140614061Y-85579000D01*
X140414102Y-85618774D01*
X140225744Y-85696795D01*
X140056226Y-85810063D01*
X139912063Y-85954226D01*
X139798795Y-86123744D01*
X139720774Y-86312102D01*
X139681000Y-86512061D01*
X139681000Y-86715939D01*
X139720774Y-86915898D01*
X139755516Y-86999773D01*
X139658063Y-87097226D01*
X139544795Y-87266744D01*
X139466774Y-87455102D01*
X139427000Y-87655061D01*
X136147664Y-87655061D01*
X136217147Y-87487314D01*
X136255000Y-87297014D01*
X136255000Y-87102986D01*
X136217147Y-86912686D01*
X136142896Y-86733428D01*
X136035099Y-86572099D01*
X135897901Y-86434901D01*
X135736572Y-86327104D01*
X135557314Y-86252853D01*
X135367014Y-86215000D01*
X135172986Y-86215000D01*
X134982686Y-86252853D01*
X134813787Y-86322813D01*
X134717314Y-86282853D01*
X134527014Y-86245000D01*
X134332986Y-86245000D01*
X134142686Y-86282853D01*
X133963428Y-86357104D01*
X133802099Y-86464901D01*
X133664901Y-86602099D01*
X133557104Y-86763428D01*
X133482853Y-86942686D01*
X133445000Y-87132986D01*
X130230014Y-87132986D01*
X130335099Y-87027901D01*
X130442896Y-86866572D01*
X130517147Y-86687314D01*
X130555000Y-86497014D01*
X130555000Y-86302986D01*
X130517147Y-86112686D01*
X130442896Y-85933428D01*
X130335099Y-85772099D01*
X130197901Y-85634901D01*
X130036572Y-85527104D01*
X129857314Y-85452853D01*
X129667014Y-85415000D01*
X129472986Y-85415000D01*
X129282686Y-85452853D01*
X129103428Y-85527104D01*
X128942099Y-85634901D01*
X128804901Y-85772099D01*
X128697104Y-85933428D01*
X128622853Y-86112686D01*
X128585000Y-86302986D01*
X127100800Y-86302986D01*
X127100800Y-83982986D01*
X132475000Y-83982986D01*
X132475000Y-84177014D01*
X132512853Y-84367314D01*
X132587104Y-84546572D01*
X132694901Y-84707901D01*
X132832099Y-84845099D01*
X132993428Y-84952896D01*
X133172686Y-85027147D01*
X133362986Y-85065000D01*
X133557014Y-85065000D01*
X133747314Y-85027147D01*
X133912142Y-84958873D01*
X133944901Y-85007901D01*
X134082099Y-85145099D01*
X134243428Y-85252896D01*
X134422686Y-85327147D01*
X134612986Y-85365000D01*
X134807014Y-85365000D01*
X134997314Y-85327147D01*
X135176572Y-85252896D01*
X135230085Y-85217140D01*
X135358428Y-85302896D01*
X135537686Y-85377147D01*
X135727986Y-85415000D01*
X135922014Y-85415000D01*
X136112314Y-85377147D01*
X136291572Y-85302896D01*
X136452901Y-85195099D01*
X136590099Y-85057901D01*
X136697896Y-84896572D01*
X136772147Y-84717314D01*
X136810000Y-84527014D01*
X136810000Y-84332986D01*
X136772147Y-84142686D01*
X136697896Y-83963428D01*
X136590099Y-83802099D01*
X136452901Y-83664901D01*
X136342393Y-83591061D01*
X137014000Y-83591061D01*
X137014000Y-83794939D01*
X137053774Y-83994898D01*
X137131795Y-84183256D01*
X137245063Y-84352774D01*
X137389226Y-84496937D01*
X137558744Y-84610205D01*
X137747102Y-84688226D01*
X137947061Y-84728000D01*
X138150939Y-84728000D01*
X138350898Y-84688226D01*
X138539256Y-84610205D01*
X138708774Y-84496937D01*
X138852937Y-84352774D01*
X138966205Y-84183256D01*
X139044226Y-83994898D01*
X139084000Y-83794939D01*
X139084000Y-83742777D01*
X139087595Y-83751456D01*
X139200863Y-83920974D01*
X139345026Y-84065137D01*
X139514544Y-84178405D01*
X139702902Y-84256426D01*
X139902861Y-84296200D01*
X140106739Y-84296200D01*
X140306698Y-84256426D01*
X140495056Y-84178405D01*
X140664574Y-84065137D01*
X140808737Y-83920974D01*
X140922005Y-83751456D01*
X141000026Y-83563098D01*
X141039800Y-83363139D01*
X141039800Y-83159261D01*
X141000026Y-82959302D01*
X140922005Y-82770944D01*
X140808737Y-82601426D01*
X140664574Y-82457263D01*
X140495056Y-82343995D01*
X140306698Y-82265974D01*
X140106739Y-82226200D01*
X139902861Y-82226200D01*
X139702902Y-82265974D01*
X139514544Y-82343995D01*
X139345026Y-82457263D01*
X139200863Y-82601426D01*
X139087595Y-82770944D01*
X139009574Y-82959302D01*
X138969800Y-83159261D01*
X138969800Y-83211423D01*
X138966205Y-83202744D01*
X138852937Y-83033226D01*
X138708774Y-82889063D01*
X138539256Y-82775795D01*
X138350898Y-82697774D01*
X138150939Y-82658000D01*
X137947061Y-82658000D01*
X137747102Y-82697774D01*
X137558744Y-82775795D01*
X137389226Y-82889063D01*
X137245063Y-83033226D01*
X137131795Y-83202744D01*
X137053774Y-83391102D01*
X137014000Y-83591061D01*
X136342393Y-83591061D01*
X136291572Y-83557104D01*
X136112314Y-83482853D01*
X135922014Y-83445000D01*
X135727986Y-83445000D01*
X135537686Y-83482853D01*
X135358428Y-83557104D01*
X135304915Y-83592860D01*
X135176572Y-83507104D01*
X134997314Y-83432853D01*
X134807014Y-83395000D01*
X134612986Y-83395000D01*
X134422686Y-83432853D01*
X134257858Y-83501127D01*
X134225099Y-83452099D01*
X134087901Y-83314901D01*
X133926572Y-83207104D01*
X133747314Y-83132853D01*
X133557014Y-83095000D01*
X133362986Y-83095000D01*
X133172686Y-83132853D01*
X132993428Y-83207104D01*
X132832099Y-83314901D01*
X132694901Y-83452099D01*
X132587104Y-83613428D01*
X132512853Y-83792686D01*
X132475000Y-83982986D01*
X127100800Y-83982986D01*
X127100800Y-81692986D01*
X128115000Y-81692986D01*
X128115000Y-81887014D01*
X128152853Y-82077314D01*
X128227104Y-82256572D01*
X128292849Y-82354966D01*
X128247104Y-82423428D01*
X128172853Y-82602686D01*
X128135000Y-82792986D01*
X128135000Y-82987014D01*
X128172853Y-83177314D01*
X128247104Y-83356572D01*
X128354901Y-83517901D01*
X128492099Y-83655099D01*
X128653428Y-83762896D01*
X128832686Y-83837147D01*
X129022986Y-83875000D01*
X129217014Y-83875000D01*
X129407314Y-83837147D01*
X129586572Y-83762896D01*
X129747901Y-83655099D01*
X129885099Y-83517901D01*
X129992896Y-83356572D01*
X130067147Y-83177314D01*
X130105000Y-82987014D01*
X130105000Y-82792986D01*
X130067147Y-82602686D01*
X129992896Y-82423428D01*
X129927151Y-82325034D01*
X129972896Y-82256572D01*
X130047147Y-82077314D01*
X130085000Y-81887014D01*
X130085000Y-81692986D01*
X130047147Y-81502686D01*
X129972896Y-81323428D01*
X129865099Y-81162099D01*
X129727901Y-81024901D01*
X129665172Y-80982986D01*
X131875000Y-80982986D01*
X131875000Y-81177014D01*
X131912853Y-81367314D01*
X131987104Y-81546572D01*
X132094901Y-81707901D01*
X132232099Y-81845099D01*
X132393428Y-81952896D01*
X132572686Y-82027147D01*
X132762986Y-82065000D01*
X132957014Y-82065000D01*
X133147314Y-82027147D01*
X133326572Y-81952896D01*
X133487901Y-81845099D01*
X133625099Y-81707901D01*
X133732896Y-81546572D01*
X133807147Y-81367314D01*
X133845000Y-81177014D01*
X133845000Y-80982986D01*
X133807147Y-80792686D01*
X133732896Y-80613428D01*
X133625099Y-80452099D01*
X133487901Y-80314901D01*
X133326572Y-80207104D01*
X133147314Y-80132853D01*
X132957014Y-80095000D01*
X132762986Y-80095000D01*
X132572686Y-80132853D01*
X132393428Y-80207104D01*
X132232099Y-80314901D01*
X132094901Y-80452099D01*
X131987104Y-80613428D01*
X131912853Y-80792686D01*
X131875000Y-80982986D01*
X129665172Y-80982986D01*
X129566572Y-80917104D01*
X129387314Y-80842853D01*
X129197014Y-80805000D01*
X129002986Y-80805000D01*
X128812686Y-80842853D01*
X128633428Y-80917104D01*
X128472099Y-81024901D01*
X128334901Y-81162099D01*
X128227104Y-81323428D01*
X128152853Y-81502686D01*
X128115000Y-81692986D01*
X127100800Y-81692986D01*
X127100800Y-78312986D01*
X128055000Y-78312986D01*
X128055000Y-78507014D01*
X128092853Y-78697314D01*
X128167104Y-78876572D01*
X128274901Y-79037901D01*
X128412099Y-79175099D01*
X128573428Y-79282896D01*
X128752686Y-79357147D01*
X128942986Y-79395000D01*
X129137014Y-79395000D01*
X129327314Y-79357147D01*
X129418291Y-79319463D01*
X129423428Y-79322896D01*
X129602686Y-79397147D01*
X129792986Y-79435000D01*
X129987014Y-79435000D01*
X130177314Y-79397147D01*
X130356572Y-79322896D01*
X130453716Y-79257986D01*
X134075000Y-79257986D01*
X134075000Y-79452014D01*
X134112853Y-79642314D01*
X134187104Y-79821572D01*
X134294901Y-79982901D01*
X134432099Y-80120099D01*
X134593428Y-80227896D01*
X134772686Y-80302147D01*
X134962986Y-80340000D01*
X135157014Y-80340000D01*
X135347314Y-80302147D01*
X135526572Y-80227896D01*
X135687901Y-80120099D01*
X135825099Y-79982901D01*
X135932896Y-79821572D01*
X136007147Y-79642314D01*
X136045000Y-79452014D01*
X136045000Y-79257986D01*
X136007147Y-79067686D01*
X135950561Y-78931076D01*
X136119749Y-78931076D01*
X136319708Y-78891302D01*
X136508066Y-78813281D01*
X136677584Y-78700013D01*
X136821747Y-78555850D01*
X136935015Y-78386332D01*
X137013036Y-78197974D01*
X137052810Y-77998015D01*
X137052810Y-77794137D01*
X137013036Y-77594178D01*
X136935015Y-77405820D01*
X136854816Y-77285794D01*
X136871305Y-77245986D01*
X140874000Y-77245986D01*
X140874000Y-77440014D01*
X140911853Y-77630314D01*
X140986104Y-77809572D01*
X141093901Y-77970901D01*
X141231099Y-78108099D01*
X141392428Y-78215896D01*
X141571686Y-78290147D01*
X141761986Y-78328000D01*
X141955000Y-78328000D01*
X141955000Y-78447014D01*
X141992853Y-78637314D01*
X142067104Y-78816572D01*
X142152917Y-78945000D01*
X142022986Y-78945000D01*
X141832686Y-78982853D01*
X141653428Y-79057104D01*
X141492099Y-79164901D01*
X141354901Y-79302099D01*
X141247104Y-79463428D01*
X141172853Y-79642686D01*
X141135000Y-79832986D01*
X141135000Y-80027014D01*
X141172853Y-80217314D01*
X141247104Y-80396572D01*
X141354901Y-80557901D01*
X141492099Y-80695099D01*
X141653428Y-80802896D01*
X141832686Y-80877147D01*
X142022986Y-80915000D01*
X142217014Y-80915000D01*
X142407314Y-80877147D01*
X142586572Y-80802896D01*
X142747901Y-80695099D01*
X142885099Y-80557901D01*
X142992896Y-80396572D01*
X143067147Y-80217314D01*
X143105000Y-80027014D01*
X143105000Y-79832986D01*
X143067147Y-79642686D01*
X142992896Y-79463428D01*
X142907083Y-79335000D01*
X143037014Y-79335000D01*
X143227314Y-79297147D01*
X143311964Y-79262084D01*
X143311964Y-79268794D01*
X143351738Y-79468753D01*
X143429759Y-79657111D01*
X143543027Y-79826629D01*
X143587177Y-79870779D01*
X143554500Y-80035061D01*
X143554500Y-80238939D01*
X143594274Y-80438898D01*
X143672295Y-80627256D01*
X143785563Y-80796774D01*
X143929726Y-80940937D01*
X144099244Y-81054205D01*
X144287602Y-81132226D01*
X144487561Y-81172000D01*
X144691439Y-81172000D01*
X144833910Y-81143661D01*
X144692627Y-81238063D01*
X144548464Y-81382226D01*
X144435196Y-81551744D01*
X144357175Y-81740102D01*
X144317401Y-81940061D01*
X144317401Y-82143939D01*
X144357175Y-82343898D01*
X144435196Y-82532256D01*
X144548464Y-82701774D01*
X144692627Y-82845937D01*
X144862145Y-82959205D01*
X145050503Y-83037226D01*
X145250462Y-83077000D01*
X145454340Y-83077000D01*
X145654299Y-83037226D01*
X145688677Y-83022986D01*
X186055000Y-83022986D01*
X186055000Y-83217014D01*
X186092853Y-83407314D01*
X186167104Y-83586572D01*
X186194440Y-83627483D01*
X186177104Y-83653428D01*
X186102853Y-83832686D01*
X186065000Y-84022986D01*
X186065000Y-84217014D01*
X186102853Y-84407314D01*
X186177104Y-84586572D01*
X186284901Y-84747901D01*
X186422099Y-84885099D01*
X186583428Y-84992896D01*
X186762686Y-85067147D01*
X186952986Y-85105000D01*
X187147014Y-85105000D01*
X187337314Y-85067147D01*
X187516572Y-84992896D01*
X187677901Y-84885099D01*
X187815099Y-84747901D01*
X187922896Y-84586572D01*
X187997147Y-84407314D01*
X188035000Y-84217014D01*
X188035000Y-84022986D01*
X187997147Y-83832686D01*
X187922896Y-83653428D01*
X187895560Y-83612517D01*
X187912896Y-83586572D01*
X187987147Y-83407314D01*
X188025000Y-83217014D01*
X188025000Y-83022986D01*
X187987147Y-82832686D01*
X187912896Y-82653428D01*
X187807423Y-82495577D01*
X187815099Y-82487901D01*
X187922896Y-82326572D01*
X187997147Y-82147314D01*
X188035000Y-81957014D01*
X188035000Y-81762986D01*
X187997147Y-81572686D01*
X187922896Y-81393428D01*
X187920605Y-81390000D01*
X187922896Y-81386572D01*
X187997147Y-81207314D01*
X188035000Y-81017014D01*
X188035000Y-80822986D01*
X187997147Y-80632686D01*
X187922896Y-80453428D01*
X187815099Y-80292099D01*
X187677901Y-80154901D01*
X187516572Y-80047104D01*
X187337314Y-79972853D01*
X187147014Y-79935000D01*
X186952986Y-79935000D01*
X186762686Y-79972853D01*
X186583428Y-80047104D01*
X186422099Y-80154901D01*
X186284901Y-80292099D01*
X186177104Y-80453428D01*
X186102853Y-80632686D01*
X186065000Y-80822986D01*
X186065000Y-81017014D01*
X186102853Y-81207314D01*
X186177104Y-81386572D01*
X186179395Y-81390000D01*
X186177104Y-81393428D01*
X186102853Y-81572686D01*
X186065000Y-81762986D01*
X186065000Y-81957014D01*
X186102853Y-82147314D01*
X186177104Y-82326572D01*
X186282577Y-82484423D01*
X186274901Y-82492099D01*
X186167104Y-82653428D01*
X186092853Y-82832686D01*
X186055000Y-83022986D01*
X145688677Y-83022986D01*
X145842657Y-82959205D01*
X146012175Y-82845937D01*
X146156338Y-82701774D01*
X146269606Y-82532256D01*
X146347627Y-82343898D01*
X146387401Y-82143939D01*
X146387401Y-81940061D01*
X146347627Y-81740102D01*
X146337652Y-81716021D01*
X146484128Y-81655348D01*
X146599977Y-81577940D01*
X146648989Y-81696265D01*
X146762257Y-81865783D01*
X146906420Y-82009946D01*
X147075938Y-82123214D01*
X147230408Y-82187198D01*
X147242651Y-82248748D01*
X147320672Y-82437106D01*
X147433940Y-82606624D01*
X147578103Y-82750787D01*
X147747621Y-82864055D01*
X147935979Y-82942076D01*
X148135938Y-82981850D01*
X148339816Y-82981850D01*
X148539775Y-82942076D01*
X148728133Y-82864055D01*
X148897651Y-82750787D01*
X149041814Y-82606624D01*
X149050105Y-82594216D01*
X149098626Y-82642737D01*
X149268144Y-82756005D01*
X149456502Y-82834026D01*
X149656461Y-82873800D01*
X149860339Y-82873800D01*
X150060298Y-82834026D01*
X150248656Y-82756005D01*
X150418174Y-82642737D01*
X150562337Y-82498574D01*
X150675605Y-82329056D01*
X150753626Y-82140698D01*
X150793400Y-81940739D01*
X150793400Y-81736861D01*
X150753626Y-81536902D01*
X150675605Y-81348544D01*
X150562337Y-81179026D01*
X150418174Y-81034863D01*
X150256120Y-80926582D01*
X150265000Y-80881939D01*
X150265000Y-80774461D01*
X154283887Y-80774461D01*
X154283887Y-80978339D01*
X154323661Y-81178298D01*
X154401682Y-81366656D01*
X154514950Y-81536174D01*
X154659113Y-81680337D01*
X154828631Y-81793605D01*
X155016989Y-81871626D01*
X155216948Y-81911400D01*
X155420826Y-81911400D01*
X155620785Y-81871626D01*
X155809143Y-81793605D01*
X155978661Y-81680337D01*
X156122824Y-81536174D01*
X156236092Y-81366656D01*
X156314113Y-81178298D01*
X156353887Y-80978339D01*
X156353887Y-80774461D01*
X156314113Y-80574502D01*
X156236092Y-80386144D01*
X156122824Y-80216626D01*
X155978661Y-80072463D01*
X155809143Y-79959195D01*
X155620785Y-79881174D01*
X155420826Y-79841400D01*
X155216948Y-79841400D01*
X155016989Y-79881174D01*
X154828631Y-79959195D01*
X154659113Y-80072463D01*
X154514950Y-80216626D01*
X154401682Y-80386144D01*
X154323661Y-80574502D01*
X154283887Y-80774461D01*
X150265000Y-80774461D01*
X150265000Y-80678061D01*
X150225226Y-80478102D01*
X150147205Y-80289744D01*
X150033937Y-80120226D01*
X149889774Y-79976063D01*
X149720256Y-79862795D01*
X149531898Y-79784774D01*
X149331939Y-79745000D01*
X149128061Y-79745000D01*
X148928102Y-79784774D01*
X148739744Y-79862795D01*
X148570226Y-79976063D01*
X148426063Y-80120226D01*
X148312795Y-80289744D01*
X148254464Y-80430568D01*
X148225968Y-80402072D01*
X148056450Y-80288804D01*
X147876194Y-80214139D01*
X147876194Y-80105121D01*
X147836420Y-79905162D01*
X147758399Y-79716804D01*
X147645131Y-79547286D01*
X147500968Y-79403123D01*
X147331450Y-79289855D01*
X147143092Y-79211834D01*
X146943133Y-79172060D01*
X146739255Y-79172060D01*
X146539296Y-79211834D01*
X146350938Y-79289855D01*
X146181420Y-79403123D01*
X146037257Y-79547286D01*
X145933117Y-79703143D01*
X145891933Y-79703143D01*
X145691974Y-79742917D01*
X145567840Y-79794335D01*
X145506705Y-79646744D01*
X145393437Y-79477226D01*
X145349287Y-79433076D01*
X145381964Y-79268794D01*
X145381964Y-79064916D01*
X145342190Y-78864957D01*
X145304706Y-78774461D01*
X153549400Y-78774461D01*
X153549400Y-78978339D01*
X153589174Y-79178298D01*
X153667195Y-79366656D01*
X153780463Y-79536174D01*
X153924626Y-79680337D01*
X154094144Y-79793605D01*
X154282502Y-79871626D01*
X154482461Y-79911400D01*
X154686339Y-79911400D01*
X154886298Y-79871626D01*
X155074656Y-79793605D01*
X155244174Y-79680337D01*
X155388337Y-79536174D01*
X155501605Y-79366656D01*
X155579626Y-79178298D01*
X155596218Y-79094883D01*
X155730933Y-79039082D01*
X155900451Y-78925814D01*
X156044614Y-78781651D01*
X156157882Y-78612133D01*
X156235903Y-78423775D01*
X156275677Y-78223816D01*
X156275677Y-78019938D01*
X156235903Y-77819979D01*
X156157882Y-77631621D01*
X156044614Y-77462103D01*
X155900451Y-77317940D01*
X155730933Y-77204672D01*
X155542575Y-77126651D01*
X155342616Y-77086877D01*
X155138738Y-77086877D01*
X154938779Y-77126651D01*
X154750421Y-77204672D01*
X154580903Y-77317940D01*
X154436740Y-77462103D01*
X154323472Y-77631621D01*
X154245451Y-77819979D01*
X154228859Y-77903394D01*
X154094144Y-77959195D01*
X153924626Y-78072463D01*
X153780463Y-78216626D01*
X153667195Y-78386144D01*
X153589174Y-78574502D01*
X153549400Y-78774461D01*
X145304706Y-78774461D01*
X145264169Y-78676599D01*
X145150901Y-78507081D01*
X145006738Y-78362918D01*
X144837220Y-78249650D01*
X144648862Y-78171629D01*
X144448903Y-78131855D01*
X144245025Y-78131855D01*
X144045066Y-78171629D01*
X143919188Y-78223770D01*
X143887147Y-78062686D01*
X143812896Y-77883428D01*
X143705099Y-77722099D01*
X143567901Y-77584901D01*
X143471461Y-77520461D01*
X147910600Y-77520461D01*
X147910600Y-77724339D01*
X147950374Y-77924298D01*
X148028395Y-78112656D01*
X148141663Y-78282174D01*
X148285826Y-78426337D01*
X148455344Y-78539605D01*
X148643702Y-78617626D01*
X148843661Y-78657400D01*
X149047539Y-78657400D01*
X149247498Y-78617626D01*
X149435856Y-78539605D01*
X149605374Y-78426337D01*
X149749537Y-78282174D01*
X149862805Y-78112656D01*
X149940826Y-77924298D01*
X149980600Y-77724339D01*
X149980600Y-77520461D01*
X149940826Y-77320502D01*
X149862805Y-77132144D01*
X149765864Y-76987061D01*
X158350000Y-76987061D01*
X158350000Y-77190939D01*
X158389774Y-77390898D01*
X158467795Y-77579256D01*
X158581063Y-77748774D01*
X158725226Y-77892937D01*
X158894744Y-78006205D01*
X159083102Y-78084226D01*
X159283061Y-78124000D01*
X159486939Y-78124000D01*
X159686898Y-78084226D01*
X159875256Y-78006205D01*
X160020000Y-77909490D01*
X160164744Y-78006205D01*
X160353102Y-78084226D01*
X160553061Y-78124000D01*
X160756939Y-78124000D01*
X160956898Y-78084226D01*
X161145256Y-78006205D01*
X161314774Y-77892937D01*
X161458937Y-77748774D01*
X161572205Y-77579256D01*
X161650226Y-77390898D01*
X161690000Y-77190939D01*
X161690000Y-76987061D01*
X161650226Y-76787102D01*
X161572205Y-76598744D01*
X161458937Y-76429226D01*
X161314774Y-76285063D01*
X161145256Y-76171795D01*
X160956898Y-76093774D01*
X160756939Y-76054000D01*
X160553061Y-76054000D01*
X160353102Y-76093774D01*
X160164744Y-76171795D01*
X160020000Y-76268510D01*
X159875256Y-76171795D01*
X159686898Y-76093774D01*
X159486939Y-76054000D01*
X159283061Y-76054000D01*
X159083102Y-76093774D01*
X158894744Y-76171795D01*
X158725226Y-76285063D01*
X158581063Y-76429226D01*
X158467795Y-76598744D01*
X158389774Y-76787102D01*
X158350000Y-76987061D01*
X149765864Y-76987061D01*
X149749537Y-76962626D01*
X149605374Y-76818463D01*
X149435856Y-76705195D01*
X149247498Y-76627174D01*
X149047539Y-76587400D01*
X148843661Y-76587400D01*
X148643702Y-76627174D01*
X148455344Y-76705195D01*
X148285826Y-76818463D01*
X148141663Y-76962626D01*
X148028395Y-77132144D01*
X147950374Y-77320502D01*
X147910600Y-77520461D01*
X143471461Y-77520461D01*
X143406572Y-77477104D01*
X143227314Y-77402853D01*
X143037014Y-77365000D01*
X142844000Y-77365000D01*
X142844000Y-77245986D01*
X142806147Y-77055686D01*
X142731896Y-76876428D01*
X142624099Y-76715099D01*
X142486901Y-76577901D01*
X142325572Y-76470104D01*
X142146314Y-76395853D01*
X141956014Y-76358000D01*
X141761986Y-76358000D01*
X141571686Y-76395853D01*
X141392428Y-76470104D01*
X141231099Y-76577901D01*
X141093901Y-76715099D01*
X140986104Y-76876428D01*
X140911853Y-77055686D01*
X140874000Y-77245986D01*
X136871305Y-77245986D01*
X136887940Y-77205827D01*
X136927714Y-77005868D01*
X136927714Y-76801990D01*
X136887940Y-76602031D01*
X136809919Y-76413673D01*
X136696651Y-76244155D01*
X136552488Y-76099992D01*
X136480500Y-76051891D01*
X136480500Y-75907561D01*
X136467870Y-75844061D01*
X143046500Y-75844061D01*
X143046500Y-76047939D01*
X143086274Y-76247898D01*
X143164295Y-76436256D01*
X143277563Y-76605774D01*
X143421726Y-76749937D01*
X143591244Y-76863205D01*
X143779602Y-76941226D01*
X143979561Y-76981000D01*
X144183439Y-76981000D01*
X144383398Y-76941226D01*
X144571756Y-76863205D01*
X144690750Y-76783696D01*
X144809744Y-76863205D01*
X144998102Y-76941226D01*
X145198061Y-76981000D01*
X145401939Y-76981000D01*
X145601898Y-76941226D01*
X145790256Y-76863205D01*
X145959774Y-76749937D01*
X146103937Y-76605774D01*
X146217205Y-76436256D01*
X146295226Y-76247898D01*
X146335000Y-76047939D01*
X146335000Y-75844061D01*
X146295226Y-75644102D01*
X146217205Y-75455744D01*
X146103937Y-75286226D01*
X145959774Y-75142063D01*
X145823959Y-75051315D01*
X145948061Y-75076000D01*
X146151939Y-75076000D01*
X146351898Y-75036226D01*
X146540256Y-74958205D01*
X146709774Y-74844937D01*
X146853937Y-74700774D01*
X146967205Y-74531256D01*
X147045226Y-74342898D01*
X147085000Y-74142939D01*
X147085000Y-74036777D01*
X148311800Y-74036777D01*
X148311800Y-74240655D01*
X148351574Y-74440614D01*
X148429595Y-74628972D01*
X148542863Y-74798490D01*
X148687026Y-74942653D01*
X148856544Y-75055921D01*
X149044902Y-75133942D01*
X149244861Y-75173716D01*
X149448739Y-75173716D01*
X149648698Y-75133942D01*
X149837056Y-75055921D01*
X150006574Y-74942653D01*
X150070366Y-74878861D01*
X152635000Y-74878861D01*
X152635000Y-75082739D01*
X152674774Y-75282698D01*
X152752795Y-75471056D01*
X152866063Y-75640574D01*
X153010226Y-75784737D01*
X153179744Y-75898005D01*
X153368102Y-75976026D01*
X153568061Y-76015800D01*
X153771939Y-76015800D01*
X153971898Y-75976026D01*
X154160256Y-75898005D01*
X154190786Y-75877605D01*
X154297344Y-75948805D01*
X154485702Y-76026826D01*
X154685661Y-76066600D01*
X154889539Y-76066600D01*
X155089498Y-76026826D01*
X155277856Y-75948805D01*
X155422600Y-75852090D01*
X155567344Y-75948805D01*
X155755702Y-76026826D01*
X155955661Y-76066600D01*
X156159539Y-76066600D01*
X156359498Y-76026826D01*
X156547856Y-75948805D01*
X156717374Y-75835537D01*
X156861537Y-75691374D01*
X156974805Y-75521856D01*
X157052826Y-75333498D01*
X157092600Y-75133539D01*
X157092600Y-74929661D01*
X157052826Y-74729702D01*
X156974805Y-74541344D01*
X156861537Y-74371826D01*
X156717374Y-74227663D01*
X156547856Y-74114395D01*
X156359498Y-74036374D01*
X156159539Y-73996600D01*
X155955661Y-73996600D01*
X155755702Y-74036374D01*
X155567344Y-74114395D01*
X155422600Y-74211110D01*
X155277856Y-74114395D01*
X155089498Y-74036374D01*
X154889539Y-73996600D01*
X154685661Y-73996600D01*
X154485702Y-74036374D01*
X154297344Y-74114395D01*
X154266814Y-74134795D01*
X154160256Y-74063595D01*
X153971898Y-73985574D01*
X153771939Y-73945800D01*
X153568061Y-73945800D01*
X153368102Y-73985574D01*
X153179744Y-74063595D01*
X153010226Y-74176863D01*
X152866063Y-74321026D01*
X152752795Y-74490544D01*
X152674774Y-74678902D01*
X152635000Y-74878861D01*
X150070366Y-74878861D01*
X150150737Y-74798490D01*
X150264005Y-74628972D01*
X150342026Y-74440614D01*
X150381800Y-74240655D01*
X150381800Y-74036777D01*
X150342026Y-73836818D01*
X150264005Y-73648460D01*
X150150737Y-73478942D01*
X150006574Y-73334779D01*
X149837056Y-73221511D01*
X149648698Y-73143490D01*
X149448739Y-73103716D01*
X149244861Y-73103716D01*
X149044902Y-73143490D01*
X148856544Y-73221511D01*
X148687026Y-73334779D01*
X148542863Y-73478942D01*
X148429595Y-73648460D01*
X148351574Y-73836818D01*
X148311800Y-74036777D01*
X147085000Y-74036777D01*
X147085000Y-73939061D01*
X147045226Y-73739102D01*
X146967205Y-73550744D01*
X146853937Y-73381226D01*
X146709774Y-73237063D01*
X146540256Y-73123795D01*
X146351898Y-73045774D01*
X146151939Y-73006000D01*
X145948061Y-73006000D01*
X145748102Y-73045774D01*
X145559744Y-73123795D01*
X145390226Y-73237063D01*
X145246063Y-73381226D01*
X145132795Y-73550744D01*
X145054774Y-73739102D01*
X145015000Y-73939061D01*
X145015000Y-74142939D01*
X145054774Y-74342898D01*
X145132795Y-74531256D01*
X145246063Y-74700774D01*
X145390226Y-74844937D01*
X145526041Y-74935685D01*
X145401939Y-74911000D01*
X145198061Y-74911000D01*
X144998102Y-74950774D01*
X144809744Y-75028795D01*
X144690750Y-75108304D01*
X144571756Y-75028795D01*
X144383398Y-74950774D01*
X144183439Y-74911000D01*
X143979561Y-74911000D01*
X143779602Y-74950774D01*
X143591244Y-75028795D01*
X143421726Y-75142063D01*
X143277563Y-75286226D01*
X143164295Y-75455744D01*
X143086274Y-75644102D01*
X143046500Y-75844061D01*
X136467870Y-75844061D01*
X136440726Y-75707602D01*
X136362705Y-75519244D01*
X136249437Y-75349726D01*
X136105274Y-75205563D01*
X135935756Y-75092295D01*
X135747398Y-75014274D01*
X135547439Y-74974500D01*
X135343561Y-74974500D01*
X135143602Y-75014274D01*
X134955244Y-75092295D01*
X134785726Y-75205563D01*
X134641563Y-75349726D01*
X134528295Y-75519244D01*
X134450274Y-75707602D01*
X134410500Y-75907561D01*
X134410500Y-76111439D01*
X134450274Y-76311398D01*
X134528295Y-76499756D01*
X134641563Y-76669274D01*
X134785726Y-76813437D01*
X134857714Y-76861538D01*
X134857714Y-77005868D01*
X134897488Y-77205827D01*
X134975509Y-77394185D01*
X135055708Y-77514211D01*
X135022584Y-77594178D01*
X134982810Y-77794137D01*
X134982810Y-77998015D01*
X135022584Y-78197974D01*
X135093840Y-78370000D01*
X134962986Y-78370000D01*
X134772686Y-78407853D01*
X134593428Y-78482104D01*
X134432099Y-78589901D01*
X134294901Y-78727099D01*
X134187104Y-78888428D01*
X134112853Y-79067686D01*
X134075000Y-79257986D01*
X130453716Y-79257986D01*
X130517901Y-79215099D01*
X130655099Y-79077901D01*
X130762896Y-78916572D01*
X130837147Y-78737314D01*
X130875000Y-78547014D01*
X130875000Y-78352986D01*
X130837147Y-78162686D01*
X130762896Y-77983428D01*
X130655099Y-77822099D01*
X130517901Y-77684901D01*
X130356572Y-77577104D01*
X130177314Y-77502853D01*
X129987014Y-77465000D01*
X129792986Y-77465000D01*
X129602686Y-77502853D01*
X129511709Y-77540537D01*
X129506572Y-77537104D01*
X129327314Y-77462853D01*
X129137014Y-77425000D01*
X128942986Y-77425000D01*
X128752686Y-77462853D01*
X128573428Y-77537104D01*
X128412099Y-77644901D01*
X128274901Y-77782099D01*
X128167104Y-77943428D01*
X128092853Y-78122686D01*
X128055000Y-78312986D01*
X127100800Y-78312986D01*
X127100800Y-72472986D01*
X132895000Y-72472986D01*
X132895000Y-72667014D01*
X132932853Y-72857314D01*
X133007104Y-73036572D01*
X133114901Y-73197901D01*
X133252099Y-73335099D01*
X133413428Y-73442896D01*
X133592686Y-73517147D01*
X133782986Y-73555000D01*
X133977014Y-73555000D01*
X134164672Y-73517672D01*
X134262099Y-73615099D01*
X134423428Y-73722896D01*
X134602686Y-73797147D01*
X134792986Y-73835000D01*
X134987014Y-73835000D01*
X135177314Y-73797147D01*
X135356572Y-73722896D01*
X135517901Y-73615099D01*
X135655099Y-73477901D01*
X135725390Y-73372704D01*
X135832686Y-73417147D01*
X136022986Y-73455000D01*
X136217014Y-73455000D01*
X136407314Y-73417147D01*
X136586572Y-73342896D01*
X136747901Y-73235099D01*
X136885099Y-73097901D01*
X136992896Y-72936572D01*
X137067147Y-72757314D01*
X137105000Y-72567014D01*
X137105000Y-72542061D01*
X138474500Y-72542061D01*
X138474500Y-72745939D01*
X138514274Y-72945898D01*
X138592295Y-73134256D01*
X138705563Y-73303774D01*
X138849726Y-73447937D01*
X139019244Y-73561205D01*
X139207602Y-73639226D01*
X139407561Y-73679000D01*
X139611439Y-73679000D01*
X139811398Y-73639226D01*
X139999756Y-73561205D01*
X140169274Y-73447937D01*
X140313437Y-73303774D01*
X140426705Y-73134256D01*
X140504726Y-72945898D01*
X140541577Y-72760634D01*
X140581344Y-72787205D01*
X140769702Y-72865226D01*
X140969661Y-72905000D01*
X141173539Y-72905000D01*
X141373498Y-72865226D01*
X141540475Y-72796061D01*
X153016000Y-72796061D01*
X153016000Y-72999939D01*
X153055774Y-73199898D01*
X153133795Y-73388256D01*
X153247063Y-73557774D01*
X153391226Y-73701937D01*
X153560744Y-73815205D01*
X153749102Y-73893226D01*
X153949061Y-73933000D01*
X154152939Y-73933000D01*
X154352898Y-73893226D01*
X154541256Y-73815205D01*
X154686000Y-73718490D01*
X154830744Y-73815205D01*
X155019102Y-73893226D01*
X155219061Y-73933000D01*
X155422939Y-73933000D01*
X155622898Y-73893226D01*
X155811256Y-73815205D01*
X155980774Y-73701937D01*
X156124937Y-73557774D01*
X156238205Y-73388256D01*
X156316226Y-73199898D01*
X156356000Y-72999939D01*
X156356000Y-72796061D01*
X156316226Y-72596102D01*
X156238205Y-72407744D01*
X156124937Y-72238226D01*
X155980774Y-72094063D01*
X155811256Y-71980795D01*
X155622898Y-71902774D01*
X155422939Y-71863000D01*
X155219061Y-71863000D01*
X155019102Y-71902774D01*
X154830744Y-71980795D01*
X154686000Y-72077510D01*
X154541256Y-71980795D01*
X154352898Y-71902774D01*
X154152939Y-71863000D01*
X153949061Y-71863000D01*
X153749102Y-71902774D01*
X153560744Y-71980795D01*
X153391226Y-72094063D01*
X153247063Y-72238226D01*
X153133795Y-72407744D01*
X153055774Y-72596102D01*
X153016000Y-72796061D01*
X141540475Y-72796061D01*
X141561856Y-72787205D01*
X141731374Y-72673937D01*
X141875537Y-72529774D01*
X141988805Y-72360256D01*
X142066826Y-72171898D01*
X142106600Y-71971939D01*
X142106600Y-71768061D01*
X142083726Y-71653061D01*
X150476000Y-71653061D01*
X150476000Y-71856939D01*
X150515774Y-72056898D01*
X150593795Y-72245256D01*
X150707063Y-72414774D01*
X150851226Y-72558937D01*
X151020744Y-72672205D01*
X151209102Y-72750226D01*
X151409061Y-72790000D01*
X151612939Y-72790000D01*
X151812898Y-72750226D01*
X152001256Y-72672205D01*
X152170774Y-72558937D01*
X152314937Y-72414774D01*
X152428205Y-72245256D01*
X152506226Y-72056898D01*
X152546000Y-71856939D01*
X152546000Y-71653061D01*
X152506226Y-71453102D01*
X152428205Y-71264744D01*
X152314937Y-71095226D01*
X152170774Y-70951063D01*
X152001256Y-70837795D01*
X151996923Y-70836000D01*
X190847928Y-70836000D01*
X190847928Y-73436000D01*
X190860188Y-73560482D01*
X190896498Y-73680180D01*
X190955463Y-73790494D01*
X191034815Y-73887185D01*
X191131506Y-73966537D01*
X191241820Y-74025502D01*
X191361518Y-74061812D01*
X191486000Y-74074072D01*
X194086000Y-74074072D01*
X194210482Y-74061812D01*
X194330180Y-74025502D01*
X194440494Y-73966537D01*
X194537185Y-73887185D01*
X194616537Y-73790494D01*
X194675502Y-73680180D01*
X194711812Y-73560482D01*
X194724072Y-73436000D01*
X194724072Y-70836000D01*
X194711812Y-70711518D01*
X194675502Y-70591820D01*
X194616537Y-70481506D01*
X194537185Y-70384815D01*
X194440494Y-70305463D01*
X194330180Y-70246498D01*
X194210482Y-70210188D01*
X194086000Y-70197928D01*
X191486000Y-70197928D01*
X191361518Y-70210188D01*
X191241820Y-70246498D01*
X191131506Y-70305463D01*
X191034815Y-70384815D01*
X190955463Y-70481506D01*
X190896498Y-70591820D01*
X190860188Y-70711518D01*
X190847928Y-70836000D01*
X151996923Y-70836000D01*
X151812898Y-70759774D01*
X151612939Y-70720000D01*
X151409061Y-70720000D01*
X151209102Y-70759774D01*
X151020744Y-70837795D01*
X150851226Y-70951063D01*
X150707063Y-71095226D01*
X150593795Y-71264744D01*
X150515774Y-71453102D01*
X150476000Y-71653061D01*
X142083726Y-71653061D01*
X142066826Y-71568102D01*
X141988805Y-71379744D01*
X141875537Y-71210226D01*
X141731374Y-71066063D01*
X141561856Y-70952795D01*
X141373498Y-70874774D01*
X141173539Y-70835000D01*
X140969661Y-70835000D01*
X140769702Y-70874774D01*
X140581344Y-70952795D01*
X140411826Y-71066063D01*
X140267663Y-71210226D01*
X140154395Y-71379744D01*
X140076374Y-71568102D01*
X140039523Y-71753366D01*
X139999756Y-71726795D01*
X139811398Y-71648774D01*
X139611439Y-71609000D01*
X139407561Y-71609000D01*
X139207602Y-71648774D01*
X139019244Y-71726795D01*
X138849726Y-71840063D01*
X138705563Y-71984226D01*
X138592295Y-72153744D01*
X138514274Y-72342102D01*
X138474500Y-72542061D01*
X137105000Y-72542061D01*
X137105000Y-72372986D01*
X137067147Y-72182686D01*
X136992896Y-72003428D01*
X136885099Y-71842099D01*
X136747901Y-71704901D01*
X136586572Y-71597104D01*
X136407314Y-71522853D01*
X136217014Y-71485000D01*
X136022986Y-71485000D01*
X135832686Y-71522853D01*
X135653428Y-71597104D01*
X135492099Y-71704901D01*
X135354901Y-71842099D01*
X135284610Y-71947296D01*
X135177314Y-71902853D01*
X134987014Y-71865000D01*
X134792986Y-71865000D01*
X134605328Y-71902328D01*
X134507901Y-71804901D01*
X134346572Y-71697104D01*
X134167314Y-71622853D01*
X133977014Y-71585000D01*
X133782986Y-71585000D01*
X133592686Y-71622853D01*
X133413428Y-71697104D01*
X133252099Y-71804901D01*
X133114901Y-71942099D01*
X133007104Y-72103428D01*
X132932853Y-72282686D01*
X132895000Y-72472986D01*
X127100800Y-72472986D01*
X127100800Y-70242986D01*
X136395000Y-70242986D01*
X136395000Y-70437014D01*
X136432853Y-70627314D01*
X136507104Y-70806572D01*
X136614901Y-70967901D01*
X136752099Y-71105099D01*
X136913428Y-71212896D01*
X137092686Y-71287147D01*
X137282986Y-71325000D01*
X137477014Y-71325000D01*
X137667314Y-71287147D01*
X137846572Y-71212896D01*
X138007901Y-71105099D01*
X138145099Y-70967901D01*
X138252896Y-70806572D01*
X138327147Y-70627314D01*
X138365000Y-70437014D01*
X138365000Y-70242986D01*
X138327147Y-70052686D01*
X138252896Y-69873428D01*
X138145099Y-69712099D01*
X138007901Y-69574901D01*
X137846572Y-69467104D01*
X137667314Y-69392853D01*
X137477014Y-69355000D01*
X137282986Y-69355000D01*
X137092686Y-69392853D01*
X136913428Y-69467104D01*
X136752099Y-69574901D01*
X136614901Y-69712099D01*
X136507104Y-69873428D01*
X136432853Y-70052686D01*
X136395000Y-70242986D01*
X127100800Y-70242986D01*
X127100800Y-68528861D01*
X135007400Y-68528861D01*
X135007400Y-68732739D01*
X135047174Y-68932698D01*
X135125195Y-69121056D01*
X135238463Y-69290574D01*
X135382626Y-69434737D01*
X135552144Y-69548005D01*
X135740502Y-69626026D01*
X135940461Y-69665800D01*
X136144339Y-69665800D01*
X136344298Y-69626026D01*
X136532656Y-69548005D01*
X136702174Y-69434737D01*
X136846337Y-69290574D01*
X136959605Y-69121056D01*
X137037626Y-68932698D01*
X137038716Y-68927214D01*
X141136847Y-68927214D01*
X141136847Y-69131092D01*
X141176621Y-69331051D01*
X141254642Y-69519409D01*
X141367910Y-69688927D01*
X141512073Y-69833090D01*
X141681591Y-69946358D01*
X141869949Y-70024379D01*
X142069908Y-70064153D01*
X142273786Y-70064153D01*
X142473745Y-70024379D01*
X142662103Y-69946358D01*
X142831621Y-69833090D01*
X142975784Y-69688927D01*
X143089052Y-69519409D01*
X143167073Y-69331051D01*
X143206847Y-69131092D01*
X143206847Y-68927214D01*
X143167073Y-68727255D01*
X143089052Y-68538897D01*
X143035776Y-68459163D01*
X143043111Y-68460622D01*
X143246989Y-68460622D01*
X143446948Y-68420848D01*
X143635306Y-68342827D01*
X143804824Y-68229559D01*
X143948987Y-68085396D01*
X144062255Y-67915878D01*
X144140276Y-67727520D01*
X144175176Y-67552061D01*
X147010000Y-67552061D01*
X147010000Y-67755939D01*
X147049774Y-67955898D01*
X147127795Y-68144256D01*
X147241063Y-68313774D01*
X147268253Y-68340964D01*
X147266395Y-68343744D01*
X147188374Y-68532102D01*
X147148600Y-68732061D01*
X147148600Y-68935939D01*
X147188374Y-69135898D01*
X147266395Y-69324256D01*
X147379663Y-69493774D01*
X147523826Y-69637937D01*
X147693344Y-69751205D01*
X147881702Y-69829226D01*
X148081661Y-69869000D01*
X148285539Y-69869000D01*
X148485498Y-69829226D01*
X148673856Y-69751205D01*
X148843374Y-69637937D01*
X148987537Y-69493774D01*
X149006045Y-69466075D01*
X149118365Y-69634174D01*
X149262528Y-69778337D01*
X149432046Y-69891605D01*
X149620404Y-69969626D01*
X149820363Y-70009400D01*
X150024241Y-70009400D01*
X150224200Y-69969626D01*
X150412558Y-69891605D01*
X150582076Y-69778337D01*
X150726239Y-69634174D01*
X150839507Y-69464656D01*
X150917528Y-69276298D01*
X150957302Y-69076339D01*
X150957302Y-68872461D01*
X150917528Y-68672502D01*
X150839507Y-68484144D01*
X150726239Y-68314626D01*
X150582076Y-68170463D01*
X150412558Y-68057195D01*
X150331427Y-68023589D01*
X150370805Y-67964656D01*
X150448826Y-67776298D01*
X150488600Y-67576339D01*
X150488600Y-67462061D01*
X166097000Y-67462061D01*
X166097000Y-67665939D01*
X166136774Y-67865898D01*
X166214795Y-68054256D01*
X166328063Y-68223774D01*
X166472226Y-68367937D01*
X166641744Y-68481205D01*
X166830102Y-68559226D01*
X167030061Y-68599000D01*
X167233939Y-68599000D01*
X167433898Y-68559226D01*
X167622256Y-68481205D01*
X167791774Y-68367937D01*
X167830500Y-68329211D01*
X167869226Y-68367937D01*
X168038744Y-68481205D01*
X168227102Y-68559226D01*
X168427061Y-68599000D01*
X168630939Y-68599000D01*
X168830898Y-68559226D01*
X169019256Y-68481205D01*
X169188774Y-68367937D01*
X169332937Y-68223774D01*
X169446205Y-68054256D01*
X169524226Y-67865898D01*
X169564000Y-67665939D01*
X169564000Y-67462061D01*
X169524226Y-67262102D01*
X169446205Y-67073744D01*
X169427502Y-67045753D01*
X169476147Y-66928314D01*
X169488657Y-66865419D01*
X190851000Y-66865419D01*
X190851000Y-67246581D01*
X190925361Y-67620419D01*
X191071225Y-67972566D01*
X191282987Y-68289491D01*
X191552509Y-68559013D01*
X191869434Y-68770775D01*
X192221581Y-68916639D01*
X192595419Y-68991000D01*
X192976581Y-68991000D01*
X193350419Y-68916639D01*
X193702566Y-68770775D01*
X194019491Y-68559013D01*
X194216802Y-68361702D01*
X194227104Y-68386572D01*
X194334901Y-68547901D01*
X194472099Y-68685099D01*
X194633428Y-68792896D01*
X194812686Y-68867147D01*
X195002986Y-68905000D01*
X195197014Y-68905000D01*
X195387314Y-68867147D01*
X195543088Y-68802623D01*
X195573428Y-68822896D01*
X195752686Y-68897147D01*
X195942986Y-68935000D01*
X196137014Y-68935000D01*
X196327314Y-68897147D01*
X196480064Y-68833876D01*
X196553428Y-68882896D01*
X196732686Y-68957147D01*
X196922986Y-68995000D01*
X197117014Y-68995000D01*
X197307314Y-68957147D01*
X197486572Y-68882896D01*
X197647901Y-68775099D01*
X197785099Y-68637901D01*
X197892896Y-68476572D01*
X197967147Y-68297314D01*
X198005000Y-68107014D01*
X198005000Y-67912986D01*
X197967147Y-67722686D01*
X197892896Y-67543428D01*
X197852151Y-67482449D01*
X197922896Y-67376572D01*
X197997147Y-67197314D01*
X198035000Y-67007014D01*
X198035000Y-66812986D01*
X197997147Y-66622686D01*
X197922896Y-66443428D01*
X197872196Y-66367551D01*
X197892896Y-66336572D01*
X197967147Y-66157314D01*
X198005000Y-65967014D01*
X198005000Y-65772986D01*
X197967147Y-65582686D01*
X197892896Y-65403428D01*
X197785099Y-65242099D01*
X197647901Y-65104901D01*
X197486572Y-64997104D01*
X197307314Y-64922853D01*
X197117014Y-64885000D01*
X196922986Y-64885000D01*
X196732686Y-64922853D01*
X196553428Y-64997104D01*
X196497517Y-65034463D01*
X196456572Y-65007104D01*
X196277314Y-64932853D01*
X196087014Y-64895000D01*
X195892986Y-64895000D01*
X195702686Y-64932853D01*
X195562366Y-64990975D01*
X195556572Y-64987104D01*
X195377314Y-64912853D01*
X195187014Y-64875000D01*
X194992986Y-64875000D01*
X194802686Y-64912853D01*
X194623428Y-64987104D01*
X194462099Y-65094901D01*
X194324901Y-65232099D01*
X194217104Y-65393428D01*
X194142853Y-65572686D01*
X194125654Y-65659150D01*
X194019491Y-65552987D01*
X193702566Y-65341225D01*
X193350419Y-65195361D01*
X192976581Y-65121000D01*
X192595419Y-65121000D01*
X192221581Y-65195361D01*
X191869434Y-65341225D01*
X191552509Y-65552987D01*
X191282987Y-65822509D01*
X191071225Y-66139434D01*
X190925361Y-66491581D01*
X190851000Y-66865419D01*
X169488657Y-66865419D01*
X169514000Y-66738014D01*
X169514000Y-66543986D01*
X169476147Y-66353686D01*
X169401896Y-66174428D01*
X169294099Y-66013099D01*
X169156901Y-65875901D01*
X168995572Y-65768104D01*
X168816314Y-65693853D01*
X168626014Y-65656000D01*
X168431986Y-65656000D01*
X168241686Y-65693853D01*
X168062428Y-65768104D01*
X168051176Y-65775623D01*
X167929814Y-65725353D01*
X167739514Y-65687500D01*
X167545486Y-65687500D01*
X167355186Y-65725353D01*
X167175928Y-65799604D01*
X167014599Y-65907401D01*
X166877401Y-66044599D01*
X166769604Y-66205928D01*
X166695353Y-66385186D01*
X166657500Y-66575486D01*
X166657500Y-66640269D01*
X166641744Y-66646795D01*
X166472226Y-66760063D01*
X166328063Y-66904226D01*
X166214795Y-67073744D01*
X166136774Y-67262102D01*
X166097000Y-67462061D01*
X150488600Y-67462061D01*
X150488600Y-67372461D01*
X150479955Y-67329000D01*
X150596939Y-67329000D01*
X150796898Y-67289226D01*
X150985256Y-67211205D01*
X151154774Y-67097937D01*
X151298937Y-66953774D01*
X151412205Y-66784256D01*
X151490226Y-66595898D01*
X151530000Y-66395939D01*
X151530000Y-66192061D01*
X151490226Y-65992102D01*
X151412205Y-65803744D01*
X151298937Y-65634226D01*
X151154774Y-65490063D01*
X150985256Y-65376795D01*
X150796898Y-65298774D01*
X150596939Y-65259000D01*
X150393061Y-65259000D01*
X150193102Y-65298774D01*
X150004744Y-65376795D01*
X149835226Y-65490063D01*
X149691063Y-65634226D01*
X149577795Y-65803744D01*
X149499774Y-65992102D01*
X149460000Y-66192061D01*
X149460000Y-66395939D01*
X149468645Y-66439400D01*
X149351661Y-66439400D01*
X149151702Y-66479174D01*
X148963344Y-66557195D01*
X148793826Y-66670463D01*
X148650494Y-66813795D01*
X148535256Y-66736795D01*
X148346898Y-66658774D01*
X148146939Y-66619000D01*
X147943061Y-66619000D01*
X147743102Y-66658774D01*
X147554744Y-66736795D01*
X147385226Y-66850063D01*
X147241063Y-66994226D01*
X147127795Y-67163744D01*
X147049774Y-67352102D01*
X147010000Y-67552061D01*
X144175176Y-67552061D01*
X144180050Y-67527561D01*
X144180050Y-67323683D01*
X144140276Y-67123724D01*
X144062255Y-66935366D01*
X143948987Y-66765848D01*
X143804824Y-66621685D01*
X143635306Y-66508417D01*
X143446948Y-66430396D01*
X143246989Y-66390622D01*
X143043111Y-66390622D01*
X142843152Y-66430396D01*
X142654794Y-66508417D01*
X142485276Y-66621685D01*
X142341113Y-66765848D01*
X142227845Y-66935366D01*
X142149824Y-67123724D01*
X142110050Y-67323683D01*
X142110050Y-67527561D01*
X142149824Y-67727520D01*
X142227845Y-67915878D01*
X142281121Y-67995612D01*
X142273786Y-67994153D01*
X142069908Y-67994153D01*
X141869949Y-68033927D01*
X141681591Y-68111948D01*
X141512073Y-68225216D01*
X141367910Y-68369379D01*
X141254642Y-68538897D01*
X141176621Y-68727255D01*
X141136847Y-68927214D01*
X137038716Y-68927214D01*
X137077400Y-68732739D01*
X137077400Y-68528861D01*
X137037626Y-68328902D01*
X136959605Y-68140544D01*
X136846337Y-67971026D01*
X136702174Y-67826863D01*
X136532656Y-67713595D01*
X136344298Y-67635574D01*
X136144339Y-67595800D01*
X135940461Y-67595800D01*
X135740502Y-67635574D01*
X135552144Y-67713595D01*
X135382626Y-67826863D01*
X135238463Y-67971026D01*
X135125195Y-68140544D01*
X135047174Y-68328902D01*
X135007400Y-68528861D01*
X127100800Y-68528861D01*
X127100800Y-65713990D01*
X127161995Y-65861727D01*
X127314880Y-66090535D01*
X127509465Y-66285120D01*
X127738273Y-66438005D01*
X127992510Y-66543314D01*
X128262408Y-66597000D01*
X128537592Y-66597000D01*
X128807490Y-66543314D01*
X129061727Y-66438005D01*
X129290535Y-66285120D01*
X129485120Y-66090535D01*
X129638005Y-65861727D01*
X129743314Y-65607490D01*
X129768502Y-65480861D01*
X135007400Y-65480861D01*
X135007400Y-65684739D01*
X135047174Y-65884698D01*
X135125195Y-66073056D01*
X135238463Y-66242574D01*
X135382626Y-66386737D01*
X135552144Y-66500005D01*
X135740502Y-66578026D01*
X135940461Y-66617800D01*
X136144339Y-66617800D01*
X136344298Y-66578026D01*
X136532656Y-66500005D01*
X136702174Y-66386737D01*
X136846337Y-66242574D01*
X136959605Y-66073056D01*
X137037626Y-65884698D01*
X137077400Y-65684739D01*
X137077400Y-65480861D01*
X137037626Y-65280902D01*
X136959605Y-65092544D01*
X136930551Y-65049061D01*
X142221000Y-65049061D01*
X142221000Y-65252939D01*
X142260774Y-65452898D01*
X142338795Y-65641256D01*
X142452063Y-65810774D01*
X142596226Y-65954937D01*
X142765744Y-66068205D01*
X142954102Y-66146226D01*
X143154061Y-66186000D01*
X143357939Y-66186000D01*
X143557898Y-66146226D01*
X143746256Y-66068205D01*
X143915774Y-65954937D01*
X144059937Y-65810774D01*
X144173205Y-65641256D01*
X144251226Y-65452898D01*
X144291000Y-65252939D01*
X144291000Y-65049061D01*
X144251226Y-64849102D01*
X144173205Y-64660744D01*
X144059937Y-64491226D01*
X143915774Y-64347063D01*
X143746256Y-64233795D01*
X143557898Y-64155774D01*
X143357939Y-64116000D01*
X143154061Y-64116000D01*
X142954102Y-64155774D01*
X142765744Y-64233795D01*
X142596226Y-64347063D01*
X142452063Y-64491226D01*
X142338795Y-64660744D01*
X142260774Y-64849102D01*
X142221000Y-65049061D01*
X136930551Y-65049061D01*
X136846337Y-64923026D01*
X136702174Y-64778863D01*
X136532656Y-64665595D01*
X136344298Y-64587574D01*
X136144339Y-64547800D01*
X135940461Y-64547800D01*
X135740502Y-64587574D01*
X135552144Y-64665595D01*
X135382626Y-64778863D01*
X135238463Y-64923026D01*
X135125195Y-65092544D01*
X135047174Y-65280902D01*
X135007400Y-65480861D01*
X129768502Y-65480861D01*
X129797000Y-65337592D01*
X129797000Y-65062408D01*
X129743314Y-64792510D01*
X129638005Y-64538273D01*
X129485120Y-64309465D01*
X129290535Y-64114880D01*
X129061727Y-63961995D01*
X128807490Y-63856686D01*
X128537592Y-63803000D01*
X128262408Y-63803000D01*
X127992510Y-63856686D01*
X127738273Y-63961995D01*
X127509465Y-64114880D01*
X127314880Y-64309465D01*
X127161995Y-64538273D01*
X127100800Y-64686010D01*
X127100800Y-60729117D01*
X127165000Y-60729117D01*
X127165000Y-61070883D01*
X127231675Y-61406081D01*
X127362463Y-61721831D01*
X127552337Y-62005998D01*
X127794002Y-62247663D01*
X128078169Y-62437537D01*
X128393919Y-62568325D01*
X128729117Y-62635000D01*
X129070883Y-62635000D01*
X129406081Y-62568325D01*
X129721831Y-62437537D01*
X130005998Y-62247663D01*
X130247663Y-62005998D01*
X130437537Y-61721831D01*
X130536184Y-61483675D01*
X132473700Y-61483675D01*
X132473700Y-61706325D01*
X132517137Y-61924696D01*
X132602341Y-62130398D01*
X132726039Y-62315524D01*
X132883476Y-62472961D01*
X133068602Y-62596659D01*
X133103224Y-62611000D01*
X133068602Y-62625341D01*
X132883476Y-62749039D01*
X132726039Y-62906476D01*
X132602341Y-63091602D01*
X132517137Y-63297304D01*
X132473700Y-63515675D01*
X132473700Y-63738325D01*
X132517137Y-63956696D01*
X132602341Y-64162398D01*
X132726039Y-64347524D01*
X132883476Y-64504961D01*
X133068602Y-64628659D01*
X133274304Y-64713863D01*
X133492675Y-64757300D01*
X133715325Y-64757300D01*
X133933696Y-64713863D01*
X134139398Y-64628659D01*
X134324524Y-64504961D01*
X134481961Y-64347524D01*
X134605659Y-64162398D01*
X134690863Y-63956696D01*
X134734300Y-63738325D01*
X134734300Y-63515675D01*
X134690863Y-63297304D01*
X134605659Y-63091602D01*
X134481961Y-62906476D01*
X134324524Y-62749039D01*
X134139398Y-62625341D01*
X134104776Y-62611000D01*
X134139398Y-62596659D01*
X134284543Y-62499675D01*
X137553700Y-62499675D01*
X137553700Y-62722325D01*
X137597137Y-62940696D01*
X137682341Y-63146398D01*
X137806039Y-63331524D01*
X137963476Y-63488961D01*
X138148602Y-63612659D01*
X138354304Y-63697863D01*
X138572675Y-63741300D01*
X138795325Y-63741300D01*
X139013696Y-63697863D01*
X139219398Y-63612659D01*
X139404524Y-63488961D01*
X139561961Y-63331524D01*
X139685659Y-63146398D01*
X139770863Y-62940696D01*
X139814300Y-62722325D01*
X139814300Y-62499675D01*
X139770863Y-62281304D01*
X139685659Y-62075602D01*
X139561961Y-61890476D01*
X139404524Y-61733039D01*
X139219398Y-61609341D01*
X139013696Y-61524137D01*
X138795325Y-61480700D01*
X138572675Y-61480700D01*
X138354304Y-61524137D01*
X138148602Y-61609341D01*
X137963476Y-61733039D01*
X137806039Y-61890476D01*
X137682341Y-62075602D01*
X137597137Y-62281304D01*
X137553700Y-62499675D01*
X134284543Y-62499675D01*
X134324524Y-62472961D01*
X134481961Y-62315524D01*
X134605659Y-62130398D01*
X134690863Y-61924696D01*
X134734300Y-61706325D01*
X134734300Y-61483675D01*
X134690863Y-61265304D01*
X134622960Y-61101371D01*
X134735857Y-61025936D01*
X134742374Y-61058698D01*
X134820395Y-61247056D01*
X134933663Y-61416574D01*
X135077826Y-61560737D01*
X135247344Y-61674005D01*
X135435702Y-61752026D01*
X135635661Y-61791800D01*
X135839539Y-61791800D01*
X136039498Y-61752026D01*
X136227856Y-61674005D01*
X136397374Y-61560737D01*
X136541537Y-61416574D01*
X136654805Y-61247056D01*
X136732826Y-61058698D01*
X136772600Y-60858739D01*
X136772600Y-60654861D01*
X136732826Y-60454902D01*
X136654805Y-60266544D01*
X136541537Y-60097026D01*
X136397374Y-59952863D01*
X136227856Y-59839595D01*
X136039498Y-59761574D01*
X135839539Y-59721800D01*
X135635661Y-59721800D01*
X135435702Y-59761574D01*
X135247344Y-59839595D01*
X135113743Y-59928864D01*
X135107226Y-59896102D01*
X135029205Y-59707744D01*
X134915937Y-59538226D01*
X134771774Y-59394063D01*
X134602256Y-59280795D01*
X134413898Y-59202774D01*
X134213939Y-59163000D01*
X134010061Y-59163000D01*
X133810102Y-59202774D01*
X133621744Y-59280795D01*
X133452226Y-59394063D01*
X133308063Y-59538226D01*
X133194795Y-59707744D01*
X133116774Y-59896102D01*
X133077000Y-60096061D01*
X133077000Y-60299939D01*
X133116774Y-60499898D01*
X133142757Y-60562625D01*
X133068602Y-60593341D01*
X132883476Y-60717039D01*
X132726039Y-60874476D01*
X132602341Y-61059602D01*
X132517137Y-61265304D01*
X132473700Y-61483675D01*
X130536184Y-61483675D01*
X130568325Y-61406081D01*
X130635000Y-61070883D01*
X130635000Y-60729117D01*
X130568325Y-60393919D01*
X130437537Y-60078169D01*
X130247663Y-59794002D01*
X130005998Y-59552337D01*
X129721831Y-59362463D01*
X129406081Y-59231675D01*
X129070883Y-59165000D01*
X128729117Y-59165000D01*
X128393919Y-59231675D01*
X128078169Y-59362463D01*
X127794002Y-59552337D01*
X127552337Y-59794002D01*
X127362463Y-60078169D01*
X127231675Y-60393919D01*
X127165000Y-60729117D01*
X127100800Y-60729117D01*
X127100800Y-59105000D01*
X141021997Y-59105000D01*
X140997089Y-59151599D01*
%TA.AperFunction,Conductor*%
D20*
G36*
X140997089Y-59151599D02*
G01*
X140926470Y-59384398D01*
X140908600Y-59565835D01*
X140908600Y-60387164D01*
X140926470Y-60568601D01*
X140997089Y-60801400D01*
X141111767Y-61015948D01*
X141266098Y-61204002D01*
X141454151Y-61358333D01*
X141668699Y-61473011D01*
X141901498Y-61543630D01*
X142143600Y-61567475D01*
X142385701Y-61543630D01*
X142395635Y-61540616D01*
X142276651Y-61620119D01*
X142087219Y-61809551D01*
X141938384Y-62032299D01*
X141835864Y-62279803D01*
X141783600Y-62542552D01*
X141783600Y-62810448D01*
X141835864Y-63073197D01*
X141938384Y-63320701D01*
X142087219Y-63543449D01*
X142276651Y-63732881D01*
X142499399Y-63881716D01*
X142746903Y-63984236D01*
X143009652Y-64036500D01*
X143277548Y-64036500D01*
X143540297Y-63984236D01*
X143787801Y-63881716D01*
X144010549Y-63732881D01*
X144199981Y-63543449D01*
X144348816Y-63320701D01*
X144451336Y-63073197D01*
X144503600Y-62810448D01*
X144503600Y-62542552D01*
X144451336Y-62279803D01*
X144348816Y-62032299D01*
X144199981Y-61809551D01*
X144010549Y-61620119D01*
X143787801Y-61471284D01*
X143540297Y-61368764D01*
X143277548Y-61316500D01*
X143009652Y-61316500D01*
X142843831Y-61349484D01*
X143021102Y-61204002D01*
X143175433Y-61015949D01*
X143290111Y-60801401D01*
X143360730Y-60568602D01*
X143378600Y-60387165D01*
X143378600Y-59565836D01*
X143360730Y-59384399D01*
X143290111Y-59151599D01*
X143265203Y-59105000D01*
X148021997Y-59105000D01*
X147997089Y-59151600D01*
X147926470Y-59384399D01*
X147908600Y-59565836D01*
X147908600Y-60387165D01*
X147926470Y-60568602D01*
X147997089Y-60801401D01*
X148111768Y-61015949D01*
X148266099Y-61204002D01*
X148443369Y-61349484D01*
X148277548Y-61316500D01*
X148009652Y-61316500D01*
X147746903Y-61368764D01*
X147499399Y-61471284D01*
X147276651Y-61620119D01*
X147087219Y-61809551D01*
X146938384Y-62032299D01*
X146835864Y-62279803D01*
X146783600Y-62542552D01*
X146783600Y-62810448D01*
X146835864Y-63073197D01*
X146938384Y-63320701D01*
X147087219Y-63543449D01*
X147276651Y-63732881D01*
X147499399Y-63881716D01*
X147746903Y-63984236D01*
X148009652Y-64036500D01*
X148277548Y-64036500D01*
X148540297Y-63984236D01*
X148787801Y-63881716D01*
X149010549Y-63732881D01*
X149199981Y-63543449D01*
X149348816Y-63320701D01*
X149451336Y-63073197D01*
X149503600Y-62810448D01*
X149503600Y-62542552D01*
X149451336Y-62279803D01*
X149348816Y-62032299D01*
X149199981Y-61809551D01*
X149010549Y-61620119D01*
X148891565Y-61540616D01*
X148901499Y-61543630D01*
X149143600Y-61567475D01*
X149385702Y-61543630D01*
X149618501Y-61473011D01*
X149833049Y-61358333D01*
X150021102Y-61204002D01*
X150175433Y-61015949D01*
X150290111Y-60801401D01*
X150349973Y-60604061D01*
X159747000Y-60604061D01*
X159747000Y-60807939D01*
X159786774Y-61007898D01*
X159864795Y-61196256D01*
X159978063Y-61365774D01*
X160122226Y-61509937D01*
X160291744Y-61623205D01*
X160480102Y-61701226D01*
X160680061Y-61741000D01*
X160883939Y-61741000D01*
X161083898Y-61701226D01*
X161272256Y-61623205D01*
X161290000Y-61611349D01*
X161307744Y-61623205D01*
X161496102Y-61701226D01*
X161696061Y-61741000D01*
X161899939Y-61741000D01*
X162099898Y-61701226D01*
X162288256Y-61623205D01*
X162306000Y-61611349D01*
X162323744Y-61623205D01*
X162512102Y-61701226D01*
X162712061Y-61741000D01*
X162915939Y-61741000D01*
X163115898Y-61701226D01*
X163304256Y-61623205D01*
X163473774Y-61509937D01*
X163617937Y-61365774D01*
X163731205Y-61196256D01*
X163809226Y-61007898D01*
X163849000Y-60807939D01*
X163849000Y-60604061D01*
X165970000Y-60604061D01*
X165970000Y-60807939D01*
X166009774Y-61007898D01*
X166087795Y-61196256D01*
X166201063Y-61365774D01*
X166345226Y-61509937D01*
X166514744Y-61623205D01*
X166703102Y-61701226D01*
X166903061Y-61741000D01*
X167106939Y-61741000D01*
X167306898Y-61701226D01*
X167495256Y-61623205D01*
X167576500Y-61568920D01*
X167657744Y-61623205D01*
X167846102Y-61701226D01*
X168046061Y-61741000D01*
X168249939Y-61741000D01*
X168449898Y-61701226D01*
X168638256Y-61623205D01*
X168719500Y-61568920D01*
X168800744Y-61623205D01*
X168989102Y-61701226D01*
X169189061Y-61741000D01*
X169392939Y-61741000D01*
X169592898Y-61701226D01*
X169781256Y-61623205D01*
X169950774Y-61509937D01*
X170094937Y-61365774D01*
X170208205Y-61196256D01*
X170286226Y-61007898D01*
X170326000Y-60807939D01*
X170326000Y-60729117D01*
X182665000Y-60729117D01*
X182665000Y-61070883D01*
X182731675Y-61406081D01*
X182862463Y-61721831D01*
X183052337Y-62005998D01*
X183294002Y-62247663D01*
X183578169Y-62437537D01*
X183893919Y-62568325D01*
X184229117Y-62635000D01*
X184570883Y-62635000D01*
X184906081Y-62568325D01*
X185221831Y-62437537D01*
X185505998Y-62247663D01*
X185747663Y-62005998D01*
X185895048Y-61785419D01*
X190851000Y-61785419D01*
X190851000Y-62166581D01*
X190925361Y-62540419D01*
X191071225Y-62892566D01*
X191282987Y-63209491D01*
X191552509Y-63479013D01*
X191869434Y-63690775D01*
X192221581Y-63836639D01*
X192595419Y-63911000D01*
X192976581Y-63911000D01*
X193350419Y-63836639D01*
X193702566Y-63690775D01*
X194019491Y-63479013D01*
X194289013Y-63209491D01*
X194500775Y-62892566D01*
X194646639Y-62540419D01*
X194721000Y-62166581D01*
X194721000Y-61785419D01*
X194646639Y-61411581D01*
X194500775Y-61059434D01*
X194289013Y-60742509D01*
X194019491Y-60472987D01*
X193702566Y-60261225D01*
X193350419Y-60115361D01*
X192976581Y-60041000D01*
X192595419Y-60041000D01*
X192221581Y-60115361D01*
X191869434Y-60261225D01*
X191552509Y-60472987D01*
X191282987Y-60742509D01*
X191071225Y-61059434D01*
X190925361Y-61411581D01*
X190851000Y-61785419D01*
X185895048Y-61785419D01*
X185937537Y-61721831D01*
X186068325Y-61406081D01*
X186135000Y-61070883D01*
X186135000Y-60729117D01*
X186068325Y-60393919D01*
X185937537Y-60078169D01*
X185747663Y-59794002D01*
X185505998Y-59552337D01*
X185221831Y-59362463D01*
X184906081Y-59231675D01*
X184570883Y-59165000D01*
X184229117Y-59165000D01*
X183893919Y-59231675D01*
X183578169Y-59362463D01*
X183294002Y-59552337D01*
X183052337Y-59794002D01*
X182862463Y-60078169D01*
X182731675Y-60393919D01*
X182665000Y-60729117D01*
X170326000Y-60729117D01*
X170326000Y-60604061D01*
X170286226Y-60404102D01*
X170208205Y-60215744D01*
X170094937Y-60046226D01*
X169950774Y-59902063D01*
X169781256Y-59788795D01*
X169592898Y-59710774D01*
X169392939Y-59671000D01*
X169189061Y-59671000D01*
X168989102Y-59710774D01*
X168800744Y-59788795D01*
X168719500Y-59843080D01*
X168638256Y-59788795D01*
X168449898Y-59710774D01*
X168249939Y-59671000D01*
X168046061Y-59671000D01*
X167846102Y-59710774D01*
X167657744Y-59788795D01*
X167576500Y-59843080D01*
X167495256Y-59788795D01*
X167306898Y-59710774D01*
X167106939Y-59671000D01*
X166903061Y-59671000D01*
X166703102Y-59710774D01*
X166514744Y-59788795D01*
X166345226Y-59902063D01*
X166201063Y-60046226D01*
X166087795Y-60215744D01*
X166009774Y-60404102D01*
X165970000Y-60604061D01*
X163849000Y-60604061D01*
X163809226Y-60404102D01*
X163731205Y-60215744D01*
X163617937Y-60046226D01*
X163473774Y-59902063D01*
X163304256Y-59788795D01*
X163115898Y-59710774D01*
X162915939Y-59671000D01*
X162712061Y-59671000D01*
X162512102Y-59710774D01*
X162323744Y-59788795D01*
X162306000Y-59800651D01*
X162288256Y-59788795D01*
X162099898Y-59710774D01*
X161899939Y-59671000D01*
X161696061Y-59671000D01*
X161496102Y-59710774D01*
X161307744Y-59788795D01*
X161290000Y-59800651D01*
X161272256Y-59788795D01*
X161083898Y-59710774D01*
X160883939Y-59671000D01*
X160680061Y-59671000D01*
X160480102Y-59710774D01*
X160291744Y-59788795D01*
X160122226Y-59902063D01*
X159978063Y-60046226D01*
X159864795Y-60215744D01*
X159786774Y-60404102D01*
X159747000Y-60604061D01*
X150349973Y-60604061D01*
X150360730Y-60568601D01*
X150378600Y-60387164D01*
X150378600Y-59565835D01*
X150360730Y-59384398D01*
X150290111Y-59151599D01*
X150265203Y-59105000D01*
X198915000Y-59105000D01*
X198915001Y-99645000D01*
X197044840Y-99645000D01*
X197061727Y-99638005D01*
X197290535Y-99485120D01*
X197485120Y-99290535D01*
X197638005Y-99061727D01*
X197743314Y-98807490D01*
X197797000Y-98537592D01*
X197797000Y-98262408D01*
X197743314Y-97992510D01*
X197638005Y-97738273D01*
X197485120Y-97509465D01*
X197290535Y-97314880D01*
X197061727Y-97161995D01*
X196807490Y-97056686D01*
X196537592Y-97003000D01*
X196262408Y-97003000D01*
X195992510Y-97056686D01*
X195738273Y-97161995D01*
X195509465Y-97314880D01*
X195314880Y-97509465D01*
X195161995Y-97738273D01*
X195056686Y-97992510D01*
X195003000Y-98262408D01*
X195003000Y-98537592D01*
X195056686Y-98807490D01*
X195161995Y-99061727D01*
X195314880Y-99290535D01*
X195509465Y-99485120D01*
X195738273Y-99638005D01*
X195755160Y-99645000D01*
X144902542Y-99645000D01*
X144947147Y-99537314D01*
X144985000Y-99347014D01*
X144985000Y-99152986D01*
X144947147Y-98962686D01*
X144872896Y-98783428D01*
X144765099Y-98622099D01*
X144627901Y-98484901D01*
X144466572Y-98377104D01*
X144287314Y-98302853D01*
X144097014Y-98265000D01*
X143902986Y-98265000D01*
X143712686Y-98302853D01*
X143533428Y-98377104D01*
X143372099Y-98484901D01*
X143234901Y-98622099D01*
X143127104Y-98783428D01*
X143052853Y-98962686D01*
X143015000Y-99152986D01*
X143015000Y-99347014D01*
X143052853Y-99537314D01*
X143097458Y-99645000D01*
X134530655Y-99645000D01*
X134685120Y-99490535D01*
X134838005Y-99261727D01*
X134943314Y-99007490D01*
X134997000Y-98737592D01*
X134997000Y-98462408D01*
X134943314Y-98192510D01*
X134838005Y-97938273D01*
X134685120Y-97709465D01*
X134490535Y-97514880D01*
X134261727Y-97361995D01*
X134007490Y-97256686D01*
X133737592Y-97203000D01*
X133462408Y-97203000D01*
X133192510Y-97256686D01*
X132938273Y-97361995D01*
X132709465Y-97514880D01*
X132514880Y-97709465D01*
X132361995Y-97938273D01*
X132256686Y-98192510D01*
X132203000Y-98462408D01*
X132203000Y-98737592D01*
X132256686Y-99007490D01*
X132361995Y-99261727D01*
X132514880Y-99490535D01*
X132669345Y-99645000D01*
X127100800Y-99645000D01*
X127100800Y-97729117D01*
X127165000Y-97729117D01*
X127165000Y-98070883D01*
X127231675Y-98406081D01*
X127362463Y-98721831D01*
X127552337Y-99005998D01*
X127794002Y-99247663D01*
X128078169Y-99437537D01*
X128393919Y-99568325D01*
X128729117Y-99635000D01*
X129070883Y-99635000D01*
X129406081Y-99568325D01*
X129721831Y-99437537D01*
X130005998Y-99247663D01*
X130247663Y-99005998D01*
X130437537Y-98721831D01*
X130568325Y-98406081D01*
X130635000Y-98070883D01*
X130635000Y-97729117D01*
X130568325Y-97393919D01*
X130437537Y-97078169D01*
X130247663Y-96794002D01*
X130005998Y-96552337D01*
X129721831Y-96362463D01*
X129406081Y-96231675D01*
X129070883Y-96165000D01*
X128729117Y-96165000D01*
X128393919Y-96231675D01*
X128078169Y-96362463D01*
X127794002Y-96552337D01*
X127552337Y-96794002D01*
X127362463Y-97078169D01*
X127231675Y-97393919D01*
X127165000Y-97729117D01*
X127100800Y-97729117D01*
X127100800Y-92608061D01*
X135109000Y-92608061D01*
X135109000Y-92811939D01*
X135148774Y-93011898D01*
X135226795Y-93200256D01*
X135340063Y-93369774D01*
X135484226Y-93513937D01*
X135653744Y-93627205D01*
X135842102Y-93705226D01*
X136042061Y-93745000D01*
X136245939Y-93745000D01*
X136445898Y-93705226D01*
X136463095Y-93698103D01*
X136418774Y-93805102D01*
X136379000Y-94005061D01*
X136379000Y-94208939D01*
X136418774Y-94408898D01*
X136496795Y-94597256D01*
X136610063Y-94766774D01*
X136754226Y-94910937D01*
X136923744Y-95024205D01*
X137112102Y-95102226D01*
X137312061Y-95142000D01*
X137515939Y-95142000D01*
X137715898Y-95102226D01*
X137904256Y-95024205D01*
X138073774Y-94910937D01*
X138217937Y-94766774D01*
X138331205Y-94597256D01*
X138409226Y-94408898D01*
X138413768Y-94386061D01*
X140697000Y-94386061D01*
X140697000Y-94589939D01*
X140736774Y-94789898D01*
X140814795Y-94978256D01*
X140928063Y-95147774D01*
X141072226Y-95291937D01*
X141241744Y-95405205D01*
X141430102Y-95483226D01*
X141630061Y-95523000D01*
X141833939Y-95523000D01*
X142033898Y-95483226D01*
X142222256Y-95405205D01*
X142391774Y-95291937D01*
X142535937Y-95147774D01*
X142649205Y-94978256D01*
X142727226Y-94789898D01*
X142767000Y-94589939D01*
X142767000Y-94386061D01*
X142760422Y-94352986D01*
X145465000Y-94352986D01*
X145465000Y-94547014D01*
X145502853Y-94737314D01*
X145577104Y-94916572D01*
X145684901Y-95077901D01*
X145822099Y-95215099D01*
X145983428Y-95322896D01*
X146162686Y-95397147D01*
X146352986Y-95435000D01*
X146547014Y-95435000D01*
X146737314Y-95397147D01*
X146916572Y-95322896D01*
X147077901Y-95215099D01*
X147215099Y-95077901D01*
X147243764Y-95035000D01*
X147800428Y-95035000D01*
X147800428Y-96735000D01*
X147812688Y-96859482D01*
X147848998Y-96979180D01*
X147907963Y-97089494D01*
X147987315Y-97186185D01*
X148084006Y-97265537D01*
X148194320Y-97324502D01*
X148314018Y-97360812D01*
X148438500Y-97373072D01*
X150138500Y-97373072D01*
X150262982Y-97360812D01*
X150382680Y-97324502D01*
X150492994Y-97265537D01*
X150589685Y-97186185D01*
X150669037Y-97089494D01*
X150728002Y-96979180D01*
X150750013Y-96906620D01*
X150881868Y-97038475D01*
X151125089Y-97200990D01*
X151395342Y-97312932D01*
X151682240Y-97370000D01*
X151974760Y-97370000D01*
X152261658Y-97312932D01*
X152531911Y-97200990D01*
X152775132Y-97038475D01*
X152981975Y-96831632D01*
X153098500Y-96657240D01*
X153215025Y-96831632D01*
X153421868Y-97038475D01*
X153665089Y-97200990D01*
X153935342Y-97312932D01*
X154222240Y-97370000D01*
X154514760Y-97370000D01*
X154801658Y-97312932D01*
X155071911Y-97200990D01*
X155315132Y-97038475D01*
X155521975Y-96831632D01*
X155638500Y-96657240D01*
X155755025Y-96831632D01*
X155961868Y-97038475D01*
X156205089Y-97200990D01*
X156475342Y-97312932D01*
X156762240Y-97370000D01*
X157054760Y-97370000D01*
X157341658Y-97312932D01*
X157611911Y-97200990D01*
X157855132Y-97038475D01*
X158061975Y-96831632D01*
X158183695Y-96649466D01*
X158253322Y-96766355D01*
X158448231Y-96982588D01*
X158681580Y-97156641D01*
X158944401Y-97281825D01*
X159091610Y-97326476D01*
X159321500Y-97205155D01*
X159321500Y-96012000D01*
X159301500Y-96012000D01*
X159301500Y-95758000D01*
X159321500Y-95758000D01*
X159321500Y-95738000D01*
X159575500Y-95738000D01*
X159575500Y-95758000D01*
X159595500Y-95758000D01*
X159595500Y-96012000D01*
X159575500Y-96012000D01*
X159575500Y-97205155D01*
X159805390Y-97326476D01*
X159952599Y-97281825D01*
X160215420Y-97156641D01*
X160448769Y-96982588D01*
X160643678Y-96766355D01*
X160713305Y-96649466D01*
X160835025Y-96831632D01*
X161041868Y-97038475D01*
X161285089Y-97200990D01*
X161555342Y-97312932D01*
X161842240Y-97370000D01*
X162134760Y-97370000D01*
X162421658Y-97312932D01*
X162691911Y-97200990D01*
X162935132Y-97038475D01*
X163141975Y-96831632D01*
X163258500Y-96657240D01*
X163375025Y-96831632D01*
X163581868Y-97038475D01*
X163825089Y-97200990D01*
X164095342Y-97312932D01*
X164382240Y-97370000D01*
X164674760Y-97370000D01*
X164961658Y-97312932D01*
X165231911Y-97200990D01*
X165475132Y-97038475D01*
X165681975Y-96831632D01*
X165798500Y-96657240D01*
X165915025Y-96831632D01*
X166121868Y-97038475D01*
X166365089Y-97200990D01*
X166635342Y-97312932D01*
X166922240Y-97370000D01*
X167214760Y-97370000D01*
X167501658Y-97312932D01*
X167771911Y-97200990D01*
X168015132Y-97038475D01*
X168221975Y-96831632D01*
X168338500Y-96657240D01*
X168455025Y-96831632D01*
X168661868Y-97038475D01*
X168905089Y-97200990D01*
X169175342Y-97312932D01*
X169462240Y-97370000D01*
X169754760Y-97370000D01*
X170041658Y-97312932D01*
X170311911Y-97200990D01*
X170555132Y-97038475D01*
X170761975Y-96831632D01*
X170878500Y-96657240D01*
X170995025Y-96831632D01*
X171201868Y-97038475D01*
X171445089Y-97200990D01*
X171715342Y-97312932D01*
X172002240Y-97370000D01*
X172294760Y-97370000D01*
X172581658Y-97312932D01*
X172851911Y-97200990D01*
X173095132Y-97038475D01*
X173301975Y-96831632D01*
X173418500Y-96657240D01*
X173535025Y-96831632D01*
X173741868Y-97038475D01*
X173985089Y-97200990D01*
X174255342Y-97312932D01*
X174542240Y-97370000D01*
X174834760Y-97370000D01*
X175121658Y-97312932D01*
X175391911Y-97200990D01*
X175635132Y-97038475D01*
X175841975Y-96831632D01*
X175958500Y-96657240D01*
X176075025Y-96831632D01*
X176281868Y-97038475D01*
X176525089Y-97200990D01*
X176795342Y-97312932D01*
X177082240Y-97370000D01*
X177374760Y-97370000D01*
X177661658Y-97312932D01*
X177931911Y-97200990D01*
X178175132Y-97038475D01*
X178381975Y-96831632D01*
X178498500Y-96657240D01*
X178615025Y-96831632D01*
X178821868Y-97038475D01*
X179065089Y-97200990D01*
X179158085Y-97239510D01*
X179140439Y-97236000D01*
X178936561Y-97236000D01*
X178736602Y-97275774D01*
X178548244Y-97353795D01*
X178378726Y-97467063D01*
X178234563Y-97611226D01*
X178121295Y-97780744D01*
X178043274Y-97969102D01*
X178003500Y-98169061D01*
X178003500Y-98372939D01*
X178043274Y-98572898D01*
X178121295Y-98761256D01*
X178234563Y-98930774D01*
X178378726Y-99074937D01*
X178548244Y-99188205D01*
X178736602Y-99266226D01*
X178936561Y-99306000D01*
X179140439Y-99306000D01*
X179340398Y-99266226D01*
X179528756Y-99188205D01*
X179698274Y-99074937D01*
X179842437Y-98930774D01*
X179955705Y-98761256D01*
X180033726Y-98572898D01*
X180073500Y-98372939D01*
X180073500Y-98169061D01*
X180033726Y-97969102D01*
X179955705Y-97780744D01*
X179921210Y-97729117D01*
X182665000Y-97729117D01*
X182665000Y-98070883D01*
X182731675Y-98406081D01*
X182862463Y-98721831D01*
X183052337Y-99005998D01*
X183294002Y-99247663D01*
X183578169Y-99437537D01*
X183893919Y-99568325D01*
X184229117Y-99635000D01*
X184570883Y-99635000D01*
X184906081Y-99568325D01*
X185221831Y-99437537D01*
X185505998Y-99247663D01*
X185747663Y-99005998D01*
X185937537Y-98721831D01*
X186068325Y-98406081D01*
X186135000Y-98070883D01*
X186135000Y-97729117D01*
X186068325Y-97393919D01*
X185937537Y-97078169D01*
X185747663Y-96794002D01*
X185505998Y-96552337D01*
X185221831Y-96362463D01*
X184906081Y-96231675D01*
X184570883Y-96165000D01*
X184229117Y-96165000D01*
X183893919Y-96231675D01*
X183578169Y-96362463D01*
X183294002Y-96552337D01*
X183052337Y-96794002D01*
X182862463Y-97078169D01*
X182731675Y-97393919D01*
X182665000Y-97729117D01*
X179921210Y-97729117D01*
X179842437Y-97611226D01*
X179698274Y-97467063D01*
X179528756Y-97353795D01*
X179517654Y-97349196D01*
X179622240Y-97370000D01*
X179914760Y-97370000D01*
X180201658Y-97312932D01*
X180471911Y-97200990D01*
X180715132Y-97038475D01*
X180921975Y-96831632D01*
X181084490Y-96588411D01*
X181196432Y-96318158D01*
X181253500Y-96031260D01*
X181253500Y-95738740D01*
X181200840Y-95474000D01*
X190847928Y-95474000D01*
X190847928Y-98074000D01*
X190860188Y-98198482D01*
X190896498Y-98318180D01*
X190955463Y-98428494D01*
X191034815Y-98525185D01*
X191131506Y-98604537D01*
X191241820Y-98663502D01*
X191361518Y-98699812D01*
X191486000Y-98712072D01*
X194086000Y-98712072D01*
X194210482Y-98699812D01*
X194330180Y-98663502D01*
X194440494Y-98604537D01*
X194537185Y-98525185D01*
X194616537Y-98428494D01*
X194675502Y-98318180D01*
X194711812Y-98198482D01*
X194724072Y-98074000D01*
X194724072Y-95474000D01*
X194711812Y-95349518D01*
X194675502Y-95229820D01*
X194616537Y-95119506D01*
X194537185Y-95022815D01*
X194440494Y-94943463D01*
X194330180Y-94884498D01*
X194210482Y-94848188D01*
X194086000Y-94835928D01*
X191486000Y-94835928D01*
X191361518Y-94848188D01*
X191241820Y-94884498D01*
X191131506Y-94943463D01*
X191034815Y-95022815D01*
X190955463Y-95119506D01*
X190896498Y-95229820D01*
X190860188Y-95349518D01*
X190847928Y-95474000D01*
X181200840Y-95474000D01*
X181196432Y-95451842D01*
X181084490Y-95181589D01*
X180921975Y-94938368D01*
X180715132Y-94731525D01*
X180539094Y-94613900D01*
X180768769Y-94442588D01*
X180963678Y-94226355D01*
X181112657Y-93976252D01*
X181209981Y-93701891D01*
X181089314Y-93472000D01*
X179895500Y-93472000D01*
X179895500Y-93492000D01*
X179641500Y-93492000D01*
X179641500Y-93472000D01*
X179621500Y-93472000D01*
X179621500Y-93218000D01*
X179641500Y-93218000D01*
X179641500Y-92024845D01*
X179895500Y-92024845D01*
X179895500Y-93218000D01*
X181089314Y-93218000D01*
X181209981Y-92988109D01*
X181112657Y-92713748D01*
X180963678Y-92463645D01*
X180768769Y-92247412D01*
X180535420Y-92073359D01*
X180272599Y-91948175D01*
X180125390Y-91903524D01*
X179895500Y-92024845D01*
X179641500Y-92024845D01*
X179411610Y-91903524D01*
X179264401Y-91948175D01*
X179001580Y-92073359D01*
X178768231Y-92247412D01*
X178573322Y-92463645D01*
X178503695Y-92580534D01*
X178381975Y-92398368D01*
X178175132Y-92191525D01*
X177931911Y-92029010D01*
X177661658Y-91917068D01*
X177374760Y-91860000D01*
X177082240Y-91860000D01*
X176795342Y-91917068D01*
X176525089Y-92029010D01*
X176281868Y-92191525D01*
X176075025Y-92398368D01*
X175958500Y-92572760D01*
X175841975Y-92398368D01*
X175635132Y-92191525D01*
X175391911Y-92029010D01*
X175121658Y-91917068D01*
X174834760Y-91860000D01*
X174542240Y-91860000D01*
X174255342Y-91917068D01*
X173985089Y-92029010D01*
X173741868Y-92191525D01*
X173535025Y-92398368D01*
X173418500Y-92572760D01*
X173301975Y-92398368D01*
X173095132Y-92191525D01*
X172851911Y-92029010D01*
X172581658Y-91917068D01*
X172294760Y-91860000D01*
X172002240Y-91860000D01*
X171715342Y-91917068D01*
X171445089Y-92029010D01*
X171201868Y-92191525D01*
X170995025Y-92398368D01*
X170878500Y-92572760D01*
X170761975Y-92398368D01*
X170555132Y-92191525D01*
X170311911Y-92029010D01*
X170041658Y-91917068D01*
X169754760Y-91860000D01*
X169462240Y-91860000D01*
X169175342Y-91917068D01*
X168905089Y-92029010D01*
X168661868Y-92191525D01*
X168455025Y-92398368D01*
X168338500Y-92572760D01*
X168221975Y-92398368D01*
X168015132Y-92191525D01*
X167771911Y-92029010D01*
X167501658Y-91917068D01*
X167214760Y-91860000D01*
X166922240Y-91860000D01*
X166635342Y-91917068D01*
X166365089Y-92029010D01*
X166121868Y-92191525D01*
X165915025Y-92398368D01*
X165798500Y-92572760D01*
X165681975Y-92398368D01*
X165475132Y-92191525D01*
X165231911Y-92029010D01*
X164961658Y-91917068D01*
X164674760Y-91860000D01*
X164382240Y-91860000D01*
X164095342Y-91917068D01*
X163825089Y-92029010D01*
X163581868Y-92191525D01*
X163375025Y-92398368D01*
X163258500Y-92572760D01*
X163141975Y-92398368D01*
X162935132Y-92191525D01*
X162691911Y-92029010D01*
X162421658Y-91917068D01*
X162134760Y-91860000D01*
X161842240Y-91860000D01*
X161555342Y-91917068D01*
X161285089Y-92029010D01*
X161041868Y-92191525D01*
X160835025Y-92398368D01*
X160718500Y-92572760D01*
X160601975Y-92398368D01*
X160395132Y-92191525D01*
X160151911Y-92029010D01*
X159881658Y-91917068D01*
X159594760Y-91860000D01*
X159302240Y-91860000D01*
X159015342Y-91917068D01*
X158745089Y-92029010D01*
X158501868Y-92191525D01*
X158295025Y-92398368D01*
X158178500Y-92572760D01*
X158061975Y-92398368D01*
X157855132Y-92191525D01*
X157611911Y-92029010D01*
X157341658Y-91917068D01*
X157054760Y-91860000D01*
X156762240Y-91860000D01*
X156475342Y-91917068D01*
X156205089Y-92029010D01*
X155961868Y-92191525D01*
X155755025Y-92398368D01*
X155638500Y-92572760D01*
X155521975Y-92398368D01*
X155315132Y-92191525D01*
X155071911Y-92029010D01*
X154801658Y-91917068D01*
X154514760Y-91860000D01*
X154222240Y-91860000D01*
X153935342Y-91917068D01*
X153665089Y-92029010D01*
X153421868Y-92191525D01*
X153215025Y-92398368D01*
X153098500Y-92572760D01*
X152981975Y-92398368D01*
X152775132Y-92191525D01*
X152531911Y-92029010D01*
X152261658Y-91917068D01*
X151974760Y-91860000D01*
X151682240Y-91860000D01*
X151395342Y-91917068D01*
X151125089Y-92029010D01*
X150881868Y-92191525D01*
X150675025Y-92398368D01*
X150558500Y-92572760D01*
X150441975Y-92398368D01*
X150235132Y-92191525D01*
X149991911Y-92029010D01*
X149721658Y-91917068D01*
X149434760Y-91860000D01*
X149142240Y-91860000D01*
X148855342Y-91917068D01*
X148585089Y-92029010D01*
X148341868Y-92191525D01*
X148135025Y-92398368D01*
X147972510Y-92641589D01*
X147860568Y-92911842D01*
X147803500Y-93198740D01*
X147803500Y-93491260D01*
X147860568Y-93778158D01*
X147972510Y-94048411D01*
X148135025Y-94291632D01*
X148266880Y-94423487D01*
X148194320Y-94445498D01*
X148084006Y-94504463D01*
X147987315Y-94583815D01*
X147907963Y-94680506D01*
X147848998Y-94790820D01*
X147812688Y-94910518D01*
X147800428Y-95035000D01*
X147243764Y-95035000D01*
X147322896Y-94916572D01*
X147397147Y-94737314D01*
X147435000Y-94547014D01*
X147435000Y-94352986D01*
X147397147Y-94162686D01*
X147322896Y-93983428D01*
X147215099Y-93822099D01*
X147077901Y-93684901D01*
X146916572Y-93577104D01*
X146737314Y-93502853D01*
X146547014Y-93465000D01*
X146352986Y-93465000D01*
X146162686Y-93502853D01*
X145983428Y-93577104D01*
X145822099Y-93684901D01*
X145684901Y-93822099D01*
X145577104Y-93983428D01*
X145502853Y-94162686D01*
X145465000Y-94352986D01*
X142760422Y-94352986D01*
X142727226Y-94186102D01*
X142649205Y-93997744D01*
X142535937Y-93828226D01*
X142391774Y-93684063D01*
X142222256Y-93570795D01*
X142033898Y-93492774D01*
X141833939Y-93453000D01*
X141630061Y-93453000D01*
X141430102Y-93492774D01*
X141241744Y-93570795D01*
X141072226Y-93684063D01*
X140928063Y-93828226D01*
X140814795Y-93997744D01*
X140736774Y-94186102D01*
X140697000Y-94386061D01*
X138413768Y-94386061D01*
X138449000Y-94208939D01*
X138449000Y-94005061D01*
X138409226Y-93805102D01*
X138331205Y-93616744D01*
X138217937Y-93447226D01*
X138073774Y-93303063D01*
X137904256Y-93189795D01*
X137715898Y-93111774D01*
X137515939Y-93072000D01*
X137312061Y-93072000D01*
X137112102Y-93111774D01*
X137094905Y-93118897D01*
X137139226Y-93011898D01*
X137179000Y-92811939D01*
X137179000Y-92608061D01*
X137139226Y-92408102D01*
X137061205Y-92219744D01*
X136947937Y-92050226D01*
X136803774Y-91906063D01*
X136634256Y-91792795D01*
X136445898Y-91714774D01*
X136245939Y-91675000D01*
X136042061Y-91675000D01*
X135842102Y-91714774D01*
X135653744Y-91792795D01*
X135484226Y-91906063D01*
X135340063Y-92050226D01*
X135226795Y-92219744D01*
X135148774Y-92408102D01*
X135109000Y-92608061D01*
X127100800Y-92608061D01*
X127100800Y-89687061D01*
X137395000Y-89687061D01*
X137395000Y-89890939D01*
X137434774Y-90090898D01*
X137512795Y-90279256D01*
X137626063Y-90448774D01*
X137770226Y-90592937D01*
X137939744Y-90706205D01*
X138128102Y-90784226D01*
X138328061Y-90824000D01*
X138485814Y-90824000D01*
X138401795Y-90949744D01*
X138323774Y-91138102D01*
X138284000Y-91338061D01*
X138284000Y-91541939D01*
X138323774Y-91741898D01*
X138401795Y-91930256D01*
X138515063Y-92099774D01*
X138659226Y-92243937D01*
X138828744Y-92357205D01*
X139017102Y-92435226D01*
X139217061Y-92475000D01*
X139420939Y-92475000D01*
X139620898Y-92435226D01*
X139809256Y-92357205D01*
X139978774Y-92243937D01*
X140122937Y-92099774D01*
X140236205Y-91930256D01*
X140314226Y-91741898D01*
X140354000Y-91541939D01*
X140354000Y-91503419D01*
X190851000Y-91503419D01*
X190851000Y-91884581D01*
X190925361Y-92258419D01*
X191071225Y-92610566D01*
X191282987Y-92927491D01*
X191552509Y-93197013D01*
X191869434Y-93408775D01*
X192221581Y-93554639D01*
X192595419Y-93629000D01*
X192976581Y-93629000D01*
X193350419Y-93554639D01*
X193702566Y-93408775D01*
X194019491Y-93197013D01*
X194289013Y-92927491D01*
X194500775Y-92610566D01*
X194646639Y-92258419D01*
X194721000Y-91884581D01*
X194721000Y-91503419D01*
X194646639Y-91129581D01*
X194500775Y-90777434D01*
X194289013Y-90460509D01*
X194019491Y-90190987D01*
X193702566Y-89979225D01*
X193350419Y-89833361D01*
X192976581Y-89759000D01*
X192595419Y-89759000D01*
X192221581Y-89833361D01*
X191869434Y-89979225D01*
X191552509Y-90190987D01*
X191282987Y-90460509D01*
X191071225Y-90777434D01*
X190925361Y-91129581D01*
X190851000Y-91503419D01*
X140354000Y-91503419D01*
X140354000Y-91338061D01*
X140314226Y-91138102D01*
X140236205Y-90949744D01*
X140122937Y-90780226D01*
X139978774Y-90636063D01*
X139809256Y-90522795D01*
X139620898Y-90444774D01*
X139420939Y-90405000D01*
X139263186Y-90405000D01*
X139347205Y-90279256D01*
X139425226Y-90090898D01*
X139429768Y-90068061D01*
X145904000Y-90068061D01*
X145904000Y-90271939D01*
X145943774Y-90471898D01*
X146021795Y-90660256D01*
X146135063Y-90829774D01*
X146279226Y-90973937D01*
X146448744Y-91087205D01*
X146637102Y-91165226D01*
X146837061Y-91205000D01*
X147040939Y-91205000D01*
X147240898Y-91165226D01*
X147429256Y-91087205D01*
X147598774Y-90973937D01*
X147742937Y-90829774D01*
X147856205Y-90660256D01*
X147934226Y-90471898D01*
X147974000Y-90271939D01*
X147974000Y-90271841D01*
X150730000Y-90271841D01*
X150730000Y-90475719D01*
X150769774Y-90675678D01*
X150847795Y-90864036D01*
X150961063Y-91033554D01*
X151105226Y-91177717D01*
X151274744Y-91290985D01*
X151463102Y-91369006D01*
X151663061Y-91408780D01*
X151866939Y-91408780D01*
X152066898Y-91369006D01*
X152255256Y-91290985D01*
X152424774Y-91177717D01*
X152568937Y-91033554D01*
X152682205Y-90864036D01*
X152760226Y-90675678D01*
X152800000Y-90475719D01*
X152800000Y-90271841D01*
X152760226Y-90071882D01*
X152682205Y-89883524D01*
X152568937Y-89714006D01*
X152424774Y-89569843D01*
X152255256Y-89456575D01*
X152066898Y-89378554D01*
X151866939Y-89338780D01*
X151663061Y-89338780D01*
X151463102Y-89378554D01*
X151274744Y-89456575D01*
X151105226Y-89569843D01*
X150961063Y-89714006D01*
X150847795Y-89883524D01*
X150769774Y-90071882D01*
X150730000Y-90271841D01*
X147974000Y-90271841D01*
X147974000Y-90068061D01*
X147934226Y-89868102D01*
X147856205Y-89679744D01*
X147742937Y-89510226D01*
X147598774Y-89366063D01*
X147429256Y-89252795D01*
X147240898Y-89174774D01*
X147040939Y-89135000D01*
X146837061Y-89135000D01*
X146637102Y-89174774D01*
X146448744Y-89252795D01*
X146279226Y-89366063D01*
X146135063Y-89510226D01*
X146021795Y-89679744D01*
X145943774Y-89868102D01*
X145904000Y-90068061D01*
X139429768Y-90068061D01*
X139465000Y-89890939D01*
X139465000Y-89687061D01*
X139425226Y-89487102D01*
X139347205Y-89298744D01*
X139233937Y-89129226D01*
X139089774Y-88985063D01*
X138920256Y-88871795D01*
X138731898Y-88793774D01*
X138531939Y-88754000D01*
X138328061Y-88754000D01*
X138128102Y-88793774D01*
X137939744Y-88871795D01*
X137770226Y-88985063D01*
X137626063Y-89129226D01*
X137512795Y-89298744D01*
X137434774Y-89487102D01*
X137395000Y-89687061D01*
X127100800Y-89687061D01*
X127100800Y-86302986D01*
X128585000Y-86302986D01*
X128585000Y-86497014D01*
X128622853Y-86687314D01*
X128697104Y-86866572D01*
X128804901Y-87027901D01*
X128942099Y-87165099D01*
X129103428Y-87272896D01*
X129282686Y-87347147D01*
X129472986Y-87385000D01*
X129667014Y-87385000D01*
X129857314Y-87347147D01*
X130036572Y-87272896D01*
X130197901Y-87165099D01*
X130230014Y-87132986D01*
X133445000Y-87132986D01*
X133445000Y-87327014D01*
X133482853Y-87517314D01*
X133557104Y-87696572D01*
X133664901Y-87857901D01*
X133802099Y-87995099D01*
X133963428Y-88102896D01*
X134142686Y-88177147D01*
X134332986Y-88215000D01*
X134527014Y-88215000D01*
X134717314Y-88177147D01*
X134886213Y-88107187D01*
X134982686Y-88147147D01*
X135172986Y-88185000D01*
X135367014Y-88185000D01*
X135557314Y-88147147D01*
X135736572Y-88072896D01*
X135897901Y-87965099D01*
X136035099Y-87827901D01*
X136142896Y-87666572D01*
X136147664Y-87655061D01*
X139427000Y-87655061D01*
X139427000Y-87858939D01*
X139466774Y-88058898D01*
X139544795Y-88247256D01*
X139658063Y-88416774D01*
X139802226Y-88560937D01*
X139971744Y-88674205D01*
X140160102Y-88752226D01*
X140360061Y-88792000D01*
X140563939Y-88792000D01*
X140763898Y-88752226D01*
X140952256Y-88674205D01*
X141121774Y-88560937D01*
X141265937Y-88416774D01*
X141379205Y-88247256D01*
X141457226Y-88058898D01*
X141497000Y-87858939D01*
X141497000Y-87655061D01*
X141457226Y-87455102D01*
X141422484Y-87371227D01*
X141519937Y-87273774D01*
X141633205Y-87104256D01*
X141711226Y-86915898D01*
X141751000Y-86715939D01*
X141751000Y-86512061D01*
X141725739Y-86385061D01*
X142221000Y-86385061D01*
X142221000Y-86588939D01*
X142260774Y-86788898D01*
X142338795Y-86977256D01*
X142452063Y-87146774D01*
X142596226Y-87290937D01*
X142765744Y-87404205D01*
X142954102Y-87482226D01*
X143154061Y-87522000D01*
X143357939Y-87522000D01*
X143557898Y-87482226D01*
X143746256Y-87404205D01*
X143915774Y-87290937D01*
X144059937Y-87146774D01*
X144173205Y-86977256D01*
X144251226Y-86788898D01*
X144291000Y-86588939D01*
X144291000Y-86385061D01*
X144251226Y-86185102D01*
X144173205Y-85996744D01*
X144085631Y-85865680D01*
X144150737Y-85800574D01*
X144264005Y-85631056D01*
X144342026Y-85442698D01*
X144381800Y-85242739D01*
X144381800Y-85038861D01*
X144371696Y-84988061D01*
X145523000Y-84988061D01*
X145523000Y-85191939D01*
X145562774Y-85391898D01*
X145640795Y-85580256D01*
X145754063Y-85749774D01*
X145898226Y-85893937D01*
X146067744Y-86007205D01*
X146256102Y-86085226D01*
X146454023Y-86124595D01*
X146436600Y-86212186D01*
X146436600Y-86388115D01*
X146422726Y-86397385D01*
X146285528Y-86534583D01*
X146177731Y-86695912D01*
X146103480Y-86875170D01*
X146065627Y-87065470D01*
X146065627Y-87259498D01*
X146103480Y-87449798D01*
X146177731Y-87629056D01*
X146285528Y-87790385D01*
X146422726Y-87927583D01*
X146584055Y-88035380D01*
X146763313Y-88109631D01*
X146953613Y-88147484D01*
X147147641Y-88147484D01*
X147337941Y-88109631D01*
X147517199Y-88035380D01*
X147678528Y-87927583D01*
X147723125Y-87882986D01*
X155235000Y-87882986D01*
X155235000Y-88077014D01*
X155272853Y-88267314D01*
X155347104Y-88446572D01*
X155454901Y-88607901D01*
X155592099Y-88745099D01*
X155753428Y-88852896D01*
X155932686Y-88927147D01*
X156122986Y-88965000D01*
X156317014Y-88965000D01*
X156507314Y-88927147D01*
X156686572Y-88852896D01*
X156847901Y-88745099D01*
X156985099Y-88607901D01*
X157092896Y-88446572D01*
X157167147Y-88267314D01*
X157205000Y-88077014D01*
X157205000Y-87882986D01*
X157167147Y-87692686D01*
X157092896Y-87513428D01*
X156985099Y-87352099D01*
X156847901Y-87214901D01*
X156686572Y-87107104D01*
X156507314Y-87032853D01*
X156317014Y-86995000D01*
X156122986Y-86995000D01*
X155932686Y-87032853D01*
X155753428Y-87107104D01*
X155592099Y-87214901D01*
X155454901Y-87352099D01*
X155347104Y-87513428D01*
X155272853Y-87692686D01*
X155235000Y-87882986D01*
X147723125Y-87882986D01*
X147815726Y-87790385D01*
X147923523Y-87629056D01*
X147997774Y-87449798D01*
X148035627Y-87259498D01*
X148035627Y-87083569D01*
X148049501Y-87074299D01*
X148186699Y-86937101D01*
X148233097Y-86867661D01*
X160864600Y-86867661D01*
X160864600Y-87071539D01*
X160904374Y-87271498D01*
X160982395Y-87459856D01*
X161095663Y-87629374D01*
X161239826Y-87773537D01*
X161409344Y-87886805D01*
X161509286Y-87928203D01*
X161502063Y-87935426D01*
X161388795Y-88104944D01*
X161310774Y-88293302D01*
X161271000Y-88493261D01*
X161271000Y-88697139D01*
X161310774Y-88897098D01*
X161388795Y-89085456D01*
X161502063Y-89254974D01*
X161646226Y-89399137D01*
X161815744Y-89512405D01*
X162004102Y-89590426D01*
X162204061Y-89630200D01*
X162407939Y-89630200D01*
X162607898Y-89590426D01*
X162796256Y-89512405D01*
X162876989Y-89458461D01*
X164471400Y-89458461D01*
X164471400Y-89662339D01*
X164511174Y-89862298D01*
X164589195Y-90050656D01*
X164702463Y-90220174D01*
X164846626Y-90364337D01*
X165016144Y-90477605D01*
X165204502Y-90555626D01*
X165404461Y-90595400D01*
X165608339Y-90595400D01*
X165808298Y-90555626D01*
X165996656Y-90477605D01*
X166166174Y-90364337D01*
X166310337Y-90220174D01*
X166423605Y-90050656D01*
X166501626Y-89862298D01*
X166541400Y-89662339D01*
X166541400Y-89458461D01*
X166501626Y-89258502D01*
X166423605Y-89070144D01*
X166310337Y-88900626D01*
X166166174Y-88756463D01*
X165996656Y-88643195D01*
X165808298Y-88565174D01*
X165608339Y-88525400D01*
X165404461Y-88525400D01*
X165204502Y-88565174D01*
X165016144Y-88643195D01*
X164846626Y-88756463D01*
X164702463Y-88900626D01*
X164589195Y-89070144D01*
X164511174Y-89258502D01*
X164471400Y-89458461D01*
X162876989Y-89458461D01*
X162965774Y-89399137D01*
X163109937Y-89254974D01*
X163223205Y-89085456D01*
X163301226Y-88897098D01*
X163341000Y-88697139D01*
X163341000Y-88493261D01*
X163301226Y-88293302D01*
X163223205Y-88104944D01*
X163109937Y-87935426D01*
X162965774Y-87791263D01*
X162796256Y-87677995D01*
X162696314Y-87636597D01*
X162703537Y-87629374D01*
X162816805Y-87459856D01*
X162894826Y-87271498D01*
X162934600Y-87071539D01*
X162934600Y-86867661D01*
X162894826Y-86667702D01*
X162816805Y-86479344D01*
X162703537Y-86309826D01*
X162651772Y-86258061D01*
X175495000Y-86258061D01*
X175495000Y-86461939D01*
X175534774Y-86661898D01*
X175612795Y-86850256D01*
X175726063Y-87019774D01*
X175870226Y-87163937D01*
X176039744Y-87277205D01*
X176228102Y-87355226D01*
X176329270Y-87375349D01*
X176374795Y-87485256D01*
X176488063Y-87654774D01*
X176632226Y-87798937D01*
X176801744Y-87912205D01*
X176990102Y-87990226D01*
X177190061Y-88030000D01*
X177393939Y-88030000D01*
X177593898Y-87990226D01*
X177782256Y-87912205D01*
X177927000Y-87815490D01*
X178071744Y-87912205D01*
X178260102Y-87990226D01*
X178460061Y-88030000D01*
X178663939Y-88030000D01*
X178863898Y-87990226D01*
X179052256Y-87912205D01*
X179221774Y-87798937D01*
X179365937Y-87654774D01*
X179479205Y-87485256D01*
X179557226Y-87296898D01*
X179597000Y-87096939D01*
X179597000Y-86893061D01*
X179557226Y-86693102D01*
X179479205Y-86504744D01*
X179365937Y-86335226D01*
X179221774Y-86191063D01*
X179052256Y-86077795D01*
X178863898Y-85999774D01*
X178663939Y-85960000D01*
X178460061Y-85960000D01*
X178260102Y-85999774D01*
X178071744Y-86077795D01*
X177927000Y-86174510D01*
X177782256Y-86077795D01*
X177593898Y-85999774D01*
X177492730Y-85979651D01*
X177447205Y-85869744D01*
X177333937Y-85700226D01*
X177189774Y-85556063D01*
X177020256Y-85442795D01*
X176831898Y-85364774D01*
X176631939Y-85325000D01*
X176428061Y-85325000D01*
X176228102Y-85364774D01*
X176039744Y-85442795D01*
X175870226Y-85556063D01*
X175726063Y-85700226D01*
X175612795Y-85869744D01*
X175534774Y-86058102D01*
X175495000Y-86258061D01*
X162651772Y-86258061D01*
X162559374Y-86165663D01*
X162389856Y-86052395D01*
X162201498Y-85974374D01*
X162001539Y-85934600D01*
X161797661Y-85934600D01*
X161597702Y-85974374D01*
X161409344Y-86052395D01*
X161239826Y-86165663D01*
X161095663Y-86309826D01*
X160982395Y-86479344D01*
X160904374Y-86667702D01*
X160864600Y-86867661D01*
X148233097Y-86867661D01*
X148294496Y-86775772D01*
X148368747Y-86596514D01*
X148406600Y-86406214D01*
X148406600Y-86212186D01*
X148368747Y-86021886D01*
X148294496Y-85842628D01*
X148186699Y-85681299D01*
X148049501Y-85544101D01*
X147888172Y-85436304D01*
X147708914Y-85362053D01*
X147564862Y-85333399D01*
X147593000Y-85191939D01*
X147593000Y-84988061D01*
X147566133Y-84852986D01*
X156635000Y-84852986D01*
X156635000Y-85047014D01*
X156672853Y-85237314D01*
X156747104Y-85416572D01*
X156854901Y-85577901D01*
X156992099Y-85715099D01*
X157153428Y-85822896D01*
X157332686Y-85897147D01*
X157522986Y-85935000D01*
X157717014Y-85935000D01*
X157907314Y-85897147D01*
X158086572Y-85822896D01*
X158247901Y-85715099D01*
X158385099Y-85577901D01*
X158492896Y-85416572D01*
X158567147Y-85237314D01*
X158605000Y-85047014D01*
X158605000Y-84852986D01*
X158567147Y-84662686D01*
X158492896Y-84483428D01*
X158385099Y-84322099D01*
X158247901Y-84184901D01*
X158086572Y-84077104D01*
X157907314Y-84002853D01*
X157717014Y-83965000D01*
X157522986Y-83965000D01*
X157332686Y-84002853D01*
X157153428Y-84077104D01*
X156992099Y-84184901D01*
X156854901Y-84322099D01*
X156747104Y-84483428D01*
X156672853Y-84662686D01*
X156635000Y-84852986D01*
X147566133Y-84852986D01*
X147553226Y-84788102D01*
X147475205Y-84599744D01*
X147361937Y-84430226D01*
X147217774Y-84286063D01*
X147048256Y-84172795D01*
X146859898Y-84094774D01*
X146659939Y-84055000D01*
X146456061Y-84055000D01*
X146256102Y-84094774D01*
X146067744Y-84172795D01*
X145898226Y-84286063D01*
X145754063Y-84430226D01*
X145640795Y-84599744D01*
X145562774Y-84788102D01*
X145523000Y-84988061D01*
X144371696Y-84988061D01*
X144342026Y-84838902D01*
X144264005Y-84650544D01*
X144150737Y-84481026D01*
X144006574Y-84336863D01*
X143837056Y-84223595D01*
X143648698Y-84145574D01*
X143448739Y-84105800D01*
X143244861Y-84105800D01*
X143044902Y-84145574D01*
X142856544Y-84223595D01*
X142687026Y-84336863D01*
X142542863Y-84481026D01*
X142429595Y-84650544D01*
X142351574Y-84838902D01*
X142311800Y-85038861D01*
X142311800Y-85242739D01*
X142351574Y-85442698D01*
X142429595Y-85631056D01*
X142517169Y-85762120D01*
X142452063Y-85827226D01*
X142338795Y-85996744D01*
X142260774Y-86185102D01*
X142221000Y-86385061D01*
X141725739Y-86385061D01*
X141711226Y-86312102D01*
X141633205Y-86123744D01*
X141519937Y-85954226D01*
X141375774Y-85810063D01*
X141206256Y-85696795D01*
X141017898Y-85618774D01*
X140817939Y-85579000D01*
X140614061Y-85579000D01*
X140414102Y-85618774D01*
X140225744Y-85696795D01*
X140056226Y-85810063D01*
X139912063Y-85954226D01*
X139798795Y-86123744D01*
X139720774Y-86312102D01*
X139681000Y-86512061D01*
X139681000Y-86715939D01*
X139720774Y-86915898D01*
X139755516Y-86999773D01*
X139658063Y-87097226D01*
X139544795Y-87266744D01*
X139466774Y-87455102D01*
X139427000Y-87655061D01*
X136147664Y-87655061D01*
X136217147Y-87487314D01*
X136255000Y-87297014D01*
X136255000Y-87102986D01*
X136217147Y-86912686D01*
X136142896Y-86733428D01*
X136035099Y-86572099D01*
X135897901Y-86434901D01*
X135736572Y-86327104D01*
X135557314Y-86252853D01*
X135367014Y-86215000D01*
X135172986Y-86215000D01*
X134982686Y-86252853D01*
X134813787Y-86322813D01*
X134717314Y-86282853D01*
X134527014Y-86245000D01*
X134332986Y-86245000D01*
X134142686Y-86282853D01*
X133963428Y-86357104D01*
X133802099Y-86464901D01*
X133664901Y-86602099D01*
X133557104Y-86763428D01*
X133482853Y-86942686D01*
X133445000Y-87132986D01*
X130230014Y-87132986D01*
X130335099Y-87027901D01*
X130442896Y-86866572D01*
X130517147Y-86687314D01*
X130555000Y-86497014D01*
X130555000Y-86302986D01*
X130517147Y-86112686D01*
X130442896Y-85933428D01*
X130335099Y-85772099D01*
X130197901Y-85634901D01*
X130036572Y-85527104D01*
X129857314Y-85452853D01*
X129667014Y-85415000D01*
X129472986Y-85415000D01*
X129282686Y-85452853D01*
X129103428Y-85527104D01*
X128942099Y-85634901D01*
X128804901Y-85772099D01*
X128697104Y-85933428D01*
X128622853Y-86112686D01*
X128585000Y-86302986D01*
X127100800Y-86302986D01*
X127100800Y-83982986D01*
X132475000Y-83982986D01*
X132475000Y-84177014D01*
X132512853Y-84367314D01*
X132587104Y-84546572D01*
X132694901Y-84707901D01*
X132832099Y-84845099D01*
X132993428Y-84952896D01*
X133172686Y-85027147D01*
X133362986Y-85065000D01*
X133557014Y-85065000D01*
X133747314Y-85027147D01*
X133912142Y-84958873D01*
X133944901Y-85007901D01*
X134082099Y-85145099D01*
X134243428Y-85252896D01*
X134422686Y-85327147D01*
X134612986Y-85365000D01*
X134807014Y-85365000D01*
X134997314Y-85327147D01*
X135176572Y-85252896D01*
X135230085Y-85217140D01*
X135358428Y-85302896D01*
X135537686Y-85377147D01*
X135727986Y-85415000D01*
X135922014Y-85415000D01*
X136112314Y-85377147D01*
X136291572Y-85302896D01*
X136452901Y-85195099D01*
X136590099Y-85057901D01*
X136697896Y-84896572D01*
X136772147Y-84717314D01*
X136810000Y-84527014D01*
X136810000Y-84332986D01*
X136772147Y-84142686D01*
X136697896Y-83963428D01*
X136590099Y-83802099D01*
X136452901Y-83664901D01*
X136342393Y-83591061D01*
X137014000Y-83591061D01*
X137014000Y-83794939D01*
X137053774Y-83994898D01*
X137131795Y-84183256D01*
X137245063Y-84352774D01*
X137389226Y-84496937D01*
X137558744Y-84610205D01*
X137747102Y-84688226D01*
X137947061Y-84728000D01*
X138150939Y-84728000D01*
X138350898Y-84688226D01*
X138539256Y-84610205D01*
X138708774Y-84496937D01*
X138852937Y-84352774D01*
X138966205Y-84183256D01*
X139044226Y-83994898D01*
X139084000Y-83794939D01*
X139084000Y-83742777D01*
X139087595Y-83751456D01*
X139200863Y-83920974D01*
X139345026Y-84065137D01*
X139514544Y-84178405D01*
X139702902Y-84256426D01*
X139902861Y-84296200D01*
X140106739Y-84296200D01*
X140306698Y-84256426D01*
X140495056Y-84178405D01*
X140664574Y-84065137D01*
X140808737Y-83920974D01*
X140922005Y-83751456D01*
X141000026Y-83563098D01*
X141039800Y-83363139D01*
X141039800Y-83159261D01*
X141000026Y-82959302D01*
X140922005Y-82770944D01*
X140808737Y-82601426D01*
X140664574Y-82457263D01*
X140495056Y-82343995D01*
X140306698Y-82265974D01*
X140106739Y-82226200D01*
X139902861Y-82226200D01*
X139702902Y-82265974D01*
X139514544Y-82343995D01*
X139345026Y-82457263D01*
X139200863Y-82601426D01*
X139087595Y-82770944D01*
X139009574Y-82959302D01*
X138969800Y-83159261D01*
X138969800Y-83211423D01*
X138966205Y-83202744D01*
X138852937Y-83033226D01*
X138708774Y-82889063D01*
X138539256Y-82775795D01*
X138350898Y-82697774D01*
X138150939Y-82658000D01*
X137947061Y-82658000D01*
X137747102Y-82697774D01*
X137558744Y-82775795D01*
X137389226Y-82889063D01*
X137245063Y-83033226D01*
X137131795Y-83202744D01*
X137053774Y-83391102D01*
X137014000Y-83591061D01*
X136342393Y-83591061D01*
X136291572Y-83557104D01*
X136112314Y-83482853D01*
X135922014Y-83445000D01*
X135727986Y-83445000D01*
X135537686Y-83482853D01*
X135358428Y-83557104D01*
X135304915Y-83592860D01*
X135176572Y-83507104D01*
X134997314Y-83432853D01*
X134807014Y-83395000D01*
X134612986Y-83395000D01*
X134422686Y-83432853D01*
X134257858Y-83501127D01*
X134225099Y-83452099D01*
X134087901Y-83314901D01*
X133926572Y-83207104D01*
X133747314Y-83132853D01*
X133557014Y-83095000D01*
X133362986Y-83095000D01*
X133172686Y-83132853D01*
X132993428Y-83207104D01*
X132832099Y-83314901D01*
X132694901Y-83452099D01*
X132587104Y-83613428D01*
X132512853Y-83792686D01*
X132475000Y-83982986D01*
X127100800Y-83982986D01*
X127100800Y-81692986D01*
X128115000Y-81692986D01*
X128115000Y-81887014D01*
X128152853Y-82077314D01*
X128227104Y-82256572D01*
X128292849Y-82354966D01*
X128247104Y-82423428D01*
X128172853Y-82602686D01*
X128135000Y-82792986D01*
X128135000Y-82987014D01*
X128172853Y-83177314D01*
X128247104Y-83356572D01*
X128354901Y-83517901D01*
X128492099Y-83655099D01*
X128653428Y-83762896D01*
X128832686Y-83837147D01*
X129022986Y-83875000D01*
X129217014Y-83875000D01*
X129407314Y-83837147D01*
X129586572Y-83762896D01*
X129747901Y-83655099D01*
X129885099Y-83517901D01*
X129992896Y-83356572D01*
X130067147Y-83177314D01*
X130105000Y-82987014D01*
X130105000Y-82792986D01*
X130067147Y-82602686D01*
X129992896Y-82423428D01*
X129927151Y-82325034D01*
X129972896Y-82256572D01*
X130047147Y-82077314D01*
X130085000Y-81887014D01*
X130085000Y-81692986D01*
X130047147Y-81502686D01*
X129972896Y-81323428D01*
X129865099Y-81162099D01*
X129727901Y-81024901D01*
X129665172Y-80982986D01*
X131875000Y-80982986D01*
X131875000Y-81177014D01*
X131912853Y-81367314D01*
X131987104Y-81546572D01*
X132094901Y-81707901D01*
X132232099Y-81845099D01*
X132393428Y-81952896D01*
X132572686Y-82027147D01*
X132762986Y-82065000D01*
X132957014Y-82065000D01*
X133147314Y-82027147D01*
X133326572Y-81952896D01*
X133487901Y-81845099D01*
X133625099Y-81707901D01*
X133732896Y-81546572D01*
X133807147Y-81367314D01*
X133845000Y-81177014D01*
X133845000Y-80982986D01*
X133807147Y-80792686D01*
X133732896Y-80613428D01*
X133625099Y-80452099D01*
X133487901Y-80314901D01*
X133326572Y-80207104D01*
X133147314Y-80132853D01*
X132957014Y-80095000D01*
X132762986Y-80095000D01*
X132572686Y-80132853D01*
X132393428Y-80207104D01*
X132232099Y-80314901D01*
X132094901Y-80452099D01*
X131987104Y-80613428D01*
X131912853Y-80792686D01*
X131875000Y-80982986D01*
X129665172Y-80982986D01*
X129566572Y-80917104D01*
X129387314Y-80842853D01*
X129197014Y-80805000D01*
X129002986Y-80805000D01*
X128812686Y-80842853D01*
X128633428Y-80917104D01*
X128472099Y-81024901D01*
X128334901Y-81162099D01*
X128227104Y-81323428D01*
X128152853Y-81502686D01*
X128115000Y-81692986D01*
X127100800Y-81692986D01*
X127100800Y-78312986D01*
X128055000Y-78312986D01*
X128055000Y-78507014D01*
X128092853Y-78697314D01*
X128167104Y-78876572D01*
X128274901Y-79037901D01*
X128412099Y-79175099D01*
X128573428Y-79282896D01*
X128752686Y-79357147D01*
X128942986Y-79395000D01*
X129137014Y-79395000D01*
X129327314Y-79357147D01*
X129418291Y-79319463D01*
X129423428Y-79322896D01*
X129602686Y-79397147D01*
X129792986Y-79435000D01*
X129987014Y-79435000D01*
X130177314Y-79397147D01*
X130356572Y-79322896D01*
X130453716Y-79257986D01*
X134075000Y-79257986D01*
X134075000Y-79452014D01*
X134112853Y-79642314D01*
X134187104Y-79821572D01*
X134294901Y-79982901D01*
X134432099Y-80120099D01*
X134593428Y-80227896D01*
X134772686Y-80302147D01*
X134962986Y-80340000D01*
X135157014Y-80340000D01*
X135347314Y-80302147D01*
X135526572Y-80227896D01*
X135687901Y-80120099D01*
X135825099Y-79982901D01*
X135932896Y-79821572D01*
X136007147Y-79642314D01*
X136045000Y-79452014D01*
X136045000Y-79257986D01*
X136007147Y-79067686D01*
X135950561Y-78931076D01*
X136119749Y-78931076D01*
X136319708Y-78891302D01*
X136508066Y-78813281D01*
X136677584Y-78700013D01*
X136821747Y-78555850D01*
X136935015Y-78386332D01*
X137013036Y-78197974D01*
X137052810Y-77998015D01*
X137052810Y-77794137D01*
X137013036Y-77594178D01*
X136935015Y-77405820D01*
X136854816Y-77285794D01*
X136871305Y-77245986D01*
X140874000Y-77245986D01*
X140874000Y-77440014D01*
X140911853Y-77630314D01*
X140986104Y-77809572D01*
X141093901Y-77970901D01*
X141231099Y-78108099D01*
X141392428Y-78215896D01*
X141571686Y-78290147D01*
X141761986Y-78328000D01*
X141955000Y-78328000D01*
X141955000Y-78447014D01*
X141992853Y-78637314D01*
X142067104Y-78816572D01*
X142152917Y-78945000D01*
X142022986Y-78945000D01*
X141832686Y-78982853D01*
X141653428Y-79057104D01*
X141492099Y-79164901D01*
X141354901Y-79302099D01*
X141247104Y-79463428D01*
X141172853Y-79642686D01*
X141135000Y-79832986D01*
X141135000Y-80027014D01*
X141172853Y-80217314D01*
X141247104Y-80396572D01*
X141354901Y-80557901D01*
X141492099Y-80695099D01*
X141653428Y-80802896D01*
X141832686Y-80877147D01*
X142022986Y-80915000D01*
X142217014Y-80915000D01*
X142407314Y-80877147D01*
X142586572Y-80802896D01*
X142747901Y-80695099D01*
X142885099Y-80557901D01*
X142992896Y-80396572D01*
X143067147Y-80217314D01*
X143105000Y-80027014D01*
X143105000Y-79832986D01*
X143067147Y-79642686D01*
X142992896Y-79463428D01*
X142907083Y-79335000D01*
X143037014Y-79335000D01*
X143227314Y-79297147D01*
X143311964Y-79262084D01*
X143311964Y-79268794D01*
X143351738Y-79468753D01*
X143429759Y-79657111D01*
X143543027Y-79826629D01*
X143587177Y-79870779D01*
X143554500Y-80035061D01*
X143554500Y-80238939D01*
X143594274Y-80438898D01*
X143672295Y-80627256D01*
X143785563Y-80796774D01*
X143929726Y-80940937D01*
X144099244Y-81054205D01*
X144287602Y-81132226D01*
X144487561Y-81172000D01*
X144691439Y-81172000D01*
X144833910Y-81143661D01*
X144692627Y-81238063D01*
X144548464Y-81382226D01*
X144435196Y-81551744D01*
X144357175Y-81740102D01*
X144317401Y-81940061D01*
X144317401Y-82143939D01*
X144357175Y-82343898D01*
X144435196Y-82532256D01*
X144548464Y-82701774D01*
X144692627Y-82845937D01*
X144862145Y-82959205D01*
X145050503Y-83037226D01*
X145250462Y-83077000D01*
X145454340Y-83077000D01*
X145654299Y-83037226D01*
X145688677Y-83022986D01*
X186055000Y-83022986D01*
X186055000Y-83217014D01*
X186092853Y-83407314D01*
X186167104Y-83586572D01*
X186194440Y-83627483D01*
X186177104Y-83653428D01*
X186102853Y-83832686D01*
X186065000Y-84022986D01*
X186065000Y-84217014D01*
X186102853Y-84407314D01*
X186177104Y-84586572D01*
X186284901Y-84747901D01*
X186422099Y-84885099D01*
X186583428Y-84992896D01*
X186762686Y-85067147D01*
X186952986Y-85105000D01*
X187147014Y-85105000D01*
X187337314Y-85067147D01*
X187516572Y-84992896D01*
X187677901Y-84885099D01*
X187815099Y-84747901D01*
X187922896Y-84586572D01*
X187997147Y-84407314D01*
X188035000Y-84217014D01*
X188035000Y-84022986D01*
X187997147Y-83832686D01*
X187922896Y-83653428D01*
X187895560Y-83612517D01*
X187912896Y-83586572D01*
X187987147Y-83407314D01*
X188025000Y-83217014D01*
X188025000Y-83022986D01*
X187987147Y-82832686D01*
X187912896Y-82653428D01*
X187807423Y-82495577D01*
X187815099Y-82487901D01*
X187922896Y-82326572D01*
X187997147Y-82147314D01*
X188035000Y-81957014D01*
X188035000Y-81762986D01*
X187997147Y-81572686D01*
X187922896Y-81393428D01*
X187920605Y-81390000D01*
X187922896Y-81386572D01*
X187997147Y-81207314D01*
X188035000Y-81017014D01*
X188035000Y-80822986D01*
X187997147Y-80632686D01*
X187922896Y-80453428D01*
X187815099Y-80292099D01*
X187677901Y-80154901D01*
X187516572Y-80047104D01*
X187337314Y-79972853D01*
X187147014Y-79935000D01*
X186952986Y-79935000D01*
X186762686Y-79972853D01*
X186583428Y-80047104D01*
X186422099Y-80154901D01*
X186284901Y-80292099D01*
X186177104Y-80453428D01*
X186102853Y-80632686D01*
X186065000Y-80822986D01*
X186065000Y-81017014D01*
X186102853Y-81207314D01*
X186177104Y-81386572D01*
X186179395Y-81390000D01*
X186177104Y-81393428D01*
X186102853Y-81572686D01*
X186065000Y-81762986D01*
X186065000Y-81957014D01*
X186102853Y-82147314D01*
X186177104Y-82326572D01*
X186282577Y-82484423D01*
X186274901Y-82492099D01*
X186167104Y-82653428D01*
X186092853Y-82832686D01*
X186055000Y-83022986D01*
X145688677Y-83022986D01*
X145842657Y-82959205D01*
X146012175Y-82845937D01*
X146156338Y-82701774D01*
X146269606Y-82532256D01*
X146347627Y-82343898D01*
X146387401Y-82143939D01*
X146387401Y-81940061D01*
X146347627Y-81740102D01*
X146337652Y-81716021D01*
X146484128Y-81655348D01*
X146599977Y-81577940D01*
X146648989Y-81696265D01*
X146762257Y-81865783D01*
X146906420Y-82009946D01*
X147075938Y-82123214D01*
X147230408Y-82187198D01*
X147242651Y-82248748D01*
X147320672Y-82437106D01*
X147433940Y-82606624D01*
X147578103Y-82750787D01*
X147747621Y-82864055D01*
X147935979Y-82942076D01*
X148135938Y-82981850D01*
X148339816Y-82981850D01*
X148539775Y-82942076D01*
X148728133Y-82864055D01*
X148897651Y-82750787D01*
X149041814Y-82606624D01*
X149050105Y-82594216D01*
X149098626Y-82642737D01*
X149268144Y-82756005D01*
X149456502Y-82834026D01*
X149656461Y-82873800D01*
X149860339Y-82873800D01*
X150060298Y-82834026D01*
X150248656Y-82756005D01*
X150418174Y-82642737D01*
X150562337Y-82498574D01*
X150675605Y-82329056D01*
X150753626Y-82140698D01*
X150793400Y-81940739D01*
X150793400Y-81736861D01*
X150753626Y-81536902D01*
X150675605Y-81348544D01*
X150562337Y-81179026D01*
X150418174Y-81034863D01*
X150256120Y-80926582D01*
X150265000Y-80881939D01*
X150265000Y-80774461D01*
X154283887Y-80774461D01*
X154283887Y-80978339D01*
X154323661Y-81178298D01*
X154401682Y-81366656D01*
X154514950Y-81536174D01*
X154659113Y-81680337D01*
X154828631Y-81793605D01*
X155016989Y-81871626D01*
X155216948Y-81911400D01*
X155420826Y-81911400D01*
X155620785Y-81871626D01*
X155809143Y-81793605D01*
X155978661Y-81680337D01*
X156122824Y-81536174D01*
X156236092Y-81366656D01*
X156314113Y-81178298D01*
X156353887Y-80978339D01*
X156353887Y-80774461D01*
X156314113Y-80574502D01*
X156236092Y-80386144D01*
X156122824Y-80216626D01*
X155978661Y-80072463D01*
X155809143Y-79959195D01*
X155620785Y-79881174D01*
X155420826Y-79841400D01*
X155216948Y-79841400D01*
X155016989Y-79881174D01*
X154828631Y-79959195D01*
X154659113Y-80072463D01*
X154514950Y-80216626D01*
X154401682Y-80386144D01*
X154323661Y-80574502D01*
X154283887Y-80774461D01*
X150265000Y-80774461D01*
X150265000Y-80678061D01*
X150225226Y-80478102D01*
X150147205Y-80289744D01*
X150033937Y-80120226D01*
X149889774Y-79976063D01*
X149720256Y-79862795D01*
X149531898Y-79784774D01*
X149331939Y-79745000D01*
X149128061Y-79745000D01*
X148928102Y-79784774D01*
X148739744Y-79862795D01*
X148570226Y-79976063D01*
X148426063Y-80120226D01*
X148312795Y-80289744D01*
X148254464Y-80430568D01*
X148225968Y-80402072D01*
X148056450Y-80288804D01*
X147876194Y-80214139D01*
X147876194Y-80105121D01*
X147836420Y-79905162D01*
X147758399Y-79716804D01*
X147645131Y-79547286D01*
X147500968Y-79403123D01*
X147331450Y-79289855D01*
X147143092Y-79211834D01*
X146943133Y-79172060D01*
X146739255Y-79172060D01*
X146539296Y-79211834D01*
X146350938Y-79289855D01*
X146181420Y-79403123D01*
X146037257Y-79547286D01*
X145933117Y-79703143D01*
X145891933Y-79703143D01*
X145691974Y-79742917D01*
X145567840Y-79794335D01*
X145506705Y-79646744D01*
X145393437Y-79477226D01*
X145349287Y-79433076D01*
X145381964Y-79268794D01*
X145381964Y-79064916D01*
X145342190Y-78864957D01*
X145304706Y-78774461D01*
X153549400Y-78774461D01*
X153549400Y-78978339D01*
X153589174Y-79178298D01*
X153667195Y-79366656D01*
X153780463Y-79536174D01*
X153924626Y-79680337D01*
X154094144Y-79793605D01*
X154282502Y-79871626D01*
X154482461Y-79911400D01*
X154686339Y-79911400D01*
X154886298Y-79871626D01*
X155074656Y-79793605D01*
X155244174Y-79680337D01*
X155388337Y-79536174D01*
X155501605Y-79366656D01*
X155579626Y-79178298D01*
X155596218Y-79094883D01*
X155730933Y-79039082D01*
X155900451Y-78925814D01*
X156044614Y-78781651D01*
X156157882Y-78612133D01*
X156235903Y-78423775D01*
X156275677Y-78223816D01*
X156275677Y-78019938D01*
X156235903Y-77819979D01*
X156157882Y-77631621D01*
X156044614Y-77462103D01*
X155900451Y-77317940D01*
X155730933Y-77204672D01*
X155542575Y-77126651D01*
X155342616Y-77086877D01*
X155138738Y-77086877D01*
X154938779Y-77126651D01*
X154750421Y-77204672D01*
X154580903Y-77317940D01*
X154436740Y-77462103D01*
X154323472Y-77631621D01*
X154245451Y-77819979D01*
X154228859Y-77903394D01*
X154094144Y-77959195D01*
X153924626Y-78072463D01*
X153780463Y-78216626D01*
X153667195Y-78386144D01*
X153589174Y-78574502D01*
X153549400Y-78774461D01*
X145304706Y-78774461D01*
X145264169Y-78676599D01*
X145150901Y-78507081D01*
X145006738Y-78362918D01*
X144837220Y-78249650D01*
X144648862Y-78171629D01*
X144448903Y-78131855D01*
X144245025Y-78131855D01*
X144045066Y-78171629D01*
X143919188Y-78223770D01*
X143887147Y-78062686D01*
X143812896Y-77883428D01*
X143705099Y-77722099D01*
X143567901Y-77584901D01*
X143471461Y-77520461D01*
X147910600Y-77520461D01*
X147910600Y-77724339D01*
X147950374Y-77924298D01*
X148028395Y-78112656D01*
X148141663Y-78282174D01*
X148285826Y-78426337D01*
X148455344Y-78539605D01*
X148643702Y-78617626D01*
X148843661Y-78657400D01*
X149047539Y-78657400D01*
X149247498Y-78617626D01*
X149435856Y-78539605D01*
X149605374Y-78426337D01*
X149749537Y-78282174D01*
X149862805Y-78112656D01*
X149940826Y-77924298D01*
X149980600Y-77724339D01*
X149980600Y-77520461D01*
X149940826Y-77320502D01*
X149862805Y-77132144D01*
X149765864Y-76987061D01*
X158350000Y-76987061D01*
X158350000Y-77190939D01*
X158389774Y-77390898D01*
X158467795Y-77579256D01*
X158581063Y-77748774D01*
X158725226Y-77892937D01*
X158894744Y-78006205D01*
X159083102Y-78084226D01*
X159283061Y-78124000D01*
X159486939Y-78124000D01*
X159686898Y-78084226D01*
X159875256Y-78006205D01*
X160020000Y-77909490D01*
X160164744Y-78006205D01*
X160353102Y-78084226D01*
X160553061Y-78124000D01*
X160756939Y-78124000D01*
X160956898Y-78084226D01*
X161145256Y-78006205D01*
X161314774Y-77892937D01*
X161458937Y-77748774D01*
X161572205Y-77579256D01*
X161650226Y-77390898D01*
X161690000Y-77190939D01*
X161690000Y-76987061D01*
X161650226Y-76787102D01*
X161572205Y-76598744D01*
X161458937Y-76429226D01*
X161314774Y-76285063D01*
X161145256Y-76171795D01*
X160956898Y-76093774D01*
X160756939Y-76054000D01*
X160553061Y-76054000D01*
X160353102Y-76093774D01*
X160164744Y-76171795D01*
X160020000Y-76268510D01*
X159875256Y-76171795D01*
X159686898Y-76093774D01*
X159486939Y-76054000D01*
X159283061Y-76054000D01*
X159083102Y-76093774D01*
X158894744Y-76171795D01*
X158725226Y-76285063D01*
X158581063Y-76429226D01*
X158467795Y-76598744D01*
X158389774Y-76787102D01*
X158350000Y-76987061D01*
X149765864Y-76987061D01*
X149749537Y-76962626D01*
X149605374Y-76818463D01*
X149435856Y-76705195D01*
X149247498Y-76627174D01*
X149047539Y-76587400D01*
X148843661Y-76587400D01*
X148643702Y-76627174D01*
X148455344Y-76705195D01*
X148285826Y-76818463D01*
X148141663Y-76962626D01*
X148028395Y-77132144D01*
X147950374Y-77320502D01*
X147910600Y-77520461D01*
X143471461Y-77520461D01*
X143406572Y-77477104D01*
X143227314Y-77402853D01*
X143037014Y-77365000D01*
X142844000Y-77365000D01*
X142844000Y-77245986D01*
X142806147Y-77055686D01*
X142731896Y-76876428D01*
X142624099Y-76715099D01*
X142486901Y-76577901D01*
X142325572Y-76470104D01*
X142146314Y-76395853D01*
X141956014Y-76358000D01*
X141761986Y-76358000D01*
X141571686Y-76395853D01*
X141392428Y-76470104D01*
X141231099Y-76577901D01*
X141093901Y-76715099D01*
X140986104Y-76876428D01*
X140911853Y-77055686D01*
X140874000Y-77245986D01*
X136871305Y-77245986D01*
X136887940Y-77205827D01*
X136927714Y-77005868D01*
X136927714Y-76801990D01*
X136887940Y-76602031D01*
X136809919Y-76413673D01*
X136696651Y-76244155D01*
X136552488Y-76099992D01*
X136480500Y-76051891D01*
X136480500Y-75907561D01*
X136467870Y-75844061D01*
X143046500Y-75844061D01*
X143046500Y-76047939D01*
X143086274Y-76247898D01*
X143164295Y-76436256D01*
X143277563Y-76605774D01*
X143421726Y-76749937D01*
X143591244Y-76863205D01*
X143779602Y-76941226D01*
X143979561Y-76981000D01*
X144183439Y-76981000D01*
X144383398Y-76941226D01*
X144571756Y-76863205D01*
X144690750Y-76783696D01*
X144809744Y-76863205D01*
X144998102Y-76941226D01*
X145198061Y-76981000D01*
X145401939Y-76981000D01*
X145601898Y-76941226D01*
X145790256Y-76863205D01*
X145959774Y-76749937D01*
X146103937Y-76605774D01*
X146217205Y-76436256D01*
X146295226Y-76247898D01*
X146335000Y-76047939D01*
X146335000Y-75844061D01*
X146295226Y-75644102D01*
X146217205Y-75455744D01*
X146103937Y-75286226D01*
X145959774Y-75142063D01*
X145823959Y-75051315D01*
X145948061Y-75076000D01*
X146151939Y-75076000D01*
X146351898Y-75036226D01*
X146540256Y-74958205D01*
X146709774Y-74844937D01*
X146853937Y-74700774D01*
X146967205Y-74531256D01*
X147045226Y-74342898D01*
X147085000Y-74142939D01*
X147085000Y-74036777D01*
X148311800Y-74036777D01*
X148311800Y-74240655D01*
X148351574Y-74440614D01*
X148429595Y-74628972D01*
X148542863Y-74798490D01*
X148687026Y-74942653D01*
X148856544Y-75055921D01*
X149044902Y-75133942D01*
X149244861Y-75173716D01*
X149448739Y-75173716D01*
X149648698Y-75133942D01*
X149837056Y-75055921D01*
X150006574Y-74942653D01*
X150070366Y-74878861D01*
X152635000Y-74878861D01*
X152635000Y-75082739D01*
X152674774Y-75282698D01*
X152752795Y-75471056D01*
X152866063Y-75640574D01*
X153010226Y-75784737D01*
X153179744Y-75898005D01*
X153368102Y-75976026D01*
X153568061Y-76015800D01*
X153771939Y-76015800D01*
X153971898Y-75976026D01*
X154160256Y-75898005D01*
X154190786Y-75877605D01*
X154297344Y-75948805D01*
X154485702Y-76026826D01*
X154685661Y-76066600D01*
X154889539Y-76066600D01*
X155089498Y-76026826D01*
X155277856Y-75948805D01*
X155422600Y-75852090D01*
X155567344Y-75948805D01*
X155755702Y-76026826D01*
X155955661Y-76066600D01*
X156159539Y-76066600D01*
X156359498Y-76026826D01*
X156547856Y-75948805D01*
X156717374Y-75835537D01*
X156861537Y-75691374D01*
X156974805Y-75521856D01*
X157052826Y-75333498D01*
X157092600Y-75133539D01*
X157092600Y-74929661D01*
X157052826Y-74729702D01*
X156974805Y-74541344D01*
X156861537Y-74371826D01*
X156717374Y-74227663D01*
X156547856Y-74114395D01*
X156359498Y-74036374D01*
X156159539Y-73996600D01*
X155955661Y-73996600D01*
X155755702Y-74036374D01*
X155567344Y-74114395D01*
X155422600Y-74211110D01*
X155277856Y-74114395D01*
X155089498Y-74036374D01*
X154889539Y-73996600D01*
X154685661Y-73996600D01*
X154485702Y-74036374D01*
X154297344Y-74114395D01*
X154266814Y-74134795D01*
X154160256Y-74063595D01*
X153971898Y-73985574D01*
X153771939Y-73945800D01*
X153568061Y-73945800D01*
X153368102Y-73985574D01*
X153179744Y-74063595D01*
X153010226Y-74176863D01*
X152866063Y-74321026D01*
X152752795Y-74490544D01*
X152674774Y-74678902D01*
X152635000Y-74878861D01*
X150070366Y-74878861D01*
X150150737Y-74798490D01*
X150264005Y-74628972D01*
X150342026Y-74440614D01*
X150381800Y-74240655D01*
X150381800Y-74036777D01*
X150342026Y-73836818D01*
X150264005Y-73648460D01*
X150150737Y-73478942D01*
X150006574Y-73334779D01*
X149837056Y-73221511D01*
X149648698Y-73143490D01*
X149448739Y-73103716D01*
X149244861Y-73103716D01*
X149044902Y-73143490D01*
X148856544Y-73221511D01*
X148687026Y-73334779D01*
X148542863Y-73478942D01*
X148429595Y-73648460D01*
X148351574Y-73836818D01*
X148311800Y-74036777D01*
X147085000Y-74036777D01*
X147085000Y-73939061D01*
X147045226Y-73739102D01*
X146967205Y-73550744D01*
X146853937Y-73381226D01*
X146709774Y-73237063D01*
X146540256Y-73123795D01*
X146351898Y-73045774D01*
X146151939Y-73006000D01*
X145948061Y-73006000D01*
X145748102Y-73045774D01*
X145559744Y-73123795D01*
X145390226Y-73237063D01*
X145246063Y-73381226D01*
X145132795Y-73550744D01*
X145054774Y-73739102D01*
X145015000Y-73939061D01*
X145015000Y-74142939D01*
X145054774Y-74342898D01*
X145132795Y-74531256D01*
X145246063Y-74700774D01*
X145390226Y-74844937D01*
X145526041Y-74935685D01*
X145401939Y-74911000D01*
X145198061Y-74911000D01*
X144998102Y-74950774D01*
X144809744Y-75028795D01*
X144690750Y-75108304D01*
X144571756Y-75028795D01*
X144383398Y-74950774D01*
X144183439Y-74911000D01*
X143979561Y-74911000D01*
X143779602Y-74950774D01*
X143591244Y-75028795D01*
X143421726Y-75142063D01*
X143277563Y-75286226D01*
X143164295Y-75455744D01*
X143086274Y-75644102D01*
X143046500Y-75844061D01*
X136467870Y-75844061D01*
X136440726Y-75707602D01*
X136362705Y-75519244D01*
X136249437Y-75349726D01*
X136105274Y-75205563D01*
X135935756Y-75092295D01*
X135747398Y-75014274D01*
X135547439Y-74974500D01*
X135343561Y-74974500D01*
X135143602Y-75014274D01*
X134955244Y-75092295D01*
X134785726Y-75205563D01*
X134641563Y-75349726D01*
X134528295Y-75519244D01*
X134450274Y-75707602D01*
X134410500Y-75907561D01*
X134410500Y-76111439D01*
X134450274Y-76311398D01*
X134528295Y-76499756D01*
X134641563Y-76669274D01*
X134785726Y-76813437D01*
X134857714Y-76861538D01*
X134857714Y-77005868D01*
X134897488Y-77205827D01*
X134975509Y-77394185D01*
X135055708Y-77514211D01*
X135022584Y-77594178D01*
X134982810Y-77794137D01*
X134982810Y-77998015D01*
X135022584Y-78197974D01*
X135093840Y-78370000D01*
X134962986Y-78370000D01*
X134772686Y-78407853D01*
X134593428Y-78482104D01*
X134432099Y-78589901D01*
X134294901Y-78727099D01*
X134187104Y-78888428D01*
X134112853Y-79067686D01*
X134075000Y-79257986D01*
X130453716Y-79257986D01*
X130517901Y-79215099D01*
X130655099Y-79077901D01*
X130762896Y-78916572D01*
X130837147Y-78737314D01*
X130875000Y-78547014D01*
X130875000Y-78352986D01*
X130837147Y-78162686D01*
X130762896Y-77983428D01*
X130655099Y-77822099D01*
X130517901Y-77684901D01*
X130356572Y-77577104D01*
X130177314Y-77502853D01*
X129987014Y-77465000D01*
X129792986Y-77465000D01*
X129602686Y-77502853D01*
X129511709Y-77540537D01*
X129506572Y-77537104D01*
X129327314Y-77462853D01*
X129137014Y-77425000D01*
X128942986Y-77425000D01*
X128752686Y-77462853D01*
X128573428Y-77537104D01*
X128412099Y-77644901D01*
X128274901Y-77782099D01*
X128167104Y-77943428D01*
X128092853Y-78122686D01*
X128055000Y-78312986D01*
X127100800Y-78312986D01*
X127100800Y-72472986D01*
X132895000Y-72472986D01*
X132895000Y-72667014D01*
X132932853Y-72857314D01*
X133007104Y-73036572D01*
X133114901Y-73197901D01*
X133252099Y-73335099D01*
X133413428Y-73442896D01*
X133592686Y-73517147D01*
X133782986Y-73555000D01*
X133977014Y-73555000D01*
X134164672Y-73517672D01*
X134262099Y-73615099D01*
X134423428Y-73722896D01*
X134602686Y-73797147D01*
X134792986Y-73835000D01*
X134987014Y-73835000D01*
X135177314Y-73797147D01*
X135356572Y-73722896D01*
X135517901Y-73615099D01*
X135655099Y-73477901D01*
X135725390Y-73372704D01*
X135832686Y-73417147D01*
X136022986Y-73455000D01*
X136217014Y-73455000D01*
X136407314Y-73417147D01*
X136586572Y-73342896D01*
X136747901Y-73235099D01*
X136885099Y-73097901D01*
X136992896Y-72936572D01*
X137067147Y-72757314D01*
X137105000Y-72567014D01*
X137105000Y-72542061D01*
X138474500Y-72542061D01*
X138474500Y-72745939D01*
X138514274Y-72945898D01*
X138592295Y-73134256D01*
X138705563Y-73303774D01*
X138849726Y-73447937D01*
X139019244Y-73561205D01*
X139207602Y-73639226D01*
X139407561Y-73679000D01*
X139611439Y-73679000D01*
X139811398Y-73639226D01*
X139999756Y-73561205D01*
X140169274Y-73447937D01*
X140313437Y-73303774D01*
X140426705Y-73134256D01*
X140504726Y-72945898D01*
X140541577Y-72760634D01*
X140581344Y-72787205D01*
X140769702Y-72865226D01*
X140969661Y-72905000D01*
X141173539Y-72905000D01*
X141373498Y-72865226D01*
X141540475Y-72796061D01*
X153016000Y-72796061D01*
X153016000Y-72999939D01*
X153055774Y-73199898D01*
X153133795Y-73388256D01*
X153247063Y-73557774D01*
X153391226Y-73701937D01*
X153560744Y-73815205D01*
X153749102Y-73893226D01*
X153949061Y-73933000D01*
X154152939Y-73933000D01*
X154352898Y-73893226D01*
X154541256Y-73815205D01*
X154686000Y-73718490D01*
X154830744Y-73815205D01*
X155019102Y-73893226D01*
X155219061Y-73933000D01*
X155422939Y-73933000D01*
X155622898Y-73893226D01*
X155811256Y-73815205D01*
X155980774Y-73701937D01*
X156124937Y-73557774D01*
X156238205Y-73388256D01*
X156316226Y-73199898D01*
X156356000Y-72999939D01*
X156356000Y-72796061D01*
X156316226Y-72596102D01*
X156238205Y-72407744D01*
X156124937Y-72238226D01*
X155980774Y-72094063D01*
X155811256Y-71980795D01*
X155622898Y-71902774D01*
X155422939Y-71863000D01*
X155219061Y-71863000D01*
X155019102Y-71902774D01*
X154830744Y-71980795D01*
X154686000Y-72077510D01*
X154541256Y-71980795D01*
X154352898Y-71902774D01*
X154152939Y-71863000D01*
X153949061Y-71863000D01*
X153749102Y-71902774D01*
X153560744Y-71980795D01*
X153391226Y-72094063D01*
X153247063Y-72238226D01*
X153133795Y-72407744D01*
X153055774Y-72596102D01*
X153016000Y-72796061D01*
X141540475Y-72796061D01*
X141561856Y-72787205D01*
X141731374Y-72673937D01*
X141875537Y-72529774D01*
X141988805Y-72360256D01*
X142066826Y-72171898D01*
X142106600Y-71971939D01*
X142106600Y-71768061D01*
X142083726Y-71653061D01*
X150476000Y-71653061D01*
X150476000Y-71856939D01*
X150515774Y-72056898D01*
X150593795Y-72245256D01*
X150707063Y-72414774D01*
X150851226Y-72558937D01*
X151020744Y-72672205D01*
X151209102Y-72750226D01*
X151409061Y-72790000D01*
X151612939Y-72790000D01*
X151812898Y-72750226D01*
X152001256Y-72672205D01*
X152170774Y-72558937D01*
X152314937Y-72414774D01*
X152428205Y-72245256D01*
X152506226Y-72056898D01*
X152546000Y-71856939D01*
X152546000Y-71653061D01*
X152506226Y-71453102D01*
X152428205Y-71264744D01*
X152314937Y-71095226D01*
X152170774Y-70951063D01*
X152001256Y-70837795D01*
X151996923Y-70836000D01*
X190847928Y-70836000D01*
X190847928Y-73436000D01*
X190860188Y-73560482D01*
X190896498Y-73680180D01*
X190955463Y-73790494D01*
X191034815Y-73887185D01*
X191131506Y-73966537D01*
X191241820Y-74025502D01*
X191361518Y-74061812D01*
X191486000Y-74074072D01*
X194086000Y-74074072D01*
X194210482Y-74061812D01*
X194330180Y-74025502D01*
X194440494Y-73966537D01*
X194537185Y-73887185D01*
X194616537Y-73790494D01*
X194675502Y-73680180D01*
X194711812Y-73560482D01*
X194724072Y-73436000D01*
X194724072Y-70836000D01*
X194711812Y-70711518D01*
X194675502Y-70591820D01*
X194616537Y-70481506D01*
X194537185Y-70384815D01*
X194440494Y-70305463D01*
X194330180Y-70246498D01*
X194210482Y-70210188D01*
X194086000Y-70197928D01*
X191486000Y-70197928D01*
X191361518Y-70210188D01*
X191241820Y-70246498D01*
X191131506Y-70305463D01*
X191034815Y-70384815D01*
X190955463Y-70481506D01*
X190896498Y-70591820D01*
X190860188Y-70711518D01*
X190847928Y-70836000D01*
X151996923Y-70836000D01*
X151812898Y-70759774D01*
X151612939Y-70720000D01*
X151409061Y-70720000D01*
X151209102Y-70759774D01*
X151020744Y-70837795D01*
X150851226Y-70951063D01*
X150707063Y-71095226D01*
X150593795Y-71264744D01*
X150515774Y-71453102D01*
X150476000Y-71653061D01*
X142083726Y-71653061D01*
X142066826Y-71568102D01*
X141988805Y-71379744D01*
X141875537Y-71210226D01*
X141731374Y-71066063D01*
X141561856Y-70952795D01*
X141373498Y-70874774D01*
X141173539Y-70835000D01*
X140969661Y-70835000D01*
X140769702Y-70874774D01*
X140581344Y-70952795D01*
X140411826Y-71066063D01*
X140267663Y-71210226D01*
X140154395Y-71379744D01*
X140076374Y-71568102D01*
X140039523Y-71753366D01*
X139999756Y-71726795D01*
X139811398Y-71648774D01*
X139611439Y-71609000D01*
X139407561Y-71609000D01*
X139207602Y-71648774D01*
X139019244Y-71726795D01*
X138849726Y-71840063D01*
X138705563Y-71984226D01*
X138592295Y-72153744D01*
X138514274Y-72342102D01*
X138474500Y-72542061D01*
X137105000Y-72542061D01*
X137105000Y-72372986D01*
X137067147Y-72182686D01*
X136992896Y-72003428D01*
X136885099Y-71842099D01*
X136747901Y-71704901D01*
X136586572Y-71597104D01*
X136407314Y-71522853D01*
X136217014Y-71485000D01*
X136022986Y-71485000D01*
X135832686Y-71522853D01*
X135653428Y-71597104D01*
X135492099Y-71704901D01*
X135354901Y-71842099D01*
X135284610Y-71947296D01*
X135177314Y-71902853D01*
X134987014Y-71865000D01*
X134792986Y-71865000D01*
X134605328Y-71902328D01*
X134507901Y-71804901D01*
X134346572Y-71697104D01*
X134167314Y-71622853D01*
X133977014Y-71585000D01*
X133782986Y-71585000D01*
X133592686Y-71622853D01*
X133413428Y-71697104D01*
X133252099Y-71804901D01*
X133114901Y-71942099D01*
X133007104Y-72103428D01*
X132932853Y-72282686D01*
X132895000Y-72472986D01*
X127100800Y-72472986D01*
X127100800Y-70242986D01*
X136395000Y-70242986D01*
X136395000Y-70437014D01*
X136432853Y-70627314D01*
X136507104Y-70806572D01*
X136614901Y-70967901D01*
X136752099Y-71105099D01*
X136913428Y-71212896D01*
X137092686Y-71287147D01*
X137282986Y-71325000D01*
X137477014Y-71325000D01*
X137667314Y-71287147D01*
X137846572Y-71212896D01*
X138007901Y-71105099D01*
X138145099Y-70967901D01*
X138252896Y-70806572D01*
X138327147Y-70627314D01*
X138365000Y-70437014D01*
X138365000Y-70242986D01*
X138327147Y-70052686D01*
X138252896Y-69873428D01*
X138145099Y-69712099D01*
X138007901Y-69574901D01*
X137846572Y-69467104D01*
X137667314Y-69392853D01*
X137477014Y-69355000D01*
X137282986Y-69355000D01*
X137092686Y-69392853D01*
X136913428Y-69467104D01*
X136752099Y-69574901D01*
X136614901Y-69712099D01*
X136507104Y-69873428D01*
X136432853Y-70052686D01*
X136395000Y-70242986D01*
X127100800Y-70242986D01*
X127100800Y-68528861D01*
X135007400Y-68528861D01*
X135007400Y-68732739D01*
X135047174Y-68932698D01*
X135125195Y-69121056D01*
X135238463Y-69290574D01*
X135382626Y-69434737D01*
X135552144Y-69548005D01*
X135740502Y-69626026D01*
X135940461Y-69665800D01*
X136144339Y-69665800D01*
X136344298Y-69626026D01*
X136532656Y-69548005D01*
X136702174Y-69434737D01*
X136846337Y-69290574D01*
X136959605Y-69121056D01*
X137037626Y-68932698D01*
X137038716Y-68927214D01*
X141136847Y-68927214D01*
X141136847Y-69131092D01*
X141176621Y-69331051D01*
X141254642Y-69519409D01*
X141367910Y-69688927D01*
X141512073Y-69833090D01*
X141681591Y-69946358D01*
X141869949Y-70024379D01*
X142069908Y-70064153D01*
X142273786Y-70064153D01*
X142473745Y-70024379D01*
X142662103Y-69946358D01*
X142831621Y-69833090D01*
X142975784Y-69688927D01*
X143089052Y-69519409D01*
X143167073Y-69331051D01*
X143206847Y-69131092D01*
X143206847Y-68927214D01*
X143167073Y-68727255D01*
X143089052Y-68538897D01*
X143035776Y-68459163D01*
X143043111Y-68460622D01*
X143246989Y-68460622D01*
X143446948Y-68420848D01*
X143635306Y-68342827D01*
X143804824Y-68229559D01*
X143948987Y-68085396D01*
X144062255Y-67915878D01*
X144140276Y-67727520D01*
X144175176Y-67552061D01*
X147010000Y-67552061D01*
X147010000Y-67755939D01*
X147049774Y-67955898D01*
X147127795Y-68144256D01*
X147241063Y-68313774D01*
X147268253Y-68340964D01*
X147266395Y-68343744D01*
X147188374Y-68532102D01*
X147148600Y-68732061D01*
X147148600Y-68935939D01*
X147188374Y-69135898D01*
X147266395Y-69324256D01*
X147379663Y-69493774D01*
X147523826Y-69637937D01*
X147693344Y-69751205D01*
X147881702Y-69829226D01*
X148081661Y-69869000D01*
X148285539Y-69869000D01*
X148485498Y-69829226D01*
X148673856Y-69751205D01*
X148843374Y-69637937D01*
X148987537Y-69493774D01*
X149006045Y-69466075D01*
X149118365Y-69634174D01*
X149262528Y-69778337D01*
X149432046Y-69891605D01*
X149620404Y-69969626D01*
X149820363Y-70009400D01*
X150024241Y-70009400D01*
X150224200Y-69969626D01*
X150412558Y-69891605D01*
X150582076Y-69778337D01*
X150726239Y-69634174D01*
X150839507Y-69464656D01*
X150917528Y-69276298D01*
X150957302Y-69076339D01*
X150957302Y-68872461D01*
X150917528Y-68672502D01*
X150839507Y-68484144D01*
X150726239Y-68314626D01*
X150582076Y-68170463D01*
X150412558Y-68057195D01*
X150331427Y-68023589D01*
X150370805Y-67964656D01*
X150448826Y-67776298D01*
X150488600Y-67576339D01*
X150488600Y-67462061D01*
X166097000Y-67462061D01*
X166097000Y-67665939D01*
X166136774Y-67865898D01*
X166214795Y-68054256D01*
X166328063Y-68223774D01*
X166472226Y-68367937D01*
X166641744Y-68481205D01*
X166830102Y-68559226D01*
X167030061Y-68599000D01*
X167233939Y-68599000D01*
X167433898Y-68559226D01*
X167622256Y-68481205D01*
X167791774Y-68367937D01*
X167830500Y-68329211D01*
X167869226Y-68367937D01*
X168038744Y-68481205D01*
X168227102Y-68559226D01*
X168427061Y-68599000D01*
X168630939Y-68599000D01*
X168830898Y-68559226D01*
X169019256Y-68481205D01*
X169188774Y-68367937D01*
X169332937Y-68223774D01*
X169446205Y-68054256D01*
X169524226Y-67865898D01*
X169564000Y-67665939D01*
X169564000Y-67462061D01*
X169524226Y-67262102D01*
X169446205Y-67073744D01*
X169427502Y-67045753D01*
X169476147Y-66928314D01*
X169488657Y-66865419D01*
X190851000Y-66865419D01*
X190851000Y-67246581D01*
X190925361Y-67620419D01*
X191071225Y-67972566D01*
X191282987Y-68289491D01*
X191552509Y-68559013D01*
X191869434Y-68770775D01*
X192221581Y-68916639D01*
X192595419Y-68991000D01*
X192976581Y-68991000D01*
X193350419Y-68916639D01*
X193702566Y-68770775D01*
X194019491Y-68559013D01*
X194216802Y-68361702D01*
X194227104Y-68386572D01*
X194334901Y-68547901D01*
X194472099Y-68685099D01*
X194633428Y-68792896D01*
X194812686Y-68867147D01*
X195002986Y-68905000D01*
X195197014Y-68905000D01*
X195387314Y-68867147D01*
X195543088Y-68802623D01*
X195573428Y-68822896D01*
X195752686Y-68897147D01*
X195942986Y-68935000D01*
X196137014Y-68935000D01*
X196327314Y-68897147D01*
X196480064Y-68833876D01*
X196553428Y-68882896D01*
X196732686Y-68957147D01*
X196922986Y-68995000D01*
X197117014Y-68995000D01*
X197307314Y-68957147D01*
X197486572Y-68882896D01*
X197647901Y-68775099D01*
X197785099Y-68637901D01*
X197892896Y-68476572D01*
X197967147Y-68297314D01*
X198005000Y-68107014D01*
X198005000Y-67912986D01*
X197967147Y-67722686D01*
X197892896Y-67543428D01*
X197852151Y-67482449D01*
X197922896Y-67376572D01*
X197997147Y-67197314D01*
X198035000Y-67007014D01*
X198035000Y-66812986D01*
X197997147Y-66622686D01*
X197922896Y-66443428D01*
X197872196Y-66367551D01*
X197892896Y-66336572D01*
X197967147Y-66157314D01*
X198005000Y-65967014D01*
X198005000Y-65772986D01*
X197967147Y-65582686D01*
X197892896Y-65403428D01*
X197785099Y-65242099D01*
X197647901Y-65104901D01*
X197486572Y-64997104D01*
X197307314Y-64922853D01*
X197117014Y-64885000D01*
X196922986Y-64885000D01*
X196732686Y-64922853D01*
X196553428Y-64997104D01*
X196497517Y-65034463D01*
X196456572Y-65007104D01*
X196277314Y-64932853D01*
X196087014Y-64895000D01*
X195892986Y-64895000D01*
X195702686Y-64932853D01*
X195562366Y-64990975D01*
X195556572Y-64987104D01*
X195377314Y-64912853D01*
X195187014Y-64875000D01*
X194992986Y-64875000D01*
X194802686Y-64912853D01*
X194623428Y-64987104D01*
X194462099Y-65094901D01*
X194324901Y-65232099D01*
X194217104Y-65393428D01*
X194142853Y-65572686D01*
X194125654Y-65659150D01*
X194019491Y-65552987D01*
X193702566Y-65341225D01*
X193350419Y-65195361D01*
X192976581Y-65121000D01*
X192595419Y-65121000D01*
X192221581Y-65195361D01*
X191869434Y-65341225D01*
X191552509Y-65552987D01*
X191282987Y-65822509D01*
X191071225Y-66139434D01*
X190925361Y-66491581D01*
X190851000Y-66865419D01*
X169488657Y-66865419D01*
X169514000Y-66738014D01*
X169514000Y-66543986D01*
X169476147Y-66353686D01*
X169401896Y-66174428D01*
X169294099Y-66013099D01*
X169156901Y-65875901D01*
X168995572Y-65768104D01*
X168816314Y-65693853D01*
X168626014Y-65656000D01*
X168431986Y-65656000D01*
X168241686Y-65693853D01*
X168062428Y-65768104D01*
X168051176Y-65775623D01*
X167929814Y-65725353D01*
X167739514Y-65687500D01*
X167545486Y-65687500D01*
X167355186Y-65725353D01*
X167175928Y-65799604D01*
X167014599Y-65907401D01*
X166877401Y-66044599D01*
X166769604Y-66205928D01*
X166695353Y-66385186D01*
X166657500Y-66575486D01*
X166657500Y-66640269D01*
X166641744Y-66646795D01*
X166472226Y-66760063D01*
X166328063Y-66904226D01*
X166214795Y-67073744D01*
X166136774Y-67262102D01*
X166097000Y-67462061D01*
X150488600Y-67462061D01*
X150488600Y-67372461D01*
X150479955Y-67329000D01*
X150596939Y-67329000D01*
X150796898Y-67289226D01*
X150985256Y-67211205D01*
X151154774Y-67097937D01*
X151298937Y-66953774D01*
X151412205Y-66784256D01*
X151490226Y-66595898D01*
X151530000Y-66395939D01*
X151530000Y-66192061D01*
X151490226Y-65992102D01*
X151412205Y-65803744D01*
X151298937Y-65634226D01*
X151154774Y-65490063D01*
X150985256Y-65376795D01*
X150796898Y-65298774D01*
X150596939Y-65259000D01*
X150393061Y-65259000D01*
X150193102Y-65298774D01*
X150004744Y-65376795D01*
X149835226Y-65490063D01*
X149691063Y-65634226D01*
X149577795Y-65803744D01*
X149499774Y-65992102D01*
X149460000Y-66192061D01*
X149460000Y-66395939D01*
X149468645Y-66439400D01*
X149351661Y-66439400D01*
X149151702Y-66479174D01*
X148963344Y-66557195D01*
X148793826Y-66670463D01*
X148650494Y-66813795D01*
X148535256Y-66736795D01*
X148346898Y-66658774D01*
X148146939Y-66619000D01*
X147943061Y-66619000D01*
X147743102Y-66658774D01*
X147554744Y-66736795D01*
X147385226Y-66850063D01*
X147241063Y-66994226D01*
X147127795Y-67163744D01*
X147049774Y-67352102D01*
X147010000Y-67552061D01*
X144175176Y-67552061D01*
X144180050Y-67527561D01*
X144180050Y-67323683D01*
X144140276Y-67123724D01*
X144062255Y-66935366D01*
X143948987Y-66765848D01*
X143804824Y-66621685D01*
X143635306Y-66508417D01*
X143446948Y-66430396D01*
X143246989Y-66390622D01*
X143043111Y-66390622D01*
X142843152Y-66430396D01*
X142654794Y-66508417D01*
X142485276Y-66621685D01*
X142341113Y-66765848D01*
X142227845Y-66935366D01*
X142149824Y-67123724D01*
X142110050Y-67323683D01*
X142110050Y-67527561D01*
X142149824Y-67727520D01*
X142227845Y-67915878D01*
X142281121Y-67995612D01*
X142273786Y-67994153D01*
X142069908Y-67994153D01*
X141869949Y-68033927D01*
X141681591Y-68111948D01*
X141512073Y-68225216D01*
X141367910Y-68369379D01*
X141254642Y-68538897D01*
X141176621Y-68727255D01*
X141136847Y-68927214D01*
X137038716Y-68927214D01*
X137077400Y-68732739D01*
X137077400Y-68528861D01*
X137037626Y-68328902D01*
X136959605Y-68140544D01*
X136846337Y-67971026D01*
X136702174Y-67826863D01*
X136532656Y-67713595D01*
X136344298Y-67635574D01*
X136144339Y-67595800D01*
X135940461Y-67595800D01*
X135740502Y-67635574D01*
X135552144Y-67713595D01*
X135382626Y-67826863D01*
X135238463Y-67971026D01*
X135125195Y-68140544D01*
X135047174Y-68328902D01*
X135007400Y-68528861D01*
X127100800Y-68528861D01*
X127100800Y-65713990D01*
X127161995Y-65861727D01*
X127314880Y-66090535D01*
X127509465Y-66285120D01*
X127738273Y-66438005D01*
X127992510Y-66543314D01*
X128262408Y-66597000D01*
X128537592Y-66597000D01*
X128807490Y-66543314D01*
X129061727Y-66438005D01*
X129290535Y-66285120D01*
X129485120Y-66090535D01*
X129638005Y-65861727D01*
X129743314Y-65607490D01*
X129768502Y-65480861D01*
X135007400Y-65480861D01*
X135007400Y-65684739D01*
X135047174Y-65884698D01*
X135125195Y-66073056D01*
X135238463Y-66242574D01*
X135382626Y-66386737D01*
X135552144Y-66500005D01*
X135740502Y-66578026D01*
X135940461Y-66617800D01*
X136144339Y-66617800D01*
X136344298Y-66578026D01*
X136532656Y-66500005D01*
X136702174Y-66386737D01*
X136846337Y-66242574D01*
X136959605Y-66073056D01*
X137037626Y-65884698D01*
X137077400Y-65684739D01*
X137077400Y-65480861D01*
X137037626Y-65280902D01*
X136959605Y-65092544D01*
X136930551Y-65049061D01*
X142221000Y-65049061D01*
X142221000Y-65252939D01*
X142260774Y-65452898D01*
X142338795Y-65641256D01*
X142452063Y-65810774D01*
X142596226Y-65954937D01*
X142765744Y-66068205D01*
X142954102Y-66146226D01*
X143154061Y-66186000D01*
X143357939Y-66186000D01*
X143557898Y-66146226D01*
X143746256Y-66068205D01*
X143915774Y-65954937D01*
X144059937Y-65810774D01*
X144173205Y-65641256D01*
X144251226Y-65452898D01*
X144291000Y-65252939D01*
X144291000Y-65049061D01*
X144251226Y-64849102D01*
X144173205Y-64660744D01*
X144059937Y-64491226D01*
X143915774Y-64347063D01*
X143746256Y-64233795D01*
X143557898Y-64155774D01*
X143357939Y-64116000D01*
X143154061Y-64116000D01*
X142954102Y-64155774D01*
X142765744Y-64233795D01*
X142596226Y-64347063D01*
X142452063Y-64491226D01*
X142338795Y-64660744D01*
X142260774Y-64849102D01*
X142221000Y-65049061D01*
X136930551Y-65049061D01*
X136846337Y-64923026D01*
X136702174Y-64778863D01*
X136532656Y-64665595D01*
X136344298Y-64587574D01*
X136144339Y-64547800D01*
X135940461Y-64547800D01*
X135740502Y-64587574D01*
X135552144Y-64665595D01*
X135382626Y-64778863D01*
X135238463Y-64923026D01*
X135125195Y-65092544D01*
X135047174Y-65280902D01*
X135007400Y-65480861D01*
X129768502Y-65480861D01*
X129797000Y-65337592D01*
X129797000Y-65062408D01*
X129743314Y-64792510D01*
X129638005Y-64538273D01*
X129485120Y-64309465D01*
X129290535Y-64114880D01*
X129061727Y-63961995D01*
X128807490Y-63856686D01*
X128537592Y-63803000D01*
X128262408Y-63803000D01*
X127992510Y-63856686D01*
X127738273Y-63961995D01*
X127509465Y-64114880D01*
X127314880Y-64309465D01*
X127161995Y-64538273D01*
X127100800Y-64686010D01*
X127100800Y-60729117D01*
X127165000Y-60729117D01*
X127165000Y-61070883D01*
X127231675Y-61406081D01*
X127362463Y-61721831D01*
X127552337Y-62005998D01*
X127794002Y-62247663D01*
X128078169Y-62437537D01*
X128393919Y-62568325D01*
X128729117Y-62635000D01*
X129070883Y-62635000D01*
X129406081Y-62568325D01*
X129721831Y-62437537D01*
X130005998Y-62247663D01*
X130247663Y-62005998D01*
X130437537Y-61721831D01*
X130536184Y-61483675D01*
X132473700Y-61483675D01*
X132473700Y-61706325D01*
X132517137Y-61924696D01*
X132602341Y-62130398D01*
X132726039Y-62315524D01*
X132883476Y-62472961D01*
X133068602Y-62596659D01*
X133103224Y-62611000D01*
X133068602Y-62625341D01*
X132883476Y-62749039D01*
X132726039Y-62906476D01*
X132602341Y-63091602D01*
X132517137Y-63297304D01*
X132473700Y-63515675D01*
X132473700Y-63738325D01*
X132517137Y-63956696D01*
X132602341Y-64162398D01*
X132726039Y-64347524D01*
X132883476Y-64504961D01*
X133068602Y-64628659D01*
X133274304Y-64713863D01*
X133492675Y-64757300D01*
X133715325Y-64757300D01*
X133933696Y-64713863D01*
X134139398Y-64628659D01*
X134324524Y-64504961D01*
X134481961Y-64347524D01*
X134605659Y-64162398D01*
X134690863Y-63956696D01*
X134734300Y-63738325D01*
X134734300Y-63515675D01*
X134690863Y-63297304D01*
X134605659Y-63091602D01*
X134481961Y-62906476D01*
X134324524Y-62749039D01*
X134139398Y-62625341D01*
X134104776Y-62611000D01*
X134139398Y-62596659D01*
X134284543Y-62499675D01*
X137553700Y-62499675D01*
X137553700Y-62722325D01*
X137597137Y-62940696D01*
X137682341Y-63146398D01*
X137806039Y-63331524D01*
X137963476Y-63488961D01*
X138148602Y-63612659D01*
X138354304Y-63697863D01*
X138572675Y-63741300D01*
X138795325Y-63741300D01*
X139013696Y-63697863D01*
X139219398Y-63612659D01*
X139404524Y-63488961D01*
X139561961Y-63331524D01*
X139685659Y-63146398D01*
X139770863Y-62940696D01*
X139814300Y-62722325D01*
X139814300Y-62499675D01*
X139770863Y-62281304D01*
X139685659Y-62075602D01*
X139561961Y-61890476D01*
X139404524Y-61733039D01*
X139219398Y-61609341D01*
X139013696Y-61524137D01*
X138795325Y-61480700D01*
X138572675Y-61480700D01*
X138354304Y-61524137D01*
X138148602Y-61609341D01*
X137963476Y-61733039D01*
X137806039Y-61890476D01*
X137682341Y-62075602D01*
X137597137Y-62281304D01*
X137553700Y-62499675D01*
X134284543Y-62499675D01*
X134324524Y-62472961D01*
X134481961Y-62315524D01*
X134605659Y-62130398D01*
X134690863Y-61924696D01*
X134734300Y-61706325D01*
X134734300Y-61483675D01*
X134690863Y-61265304D01*
X134622960Y-61101371D01*
X134735857Y-61025936D01*
X134742374Y-61058698D01*
X134820395Y-61247056D01*
X134933663Y-61416574D01*
X135077826Y-61560737D01*
X135247344Y-61674005D01*
X135435702Y-61752026D01*
X135635661Y-61791800D01*
X135839539Y-61791800D01*
X136039498Y-61752026D01*
X136227856Y-61674005D01*
X136397374Y-61560737D01*
X136541537Y-61416574D01*
X136654805Y-61247056D01*
X136732826Y-61058698D01*
X136772600Y-60858739D01*
X136772600Y-60654861D01*
X136732826Y-60454902D01*
X136654805Y-60266544D01*
X136541537Y-60097026D01*
X136397374Y-59952863D01*
X136227856Y-59839595D01*
X136039498Y-59761574D01*
X135839539Y-59721800D01*
X135635661Y-59721800D01*
X135435702Y-59761574D01*
X135247344Y-59839595D01*
X135113743Y-59928864D01*
X135107226Y-59896102D01*
X135029205Y-59707744D01*
X134915937Y-59538226D01*
X134771774Y-59394063D01*
X134602256Y-59280795D01*
X134413898Y-59202774D01*
X134213939Y-59163000D01*
X134010061Y-59163000D01*
X133810102Y-59202774D01*
X133621744Y-59280795D01*
X133452226Y-59394063D01*
X133308063Y-59538226D01*
X133194795Y-59707744D01*
X133116774Y-59896102D01*
X133077000Y-60096061D01*
X133077000Y-60299939D01*
X133116774Y-60499898D01*
X133142757Y-60562625D01*
X133068602Y-60593341D01*
X132883476Y-60717039D01*
X132726039Y-60874476D01*
X132602341Y-61059602D01*
X132517137Y-61265304D01*
X132473700Y-61483675D01*
X130536184Y-61483675D01*
X130568325Y-61406081D01*
X130635000Y-61070883D01*
X130635000Y-60729117D01*
X130568325Y-60393919D01*
X130437537Y-60078169D01*
X130247663Y-59794002D01*
X130005998Y-59552337D01*
X129721831Y-59362463D01*
X129406081Y-59231675D01*
X129070883Y-59165000D01*
X128729117Y-59165000D01*
X128393919Y-59231675D01*
X128078169Y-59362463D01*
X127794002Y-59552337D01*
X127552337Y-59794002D01*
X127362463Y-60078169D01*
X127231675Y-60393919D01*
X127165000Y-60729117D01*
X127100800Y-60729117D01*
X127100800Y-59105000D01*
X141021997Y-59105000D01*
X140997089Y-59151599D01*
G37*
%TD.AperFunction*%
%TD*%
M02*
