M48
; DRILL file {KiCad (5.1.9)-1} date 08/25/22 12:46:11
; FORMAT={3:3/ absolute / metric / suppress leading zeros}
; #@! TF.CreationDate,2022-08-25T12:46:11+02:00
; #@! TF.GenerationSoftware,Kicad,Pcbnew,(5.1.9)-1
FMAT,2
METRIC,TZ
T1C0.300
T2C0.400
T3C0.600
T4C0.850
T5C1.000
T6C1.152
T7C1.300
T8C0.991
T9C2.200
%
G90
G05
T1
X129040Y-78410
X129100Y-81790
X129120Y-82890
X129570Y-86400
X129890Y-78450
X132860Y-81080
X133340Y-80030
X133460Y-84080
X133570Y-79180
X133880Y-72570
X134430Y-87230
X134710Y-84380
X134890Y-72850
X135060Y-79355
X135270Y-87200
X135825Y-84430
X135930Y-78880
X136120Y-72470
X137380Y-70340
X139039Y-83552
X139573Y-84836
X141859Y-77343
X142120Y-79930
X142940Y-78350
X144000Y-99250
X146450Y-94450
X147051Y-87162
X147422Y-86309
X149470Y-79480
X156220Y-87980
X157620Y-84950
X167642Y-66673
X168529Y-66641
X187040Y-83120
X187050Y-80920
X187050Y-81860
X187050Y-84120
X195090Y-65860
X195100Y-66890
X195100Y-67920
X195990Y-65880
X196040Y-66820
X196040Y-67950
X197020Y-65870
X197020Y-68010
X197050Y-66910
T2
X134112Y-60198
X135446Y-76010
X135738Y-60757
X135893Y-76904
X136018Y-77896
X136042Y-65583
X136042Y-68631
X136144Y-92710
X137414Y-94107
X137795Y-60198
X138049Y-83693
X138430Y-89789
X139319Y-91440
X139510Y-72644
X139700Y-85852
X140005Y-83261
X140462Y-87757
X140716Y-68326
X140716Y-86614
X140843Y-91313
X140844Y-65404
X141072Y-71870
X141097Y-69215
X141097Y-84455
X141732Y-94488
X142172Y-69029
X143145Y-67426
X143256Y-65151
X143256Y-86487
X143347Y-85141
X144082Y-75946
X144347Y-79167
X144590Y-80137
X145300Y-75946
X145352Y-82042
X145994Y-80738
X146050Y-74041
X146558Y-85090
X146841Y-80207
X146939Y-90170
X147566Y-81206
X148045Y-67654
X148184Y-68834
X148238Y-81947
X148590Y-90374
X148946Y-77622
X149230Y-80780
X149347Y-74139
X149454Y-67474
X149758Y-81839
X149922Y-68974
X150495Y-66294
X151511Y-71755
X151765Y-90374
X151892Y-62611
X151892Y-63627
X152527Y-72136
X153035Y-62611
X153035Y-63627
X153670Y-74981
X154051Y-72898
X154178Y-62611
X154178Y-63627
X154559Y-71882
X154584Y-78876
X154788Y-75032
X155241Y-78122
X155319Y-80876
X155321Y-62611
X155321Y-63627
X155321Y-72898
X156058Y-75032
X156464Y-62611
X156464Y-63627
X157480Y-62611
X157480Y-63627
X159385Y-77089
X160655Y-77089
X160782Y-60706
X161798Y-60706
X161900Y-86970
X162306Y-88595
X162814Y-60706
X165506Y-89560
X167005Y-60706
X167132Y-67564
X168148Y-60706
X168529Y-67564
X169291Y-60706
X176530Y-86360
X177292Y-86995
X178562Y-86995
X179039Y-98271
T4
X143144Y-62677
X148144Y-62677
T5
X149289Y-93345
X149289Y-95885
X151829Y-93345
X151829Y-95885
X154369Y-93345
X154369Y-95885
X156909Y-93345
X156909Y-95885
X159449Y-93345
X159449Y-95885
X161989Y-93345
X161989Y-95885
X164529Y-93345
X164529Y-95885
X167069Y-93345
X167069Y-95885
X169609Y-93345
X169609Y-95885
X172149Y-93345
X172149Y-95885
X174689Y-93345
X174689Y-95885
X177229Y-93345
X177229Y-95885
X179769Y-93345
X179769Y-95885
T6
X128400Y-65200
X133600Y-98600
X196400Y-98400
T7
X192786Y-61976
X192786Y-67056
X192786Y-72136
X192786Y-91694
X192786Y-96774
T8
X133604Y-61595
X133604Y-63627
X138684Y-62611
T9
X128900Y-60900
X128900Y-97900
X184400Y-60900
X184400Y-97900
T3
G00X142144Y-60327
M15
G01X142144Y-59627
M16
G05
G00X149144Y-59627
M15
G01X149144Y-60327
M16
G05
T0
M30
